<svg width="139" height="269" viewBox="0 0 139 269" fill="none" xmlns="http://www.w3.org/2000/svg">
<rect opacity="0.3" x="12" y="13" width="41" height="24" rx="12" fill="#880048"/>
<path d="M25.276 29H27.184L28.48 26.996L29.776 29H31.732L29.464 25.7L31.636 22.568H29.728L28.516 24.44L27.316 22.568H25.36L27.532 25.736L25.276 29Z" fill="white"/>
<path d="M33.7958 29H40.0118V27.404H36.3518L37.7198 26.348C39.2078 25.196 39.9278 24.5 39.9278 23.096C39.9278 21.5 38.7758 20.48 37.0358 20.48C35.5358 20.48 34.7318 21.092 33.9038 22.22L35.1998 23.264C35.8238 22.496 36.2678 22.136 36.9158 22.136C37.5758 22.136 38.0438 22.52 38.0438 23.228C38.0438 23.924 37.6358 24.38 36.5918 25.244L33.7958 27.536V29Z" fill="white"/>
<rect opacity="0.3" x="80" y="61" width="41" height="24" rx="12" fill="#880048"/>
<path d="M93.276 77H95.184L96.48 74.996L97.776 77H99.732L97.464 73.7L99.636 70.568H97.728L96.516 72.44L95.316 70.568H93.36L95.532 73.736L93.276 77Z" fill="white"/>
<path d="M105.984 77H107.748V75.188H108.876V73.688H107.748V68.54H106.188L101.58 73.88L101.88 75.188H105.984V77ZM103.752 73.688L105.984 71.072V73.688H103.752Z" fill="white"/>
<rect opacity="0.3" x="20" y="104" width="41" height="24" rx="12" fill="#880048"/>
<path d="M33.276 120H35.184L36.48 117.996L37.776 120H39.732L37.464 116.7L39.636 113.568H37.728L36.516 115.44L35.316 113.568H33.36L35.532 116.736L33.276 120Z" fill="white"/>
<path d="M44.9878 120.12C46.8478 120.12 48.2278 119.208 48.2278 117.648C48.2278 116.628 47.7238 116.088 46.8718 115.644C47.5198 115.248 47.9398 114.708 47.9398 113.808C47.9398 112.488 46.7638 111.48 44.9878 111.48C43.2118 111.48 42.0358 112.5 42.0358 113.784C42.0358 114.708 42.4558 115.248 43.1038 115.644C42.2158 116.052 41.7478 116.652 41.7478 117.672C41.7478 119.16 43.1278 120.12 44.9878 120.12ZM44.9878 115.032C44.2558 115.032 43.7878 114.588 43.7878 114C43.7878 113.46 44.2318 113.004 44.9878 113.004C45.7438 113.004 46.1878 113.472 46.1878 113.988C46.1878 114.6 45.7198 115.032 44.9878 115.032ZM44.9878 118.596C44.0758 118.596 43.5358 118.128 43.5358 117.552C43.5358 116.88 44.1478 116.496 44.9878 116.496C45.8278 116.496 46.4398 116.88 46.4398 117.528C46.4398 118.14 45.8998 118.596 44.9878 118.596Z" fill="white"/>
<rect opacity="0.3" x="64" y="141" width="41" height="24" rx="12" fill="#880048"/>
<path d="M77.276 157H79.184L80.48 154.996L81.776 157H83.732L81.464 153.7L83.636 150.568H81.728L80.516 152.44L79.316 150.568H77.36L79.532 153.736L77.276 157Z" fill="white"/>
<path d="M85.7958 157H92.0118V155.404H88.3518L89.7198 154.348C91.2078 153.196 91.9278 152.5 91.9278 151.096C91.9278 149.5 90.7758 148.48 89.0358 148.48C87.5358 148.48 86.7318 149.092 85.9038 150.22L87.1998 151.264C87.8238 150.496 88.2678 150.136 88.9158 150.136C89.5758 150.136 90.0438 150.52 90.0438 151.228C90.0438 151.924 89.6358 152.38 88.5918 153.244L85.7958 155.536V157Z" fill="white"/>
<rect opacity="0.3" x="80" y="194" width="41" height="24" rx="12" fill="#880048"/>
<path d="M93.276 210H95.184L96.48 207.996L97.776 210H99.732L97.464 206.7L99.636 203.568H97.728L96.516 205.44L95.316 203.568H93.36L95.532 206.736L93.276 210Z" fill="white"/>
<path d="M105.984 210H107.748V208.188H108.876V206.688H107.748V201.54H106.188L101.58 206.88L101.88 208.188H105.984V210ZM103.752 206.688L105.984 204.072V206.688H103.752Z" fill="white"/>
<rect opacity="0.3" x="28" y="232" width="41" height="24" rx="12" fill="#880048"/>
<path d="M41.276 248H43.184L44.48 245.996L45.776 248H47.732L45.464 244.7L47.636 241.568H45.728L44.516 243.44L43.316 241.568H41.36L43.532 244.736L41.276 248Z" fill="white"/>
<path d="M52.9878 248.12C54.8478 248.12 56.2278 247.208 56.2278 245.648C56.2278 244.628 55.7238 244.088 54.8718 243.644C55.5198 243.248 55.9398 242.708 55.9398 241.808C55.9398 240.488 54.7638 239.48 52.9878 239.48C51.2118 239.48 50.0358 240.5 50.0358 241.784C50.0358 242.708 50.4558 243.248 51.1038 243.644C50.2158 244.052 49.7478 244.652 49.7478 245.672C49.7478 247.16 51.1278 248.12 52.9878 248.12ZM52.9878 243.032C52.2558 243.032 51.7878 242.588 51.7878 242C51.7878 241.46 52.2318 241.004 52.9878 241.004C53.7438 241.004 54.1878 241.472 54.1878 241.988C54.1878 242.6 53.7198 243.032 52.9878 243.032ZM52.9878 246.596C52.0758 246.596 51.5358 246.128 51.5358 245.552C51.5358 244.88 52.1478 244.496 52.9878 244.496C53.8278 244.496 54.4398 244.88 54.4398 245.528C54.4398 246.14 53.8998 246.596 52.9878 246.596Z" fill="white"/>
</svg>
