<svg width="184" height="56" viewBox="0 0 184 56" fill="none" xmlns="http://www.w3.org/2000/svg">
<g clip-path="url(#clip0)">
<path d="M-172 2.92063e-05H-156V43H-130V56H-172V2.92063e-05Z" fill="#2D2A73"/>
<path d="M-124 0L-107 2.92063e-05V56H-124V0Z" fill="#2D2A73"/>
<path d="M-79.9884 12V24H-55V36H-80V56H-96V2.92063e-05L-52 0V12H-79.9884Z" fill="#2D2A73"/>
<path d="M-32.8789 12H-50L-50.0228 2.92063e-05H-0.0263672V12H-17V56H-33L-32.8789 12Z" fill="#2D2A73"/>
<path d="M31 56C22.7071 56 15.6249 55.5238 11 51C6.42828 46.4762 4 39.3025 4 31V19H20V31C20 39.9412 23.9298 43 31 43C38.017 43 41 39.916 41 30.9748V0L56.989 2.92063e-05V30.9748C56.989 39.2773 54.6765 45.6905 50.0517 50.2143C45.48 54.7381 39.2929 56 31 56Z" fill="#2D2A73"/>
<path d="M93.2011 2.92063e-05C98.2513 2.92063e-05 102.637 0.851569 106.358 2.55465C110.079 4.20451 112.95 6.59947 114.97 9.73953C116.99 12.8264 118 16.472 118 20.6765C118 24.881 116.99 28.5266 114.97 31.6135C112.95 34.7003 110.079 37.0953 106.358 38.7983C102.637 40.4482 98.0501 41 93 41H83V56H68V2.92063e-05H93.2011ZM92.2443 29C95.487 29 97.9323 28.1275 99.5803 26.7437C101.228 25.3067 102.052 23.2843 102.052 20.6765C102.052 18.0687 101.228 16.0462 99.5803 14.6093C97.9323 13.1723 95.487 12 92.2443 12H83V29H92.2443Z" fill="#2D2A73"/>
<rect x="4" width="16" height="12" fill="#2D2A73"/>
</g>
<path d="M176.875 -1C178.765 -1 180.577 -0.249332 181.913 1.08686C183.249 2.42306 184 4.23533 184 6.125V48.875C184 50.7647 183.249 52.5769 181.913 53.9131C180.577 55.2493 178.765 56 176.875 56H134.125C132.235 56 130.423 55.2493 129.087 53.9131C127.751 52.5769 127 50.7647 127 48.875V6.125C127 4.23533 127.751 2.42306 129.087 1.08686C130.423 -0.249332 132.235 -1 134.125 -1L176.875 -1ZM148.033 37.4857L162.625 22.8937V32.7547C162.625 33.2271 162.813 33.6802 163.147 34.0142C163.481 34.3483 163.934 34.5359 164.406 34.5359C164.879 34.5359 165.332 34.3483 165.666 34.0142C166 33.6802 166.188 33.2271 166.188 32.7547V18.5938C166.188 18.1213 166 17.6683 165.666 17.3342C165.332 17.0002 164.879 16.8125 164.406 16.8125H150.245C149.773 16.8125 149.32 17.0002 148.986 17.3342C148.652 17.6683 148.464 18.1213 148.464 18.5938C148.464 19.0662 148.652 19.5192 148.986 19.8533C149.32 20.1873 149.773 20.375 150.245 20.375H160.106L145.514 34.967C145.19 35.3029 145.01 35.7529 145.014 36.2199C145.018 36.687 145.206 37.1337 145.536 37.464C145.866 37.7942 146.313 37.9816 146.78 37.9856C147.247 37.9897 147.697 37.8102 148.033 37.4857Z" fill="#706BF6"/>
<defs>
<clipPath id="clip0">
<rect width="118" height="56" fill="white"/>
</clipPath>
</defs>
</svg>
