<svg width="823" height="140" viewBox="0 0 823 140" fill="none" xmlns="http://www.w3.org/2000/svg">
<path d="M111.378 0.430786C102.95 1.61028 96.7743 3.88501 83.0046 10.7934C74.7428 14.9216 64.6451 19.3868 60.4725 20.6506C53.6294 22.6725 51.7099 22.9253 39.1921 22.9253C26.1735 23.0095 25.0886 22.841 19.8311 20.7348C16.7434 19.4711 12.8211 17.5333 11.0686 16.2696L7.89742 14.1634L7.56361 16.0169C7.14635 18.9656 9.06576 26.7165 11.4024 31.3502C14.3233 37.1634 21.5836 44.6615 27.4253 47.7787C40.277 54.6872 53.6294 54.5187 66.5645 47.4418C69.4019 45.841 71.7385 44.83 71.7385 45.2513C71.7385 46.6835 64.9789 54.6872 61.8077 56.9619C60.0552 58.2256 57.1344 59.9949 55.215 60.8374C52.3776 62.1853 51.6265 62.9436 51.2092 65.3868C50.7085 68.0828 51.2092 76.5919 52.2107 83.2476L52.7114 86.2806L46.4524 89.3978C37.1892 94.1157 28.0929 96.1377 18.6628 95.7165C11.9866 95.4637 10.2341 95.0425 5.14349 92.4308C-0.531272 89.6505 -0.698177 89.5663 0.803967 91.6725C3.64135 95.7165 12.988 104.141 18.7462 107.848C26.5908 112.988 34.1015 115.852 43.9489 117.537C51.2092 118.801 54.1301 118.801 70.0695 117.958C89.9312 116.779 95.7728 117.284 103.284 120.738C105.62 121.834 107.623 122.929 107.623 123.182C107.623 123.35 104.786 123.603 101.281 123.603C94.9383 123.603 81.7528 126.552 81.7528 127.984C81.7528 129.332 97.1915 136.325 104.285 138.178C113.882 140.621 127.735 140.621 137.249 138.094C165.456 130.596 185.651 107.596 189.49 78.6982C190.324 71.874 190.158 64.7971 188.822 56.0352L188.322 52.9179H149.266L110.127 70.1311V70.189V70.2469L151.102 87.4601L149.6 90.0718C147.263 94.1157 141.171 99.2549 135.162 102.119C130.072 104.563 129.07 104.731 120.558 104.731C112.296 104.731 110.878 104.478 106.538 102.456C100.279 99.5077 95.9397 95.9692 92.3513 90.9985C82.2535 76.9289 83.3384 58.3941 95.1052 45.841C105.954 34.2147 123.312 31.1817 136.748 38.5956L141.254 41.1231H162.535C186.569 41.1231 184.817 41.8813 179.976 33.7092C167.792 13.1524 143.841 -0.411713 120.558 0.00953674C116.886 0.00953674 112.797 0.262283 111.378 0.430786Z" fill="#F1AC44"/>
<path d="M293.13 66.8V102.8H279.642L279.142 97C273.015 101.667 265.022 104 255.164 104C247.038 104 239.944 102.667 233.883 100C227.822 97.2667 223.159 93.4 219.896 88.4C216.632 83.3333 215 77.4 215 70.6V69.5C215 62.7667 216.632 56.9 219.896 51.9C223.226 46.8333 227.888 42.9333 233.883 40.2C239.944 37.4 246.971 36 254.964 36C262.624 36 269.318 37 275.046 39C280.774 40.9333 285.204 43.7 288.334 47.3C291.465 50.9 293.03 55.1 293.03 59.9V60.3H277.744V59.9C277.744 58.1 276.711 56.4333 274.646 54.9C272.648 53.3 269.917 52.0333 266.454 51.1C263.057 50.1667 259.36 49.7 255.364 49.7C247.304 49.7 241.11 51.4 236.78 54.8C232.451 58.1333 230.286 62.9667 230.286 69.3V70.8C230.286 77.2667 232.384 82.1333 236.581 85.4C240.843 88.6667 247.104 90.3 255.364 90.3C260.359 90.3 264.789 89.7 268.652 88.5C272.582 87.2333 275.845 85.5 278.443 83.3V79.2H245.772V66.8H293.13ZM341.877 104C334.017 104 327.156 102.633 321.295 99.9C315.434 97.1667 310.871 93.2667 307.607 88.2C304.41 83.1333 302.812 77.2333 302.812 70.5V69.6C302.812 62.8667 304.41 56.9667 307.607 51.9C310.871 46.8333 315.434 42.9333 321.295 40.2C327.223 37.4 334.084 36 341.877 36C349.736 36 356.597 37.4 362.458 40.2C368.319 42.9333 372.849 46.8333 376.046 51.9C379.243 56.9667 380.842 62.8667 380.842 69.6V70.5C380.842 77.2333 379.243 83.1333 376.046 88.2C372.849 93.2667 368.319 97.1667 362.458 99.9C356.597 102.633 349.736 104 341.877 104ZM341.877 90.1C349.603 90.1 355.465 88.4333 359.461 85.1C363.523 81.7667 365.556 76.9667 365.556 70.7V69.5C365.556 63.2333 363.49 58.4 359.361 55C355.298 51.6 349.47 49.9 341.877 49.9C334.217 49.9 328.322 51.6 324.193 55C320.129 58.4 318.098 63.2333 318.098 69.5V70.7C318.098 76.9667 320.129 81.7667 324.193 85.1C328.322 88.4333 334.217 90.1 341.877 90.1ZM408.412 37.2V89.3H452.872V102.8H393.425V37.2H408.412ZM494.686 37.2C506.942 37.2 516.201 39.9333 522.461 45.4C528.79 50.8 531.953 58.8333 531.953 69.5V70.6C531.953 81.2667 528.823 89.3 522.561 94.7C516.301 100.1 507.009 102.8 494.686 102.8H462.016V37.2H494.686ZM494.686 89.3C502.214 89.3 507.742 87.8 511.272 84.8C514.868 81.8 516.667 77.1333 516.667 70.8V69.4C516.667 63.1333 514.835 58.4667 511.172 55.4C507.509 52.2667 501.98 50.7 494.586 50.7H477.002V89.3H494.686ZM602.806 37.2V50.4H559.545V63.4H600.808V76.5H559.545V89.6H602.806V102.8H544.559V37.2H602.806ZM683 37.2V102.8H668.613L631.147 58.3V102.8H616.76V37.2H631.147L668.613 81.6V37.2H683Z" fill="white"/>
<rect x="713" y="15" width="110" height="110" rx="34" fill="#3B7BE6"/>
<path d="M796.861 46.747C796.861 47.0478 796.753 47.3386 796.556 47.5661L777.15 70L796.556 92.4339C796.753 92.6614 796.861 92.9522 796.861 93.253C796.861 93.9444 796.301 94.505 795.609 94.505H787.675C784.973 94.505 782.408 93.3153 780.663 91.2526L769.127 77.6205L757.518 91.2675C755.771 93.3214 753.21 94.505 750.513 94.505H742.569C741.877 94.505 741.317 93.9444 741.317 93.253C741.317 92.9522 741.425 92.6614 741.622 92.4339L761.029 70L741.622 47.5661C741.425 47.3386 741.317 47.0478 741.317 46.747C741.317 46.0556 741.877 45.4951 742.569 45.4951H750.513C753.21 45.4951 755.771 46.6786 757.518 48.7326L769.127 62.3796L780.753 48.7142C782.49 46.6719 785.036 45.4951 787.717 45.4951H795.609C796.301 45.4951 796.861 46.0556 796.861 46.747Z" fill="url(#paint0_linear_2_44)"/>
<defs>
<linearGradient id="paint0_linear_2_44" x1="769.089" y1="45.4951" x2="769.089" y2="94.505" gradientUnits="userSpaceOnUse">
<stop stop-color="white"/>
<stop offset="1" stop-color="#9EC2FF"/>
</linearGradient>
</defs>
</svg>
