<svg aria-hidden="true" style="position: absolute; width: 0; height: 0; overflow: hidden;" version="1.1" xmlns="http://www.w3.org/2000/svg" xmlns:xlink="http://www.w3.org/1999/xlink">
    <defs>
        <symbol id="arrow_right" viewBox="0 0 48 48" >
          <g id="Layer_2" data-name="Layer 2">
            <g id="invisible_box" data-name="invisible box">
              <rect width="48" height="48" fill="none"/>
              <rect width="48" height="48" fill="none"/>
            </g>
            <g id="icons_Q2" data-name="icons Q2">
              <path d="M33.2,24,22.6,34.6a1.9,1.9,0,0,0,.2,3,2.1,2.1,0,0,0,2.7-.2l11.9-12a1.9,1.9,0,0,0,0-2.8l-11.9-12a2.1,2.1,0,0,0-2.7-.2,1.9,1.9,0,0,0-.2,3Z"/>
              <path d="M21.2,24,10.6,34.6a1.9,1.9,0,0,0,.2,3,2.1,2.1,0,0,0,2.7-.2l11.9-12a1.9,1.9,0,0,0,0-2.8l-11.9-12a2.1,2.1,0,0,0-2.7-.2,1.9,1.9,0,0,0-.2,3Z"/>
            </g>
          </g>
        </symbol>
 
        <symbol id="coin" viewBox="0 0 512 512">

            <g>
                <g>
                    <path d="M415.162,96.838C372.649,54.323,316.123,30.91,256,30.91S139.351,54.323,96.838,96.838
                        C54.323,139.351,30.91,195.877,30.91,256c0,61.372,24.252,118.724,68.288,161.49c3.107,3.018,8.068,2.942,11.081-0.161
                        c3.016-3.105,2.942-8.067-0.161-11.081C69.147,366.457,46.584,313.099,46.584,256c0-115.473,93.944-209.416,209.416-209.416
                        S465.416,140.527,465.416,256S371.473,465.416,256,465.416c-42.037,0-82.579-12.404-117.245-35.871
                        c-3.583-2.424-8.455-1.487-10.883,2.097c-2.426,3.584-1.488,8.456,2.097,10.883c37.268,25.23,80.849,38.565,126.03,38.565
                        c60.123,0,116.649-23.413,159.162-65.928C457.677,372.648,481.09,316.123,481.09,256S457.677,139.351,415.162,96.838z"/>
                </g>
            </g>
            <g>
                <g>
                    <path d="M340.452,159.532H222.911c-4.329,0-7.837,3.508-7.837,7.837c0,4.329,3.508,7.837,7.837,7.837h113.883v161.589H175.205
                        V175.205h12.006c4.329,0,7.837-3.508,7.837-7.837c0-4.329-3.508-7.837-7.837-7.837h-15.663c-6.626,0-12.016,5.391-12.016,12.016
                        v168.904c0,6.626,5.391,12.016,12.016,12.016h168.904c6.626,0,12.016-5.391,12.016-12.016V171.548
                        C352.468,164.923,347.078,159.532,340.452,159.532z"/>
                </g>
            </g>
            <g>
                <g>
                    <path d="M484.314,140.086c-17.52-34.44-43.11-64.999-74.009-88.373c-3.449-2.61-8.365-1.93-10.978,1.522
                        c-2.611,3.451-1.93,8.367,1.522,10.978c60.676,45.901,95.477,115.805,95.477,191.787c0,132.516-107.81,240.327-240.327,240.327
                        S15.673,388.516,15.673,256S123.484,15.673,256,15.673c40.683,0,80.878,10.349,116.241,29.93c3.788,2.098,8.556,0.725,10.652-3.06
                        c2.096-3.787,0.726-8.556-3.06-10.652C342.153,11.028,299.333,0,256,0C187.62,0,123.332,26.628,74.981,74.981
                        C26.629,123.333,0,187.62,0,256s26.628,132.668,74.981,181.019C123.333,485.371,187.62,512,256,512s132.668-26.628,181.019-74.981
                        C485.371,388.667,512,324.38,512,256C512,215.201,502.685,176.202,484.314,140.086z"/>
                </g>
            </g>
            <g>
                <g>
                    <path d="M317.351,184.722H194.649c-5.473,0-9.927,4.453-9.927,9.927v122.702c0,5.473,4.453,9.927,9.927,9.927h122.702
                        c5.473,0,9.927-4.453,9.927-9.927V194.649C327.278,189.176,322.824,184.722,317.351,184.722z M311.604,311.604H200.396V200.396
                        h111.208V311.604z"/>
                </g>
            </g>
            
        </symbol>

        <symbol id="boomcity_dice_1" viewBox="0 0 16 16">

            <path fill="#565656" fill-rule="evenodd" d="M13 1H3a2 2 0 0 0-2 2v10a2 2 0 0 0 2 2h10a2 2 0 0 0 2-2V3a2 2 0 0 0-2-2zM3 0a3 3 0 0 0-3 3v10a3 3 0 0 0 3 3h10a3 3 0 0 0 3-3V3a3 3 0 0 0-3-3H3z"/>
            <circle cx="8" cy="8" r="1.5"/>
            
        </symbol>

        <symbol id="boomcity_dice_2" viewBox="0 0 16 16">

            <path fill="#565656" fill-rule="evenodd" d="M13 1H3a2 2 0 0 0-2 2v10a2 2 0 0 0 2 2h10a2 2 0 0 0 2-2V3a2 2 0 0 0-2-2zM3 0a3 3 0 0 0-3 3v10a3 3 0 0 0 3 3h10a3 3 0 0 0 3-3V3a3 3 0 0 0-3-3H3z"/>
            <circle cx="4" cy="4" r="1.5"/>
            <circle cx="12" cy="12" r="1.5"/>
            
        </symbol>

        <symbol id="boomcity_dice_3" viewBox="0 0 16 16">

            <path fill="#565656" fill-rule="evenodd" d="M13 1H3a2 2 0 0 0-2 2v10a2 2 0 0 0 2 2h10a2 2 0 0 0 2-2V3a2 2 0 0 0-2-2zM3 0a3 3 0 0 0-3 3v10a3 3 0 0 0 3 3h10a3 3 0 0 0 3-3V3a3 3 0 0 0-3-3H3z"/>
            <circle cx="4" cy="4" r="1.5"/>
            <circle cx="12" cy="12" r="1.5"/>
            <circle cx="8" cy="8" r="1.5"/>
            
        </symbol>

        <symbol id="boomcity_dice_4" viewBox="0 0 16 16">

            <path fill="#565656" fill-rule="evenodd" d="M13 1H3a2 2 0 0 0-2 2v10a2 2 0 0 0 2 2h10a2 2 0 0 0 2-2V3a2 2 0 0 0-2-2zM3 0a3 3 0 0 0-3 3v10a3 3 0 0 0 3 3h10a3 3 0 0 0 3-3V3a3 3 0 0 0-3-3H3z"/>
            <circle cx="4" cy="4" r="1.5"/>
            <circle cx="12" cy="4" r="1.5"/>
            <circle cx="12" cy="12" r="1.5"/>
            <circle cx="4" cy="12" r="1.5"/>
            
        </symbol>

        <symbol id="boomcity_dice_5" viewBox="0 0 16 16">

            <path fill="#565656" fill-rule="evenodd" d="M13 1H3a2 2 0 0 0-2 2v10a2 2 0 0 0 2 2h10a2 2 0 0 0 2-2V3a2 2 0 0 0-2-2zM3 0a3 3 0 0 0-3 3v10a3 3 0 0 0 3 3h10a3 3 0 0 0 3-3V3a3 3 0 0 0-3-3H3z"/>
            <circle cx="4" cy="4" r="1.5"/>
            <circle cx="12" cy="4" r="1.5"/>
            <circle cx="12" cy="12" r="1.5"/>
            <circle cx="4" cy="12" r="1.5"/>
            <circle cx="8" cy="8" r="1.5"/>
            
        </symbol>

        <symbol id="boomcity_dice_6" viewBox="0 0 16 16">

            <path fill="#565656" fill-rule="evenodd" d="M13 1H3a2 2 0 0 0-2 2v10a2 2 0 0 0 2 2h10a2 2 0 0 0 2-2V3a2 2 0 0 0-2-2zM3 0a3 3 0 0 0-3 3v10a3 3 0 0 0 3 3h10a3 3 0 0 0 3-3V3a3 3 0 0 0-3-3H3z"/>
            <circle cx="4" cy="4" r="1.5"/>
            <circle cx="12" cy="4" r="1.5"/>
            <circle cx="12" cy="12" r="1.5"/>
            <circle cx="12" cy="8" r="1.5"/>
            <circle cx="4" cy="12" r="1.5"/>
            <circle cx="4" cy="8" r="1.5"/>
            
        </symbol>

        <symbol id="boomcity" viewBox="0 0 642.834 642.834">

            <path d="M595.828,461.025c-44.793-12.301-121.448-33.363-121.448-33.363V160.496L336.806,77.137V0h-30.047v74.833
                l-138.337,91.098v261.382c0,0-70.963,22.105-116.232,36.213c-34.205,9.555-35.341,25.641-36.774,43.432v102.264
                c5.738,19.402,17.394,31.953,33.893,32.639c44.778,0.266,122.936,0.771,122.936,0.771l298.311,0.203c0,0,68.76-0.5,115.22-0.842
                c22.012-0.857,42.567-9.383,41.609-43.299v-96.012C627.86,476.871,611.127,466.375,595.828,461.025z M61.261,593.928L30.662,603
                v-36.316l30.6-10.043V593.928z M61.261,532.768l-30.6,9.07v-36.307l30.6-10.035V532.768z M107.161,578.621l-30.6,9.094v-36.322
                l30.6-10.021V578.621z M107.161,517.484l-30.6,9.07V490.24l30.6-10.021V517.484z M153.06,563.352l-30.6,9.07v-36.307l30.6-10.02
                V563.352z M153.06,502.191l-30.6,9.07v-36.307l30.6-10.035V502.191z M305.583,456.799L183.66,538.016v-42.053l121.924-81.193
                V456.799z M305.583,380.354L183.66,461.578v-42.053l121.924-81.193V380.354z M305.583,303.925L183.66,385.127v-42.021
                l121.924-81.218V303.925z M305.583,228.43L183.66,309.663v-42.045l121.924-81.194V228.43z M305.583,152.001L183.66,233.203
                v-42.022l121.924-81.225V152.001z M443.905,610.855H336.253L335.981,121.9l107.924,63.333V610.855z M596.762,614l-106.623-32.973
                v-42.055l106.623,32.967V614z M596.762,545.195l-106.623-32.967v-42.037l106.623,32.965V545.195z"/>
            </symbol>

            <symbol id="x30" viewBox="0 0 24 28">
                <path d="M12 6.75927L7.50781 0H16.4922L12 6.75927Z"/>
                <path d="M14.4 14.6121V17.8264H12.8V14.6121H13.6H14.4Z"/>
                <path d="M11.2 14.6121V17.8264H9.60004V14.6121H10.4H11.2Z"/>
                <path d="M13.6 11.3979C14.0414 11.3979 14.4 11.7581 14.4 12.2015C14.4 12.6448 14.0414 13.005 13.6 13.005H12.8V12.2015C12.8 11.7581 13.1586 11.3979 13.6 11.3979Z"/>
                <path d="M10.4 11.3979C10.8414 11.3979 11.2 11.7581 11.2 12.2015V13.005H10.4C9.95866 13.005 9.60004 12.6448 9.60004 12.2015C9.60004 11.7581 9.95866 11.3979 10.4 11.3979Z"/>
                <path d="M24 15.4157C24 17.3229 23.5448 19.1212 22.7564 20.7258L19.981 19.1161C20.5013 17.9887 20.8 16.738 20.8 15.4157C20.8 14.0934 20.5013 12.8427 19.981 11.7153L22.7592 10.1039C23.5533 11.7164 24 13.5226 24 15.4157Z"/>
                <path d="M2.03519 22.1224L4.81935 20.508C6.26938 22.5647 8.56692 23.9744 11.2 24.2143V27.4286C7.3858 27.1741 4.05103 25.1346 2.03519 22.1224Z"/>
                <path d="M-4.29153e-06 15.4157C-4.29153e-06 13.5227 0.446556 11.7166 1.24064 10.1042L4.01898 11.7152C3.49861 12.8427 3.2 14.0935 3.2 15.4157C3.2 16.7379 3.49861 17.9887 4.01893 19.116L1.24336 20.7254C0.455089 19.1209 -4.29153e-06 17.3228 -4.29153e-06 15.4157Z"/>
                <path d="M19.1806 20.5081L21.9647 22.1226C19.9489 25.1348 16.6142 27.1741 12.8 27.4286V24.2143C15.4331 23.9744 17.7306 22.5648 19.1806 20.5081Z"/>
                <path d="M4.80002 15.4157C4.80002 11.4277 8.02973 8.18359 12 8.18359C15.9703 8.18359 19.2 11.4277 19.2 15.4157C19.2 19.4038 15.9703 22.6479 12 22.6479C8.02973 22.6479 4.80002 19.4038 4.80002 15.4157ZM8.00002 13.005V19.4336H16V13.005H15.8527C15.9423 12.7524 16 12.4845 16 12.2015C16 10.8721 14.9234 9.79074 13.6 9.79074C12.9831 9.79074 12.4256 10.0322 12 10.4177C11.5744 10.0322 11.0169 9.79074 10.4 9.79074C9.07661 9.79074 8.00002 10.8721 8.00002 12.2015C8.00002 12.4845 8.05773 12.7524 8.14738 13.005H8.00002Z"/>
                <path d="M21.952 8.7139L19.184 10.321C17.9361 8.56931 16.08 7.2836 13.92 6.80145L15.824 3.98895C18.368 4.85681 20.496 6.54426 21.952 8.7139Z"/>
                <path d="M8.17602 3.98895L10.08 6.80145C7.92007 7.2836 6.06402 8.56926 4.81607 10.321L2.04812 8.71385C3.50402 6.54426 5.63207 4.85681 8.17602 3.98895Z"/>
            </symbol>
            <symbol id="dice" viewBox="0 0 24 22">
                <path d="M5.9715 0.96675L0 10.2082L5.07 20.1022L11.0415 10.8608L5.9715 0.9675V0.96675ZM2.9775 10.8172C2.50125 10.8172 2.115 10.431 2.115 9.95475C2.115 9.4785 2.50125 9.09225 2.9775 9.09225C3.45375 9.09225 3.84 9.4785 3.84 9.95475C3.84 10.431 3.45375 10.8172 2.9775 10.8172ZM5.06625 14.934C4.59 14.934 4.20375 14.5477 4.20375 14.0715C4.20375 13.5952 4.59 13.209 5.06625 13.209C5.5425 13.209 5.92875 13.5952 5.92875 14.0715C5.92875 14.5477 5.5425 14.934 5.06625 14.934ZM5.34975 7.18725C4.8735 7.18725 4.48725 6.801 4.48725 6.32475C4.48725 5.8485 4.8735 5.46225 5.34975 5.46225C5.826 5.46225 6.21225 5.8485 6.21225 6.32475C6.21225 6.801 5.826 7.18725 5.34975 7.18725ZM7.6455 11.4825C7.16925 11.4825 6.78375 11.097 6.78375 10.6207C6.78375 10.1445 7.16925 9.75825 7.6455 9.75825C8.12175 9.75825 8.508 10.1445 8.508 10.6207C8.508 11.097 8.12175 11.4832 7.6455 11.4832V11.4825ZM12.2828 11.6617L6.195 21.0832L17.7255 21.6615L23.8132 12.2392L12.2828 11.6617ZM11.6565 19.5652C11.1803 19.5652 10.7948 19.179 10.7948 18.7035C10.7948 18.228 11.181 17.8417 11.6565 17.8417C12.1327 17.8417 12.5182 18.228 12.5182 18.7035C12.5182 19.179 12.132 19.5652 11.6565 19.5652ZM18.564 15.7957C18.0878 15.7957 17.7023 15.4095 17.7023 14.934C17.7023 14.4585 18.0885 14.0722 18.564 14.0722C19.0403 14.0722 19.4257 14.4585 19.4257 14.934C19.4257 15.4095 19.0395 15.7957 18.564 15.7957ZM18.7815 0.5835L7.13775 0L12.3563 10.1857L24 10.7685L18.7815 0.5835ZM16.02 6.309C15.5438 6.309 15.1575 5.92275 15.1575 5.4465C15.1575 4.97025 15.5438 4.584 16.02 4.584C16.4963 4.584 16.8825 4.97025 16.8825 5.4465C16.8825 5.92275 16.4963 6.309 16.02 6.309Z"/>
            </symbol>
            <symbol id="mines" viewBox="0 0 17 24">
                <path d="M11.589 7.6845V6.1635C11.5883 5.71575 11.226 5.35275 10.7782 5.35275H9.549V3.87375H10.8975C11.3723 3.87375 11.8147 3.68625 12.1417 3.3465C12.4402 3.03825 12.6248 2.61825 12.6248 2.15475C12.6248 2.13 12.624 2.1045 12.6232 2.07975V2.0835L12.5798 0.91125C12.561 0.40425 12.1455 0 11.6355 0C11.6228 0 11.6108 0 11.598 0.00075H11.5995C11.0925 0.02025 10.689 0.43575 10.689 0.94575C10.689 0.95775 10.689 0.9705 10.6898 0.9825V0.981L10.7265 1.98225H9.41325C8.445 1.98225 7.65675 2.7705 7.65675 3.73875V5.35275H6.138C5.69025 5.3535 5.328 5.71575 5.32725 6.1635V7.6845C2.20875 8.93175 0 11.9835 0 15.5423C0 20.2058 3.7935 24 8.45775 24C13.122 24 16.9155 20.2058 16.9155 15.5423C16.9155 11.9835 14.7067 8.93175 11.5883 7.68525L11.589 7.6845Z"/>
            </symbol>
            <symbol id="cash-hunt" viewBox="0 0 24 24">
                <path d="M13 2.05054V0H11V2.05054C6.28296 2.52148 2.52148 6.28296 2.05054 11H0V13H2.05054C2.52148 17.717 6.28296 21.4785 11 21.9495V24H13V21.9495C17.717 21.4785 21.4785 17.717 21.9495 13H24V11H21.9495C21.4785 6.28296 17.717 2.52148 13 2.05054ZM19.9304 11H17.9094C17.4861 8.49292 15.5071 6.51343 13 6.09058V4.06958C16.6116 4.52295 19.4771 7.38843 19.9304 11ZM15.8684 13C15.5056 14.4021 14.4021 15.5056 13 15.8684V14H11V15.8684C9.5979 15.5056 8.49438 14.4021 8.13159 13H10V11H8.13159C8.49438 9.5979 9.5979 8.49438 11 8.13159V10H13V8.13159C14.4021 8.49438 15.5056 9.5979 15.8684 11H14V13H15.8684ZM11 4.06958V6.09058C8.49292 6.51392 6.51343 8.49292 6.09058 11H4.06958C4.52295 7.38843 7.38843 4.52295 11 4.06958ZM4.06958 13H6.09058C6.51392 15.5071 8.49292 17.4866 11 17.9094V19.9304C7.38843 19.4771 4.52295 16.6116 4.06958 13ZM13 19.9304V17.9094C15.5071 17.4861 17.4866 15.5071 17.9094 13H19.9304C19.4771 16.6116 16.6116 19.4771 13 19.9304Z"/>
            </symbol>
            <symbol id="jackpot" viewBox="0 0 25 23">
                <path d="M22.1008 6.05761H20.1792L19.2221 3.50532C18.4341 1.40399 16.4256 0 14.1639 0H10.0666C7.82246 0 5.80258 1.38743 5.00837 3.50532L4.05127 6.05761H2.12963C0.955352 6.05761 0 7.01297 0 8.18724V20.8704C0 22.0446 0.955352 23 2.12963 23H22.1008C23.2751 23 24.2305 22.0446 24.2305 20.8704V8.18724C24.2305 7.01297 23.2751 6.05761 22.1008 6.05761ZM16.7531 9.08642H20.2977C20.8094 9.08642 21.1536 9.61315 20.9475 10.082L18.1151 16.5252C17.9569 16.8851 17.5375 17.0467 17.1796 16.8894C16.8207 16.7316 16.6576 16.3127 16.8154 15.9538L19.2102 10.5062H16.7531C16.361 10.5062 16.0432 10.1883 16.0432 9.7963C16.0432 9.40426 16.361 9.08642 16.7531 9.08642ZM14.4374 3.66912C14.4797 3.26089 14.8554 2.96208 15.2826 3.04253C15.6703 3.12331 15.9132 3.48725 15.8401 3.87735C15.76 4.25973 15.4 4.50866 15.0053 4.43484C14.628 4.35604 14.4018 4.01213 14.4374 3.66912ZM11.4086 3.66912C11.4509 3.26103 11.8265 2.96203 12.2538 3.04253C12.6389 3.12275 12.8846 3.48573 12.8113 3.87735C12.7305 4.26271 12.3683 4.50809 11.9765 4.43484C11.5999 4.35623 11.3729 4.01298 11.4086 3.66912ZM10.3169 9.08642H13.8615C14.3732 9.08642 14.7174 9.61315 14.5113 10.082L11.6789 16.5252C11.5207 16.8851 11.1013 17.0467 10.7434 16.8894C10.3845 16.7316 10.2214 16.3127 10.3792 15.9538L12.774 10.5062H10.3169C9.92483 10.5062 9.607 10.1883 9.607 9.7963C9.607 9.40426 9.92483 9.08642 10.3169 9.08642ZM8.37981 3.66864C8.42363 3.25445 8.80375 2.96317 9.22504 3.04253C9.62422 3.12568 9.85862 3.50845 9.7821 3.87735C9.71352 4.23986 9.35631 4.51127 8.94771 4.43484C8.56963 4.3559 8.34484 4.0126 8.37981 3.66864ZM3.88066 9.08642H7.42526C7.93699 9.08642 8.28118 9.61315 8.07508 10.082L5.24267 16.5252C5.08451 16.8851 4.66507 17.0467 4.30715 16.8894C3.94824 16.7316 3.7852 16.3127 3.94299 15.9538L6.33778 10.5062H3.88066C3.48862 10.5062 3.17078 10.1883 3.17078 9.7963C3.17078 9.40426 3.48862 9.08642 3.88066 9.08642ZM20.4444 19.9712H3.78601C3.39397 19.9712 3.07613 19.6534 3.07613 19.2613C3.07613 18.8693 3.39397 18.5514 3.78601 18.5514H20.4444C20.8365 18.5514 21.1543 18.8693 21.1543 19.2613C21.1543 19.6534 20.8365 19.9712 20.4444 19.9712Z"/>
            </symbol>
            <symbol id="x100" viewBox="0 0 24 19">
                <path fill-rule="evenodd" clip-rule="evenodd" d="M10.432 4.6875L11.3454 5.89615C11.6795 6.33833 12.3256 6.33833 12.6597 5.89615L13.5703 4.69109C18.9652 5.29312 23.2457 9.05252 23.9881 15.8431C24.1178 17.0289 23.1682 18.0019 22.016 18.0019C21.0845 18.0019 20.3368 17.2293 20.201 16.2748C19.4684 11.1248 16.0763 8.49448 12.0025 8.49448C7.91772 8.49448 4.51836 11.0132 3.79816 16.2737C3.66736 17.2292 2.91962 18.0019 1.98789 18.0019C0.835684 18.0019 -0.113484 17.0286 0.011001 15.8422C0.739478 8.89967 5.02611 5.26603 10.432 4.6875Z"/>
                <path d="M11.6351 4.76286L9.4903 0.637406C9.32494 0.319366 9.58693 -0.0559422 9.93037 0.00696914L11.9298 0.373247C11.9779 0.382054 12.0271 0.382054 12.0752 0.373247L14.0746 0.00696914C14.4181 -0.0559422 14.68 0.319366 14.5147 0.637406L12.3699 4.76286C12.2123 5.06589 11.7927 5.06589 11.6351 4.76286Z"/>
            </symbol>
            <symbol id="telegram" viewBox="0 0 15 12">
                <path d="M14.9573 1.09218L12.6936 11.2757C12.5227 11.9942 12.0775 12.1731 11.4447 11.8348L7.99544 9.41017L6.33134 10.9373C6.14703 11.1131 5.99326 11.2598 5.63805 11.2598L5.88611 7.9091L12.2784 2.39904C12.5565 2.16291 12.2179 2.03156 11.8466 2.2682L3.94394 7.0152L0.541792 5.99916C-0.198108 5.77888 -0.211502 5.29334 0.696094 4.95449L14.003 0.0638668C14.6192 -0.156413 15.1582 0.194706 14.9573 1.09269V1.09218Z"/>
            </symbol>
            <symbol id="crash" viewBox="0 0 24 15">
                <path d="M22.5063 0H14.5394C13.7144 0 13.0457 0.668767 13.0457 1.49377C13.0457 2.31877 13.7144 2.98754 14.5394 2.98754H18.9001L12.7761 9.1113L8.85325 5.18804C8.26985 4.60459 7.32391 4.60454 6.74045 5.18799L0.437485 11.4914C0.15736 11.7715 0 12.1514 0 12.5476C0 13.8784 1.60899 14.5448 2.55001 13.6039L7.79692 8.35713L11.7199 12.2798C12.3033 12.8631 13.2491 12.863 13.8324 12.2797L21.0125 5.09992V9.46057C21.0125 10.2856 21.6812 10.9543 22.5062 10.9543C23.3312 10.9543 24 10.2856 24 9.46057V1.49377C24 0.668767 23.3313 0 22.5063 0Z"/>
            </symbol>
            <symbol id="keno" viewBox="0 0 24 24">
                <path d="M12.0002 23.9995C18.6278 23.9995 24 18.6273 24 11.9997C24 5.37219 18.6278 0 12.0002 0C5.37273 0 0 5.37219 0 11.9997C0 18.6273 5.37273 23.9995 12.0002 23.9995ZM15.5144 5.57123C19.0645 5.57123 21.9429 8.44965 21.9429 11.9997C21.9429 15.5498 19.0645 18.4282 15.5144 18.4282C11.9643 18.4282 9.08582 15.5498 9.08582 11.9997C9.08582 8.44965 11.9642 5.57123 15.5144 5.57123Z"/>
                <path d="M13.2525 13.4053C13.2525 14.3227 14.045 15.2926 15.7658 15.2926C17.3405 15.2926 18.3732 14.4585 18.3732 13.2278C18.3732 12.3622 17.789 11.7991 17.1215 11.5487V11.5178C17.7993 11.184 18.1124 10.6101 18.1124 10.0264C18.1124 9.20253 17.4552 8.28455 15.8702 8.28455C14.5146 8.28455 13.4825 9.04571 13.4825 10.193C13.4825 10.7876 13.8054 11.3404 14.4626 11.6844V11.705C13.7215 12.029 13.2525 12.5917 13.2525 13.4053ZM15.7972 9.35882C16.3809 9.35882 16.621 9.77589 16.621 10.2038C16.621 10.6208 16.2975 10.9546 15.9329 11.059C15.3904 10.8924 14.9836 10.6002 14.9836 10.141C14.9836 9.72399 15.2546 9.35882 15.7972 9.35882ZM15.6928 12.2373C16.3083 12.4044 16.7563 12.7588 16.7563 13.3533C16.7563 13.8331 16.3809 14.1983 15.828 14.1983C15.2335 14.1983 14.858 13.7395 14.8683 13.2494C14.8689 12.7588 15.1713 12.3834 15.6928 12.2373Z"/>
            </symbol>
            <symbol id="user" viewBox="0 0 18 18">
                <path d="M4.5 4.26316C4.5 6.61358 6.519 8.52632 9 8.52632C11.481 8.52632 13.5 6.61358 13.5 4.26316C13.5 1.91274 11.481 0 9 0C6.519 0 4.5 1.91274 4.5 4.26316ZM17 18H18V17.0526C18 13.3967 14.859 10.4211 11 10.4211H7C3.14 10.4211 0 13.3967 0 17.0526V18H17Z"/>
            </symbol>
            <symbol id="exit" viewBox="0 0 18 18">
                <path d="M2 18H16C17.103 18 18 17.103 18 16V2C18 0.897 17.103 0 16 0H2C0.897 0 0 0.897 0 2V8.001H6.998V4L12.998 9L6.998 14V10.001H0V16C0 17.103 0.897 18 2 18Z"/>
            </symbol>
            <symbol id="coupon" viewBox="0 0 40 34">
               
                <path d="M38.6 14.6807C39.38 14.6807 40 14.0607 40 13.2807V11.4207C40 3.2207 37.5 0.720703 29.3 0.720703H10.7C2.5 0.720703 0 3.2207 0 11.4207V12.3607C0 13.1407 0.62 13.7607 1.4 13.7607C3.2 13.7607 4.66 15.2207 4.66 17.0207C4.66 18.8207 3.2 20.2607 1.4 20.2607C0.62 20.2607 0 20.8807 0 21.6607V22.6007C0 30.8007 2.5 33.3007 10.7 33.3007H29.3C37.5 33.3007 40 30.8007 40 22.6007C40 21.8207 39.38 21.2007 38.6 21.2007C37.7354 21.2007 36.9062 20.8572 36.2948 20.2459C35.6835 19.6345 35.34 18.8053 35.34 17.9407C35.34 17.0761 35.6835 16.2469 36.2948 15.6355C36.9062 15.0242 37.7354 14.6807 38.6 14.6807ZM14 10.7607C15.1 10.7607 16 11.6607 16 12.7607C16 13.8607 15.12 14.7607 14 14.7607C12.9 14.7607 12 13.8607 12 12.7607C12 11.6607 12.88 10.7607 14 10.7607ZM26 24.7607C24.88 24.7607 23.98 23.8607 23.98 22.7607C23.98 21.6607 24.88 20.7607 25.98 20.7607C27.08 20.7607 27.98 21.6607 27.98 22.7607C27.98 23.8607 27.12 24.7607 26 24.7607ZM27.8 11.9607L14.34 25.4207C14.04 25.7207 13.66 25.8607 13.28 25.8607C12.9 25.8607 12.52 25.7207 12.22 25.4207C11.941 25.1384 11.7846 24.7576 11.7846 24.3607C11.7846 23.9638 11.941 23.583 12.22 23.3007L25.68 9.8407C26.26 9.2607 27.22 9.2607 27.8 9.8407C28.38 10.4207 28.38 11.3807 27.8 11.9607Z" />


            </symbol>
            <symbol id="users" viewBox="0 0 48 48">
  
                <path d="M17.9996 3.99951C12.7596 3.99951 8.49962 8.25951 8.49962 13.4995C8.49962 18.6395 12.5196 22.7995 17.7596 22.9795C17.9196 22.9595 18.0796 22.9595 18.1996 22.9795H18.3396C20.7983 22.8975 23.1288 21.8625 24.8382 20.0933C26.5476 18.3242 27.502 15.9596 27.4996 13.4995C27.4996 8.25951 23.2396 3.99951 17.9996 3.99951ZM28.1596 28.2975C22.5796 24.5775 13.4796 24.5775 7.85962 28.2975C5.31962 29.9975 3.91962 32.2975 3.91962 34.7575C3.91962 37.2175 5.31962 39.4975 7.83962 41.1775C10.6396 43.0575 14.3196 43.9975 17.9996 43.9975C21.6796 43.9975 25.3596 43.0575 28.1596 41.1775C30.6796 39.4775 32.0796 37.1975 32.0796 34.7175C32.0596 32.2575 30.6796 29.9775 28.1596 28.2975ZM39.9796 14.6755C40.2996 18.5555 37.5396 21.9555 33.7196 22.4155H33.6196C33.4996 22.4155 33.3796 22.4155 33.2796 22.4555C31.3396 22.5555 29.5596 21.9355 28.2196 20.7955C30.2796 18.9555 31.4596 16.1955 31.2196 13.1955C31.0824 11.6355 30.5526 10.1356 29.6796 8.83551C30.7276 8.32567 31.8839 8.07845 33.0487 8.11515C34.2135 8.15186 35.352 8.47141 36.3658 9.04622C37.3796 9.62103 38.2383 10.4339 38.8679 11.4146C39.4975 12.3953 39.879 13.5144 39.9796 14.6755Z"/>
                <path d="M43.9761 33.1797C43.8161 35.1197 42.5761 36.7997 40.4961 37.9397C38.4961 39.0397 35.9761 39.5597 33.4761 39.4997C34.9161 38.1997 35.7561 36.5797 35.9161 34.8597C36.1161 32.3797 34.9361 29.9997 32.5761 28.0997C31.2361 27.0397 29.6761 26.1997 27.9761 25.5797C32.3961 24.2997 37.9561 25.1597 41.3761 27.9197C43.2161 29.3997 44.1561 31.2597 43.9761 33.1797Z"/>

               
            </symbol>
            <symbol id="rules" viewBox="0 0 15 20">
                <path d="M4.98254 0.183274C3.6615 -0.485277 1.05792 0.806524 0.30999 1.94377C-0.0232126 2.45267 0.000362272 2.81941 0.000362272 3.02748V14.1587L9.76392 20L11.5999 19.0361V8.19564L1.57535 2.66176C2.11329 2.01081 3.32313 1.21704 4.2303 1.53584L13.1593 6.12748L13.1594 18.2038L15 17.2382V5.16213L4.98254 0.183274Z"/>
            </symbol>
            <symbol id="close" viewBox="0 0 20 20">
                <path fill-rule="evenodd" clip-rule="evenodd" d="M8.3756 10L0 18.3756L1.6244 20L10 11.6244L18.3756 20L20 18.3756L11.6244 10L20 1.6244L18.3756 0L10 8.3756L1.6244 0L0 1.6244L8.3756 10Z"/>
            </symbol>
            <symbol id="copy" viewBox="0 0 477.867 477.867">
                <path xmlns="http://www.w3.org/2000/svg" d="M341.333,85.333H51.2c-28.277,0-51.2,22.923-51.2,51.2v290.133c0,28.277,22.923,51.2,51.2,51.2h290.133    c28.277,0,51.2-22.923,51.2-51.2V136.533C392.533,108.256,369.61,85.333,341.333,85.333z"/>
                <path xmlns="http://www.w3.org/2000/svg" d="M426.667,0h-307.2c-28.124-0.001-50.984,22.684-51.2,50.807c0,0.137,0,0.256,0,0.393h273.067    c47.105,0.056,85.277,38.228,85.333,85.333V409.6c0.137,0,0.256,0,0.393,0c28.124-0.216,50.808-23.076,50.807-51.2V51.2    C477.867,22.923,454.944,0,426.667,0z"/>
            </symbol>
            <symbol id="coins" viewBox="0 0 16 16">
                <path d="M0 12.6656V14C0 15.1031 2.6875 16 6 16C9.3125 16 12 15.1031 12 14V12.6656C10.7094 13.575 8.35 14 6 14C3.65 14 1.29062 13.575 0 12.6656ZM10 4C13.3125 4 16 3.10313 16 2C16 0.896875 13.3125 0 10 0C6.6875 0 4 0.896875 4 2C4 3.10313 6.6875 4 10 4ZM0 9.3875V11C0 12.1031 2.6875 13 6 13C9.3125 13 12 12.1031 12 11V9.3875C10.7094 10.45 8.34688 11 6 11C3.65313 11 1.29062 10.45 0 9.3875ZM13 9.73125C14.7906 9.38437 16 8.74063 16 8V6.66563C15.275 7.17812 14.2094 7.52813 13 7.74375V9.73125ZM6 5C2.6875 5 0 6.11875 0 7.5C0 8.88125 2.6875 10 6 10C9.3125 10 12 8.88125 12 7.5C12 6.11875 9.3125 5 6 5ZM12.8531 6.75938C14.7281 6.42188 16 5.75938 16 5V3.66563C14.8906 4.45 12.9844 4.87188 10.9781 4.97188C11.9 5.41875 12.5781 6.01875 12.8531 6.75938Z"/>
            </symbol>
            <symbol id="send" viewBox="0 0 18 18">
                <path d="M17.7922 0.218415C17.6908 0.117675 17.5628 0.0479261 17.4231 0.0173698C17.2835 -0.0131865 17.138 -0.0032804 17.0037 0.0459235L0.484576 6.04562C0.342112 6.09959 0.219459 6.19557 0.132907 6.32082C0.0463546 6.44606 0 6.59465 0 6.74683C0 6.89901 0.0463546 7.04759 0.132907 7.17284C0.219459 7.29809 0.342112 7.39407 0.484576 7.44804L6.93456 10.0204L11.6951 5.25066L12.7538 6.3081L7.97076 11.0854L10.5538 17.5275C10.6094 17.6671 10.7057 17.7867 10.8302 17.8709C10.9547 17.9552 11.1017 18.0001 11.2521 18C11.4038 17.9969 11.551 17.9479 11.6744 17.8596C11.7977 17.7712 11.8913 17.6476 11.9429 17.505L17.9498 1.00587C18.001 0.873188 18.0133 0.728711 17.9854 0.589288C17.9575 0.449865 17.8905 0.321242 17.7922 0.218415Z"/>
            </symbol>
            <symbol id="stickers" viewBox="0 0 18 18">
                <path d="M9.28677 0H9C4.03741 0 0 4.03741 0 9C0 13.9626 4.03741 18 9 18C13.9626 18 18 13.9626 18 9V8.71323L9.28677 0ZM15.6787 8.35007C13.6991 8.28812 12.2031 7.76254 11.2203 6.77974C10.2375 5.79695 9.71195 4.30087 9.65 2.3214L15.6787 8.35007ZM9 16.6154C4.80087 16.6154 1.38463 13.1991 1.38463 9C1.38463 5.04798 4.41084 1.78998 8.26752 1.42017C8.17868 4.22807 8.84081 6.35836 10.2412 7.75881C11.5589 9.0765 13.5218 9.74106 16.0883 9.74099C16.2495 9.74099 16.4139 9.73761 16.5799 9.7323C16.2101 13.5891 12.9521 16.6154 9 16.6154Z"/>
            </symbol>
            <symbol id="smiles" viewBox="0 0 19 18">
                <path d="M6.625 9.28125C7.24632 9.28125 7.75 8.77757 7.75 8.15625C7.75 7.53493 7.24632 7.03125 6.625 7.03125C6.00368 7.03125 5.5 7.53493 5.5 8.15625C5.5 8.77757 6.00368 9.28125 6.625 9.28125Z"/>
                <path d="M9.15807 13.5C7.56128 13.5 6.21831 12.4619 5.79327 11.0451C5.78138 11.0029 5.77951 10.9586 5.78779 10.9155C5.79608 10.8725 5.8143 10.832 5.84101 10.7973C5.86771 10.7626 5.90215 10.7346 5.9416 10.7155C5.98104 10.6965 6.02439 10.6869 6.06819 10.6875H12.2448C12.2886 10.6869 12.3319 10.6965 12.3714 10.7155C12.4108 10.7346 12.4453 10.7626 12.472 10.7973C12.4987 10.832 12.5169 10.8725 12.5252 10.9155C12.5335 10.9586 12.5316 11.0029 12.5197 11.0451C12.0982 12.4619 10.7549 13.5 9.15807 13.5Z"/>
                <path d="M11.6875 9.28125C12.3088 9.28125 12.8125 8.77757 12.8125 8.15625C12.8125 7.53493 12.3088 7.03125 11.6875 7.03125C11.0662 7.03125 10.5625 7.53493 10.5625 8.15625C10.5625 8.77757 11.0662 9.28125 11.6875 9.28125Z"/>
                <path fill-rule="evenodd" clip-rule="evenodd" d="M9.1563 1.54355C5.03833 1.54355 1.70005 4.88183 1.70005 8.9998C1.70005 13.1178 5.03833 16.4561 9.1563 16.4561C13.2743 16.4561 16.6125 13.1178 16.6125 8.9998C16.6125 4.88183 13.2743 1.54355 9.1563 1.54355ZM0.300049 8.9998C0.300049 4.10863 4.26513 0.143555 9.1563 0.143555C14.0475 0.143555 18.0126 4.10863 18.0126 8.9998C18.0126 13.891 14.0475 17.8561 9.1563 17.8561C4.26513 17.8561 0.300049 13.891 0.300049 8.9998Z"/>
            </symbol>
            <symbol id="home" viewBox="0 0 38 40">
                <path d="M13.2696 37.5467V31.4312C13.2696 29.8701 14.5443 28.6046 16.1169 28.6046H21.8652C22.6204 28.6046 23.3446 28.9024 23.8786 29.4325C24.4126 29.9626 24.7125 30.6816 24.7125 31.4312V37.5467C24.7078 38.1957 24.9641 38.8198 25.4247 39.2804C25.8854 39.741 26.5121 40 27.1659 40H31.0877C32.9193 40.0047 34.6775 39.2857 35.9743 38.0016C37.2712 36.7175 38 34.974 38 33.1557V15.7337C38 14.2649 37.3441 12.8717 36.2092 11.9293L22.868 1.35174C20.5473 -0.502877 17.2222 -0.442996 14.9708 1.49396L1.93402 11.9293C0.745481 12.8439 0.0351046 14.2413 0 15.7337V33.1379C0 36.9277 3.09476 40 6.91235 40H10.7446C12.1025 40 13.206 38.9124 13.2158 37.5645L13.2696 37.5467Z"/>
            </symbol>
            <symbol id="giveaway" viewBox="0 0 41 40">
                <path d="M17.5921 2.57409C18.9024 0.46662 21.9697 0.46662 23.28 2.57409L27.7579 9.77618C28.2189 10.5177 28.9513 11.0498 29.799 11.2591L38.0323 13.2923C40.4416 13.8873 41.3894 16.8044 39.79 18.7018L34.3242 25.1861C33.7614 25.8537 33.4817 26.7147 33.5445 27.5856L34.1551 36.0443C34.3338 38.5194 31.8523 40.3223 29.5535 39.3875L21.6975 36.193C20.8887 35.8641 19.9834 35.8641 19.1746 36.193L11.3186 39.3875C9.01976 40.3223 6.5383 38.5194 6.71697 36.0443L7.32754 27.5856C7.3904 26.7147 7.11065 25.8537 6.54791 25.1861L1.08207 18.7018C-0.517343 16.8044 0.43049 13.8873 2.83973 13.2923L11.0731 11.2591C11.9207 11.0498 12.6531 10.5177 13.1142 9.77618L17.5921 2.57409Z"/>
            </symbol>
            <symbol id="faq" viewBox="0 0 40 40">
                
                <path d="M20 0C8.96 0 0 8.96 0 20C0 31.04 8.96 40 20 40C31.04 40 40 31.04 40 20C40 8.96 31.04 0 20 0ZM22 34H18V30H22V34ZM26.14 18.5L24.34 20.34C22.9 21.8 22 23 22 26H18V25C18 22.8 18.9 20.8 20.34 19.34L22.82 16.82C23.56 16.1 24 15.1 24 14C24 11.8 22.2 10 20 10C17.8 10 16 11.8 16 14H12C12 9.58 15.58 6 20 6C24.42 6 28 9.58 28 14C28 15.76 27.28 17.36 26.14 18.5Z"/>

            </symbol>
            <symbol id="support" viewBox="0 0 38 38">
               
                <path d="M28.5 0H9.5C4.256 0 0 4.237 0 9.462V22.724C0 27.949 4.256 32.186 9.5 32.186H12.35C12.863 32.186 13.547 32.528 13.87 32.946L16.72 36.727C17.974 38.399 20.026 38.399 21.28 36.727L24.13 32.946C24.491 32.471 25.061 32.186 25.65 32.186H28.5C33.744 32.186 38 27.949 38 22.724V9.462C38 4.237 33.744 0 28.5 0ZM11.4 19C10.336 19 9.5 18.145 9.5 17.1C9.5 16.055 10.355 15.2 11.4 15.2C12.445 15.2 13.3 16.055 13.3 17.1C13.3 18.145 12.464 19 11.4 19ZM19 19C17.936 19 17.1 18.145 17.1 17.1C17.1 16.055 17.955 15.2 19 15.2C20.045 15.2 20.9 16.055 20.9 17.1C20.9 18.145 20.064 19 19 19ZM26.6 19C25.536 19 24.7 18.145 24.7 17.1C24.7 16.055 25.555 15.2 26.6 15.2C27.645 15.2 28.5 16.055 28.5 17.1C28.5 18.145 27.664 19 26.6 19Z"/>

            </symbol>
            <symbol id="plus" viewBox="0 0 19 19">
                <path fill-rule="evenodd" clip-rule="evenodd" d="M0 9.50008C0 8.94779 0.447715 8.50008 1 8.50008H18C18.5523 8.50008 19 8.94779 19 9.50008C19 10.0524 18.5523 10.5001 18 10.5001H1C0.447715 10.5001 0 10.0524 0 9.50008Z"/>
                <path fill-rule="evenodd" clip-rule="evenodd" d="M9.5 0C10.0523 0 10.5 0.447715 10.5 1V18C10.5 18.5523 10.0523 19 9.5 19C8.94772 19 8.5 18.5523 8.5 18V1C8.5 0.447715 8.94772 0 9.5 0Z"/>
            </symbol>
            <symbol xmlns="http://www.w3.org/2000/svg" id="arrow-right" viewBox="0 0 14 12">
                <path d="M1.86792 6.27832H12.5094" stroke-width="2" fill="none" stroke-linecap="round" stroke-linejoin="round"/>
                <path d="M7.85378 1.62265L12.5094 6.27831L7.85378 10.934" fill="none" stroke-width="2" stroke-linecap="round" stroke-linejoin="round"/>
            </symbol>
            <symbol xmlns="http://www.w3.org/2000/svg" id="icon-play" viewBox="0 0 32 32">
                <path d="M28.493 14.84l-23.653-13.653c-0.191-0.112-0.421-0.179-0.667-0.179-0.736 0-1.333 0.597-1.333 1.333 0 0.002 0 0.004 0 0.006v-0 27.307c0 0.002 0 0.003 0 0.005 0 0.736 0.597 1.333 1.333 1.333 0.245 0 0.475-0.066 0.673-0.182l-0.006 0.003 23.653-13.653c0.407-0.234 0.676-0.665 0.676-1.16s-0.269-0.926-0.669-1.157l-0.006-0.003z"/>
            </symbol>
            <symbol id="minus" viewBox="0 0 19 3">
                <path fill-rule="evenodd" clip-rule="evenodd" d="M0 1.50008C0 0.947792 0.447715 0.500076 1 0.500076H18C18.5523 0.500076 19 0.947792 19 1.50008C19 2.05236 18.5523 2.50008 18 2.50008H1C0.447715 2.50008 0 2.05236 0 1.50008Z"/>
            </symbol>
            <symbol id="timer" viewBox="0 0 17 17">
                <path d="M16.9993 8.48442V8.50071C16.9993 13.1948 13.1938 17 8.49929 17C6.55084 17.0031 4.66099 16.3338 3.1488 15.1052L3.16439 15.1179C3.07489 15.0453 3.00165 14.9546 2.94941 14.8519C2.89718 14.7491 2.86712 14.6365 2.86118 14.5214C2.85523 14.4063 2.87354 14.2912 2.91491 14.1836C2.95628 14.076 3.0198 13.9783 3.10134 13.8968L3.48742 13.5107C3.62985 13.367 3.82027 13.2807 4.02229 13.2684C4.22432 13.2561 4.42379 13.3187 4.58259 13.4442L4.58117 13.4427C5.69436 14.3286 7.07586 14.8095 8.49858 14.8063C9.52767 14.8063 10.5411 14.5545 11.4505 14.0728C12.3599 13.5912 13.1377 12.8944 13.7158 12.0431C14.294 11.1919 14.6551 10.2121 14.7676 9.1893C14.8801 8.16647 14.7405 7.13165 14.3612 6.17513C13.9818 5.2186 13.3741 4.36944 12.5911 3.70172C11.8081 3.034 10.8735 2.56801 9.86905 2.34441C8.86455 2.1208 7.82059 2.14638 6.82825 2.4189C5.83591 2.69143 4.92534 3.20262 4.17597 3.90788L4.17951 3.90505L5.91933 5.64471C5.99596 5.72143 6.04813 5.81914 6.06923 5.9255C6.09033 6.03186 6.07941 6.14209 6.03786 6.24224C5.99631 6.3424 5.92598 6.42799 5.83579 6.48818C5.74559 6.54838 5.63957 6.58047 5.53113 6.58042H0.548296C0.402879 6.58042 0.263417 6.52266 0.160592 6.41984C0.0577667 6.31702 0 6.17757 0 6.03217V1.04976C0.000280244 0.941477 0.03258 0.835697 0.0928358 0.745725C0.153092 0.655754 0.238612 0.585611 0.338638 0.54412C0.438663 0.502629 0.548727 0.491644 0.654981 0.512546C0.761235 0.533449 0.858934 0.585305 0.935786 0.661592L2.62814 2.3538C4.20787 0.840238 6.31212 -0.00326898 8.5 9.52129e-06C13.1888 9.52129e-06 16.9915 3.79667 17 8.483V8.48371L16.9993 8.48442ZM10.7987 11.1839L11.1352 10.7511C11.2017 10.666 11.2508 10.5687 11.2796 10.4647C11.3084 10.3606 11.3164 10.2519 11.3031 10.1448C11.2898 10.0377 11.2555 9.9342 11.2021 9.84036C11.1488 9.74651 11.0774 9.66412 10.9921 9.59791L10.99 9.5965L9.59517 8.51133V4.93567C9.59517 4.48163 9.22681 4.11259 8.77202 4.11259H8.22373C7.76965 4.11259 7.40057 4.48092 7.40057 4.93567V9.58233L9.64264 11.3255C9.81433 11.46 10.0324 11.5208 10.2488 11.4946C10.4653 11.4684 10.6626 11.3574 10.7973 11.186L10.7987 11.1839Z"/>
            </symbol>
            <symbol id="check" viewBox="0 0 25 19">
                <path d="M1 9.5L9.5 18L23.6667 1" fill="transparent" stroke-width="2" stroke-linecap="round" stroke-linejoin="round"/>
            </symbol>
            <symbol id="crown" viewBox="0 0 33 33">
                <path d="M27.2767 22.1201C26.5031 16.7061 21.9657 12.5811 16.5001 12.5811C11.0345 12.5811 6.49696 16.7061 5.72351 22.0686H27.2767V22.1201Z" fill="#C14A42"/>
                <path d="M31.8657 11.8077C31.6594 10.8796 31.092 10.1577 30.267 9.69366C29.9062 9.48741 29.4937 9.38428 29.0812 9.33273C28.7203 9.28116 28.3594 9.33273 27.9983 9.43586C27.3795 9.59053 26.7608 9.89991 26.1937 10.1577C25.4203 10.5187 24.6983 10.8796 24.0282 10.8796V13.2515C25.214 13.2515 26.2969 12.7359 27.2249 12.2718C28.2045 11.8077 28.8233 11.4984 29.1844 11.7046C29.442 11.8593 29.5969 12.0655 29.6483 12.3234C29.6999 12.6327 29.6999 13.0452 29.5969 13.5093C29.4937 14.0249 29.2358 14.5921 28.9265 15.2624C28.3078 16.5515 27.4828 17.789 26.864 18.7171C26.6578 19.078 26.4515 19.3874 26.2969 19.5937L26.142 19.903C26.142 19.9546 26.0907 19.9546 26.0907 20.0062H7.01242C7.01242 19.9546 6.96087 19.9546 6.96087 19.903L6.80617 19.5937C6.6515 19.3359 6.44525 19.0265 6.239 18.7171C5.62025 17.789 4.79525 16.5515 4.1765 15.2624C3.86713 14.5921 3.66087 14.0249 3.50618 13.5093C3.40305 12.9937 3.3515 12.5812 3.45463 12.3234C3.50618 12.0655 3.66088 11.8593 3.91868 11.7046C4.27962 11.4984 4.89837 11.7562 5.87805 12.2718C6.80618 12.7359 7.83742 13.2515 9.07492 13.2515V10.8796C8.40462 10.8796 7.68275 10.5187 6.9093 10.1577C6.34212 9.84836 5.72337 9.59053 5.10462 9.43586C4.64055 9.33273 4.27962 9.28116 3.91868 9.33273C3.50618 9.38428 3.09368 9.48741 2.73275 9.69366C1.90774 10.1577 1.34056 10.9312 1.13431 11.8077C0.876494 12.9937 1.13431 14.489 2.06243 16.3452C2.73275 17.7374 3.6093 19.078 4.27962 20.0577C4.48587 20.3671 4.69212 20.6765 4.79525 20.8827C4.8468 20.9859 4.89837 21.089 5.0015 21.1921C5.31087 21.6562 5.51712 22.0171 5.62025 22.4296V28.2562C5.46555 28.2562 5.36243 28.3592 5.36243 28.5655C5.36243 28.7203 5.46555 28.875 5.62025 28.875H27.4312C27.5858 28.875 27.689 28.7717 27.689 28.5655C27.689 28.4108 27.5858 28.2562 27.4312 28.2562V22.4812C27.5858 22.0687 27.792 21.7077 28.0499 21.2437C28.1015 21.1405 28.1532 21.0374 28.2562 20.9343C28.3594 20.728 28.5657 20.4187 28.7719 20.1093C29.3907 19.1296 30.267 17.789 30.989 16.3968C31.8657 14.5405 32.1233 13.0452 31.8657 11.8077Z" fill="#F2B200"/>
                <path d="M16.9641 14.0255C17.2219 14.8505 15.9328 16.088 14.0766 16.7068C12.2203 17.3771 10.4672 17.2224 10.1578 16.3974C9.9 15.5724 11.1891 14.3349 13.0453 13.7161C14.9016 13.0974 16.6547 13.2005 16.9641 14.0255Z" fill="#E8766F"/>
                <path d="M15.2626 22.9971H17.7376V28.5659H15.2626V22.9971Z" fill="#FFDD7D"/>
                <path d="M19.4907 22.9971H21.9657V28.5659H19.4907V22.9971Z" fill="#FFCE31"/>
                <path d="M17.7374 22.9971H19.4906V28.5659H17.7374V22.9971Z" fill="white"/>
                <path d="M23.7188 22.9971H25.472V28.5659H23.7188V22.9971Z" fill="#FFCE31"/>
                <path d="M5.56885 22.9971H7.32197V28.5659H5.56885V22.9971Z" fill="#F2B200"/>
                <path d="M7.5282 22.9971H10.9313V28.5659H7.5282V22.9971Z" fill="#FFCE31"/>
                <path d="M14.6438 17.9947C14.6438 18.7682 13.2516 20.7275 13.2516 20.7275C13.2516 20.7275 11.8594 18.7682 11.8594 17.9947C11.8594 17.2213 12.4781 16.6025 13.2516 16.6025C14.025 16.6025 14.6438 17.2213 14.6438 17.9947Z" fill="#F2B200"/>
                <path d="M21.0891 17.9947C21.0891 18.7682 19.6969 20.7275 19.6969 20.7275C19.6969 20.7275 18.3047 18.7682 18.3047 17.9947C18.3047 17.2213 18.9235 16.6025 19.6969 16.6025C20.4703 16.6025 21.0891 17.2213 21.0891 17.9947Z" fill="#F2B200"/>
                <path d="M19.7483 6.49667H13.2515L14.7983 4.07324H18.0983L19.7483 6.49667Z" fill="#66CAF2"/>
                <path d="M6.23914 16.9123C7.47664 15.7263 9.95164 15.1076 11.6016 15.5717C10.3126 16.7576 7.88914 17.3763 6.23914 16.9123Z" fill="#FFCE31"/>
                <path d="M26.864 16.9123C25.214 17.3763 22.739 16.7576 21.5015 15.5717C23.1515 15.1076 25.6265 15.7263 26.864 16.9123Z" fill="#FFCE31"/>
                <path d="M13.7157 15.5197C15.211 14.6432 17.7376 14.6432 19.2329 15.5197C17.7376 16.3963 15.2626 16.3963 13.7157 15.5197Z" fill="#FFCE31"/>
                <path d="M17.0156 4.07324L17.5828 6.49667H19.7484L18.0984 4.07324H17.0156Z" fill="#C14A42"/>
                <path d="M17.0155 4.07324H15.8812L15.4171 6.49667H17.5827L17.0155 4.07324Z" fill="#E8766F"/>
                <path d="M15.8811 4.07324L15.4171 6.49667H13.2515L14.7983 4.07324H15.8811Z" fill="#DEF266"/>
                <path d="M5.92969 21.5018C9.43596 21.244 12.9938 21.1924 16.5 21.1924C20.0063 21.1924 23.5641 21.244 27.0704 21.5018C23.5641 21.7596 20.0063 21.8111 16.5 21.8111C12.9938 21.7596 9.43596 21.7596 5.92969 21.5018Z" fill="#FFDD7D"/>
                <path d="M5.56885 22.9971H27.3797V23.5642H5.56885V22.9971Z" fill="#C14A42"/>
                <path d="M5.56886 23.564C5.71123 23.564 5.82666 23.4255 5.82666 23.2547C5.82666 23.0838 5.71123 22.9453 5.56886 22.9453C5.42646 22.9453 5.31104 23.0838 5.31104 23.2547C5.31104 23.4255 5.42646 23.564 5.56886 23.564Z" fill="#C14A42"/>
                <path d="M27.4312 23.564C27.5736 23.564 27.6891 23.4255 27.6891 23.2547C27.6891 23.0838 27.5736 22.9453 27.4312 22.9453C27.2888 22.9453 27.1733 23.0838 27.1733 23.2547C27.1733 23.4255 27.2888 23.564 27.4312 23.564Z" fill="#C14A42"/>
                <path d="M26.1423 10.5187C25.9876 9.95154 25.7814 9.43591 25.4205 8.97186C25.0596 8.50779 24.6471 8.09531 24.0798 7.78594C23.6673 7.57969 23.2548 7.42499 22.7907 7.37344C22.4298 7.32186 22.0173 7.37344 21.6048 7.47656C20.9345 7.63124 20.2642 7.99219 19.5939 8.30156C19.4392 8.40469 19.2329 8.45624 19.0267 8.55936C19.4392 7.73436 19.697 6.96091 19.697 6.44531L13.2517 6.44531C13.2517 6.96091 13.5095 7.73436 13.922 8.55936C13.7157 8.45624 13.5611 8.40469 13.3548 8.30156C12.6845 7.99219 12.0142 7.63124 11.3439 7.47656C10.9314 7.37344 10.5189 7.32186 10.1579 7.37344C9.69387 7.42499 9.28137 7.52811 8.86887 7.78594C8.35325 8.09531 7.8892 8.50779 7.52825 8.97186C7.21887 9.43591 6.96107 9.95154 6.80637 10.5187C6.44545 12.014 6.6517 13.9219 7.4767 16.139C8.09545 17.8922 8.92045 19.3359 9.28137 20.0578H12.0142C11.9111 19.8516 11.7564 19.6453 11.6532 19.4391C11.6017 19.3359 11.4986 19.2328 11.447 19.1297C10.3642 17.3765 8.50795 13.4062 9.07512 11.1375C9.22982 10.5703 9.48762 10.1578 10.0032 9.89999C10.1579 9.79686 10.3642 9.74531 10.8282 9.84844C11.2923 9.95156 11.8079 10.2094 12.3751 10.5187C13.2517 10.9828 14.2314 11.4469 15.3142 11.6016V20.1094H17.6345V11.6016C18.7173 11.4469 19.697 10.9828 20.6251 10.5187C21.1923 10.2609 21.7079 9.95156 22.172 9.84844C22.6361 9.74531 22.8423 9.79686 22.997 9.89999C23.4611 10.1578 23.7705 10.5703 23.9251 11.1375C24.4923 13.4062 22.6361 17.325 21.5532 19.1297C21.5017 19.2328 21.3986 19.3359 21.347 19.4391C21.1923 19.6453 21.0892 19.8516 20.9861 20.0578H23.7189C24.1314 19.3875 24.9048 17.8922 25.5235 16.139C26.2971 13.9219 26.5034 12.014 26.1423 10.5187Z" fill="#FFCE31"/>
                <path d="M16.5001 8.817C15.6235 8.817 14.8501 8.45605 14.2313 7.94043C14.386 9.0748 15.3141 9.95138 16.5001 9.95138C17.6344 9.95138 18.6141 9.0748 18.7688 7.94043C18.1501 8.50763 17.3766 8.817 16.5001 8.817Z" fill="#F2B200"/>
            </symbol>
            <symbol id="auto" viewBox="0 0 17 16">
                <path d="M13.259 0V2.63586H10.8227C10.052 2.63586 9.20088 3.01212 8.48908 3.73123C7.77732 4.45035 7.00382 5.51715 5.77578 7.27154C4.5422 9.03379 3.85525 10.0987 3.42685 10.5773C2.99845 11.0558 3.06735 11.0148 2.44385 11.0148H0V13.1095H2.44385C3.37995 13.1095 4.3215 12.7182 4.98698 11.9748C5.65246 11.2314 6.28056 10.2017 7.49082 8.47273C8.70661 6.73588 9.47955 5.70798 9.97724 5.20517C10.4749 4.70238 10.4963 4.73059 10.8228 4.73059H13.259V7.48101L17 3.74103L13.259 0ZM0 2.63585V4.73058H2.44385C3.06735 4.73058 2.99845 4.68843 3.42685 5.16698C3.70247 5.47488 4.15653 6.12785 4.72295 6.95078C4.79972 6.84066 4.8359 6.78756 4.91715 6.67147C5.2257 6.23068 5.50596 5.83298 5.76486 5.47027C5.85496 5.34405 5.93044 5.24447 6.0158 5.12661C5.63301 4.57355 5.3142 4.13492 4.98698 3.7694C4.3215 3.02601 3.37995 2.63585 2.44385 2.63585H0V2.63585ZM13.259 8.32326V11.0148H10.8227C10.4963 11.0148 10.4749 11.0419 9.97722 10.5391C9.64802 10.2065 9.18181 9.61693 8.56325 8.77165C8.48844 8.87775 8.42789 8.96173 8.34941 9.07386C7.91632 9.69258 7.61773 10.139 7.30423 10.6013C7.749 11.1903 8.1276 11.6478 8.48909 12.013C9.20085 12.7321 10.0519 13.1095 10.8228 13.1095H13.259V15.8042L17 12.0643L13.259 8.32326Z"/>
            </symbol>
            <symbol id="vk" viewBox="0 0 20 20">
                <path d="M13.0696 0H6.93041C1.32808 0 0 1.32808 0 6.93041V13.0696C0 18.6719 1.32808 20 6.93041 20H13.0696C18.6719 20 20 18.6719 20 13.0696V6.93041C20 1.32808 18.6588 0 13.0696 0ZM16.1457 14.2671H14.6939C14.1439 14.2671 13.9746 13.8308 12.9852 12.8283C12.1259 11.9953 11.7453 11.8846 11.5334 11.8846C11.234 11.8846 11.149 11.969 11.149 12.3796V13.6914C11.149 14.0433 11.0384 14.2546 10.1072 14.2546C8.56723 14.2546 6.85854 13.3233 5.66045 11.5884C3.85363 9.04597 3.35927 7.14165 3.35927 6.74791C3.35927 6.53605 3.44364 6.33793 3.8505 6.33793H5.30546C5.67357 6.33793 5.81357 6.5073 5.95669 6.90103C6.67604 8.97785 7.87413 10.7972 8.36849 10.7972C8.55098 10.7972 8.63536 10.7128 8.63536 10.2472V8.10225C8.57973 7.1129 8.05912 7.02791 8.05912 6.67667C8.05912 6.5073 8.19912 6.33793 8.42349 6.33793H10.7115C11.0209 6.33793 11.1347 6.5073 11.1347 6.87166V9.76532C11.1347 10.0778 11.2746 10.1884 11.359 10.1884C11.5415 10.1884 11.6978 10.0778 12.0359 9.73907C13.0808 8.56723 13.8296 6.76041 13.8296 6.76041C13.9271 6.54855 14.0964 6.35043 14.4645 6.35043H15.9195C16.3557 6.35043 16.4532 6.5748 16.3557 6.88729C16.1732 7.73351 14.3927 10.2466 14.3927 10.2466C14.2396 10.5003 14.1808 10.6109 14.3927 10.894C14.5489 11.1059 15.057 11.5453 15.3951 11.939C16.017 12.6452 16.4951 13.2377 16.6226 13.6477C16.7657 14.0546 16.5545 14.2664 16.1439 14.2664L16.1457 14.2671Z"/>
            </symbol>
            <symbol id="chat" viewBox="0 0 20 16">
                <path d="M11.8026 10.6641C13.0116 10.1544 13.9659 9.46066 14.6653 8.58255C15.3645 7.70465 15.7142 6.7486 15.7142 5.71437C15.7142 4.6801 15.3645 3.72397 14.665 2.84602C13.9657 1.96808 13.0115 1.27425 11.8024 0.764464C10.5934 0.254756 9.2783 0 7.85706 0C6.43595 0 5.12089 0.254913 3.91172 0.764464C2.70268 1.27421 1.74842 1.96804 1.04913 2.84602C0.349747 3.72413 0 4.6801 0 5.71441C0 6.59974 0.264529 7.43344 0.792766 8.21467C1.32096 8.99575 2.04645 9.65435 2.969 10.19C2.89465 10.3687 2.81839 10.5322 2.74024 10.6812C2.66206 10.83 2.56914 10.9731 2.46117 11.1108C2.35328 11.2486 2.26966 11.3565 2.21009 11.4343C2.15055 11.5124 2.05384 11.6224 1.91984 11.7635C1.78587 11.9049 1.70026 11.9979 1.66313 12.0425C1.66313 12.035 1.64823 12.0518 1.61845 12.0928C1.58862 12.1337 1.57189 12.1522 1.56822 12.1487C1.56446 12.1447 1.54957 12.1633 1.52353 12.2042C1.4975 12.2452 1.48444 12.2656 1.48444 12.2656L1.45649 12.3213C1.44547 12.3437 1.43789 12.3657 1.43421 12.3882C1.43046 12.4103 1.42858 12.4347 1.42858 12.4607C1.42858 12.4866 1.43226 12.5107 1.43984 12.5331C1.45473 12.6297 1.4975 12.7077 1.56818 12.7675C1.63881 12.8269 1.715 12.8566 1.79694 12.8566H1.83044C2.20239 12.8045 2.52239 12.745 2.7902 12.678C3.93604 12.3805 4.97035 11.9041 5.89293 11.2494C6.56252 11.3685 7.2173 11.428 7.85714 11.428C9.27837 11.4285 10.5936 11.1738 11.8026 10.6641Z"/>
                <path d="M19.2075 11.0769C19.736 10.2994 20 9.46454 20 8.57158C20 7.65631 19.7207 6.80014 19.1628 6.00409C18.6047 5.20811 17.8457 4.54579 16.886 4.01752C17.057 4.5755 17.1425 5.14096 17.1425 5.71399C17.1425 6.71093 16.8936 7.65588 16.3947 8.54883C15.8963 9.44152 15.1819 10.2301 14.2519 10.9148C13.3888 11.5398 12.4066 12.0195 11.3054 12.3545C10.2044 12.6892 9.05478 12.8567 7.85684 12.8567C7.6337 12.8567 7.30628 12.842 6.87479 12.8123C8.37026 13.7942 10.1263 14.2854 12.1425 14.2854C12.7825 14.2854 13.4372 14.2258 14.1069 14.1067C15.0295 14.7617 16.0638 15.2377 17.2096 15.5355C17.4774 15.6026 17.7974 15.662 18.1694 15.714C18.2586 15.7215 18.3407 15.6954 18.415 15.6359C18.4894 15.5764 18.5378 15.4948 18.56 15.3907C18.5566 15.346 18.56 15.3215 18.5713 15.318C18.5822 15.3144 18.5804 15.2901 18.5656 15.2456C18.5509 15.2008 18.5434 15.1785 18.5434 15.1785L18.5156 15.1229C18.5079 15.1082 18.4953 15.0876 18.4765 15.0616C18.4579 15.0358 18.4431 15.0169 18.4319 15.0058C18.4209 14.9947 18.4043 14.976 18.3818 14.9501C18.3596 14.9243 18.3446 14.9075 18.3371 14.9C18.3 14.8553 18.2144 14.7624 18.0805 14.6209C17.9465 14.4797 17.85 14.37 17.7904 14.2919C17.7309 14.2137 17.6471 14.1059 17.5393 13.9681C17.4315 13.8306 17.3384 13.6873 17.2602 13.5385C17.1821 13.3897 17.1059 13.2259 17.0315 13.0475C17.9541 12.5113 18.6794 11.8547 19.2075 11.0769Z"/>
            </symbol>
            <symbol id="more" viewBox="0 0 20 19">
                <path d="M9.99999 8.3418C12.3035 8.3418 14.1709 6.47442 14.1709 4.1709C14.1709 1.86738 12.3035 0 9.99999 0C7.69646 0 5.82909 1.86738 5.82909 4.1709C5.82909 6.47442 7.69646 8.3418 9.99999 8.3418Z" />
                <path d="M15.8291 18.3418C18.1326 18.3418 20 16.4744 20 14.1709C20 11.8674 18.1326 10 15.8291 10C13.5256 10 11.6582 11.8674 11.6582 14.1709C11.6582 16.4744 13.5256 18.3418 15.8291 18.3418Z" />
                <path d="M4.1709 18.3418C6.47442 18.3418 8.3418 16.4744 8.3418 14.1709C8.3418 11.8674 6.47442 10 4.1709 10C1.86738 10 0 11.8674 0 14.1709C0 16.4744 1.86738 18.3418 4.1709 18.3418Z"/>
            </symbol>
            <symbol id="warning" viewBox="0 0 1024 758">
                <path d="M955.7 856L539.7 136C533.5 125.3 522.8 120 512 120C501.2 120 490.4 125.3 484.3 136L68.3 856C55.9999 877.4 71.3999 904 95.9999 904H928C952.6 904 968 877.4 955.7 856ZM480 416C480 411.6 483.6 408 488 408H536C540.4 408 544 411.6 544 416V600C544 604.4 540.4 608 536 608H488C483.6 608 480 604.4 480 600V416ZM512 768C499.439 767.744 487.479 762.574 478.687 753.6C469.894 744.626 464.97 732.563 464.97 720C464.97 707.437 469.894 695.374 478.687 686.4C487.479 677.426 499.439 672.256 512 672C524.561 672.256 536.52 677.426 545.313 686.4C554.105 695.374 559.03 707.437 559.03 720C559.03 732.563 554.105 744.626 545.313 753.6C536.52 762.574 524.561 767.744 512 768V768Z"/>
            </symbol>
            <symbol id="dark" viewBox="0 0 24 24">
                <path d="M11.93 2.29992C9.89 1.79992 7.91 1.94992 6.16 2.57992C5.44 2.83992 5.25 3.79992 5.85 4.28992C6.99249 5.22359 7.91278 6.3999 8.54412 7.73348C9.17545 9.06705 9.50197 10.5245 9.5 11.9999C9.50197 13.4754 9.17545 14.9328 8.54412 16.2664C7.91278 17.5999 6.99249 18.7763 5.85 19.7099C5.26 20.1999 5.43 21.1599 6.16 21.4099C7.2 21.7899 8.33 21.9999 9.5 21.9999C15.55 21.9999 20.35 16.6199 19.37 10.3999C18.76 6.47992 15.78 3.23992 11.93 2.29992V2.29992Z"/>
            </symbol>
            <symbol id="light" viewBox="0 0 24 24">
                <path d="M9.5 4C13.91 4 17.5 7.59 17.5 12C17.5 16.41 13.91 20 9.5 20C9.16 20 8.82 19.98 8.49 19.93C10.4 17.77 11.5 14.95 11.5 12C11.5 9.05 10.4 6.23 8.49 4.07C8.82 4.02 9.16 4 9.5 4ZM9.5 2C7.68 2 5.97 2.5 4.5 3.35C7.49 5.08 9.5 8.3 9.5 12C9.5 15.7 7.49 18.92 4.5 20.65C5.97 21.5 7.68 22 9.5 22C15.02 22 19.5 17.52 19.5 12C19.5 6.48 15.02 2 9.5 2Z"/>
            </symbol>
            <symbol id="coinflip" viewBox="0 0 24 24">
                <path d="M16 12C18.76 12 21 9.76 21 7C21 4.24 18.76 2 16 2C13.24 2 11 4.24 11 7C11 9.76 13.24 12 16 12ZM21.45 17.6C21.06 17.2 20.57 17 20 17H13L10.92 16.27L11.25 15.33L13 16H15.8C16.15 16 16.43 15.86 16.66 15.63C16.89 15.4 17 15.12 17 14.81C17 14.27 16.74 13.9 16.22 13.69L8.95001 11H7.00001V20L14 22L22.03 19C22.04 18.47 21.84 18 21.45 17.6V17.6ZM5.00001 11H0.984009V22H5.00001V11Z"/>
            </symbol>
            <symbol id="coinflip--orel" viewBox="0 0 69 70">
                <path d="M39.3607 0.233099C39.1308 0.616193 38.7366 0.955505 38.4191 1.04854C38.025 1.16347 36.9958 1.13063 35.8571 0.971923C31.8061 0.391809 30.8645 0.408228 30.2514 1.07043C30.0269 1.31123 29.8627 1.73264 29.8627 2.05553C29.8627 2.21972 29.8627 2.22519 29.4466 2.29086C28.6638 2.41126 28.089 2.79436 27.7988 3.39089C27.662 3.66453 27.6456 3.75209 27.651 4.24464C27.651 4.73172 27.6729 4.84117 27.8317 5.24069C27.9302 5.49243 28.0178 5.69493 28.0342 5.69493C28.0452 5.69493 28.1602 5.61283 28.2915 5.51432C28.6693 5.22974 29.0689 5.0765 29.5506 5.04914C29.9393 5.02725 29.9995 5.03819 30.3225 5.1969C30.5196 5.29541 30.7331 5.44865 30.8152 5.55263L30.9576 5.73871L30.7769 5.78249C30.6838 5.79891 30.2678 5.95215 29.8627 6.1218C28.7788 6.55962 28.4503 6.64172 27.9193 6.61435C27.4485 6.59246 27.12 6.45564 26.8846 6.19295C26.7423 6.03424 26.6875 6.09444 26.6875 6.4228C26.693 6.9865 27.027 7.39696 27.6401 7.5885C27.7934 7.63776 28.193 7.68701 28.5215 7.70343C29.0963 7.7308 29.162 7.71985 29.9995 7.50094C30.8481 7.27656 31.7075 7.06859 31.7897 7.06312C31.8116 7.06312 31.817 7.13426 31.8006 7.22183C31.7568 7.42979 31.9484 7.63776 32.1236 7.58303C32.5342 7.45716 33.4484 7.79647 33.9301 8.25618C34.1765 8.49151 34.4447 8.92933 34.5706 9.31243C34.7294 9.77214 34.7075 10.5876 34.5268 11.0801C34.2258 11.912 33.2349 12.9463 32.2714 13.4389C32.0251 13.5648 31.9977 13.6086 31.9977 13.8877C31.9977 14.1996 32.0743 14.3802 32.3097 14.5991L32.5013 14.7852L32.1017 15.3161C31.8827 15.6061 31.3955 16.1589 31.0123 16.5365C30.443 17.1111 30.2568 17.2589 29.9065 17.434C29.5397 17.6092 29.4466 17.6365 29.2222 17.6092C29.0142 17.5873 28.9266 17.5435 28.7842 17.3848L28.6036 17.1932L28.516 17.3683C28.3955 17.5982 28.3518 18.2604 28.4393 18.5286C28.4777 18.6435 28.5926 18.8296 28.6966 18.9445L28.8882 19.1525L28.7514 19.3331C28.3353 19.8858 28.0561 20.7122 28.0178 21.5222L27.985 22.1132H27.8426C27.6182 22.1132 26.1511 21.8013 25.7569 21.6699C24.9357 21.4018 24.3938 21.0132 24.1255 20.5042C23.9887 20.247 23.9777 20.1759 23.9777 19.5958C23.9777 19.251 23.9942 18.9007 24.0215 18.8132C24.0598 18.6763 24.0817 18.6654 24.3774 18.6654C25.0507 18.6654 25.746 18.3425 26.2715 17.7898C26.6821 17.3519 26.8956 16.9907 27.1145 16.3668C27.339 15.7101 27.4211 15.2285 27.4211 14.5335C27.4211 12.7384 26.2386 10.1826 24.3993 7.99349C23.8354 7.32034 22.434 5.95215 21.7332 5.38845C18.9139 3.11725 15.5417 1.46995 12.29 0.780376C11.5235 0.616193 10.0728 0.45201 9.76627 0.490319C9.70058 0.501265 9.94145 1.32218 10.1495 1.80926C10.5382 2.70679 11.1184 3.52771 12.071 4.51281C12.3556 4.81381 12.5527 5.04367 12.5089 5.02177C12.4651 5.00536 12.1312 4.85759 11.7699 4.69341C10.4287 4.08593 9.31738 3.79587 8.18418 3.74115C7.54915 3.71378 6.7499 3.77398 6.67326 3.8506C6.66231 3.86155 6.7061 4.07499 6.76632 4.33221C7.06194 5.50338 7.68601 6.54321 8.87395 7.84025C9.32285 8.32733 9.71153 8.69948 10.7298 9.62438L11.113 9.96916L10.3192 9.49303C9.29548 8.88008 7.44514 7.64871 6.9634 7.26561C6.47618 6.87157 6.07655 6.49942 5.78641 6.16558L5.55648 5.89742L5.46889 6.10538C5.25539 6.61982 5.33751 7.49547 5.6605 8.17956C5.874 8.62833 6.33932 9.20845 6.728 9.52587C6.89223 9.65721 7.02361 9.77761 7.01267 9.78309C7.00719 9.79403 6.81559 9.77761 6.59114 9.74478C5.73166 9.63532 4.25358 9.70647 3.2682 9.90896C2.68244 10.0348 2.10763 10.2702 2.10763 10.3906C2.10763 10.5219 2.58938 11.206 2.97806 11.6274C4.22074 12.9628 5.81925 14.1339 7.21522 14.7305C7.77908 14.9713 7.69149 14.9767 6.73347 14.7524C5.11306 14.3693 3.56929 13.6304 2.22259 12.5906C1.94888 12.3772 1.69705 12.2185 1.66968 12.2349C1.63684 12.2513 1.61494 12.41 1.61494 12.5797C1.62041 13.4444 2.09121 14.4897 2.80288 15.2011C3.09849 15.4912 3.78826 15.9837 3.9087 15.9837C3.94155 15.9837 3.96892 16.0056 3.96892 16.0385C3.96892 16.0658 3.89775 16.0932 3.81016 16.0932C3.58571 16.0932 2.50726 16.3778 1.9434 16.5857C1.25363 16.8375 0.503642 17.2206 0.235398 17.4614L0 17.6694L0.574809 18.2385C1.22626 18.8843 2.04741 19.4589 3.04375 19.9679C4.08388 20.4988 5.32109 20.9311 6.02181 21.0023C6.62399 21.0679 6.16961 21.1227 5.02 21.1227C3.51454 21.1281 2.23902 20.9749 0.700719 20.5973C0.585757 20.5699 0.574809 20.5863 0.574809 20.8107C0.574809 21.3908 0.848527 21.9874 1.27005 22.3212C2.02552 22.9177 3.18608 23.1695 5.17875 23.175L6.41596 23.1804L5.80831 23.5033C3.46528 24.7456 1.55472 26.2342 0.700719 27.493C0.410578 27.9144 0.208026 28.3905 0.284667 28.4671C0.377731 28.5602 1.25363 28.7791 1.81202 28.8502C3.2463 29.0308 5.75904 28.7517 7.75171 28.1935C8.06374 28.1059 8.32651 28.0403 8.33746 28.0457C8.34294 28.0567 7.7736 28.4124 7.07288 28.8338C4.27001 30.5249 2.60033 31.4224 1.71348 31.7125C1.39596 31.8219 1.18246 31.8548 0.821155 31.8548C0.273718 31.8548 0.284667 31.8384 0.607655 32.3254C1.09487 33.0643 1.7518 33.3926 2.70981 33.3926C3.88133 33.3926 5.28277 32.8672 7.57653 31.5592C7.98163 31.3294 8.31557 31.1488 8.32651 31.1543C8.33199 31.1652 8.17871 31.3951 7.98163 31.6632C6.31742 33.9508 5.2335 35.9156 4.68606 37.6231C4.32475 38.745 4.15505 39.8286 4.10578 41.3063L4.07293 42.253H4.20979C4.47256 42.253 5.32656 41.9685 5.91232 41.6839C7.22069 41.0436 8.57834 40.0037 10.155 38.4221C11.4962 37.0867 12.5637 35.8116 13.4341 34.52C13.5874 34.2902 13.7242 34.0986 13.7407 34.0986C13.7516 34.0986 13.5764 34.4872 13.3465 34.9578C13.1221 35.434 12.6896 36.3534 12.3885 36.9992C11.5673 38.7614 10.4944 40.8739 9.99072 41.7112C8.97249 43.4078 7.90499 44.5735 6.90865 45.077C6.76632 45.1536 6.66231 45.2357 6.67873 45.2631C6.69515 45.285 6.87581 45.3506 7.08931 45.3944C9.5035 45.9472 11.8794 43.873 14.2717 39.1336C14.5673 38.548 14.8082 38.0828 14.8082 38.0937C14.8082 38.1102 14.7479 38.4221 14.6713 38.7888C14.3428 40.4087 14.1841 42.16 14.1841 44.1959C14.1841 45.482 14.206 45.98 14.2772 46.489C14.3812 47.1566 14.5837 47.8955 14.7206 48.0815C14.7917 48.1855 14.8136 48.1746 15.2242 47.8626C17.5016 46.1223 19.6147 42.565 21.2132 37.7873C21.4212 37.1579 21.5909 36.6653 21.5964 36.6872C21.5964 36.7091 21.4267 37.5848 21.2187 38.6301C20.7971 40.7316 20.4632 42.0889 20.0855 43.2491C19.9486 43.6705 19.8501 44.0317 19.872 44.0481C19.8939 44.07 20.0307 44.081 20.1785 44.0755C20.5782 44.0645 20.9778 43.8456 21.3719 43.4297C21.9741 42.7784 22.4504 41.8262 23.0526 40.0311C23.2551 39.4291 23.4248 38.9311 23.4358 38.9256C23.4412 38.9147 23.5234 38.9858 23.611 39.0843L23.7697 39.2649L24.3445 38.6957C25.1383 37.8967 25.6857 37.032 26.1949 35.7459C26.6164 34.6733 27.027 33.0643 27.1583 31.9478C27.1857 31.6796 27.2076 31.6359 27.2897 31.6632C27.9083 31.8602 28.9868 31.9095 29.578 31.7727C29.9393 31.6851 30.4922 31.4279 30.7714 31.2199C30.8645 31.1488 30.9685 31.0886 31.0068 31.0886C31.1054 31.0886 31.3681 31.7015 31.4776 32.1831C31.5269 32.4075 31.5926 32.6593 31.6145 32.7414C31.6419 32.8289 31.6583 32.8946 31.6473 32.8946C31.6364 32.8946 31.4721 32.7906 31.2751 32.6593C30.339 32.0299 29.1674 31.9971 28.2642 32.5717C27.8262 32.8563 27.328 33.4419 27.0489 34.0056C26.7478 34.624 26.6 35.1494 26.5233 35.8773C26.4467 36.6051 26.3043 37.1196 25.9704 37.8146C25.527 38.745 24.8372 39.5987 24.0489 40.1898C23.8409 40.3376 23.6821 40.4908 23.6931 40.5236C23.715 40.5838 23.7916 40.6112 24.1529 40.7042L24.3281 40.748L23.9996 41.2406C23.819 41.5087 23.5562 41.8481 23.4193 41.9904L23.1675 42.2421L23.3975 42.3078C23.5179 42.3406 23.6219 42.3789 23.6219 42.3953C23.6219 42.5759 22.6803 43.5391 22.215 43.8347C22.0562 43.9332 21.9248 44.0372 21.9248 44.0591C21.9248 44.1083 22.2205 44.2561 22.434 44.3053C22.5161 44.3272 22.5818 44.3765 22.5818 44.4148C22.5818 44.5844 21.5635 45.4108 21.0106 45.6954C20.8792 45.7611 20.7752 45.8268 20.7752 45.8432C20.7752 45.8596 21.027 45.9909 21.3391 46.1387C22.0453 46.4726 22.7241 46.6422 23.3865 46.6532C23.6657 46.6532 23.8956 46.6805 23.8956 46.7024C23.8956 46.8064 23.496 47.3372 23.1949 47.6383C22.861 47.9666 22.319 48.3661 21.9686 48.5522C21.8537 48.6124 21.7606 48.6836 21.7606 48.7109C21.7606 48.7985 22.0727 48.9298 22.2807 48.9298C22.3847 48.9298 22.4723 48.9517 22.4723 48.9791C22.4723 49.0612 21.5252 49.8711 21.1037 50.1448C20.8792 50.2871 20.6 50.4403 20.4906 50.4731C20.3756 50.506 20.2825 50.5552 20.2825 50.5826C20.2825 50.6045 20.288 50.6264 20.299 50.6264C20.3044 50.6264 20.4468 50.6756 20.611 50.7304L20.9121 50.8289L20.4468 51.2886C19.976 51.7538 19.5599 52.0219 19.018 52.208C18.8647 52.2573 18.7388 52.3229 18.7333 52.3503C18.7278 52.3777 18.8045 52.4598 18.9085 52.5254C19.0508 52.6185 19.1712 52.6513 19.4121 52.6513C19.5928 52.6513 19.7351 52.6732 19.7351 52.706C19.7351 52.81 19.4066 53.1274 19.1493 53.2643C18.9249 53.3901 18.2515 53.6036 17.7534 53.713C17.6658 53.7349 17.6001 53.7842 17.6001 53.8225C17.6001 53.9319 17.9176 54.1837 18.0983 54.222C18.1859 54.2384 18.257 54.2713 18.257 54.2931C18.257 54.3917 17.8629 54.6708 17.5891 54.7638C17.1621 54.9116 16.7187 54.8842 15.602 54.6489C14.7698 54.4683 14.5071 54.4354 13.9268 54.4354L13.2315 54.43L13.1221 54.2603C12.9743 54.0359 12.5527 53.7623 12.1859 53.6528C11.3046 53.4011 10.2042 53.8936 9.9962 54.6379C9.9305 54.8623 9.92503 54.8678 9.72248 54.8514C9.55277 54.8349 9.49256 54.8568 9.42139 54.9553C9.37212 55.0265 9.3338 55.136 9.3338 55.1962C9.3338 55.2564 9.24073 55.4862 9.13125 55.7106C8.93417 56.0937 8.92322 56.1484 8.92322 56.6136C8.92322 57.0405 8.94512 57.1554 9.06555 57.4126C9.22979 57.7519 9.42686 57.9763 9.66226 58.0967L9.82102 58.1788L9.85386 57.9763C9.94145 57.4509 10.0893 57.2156 10.6148 56.7723C10.8174 56.6027 10.8174 56.6027 11.1677 56.6629C11.6002 56.734 12.0491 56.63 12.5254 56.34L12.8429 56.1429L13.56 56.2852C14.4085 56.4549 14.529 56.5041 14.2169 56.5589C13.8556 56.6136 13.5491 56.7778 13.0673 57.1609C12.8155 57.3579 12.602 57.5221 12.602 57.5221C12.5965 57.5221 12.3885 57.4838 12.1367 57.44C11.8849 57.3962 11.6002 57.3743 11.5071 57.3962C10.6531 57.5604 9.94693 58.6987 10.2097 59.4977C10.2644 59.6619 10.2699 59.7276 10.2206 59.7769C10.1331 59.8644 10.1385 60.1764 10.2316 60.253C10.2754 60.2913 10.3247 60.4062 10.3466 60.5157C10.4013 60.8276 10.5601 61.0849 10.8557 61.364C11.31 61.7908 12.2078 62.1739 12.7443 62.1739H13.018L12.9031 62.0481C12.717 61.851 12.5692 61.4515 12.5089 60.9918C12.4761 60.751 12.4378 60.5047 12.4268 60.4445C12.4049 60.3515 12.4597 60.2858 12.6951 60.1326C13.029 59.9137 13.3027 59.5306 13.3575 59.2186C13.3903 59.0216 13.4122 58.9943 13.6202 58.945C14.4414 58.7316 14.7096 58.6549 15.0271 58.5291C15.2242 58.4525 15.4651 58.3375 15.5636 58.2773C15.7279 58.1733 15.7388 58.1733 15.7388 58.2718C15.7388 58.3266 15.6293 58.4415 15.487 58.5345C15.1804 58.737 14.9231 59.0599 14.7479 59.4594C14.6166 59.7659 14.6166 59.7659 14.3702 59.7659C14.2334 59.7659 14.0253 59.7933 13.9049 59.8261C13.6202 59.9082 13.2534 60.2749 13.1713 60.5595C13.0345 61.0575 13.1549 61.7033 13.4505 62.0371C13.5764 62.1849 13.6202 62.2889 13.6257 62.4859C13.6367 62.6938 13.664 62.765 13.8009 62.8799C13.8939 62.9565 13.998 63.1207 14.0308 63.2466C14.1677 63.7173 14.7808 64.0675 15.5691 64.1277C16.0399 64.1606 16.4943 64.062 16.7406 63.865C16.9213 63.7282 16.9267 63.6297 16.7625 63.5585C16.5764 63.471 15.9633 62.8963 15.8702 62.7157C15.7279 62.4312 15.7662 62.2506 16.0235 62.0809C16.4012 61.8237 16.4669 61.6923 16.4943 61.1451C16.5107 60.8003 16.4943 60.6142 16.4341 60.4719L16.3519 60.2749L16.6038 60.0614C17.0691 59.6729 17.9833 58.7644 18.3556 58.3266L18.7223 57.8942L19.0836 57.9161C19.4723 57.9435 20.3537 57.8888 20.5179 57.8231C20.6438 57.7684 20.6384 57.8833 20.5015 58.1514C20.4413 58.2718 20.392 58.4525 20.392 58.5619C20.392 58.852 20.6 59.2296 20.83 59.339C21.1092 59.4813 21.1201 59.6455 20.9011 60.149C20.7971 60.3843 20.6438 60.6251 20.5508 60.7072L20.3756 60.855L20.5508 60.959C20.9285 61.1888 21.6511 61.1505 22.1493 60.8769C22.4942 60.6908 22.6475 60.4828 22.6803 60.1545C22.7022 59.9356 22.7241 59.8918 22.8774 59.8206C23.0197 59.7495 23.0471 59.7057 23.0635 59.5196C23.0799 59.3445 23.1292 59.2515 23.3208 59.0545C23.6383 58.7261 23.7314 58.4908 23.7314 57.9982C23.7314 57.4674 23.5124 57.0022 23.1347 56.7285C22.7296 56.433 22.3299 56.3619 21.5416 56.4439C21.1639 56.4877 21.1146 56.4768 20.9778 56.3728C20.8464 56.2688 20.83 56.2196 20.83 55.924V55.5957L21.5854 54.6872C22.0015 54.1837 22.8336 53.1712 23.4303 52.4324C25.4941 49.8985 26.7861 48.4263 27.0762 48.2731C27.1529 48.2293 27.2569 48.3059 27.5963 48.6452C28.0726 49.1159 28.5707 49.4114 29.1291 49.5537C29.4302 49.6303 30.0269 49.6741 30.0269 49.6194C30.0269 49.6085 29.9557 49.4552 29.8682 49.2801C29.6875 48.9079 29.5561 48.4756 29.5068 48.0815C29.4904 47.9283 29.4631 47.7532 29.4466 47.6875C29.4247 47.5671 29.4302 47.5671 29.6547 47.7258C29.8791 47.8845 30.4101 48.0815 30.4101 48.0104C30.4101 47.9885 30.3718 47.7751 30.328 47.5343C30.224 46.9542 30.224 45.6243 30.328 45.0277C30.547 43.7635 31.1108 42.5431 32.0196 41.3391C32.5068 40.6988 32.6491 40.5346 32.682 40.562C32.7148 40.6003 32.6108 41.9083 32.4904 42.855C32.2221 44.9894 31.7185 46.6969 30.8535 48.3607L30.4758 49.0831L30.651 49.1104C31.1984 49.198 32.0907 48.7602 32.4959 48.2019L32.6546 47.983V48.3935C32.6546 49.2144 32.2167 50.4513 31.6419 51.2558C31.3079 51.7264 30.8043 52.1752 30.3773 52.3831C30.0652 52.5419 29.9503 52.5637 29.6109 52.5637C29.2769 52.5637 29.1674 52.5419 28.8718 52.3886C28.6857 52.2901 28.5269 52.219 28.5215 52.2244C28.4448 52.312 28.308 52.8757 28.2861 53.2095C28.2477 53.8334 28.3682 54.1782 28.7897 54.5996C29.2386 55.0484 29.6437 55.1907 30.3773 55.1578C30.7933 55.1414 30.9357 55.1086 31.2477 54.9608C31.4557 54.8678 31.6911 54.7364 31.7842 54.6762C31.8718 54.6106 31.9429 54.5832 31.9429 54.6106C31.9429 54.7036 31.7404 55.2509 31.6145 55.4972C31.0506 56.6081 29.5835 57.4947 28.3299 57.4892C27.6291 57.4838 27.2131 57.243 27.016 56.7285C26.9175 56.4768 26.9448 55.8912 27.0653 55.4972C27.224 55.0046 27.224 55.0046 26.9229 55.0046C25.6693 55.0101 24.6675 55.7763 24.3609 56.9693C24.1912 57.637 24.2734 58.4962 24.558 59.0709C24.7332 59.4211 25.0781 59.848 25.319 60.0122C25.4394 60.0943 25.5379 60.1764 25.5379 60.1983C25.5325 60.2147 25.423 60.3187 25.2861 60.4226C24.673 60.8933 24.1091 61.7799 24.0106 62.4366C23.8956 63.159 24.1803 63.9252 24.7934 64.5327C25.8554 65.5944 27.4923 66.0158 29.1072 65.6491C30.6838 65.2934 31.9813 64.3083 33.1528 62.568C33.3663 62.2451 33.5688 61.9605 33.5907 61.9331C33.6126 61.9058 33.5853 62.07 33.525 62.2889C33.2896 63.2083 33.2349 63.6516 33.2349 64.6914C33.2349 65.8188 33.328 66.3934 33.6455 67.3019C33.9301 68.1119 34.5487 69.2448 35.0469 69.8796L35.1454 70L35.4301 69.5239C36.1035 68.3855 36.5852 67.1979 36.8534 66.0158C36.9848 65.4357 37.0013 65.2661 37.0013 64.2536C37.0013 63.3013 36.9848 63.0551 36.8863 62.6391C36.8206 62.3655 36.7768 62.1411 36.7823 62.1302C36.7932 62.1247 36.8918 62.2615 37.0122 62.4312C37.3516 62.9347 38.1454 63.8322 38.5615 64.1879C39.9027 65.3481 41.3753 65.8407 42.8424 65.6218C43.8552 65.474 44.7913 64.872 45.3825 63.9854C45.7383 63.4436 45.8643 63.0222 45.8369 62.4202C45.8205 61.9714 45.7986 61.8784 45.6124 61.5008C45.3716 61.0082 44.8953 60.4993 44.3424 60.1435C44.1453 60.0177 43.9866 59.8973 43.9866 59.8754C43.9866 59.8535 44.0413 59.8097 44.1125 59.7823C44.5449 59.5744 45.0212 58.945 45.2621 58.2335C45.5796 57.3251 45.4646 56.236 44.9774 55.5409C44.6325 55.0429 44.0851 54.72 43.3898 54.5996C43.2311 54.5723 43.2147 54.5777 43.2475 54.6653C43.2639 54.7145 43.3077 54.8897 43.3351 55.0539C43.4829 55.8419 43.034 56.6191 42.2457 56.9255C42.0048 57.0186 41.8132 57.0459 41.4136 57.0514C40.7786 57.0569 40.4337 56.9748 39.826 56.6902C39.0377 56.3126 38.3698 55.5355 38.0469 54.616C37.9976 54.4902 37.9702 54.3752 37.9812 54.3698C37.9921 54.3588 38.1837 54.4135 38.4082 54.4956C38.7312 54.6106 38.9173 54.6379 39.3607 54.6434C39.8534 54.6489 39.941 54.6325 40.2202 54.4956C40.6417 54.2877 40.9538 53.9702 41.1563 53.5379C41.3151 53.2095 41.3315 53.1165 41.3315 52.6787C41.3315 52.2792 41.3041 52.1314 41.2001 51.9015L41.0742 51.617L40.8224 51.7866C39.6782 52.5747 38.6709 52.2354 37.9812 50.8344C37.6746 50.2159 37.3078 49.0557 37.3078 48.7164C37.3078 48.596 37.3133 48.5905 37.4064 48.6726C37.4611 48.7219 37.6472 48.8258 37.8169 48.9079C38.1563 49.0612 38.8187 49.1433 39.1855 49.0721L39.3771 49.0338L39.0377 48.5303C38.1016 47.1293 37.4721 45.3069 37.1436 43.0357C37.0286 42.2202 36.848 40.2883 36.8863 40.2445C36.9246 40.2117 37.6965 41.5525 38.0688 42.2968C38.8571 43.8785 39.2786 45.2412 39.3881 46.5984C39.4155 46.9268 39.4483 47.2004 39.4647 47.2168C39.514 47.2716 39.826 47.0636 40.0067 46.8502C40.1107 46.7298 40.2749 46.489 40.368 46.3138L40.5432 46.0019L40.5158 46.7681C40.4884 47.693 40.4118 47.9557 40.0395 48.4865C39.8862 48.7054 39.7768 48.897 39.7932 48.9134C39.8096 48.9298 39.9957 48.9572 40.2038 48.9736C40.7184 49.0064 41.2165 48.8532 41.7202 48.4975C42.1034 48.2293 42.4866 47.8407 42.6618 47.5507C42.711 47.4631 42.7658 47.3975 42.7822 47.3975C42.7986 47.3975 42.8807 47.5014 42.9683 47.6218C43.2913 48.0815 44.7968 50.0299 45.6015 51.0368C46.6416 52.3339 47.3861 53.2041 48.4098 54.315C48.8533 54.7966 49.2584 55.2509 49.3076 55.3275C49.45 55.53 49.4335 55.7544 49.2693 55.9021C49.0777 56.0827 48.8587 56.1101 48.5193 56.0061C48.1088 55.8857 47.4737 55.8857 47.1507 56.0061C46.8442 56.1265 46.554 56.4275 46.4226 56.7723C46.2256 57.2922 46.4226 58.0694 46.8004 58.239C46.9208 58.2937 46.9263 58.3211 46.9044 58.644C46.8661 59.0928 46.9482 59.3171 47.2766 59.6784C47.5942 60.0286 47.9555 60.1983 48.4646 60.242C48.8916 60.2749 49.4335 60.16 49.6908 59.9739L49.8551 59.859L49.6635 59.7659C49.3186 59.5963 49.1598 59.4485 49.0065 59.1749C48.8587 58.9067 48.8587 58.8903 48.9244 58.5455C48.9847 58.2171 49.0065 58.1898 49.1708 58.1296C49.2748 58.0912 49.3898 58.0037 49.439 57.938C49.5102 57.8176 49.5485 57.8121 49.8934 57.8395C50.3916 57.8723 50.5832 57.834 50.9499 57.6096L51.2565 57.429L52.2802 58.4525C52.8441 59.0161 53.293 59.5032 53.2711 59.5361C53.2547 59.5689 53.2711 59.6236 53.3094 59.6674C53.3641 59.7167 53.386 59.8918 53.3806 60.2311C53.3806 60.8167 53.4463 60.9699 53.8349 61.3038C54.0375 61.4789 54.1196 61.5883 54.1415 61.7361C54.1798 61.9496 54.2455 62.059 54.4316 62.1849L54.5521 62.267L54.2674 62.5132C54.1087 62.6446 53.8842 62.8197 53.7692 62.8963L53.5612 63.0386L53.7692 63.1645C54.0649 63.3506 54.782 63.3506 55.1816 63.17C55.7345 62.9182 56.0849 62.5789 56.0849 62.2998C56.0849 62.2341 56.1342 62.152 56.1999 62.1137C56.3258 62.0262 56.4298 61.6978 56.4243 61.4077C56.4188 61.3038 56.4791 61.063 56.5502 60.8769C56.802 60.253 56.698 59.6674 56.2656 59.2351C56.0247 58.9943 55.74 58.841 55.4389 58.7972C55.2856 58.7699 55.1324 58.6659 54.8094 58.3594C54.5685 58.1405 54.1306 57.7629 53.8295 57.5221C53.5284 57.2813 53.293 57.0843 53.3094 57.0843C53.3258 57.0843 53.5065 57.1445 53.7145 57.2156C53.9171 57.2922 54.6068 57.5276 55.2364 57.741C55.8714 57.9599 56.5502 58.2226 56.7528 58.3211C57.0977 58.4962 57.1305 58.5236 57.1853 58.748C57.2619 59.0545 57.5137 59.3555 57.7601 59.4485L57.9517 59.5196L57.9188 59.9848C57.8969 60.242 57.8477 60.5814 57.8039 60.7455C57.6998 61.1122 57.7272 61.1888 57.9736 61.1888C58.2582 61.1888 58.6469 60.9863 58.9754 60.658C59.2381 60.4008 59.5338 59.9027 59.5338 59.7221C59.5338 59.6838 59.5995 59.5142 59.6761 59.35C59.813 59.0654 59.813 59.0435 59.7254 58.9067C59.6378 58.7753 59.6378 58.7589 59.7856 58.4908C59.9936 58.1022 59.9991 57.6972 59.7965 57.347C59.6049 57.0241 59.3805 56.838 58.9316 56.6245C58.6195 56.4768 58.521 56.4549 58.0831 56.4549C57.6506 56.4549 57.5575 56.4713 57.3385 56.5972L57.0812 56.7395L56.8458 56.5534C56.5557 56.3235 56.1342 56.1101 55.636 55.9295C55.428 55.8584 55.2638 55.7817 55.2638 55.7598C55.2638 55.6832 55.636 55.5081 55.9754 55.4205C56.1725 55.3768 56.5283 55.3166 56.7692 55.2892C57.1853 55.2454 57.2181 55.2509 57.4973 55.3986C57.8586 55.5902 58.3075 55.6066 58.6195 55.4479L58.8221 55.3439L59.0082 55.53C59.2053 55.727 59.3203 55.7544 59.5666 55.6613C59.698 55.6066 59.7363 55.623 59.9005 55.7817C60.0046 55.8802 60.1797 56.1046 60.2837 56.2798C60.3932 56.4494 60.4972 56.5917 60.5191 56.5917C60.5958 56.5917 60.7929 56.3345 60.9078 56.0773C61.2418 55.322 61.0118 54.3315 60.4151 53.9648C60.2947 53.8882 60.1797 53.7842 60.1578 53.7294C60.1305 53.6364 59.8677 53.4722 59.7527 53.4722C59.7199 53.4722 59.5502 53.3245 59.3805 53.1493C59.1451 52.9085 58.9973 52.81 58.8166 52.7608C58.2254 52.6021 57.4535 52.8976 57.2017 53.3737C57.1141 53.5379 57.1579 53.527 56.0302 53.6638C55.2473 53.7623 54.1141 54.025 53.4901 54.2603C52.8824 54.4902 52.7291 54.4573 52.0722 53.9648C51.9353 53.8608 51.8204 53.7568 51.8149 53.7404C51.8149 53.7185 51.8751 53.6857 51.9463 53.6692C52.116 53.6255 52.4718 53.2971 52.4718 53.1767C52.4718 53.111 52.4171 53.0891 52.2419 53.0891C51.7054 53.0837 51.0813 52.8429 50.7802 52.52C50.6543 52.3886 50.6543 52.3777 50.7364 52.1642L50.824 51.9508L50.512 51.7976C50.1671 51.6334 49.543 51.0423 49.2474 50.61L49.0668 50.3418L49.2036 50.1995C49.4883 49.8876 49.4828 49.8547 49.1106 49.7289C48.6726 49.5811 48.2182 49.302 47.8296 48.9517L47.5175 48.6671L47.7474 48.4592C47.8788 48.3388 47.9883 48.2184 47.9938 48.1855C48.0047 48.1527 47.7748 47.9666 47.4901 47.7751C46.9153 47.392 46.1708 46.6805 45.6124 45.98C45.4099 45.7283 45.2511 45.5148 45.2566 45.5039C45.2676 45.4984 45.5358 45.5148 45.8478 45.5422C47.0029 45.6571 48.2347 45.4491 48.9135 45.0387L49.0996 44.9238L48.6124 44.7486C48.0102 44.5297 47.8296 44.4422 47.4026 44.1412C47.085 43.9168 46.7566 43.5665 46.6252 43.3093C46.565 43.1944 46.5705 43.1889 46.8059 43.1506C46.9427 43.1342 47.0631 43.0959 47.0796 43.074C47.0905 43.0521 46.8825 42.8715 46.6088 42.669C46.1435 42.3187 45.7986 41.9411 45.607 41.5635C45.5248 41.3883 45.5248 41.3883 45.6727 41.3555C45.9081 41.3008 46.1216 41.2023 46.1216 41.153C46.1216 41.1311 46.0121 41.0436 45.8807 40.9669C45.607 40.8082 45.1362 40.3266 45.0103 40.0804L44.9227 39.9162L45.2566 39.8833C45.6672 39.845 45.7548 39.7739 45.5358 39.6644C45.0705 39.4181 44.5011 38.7395 44.1015 37.9405C43.8168 37.3713 43.7512 37.2017 43.1873 35.6419C42.6125 34.0439 42.4099 33.5842 42.0377 33.0205C41.5231 32.2488 41.0304 31.9423 40.3187 31.9478C39.722 31.9588 39.1582 32.0956 38.6052 32.3802C38.337 32.5115 38.1016 32.6155 38.0907 32.5991C38.0523 32.5662 38.3808 31.9314 38.6655 31.4826C38.8406 31.2199 38.9501 31.0941 39.0049 31.1105C39.0487 31.1214 39.2731 31.2035 39.4976 31.2801C39.8206 31.3951 40.045 31.4334 40.5377 31.4553C41.2494 31.4881 41.7037 31.406 42.1088 31.1652L42.3442 31.0284V31.209C42.3442 31.3075 42.3935 31.707 42.4537 32.0956C42.815 34.416 43.565 36.2111 44.6654 37.3713C45.1964 37.9296 45.1854 37.9296 45.6015 37.6559C45.7931 37.53 45.9792 37.3932 46.0175 37.3494C46.1161 37.229 46.1763 37.2564 46.1763 37.4261C46.1763 37.8912 46.5924 39.5987 46.8934 40.3649C47.4573 41.8152 48.1799 42.5595 49.0941 42.6252L49.4609 42.6526L49.3569 42.4063C48.8423 41.2023 48.5303 39.2923 48.4536 36.8076L48.4263 35.932L48.5358 36.6161C49.346 41.8207 50.9281 45.8103 52.8441 47.4631L53.0959 47.682L53.189 47.5671C53.4025 47.3044 53.7036 46.2701 53.8952 45.1536C54.2291 43.1834 54.3386 40.9122 54.1908 38.9967L54.1579 38.6137L54.3605 38.9694C56.2327 42.2749 57.6834 44.0372 58.8495 44.4476C59.3805 44.6337 59.7144 44.5735 60.6998 44.1083C61.291 43.8347 61.4443 43.7307 61.2691 43.7307C61.1049 43.7307 60.3385 43.1506 59.9115 42.7018C58.9699 41.7167 58.3841 40.759 56.8677 37.738C56.2491 36.5012 55.7564 35.5051 55.7729 35.5215C55.7893 35.538 55.9864 35.8116 56.2108 36.1345C57.7327 38.3126 59.6542 40.1734 61.5045 41.2734C62.3147 41.7495 63.4644 42.2312 63.5629 42.1272C63.6286 42.067 63.6012 40.0694 63.5355 39.5167C63.3494 38.0445 62.9936 36.6818 62.4023 35.226C61.9917 34.23 61.1049 32.5389 60.4972 31.6194C60.4425 31.5374 60.4151 31.4717 60.4316 31.4717C60.4535 31.4717 60.7053 31.5921 61.0009 31.7398C63.7545 33.119 65.9771 33.5513 67.2471 32.9493C67.707 32.7304 68.1285 32.32 68.3475 31.8767C68.4406 31.6796 68.5117 31.51 68.4953 31.4936C68.4844 31.4772 68.353 31.499 68.2052 31.5319C67.7782 31.6304 67.0117 31.6085 66.4643 31.4772C65.1997 31.1762 64.2746 30.6891 60.875 28.5437C60.3659 28.2209 59.7527 27.8597 59.5119 27.7393C59.2765 27.6243 59.0958 27.5149 59.1122 27.4985C59.1287 27.482 59.3914 27.5805 59.7035 27.7119C61.937 28.6642 63.8311 29.1129 65.6377 29.1184C66.6012 29.1184 67.2471 29.0308 67.8986 28.8119C68.2271 28.7025 68.9168 28.396 68.9989 28.3194C69.0318 28.292 68.2927 27.2631 67.8657 26.7432C66.5738 25.1835 65.2271 24.2148 63.2125 23.3939C63.1304 23.361 63.5081 23.3446 64.3074 23.3446C65.5994 23.3446 65.9716 23.3008 66.6723 23.0655C67.696 22.7152 68.4132 21.9436 68.5446 21.0515C68.5774 20.8107 68.5719 20.7888 68.4898 20.8162C68.2709 20.8983 67.5209 21.0734 67.0336 21.1555C66.415 21.254 65.2326 21.265 64.4497 21.1719C63.8202 21.1008 63.8202 21.1063 64.7508 20.86C66.1139 20.5042 67.1596 19.9843 67.8876 19.3057C68.2709 18.95 68.5829 18.4738 68.4789 18.3972C67.3128 17.549 65.4625 16.7882 64.1322 16.6131C63.9023 16.5803 63.8585 16.5584 63.9406 16.5255C64.7344 16.2081 65.4078 15.8962 65.78 15.6773C66.3712 15.327 66.9351 14.8016 67.1212 14.4185C67.2471 14.1558 67.2636 14.0737 67.2417 13.7235C67.2198 13.4389 67.1705 13.2419 67.061 13.0175L66.9077 12.7055L66.6285 12.9463C65.8402 13.614 64.2417 14.4951 63.1414 14.8618C62.4023 15.1026 62.2764 15.1026 62.687 14.8563C63.9406 14.1011 65.6213 12.2623 66.2508 10.9597C66.415 10.6204 66.4315 10.5438 66.3712 10.4836C66.2727 10.396 65.6869 10.21 65.2271 10.1169C64.7508 10.0294 62.8293 10.0239 62.4406 10.1169C62.2764 10.1552 62.1341 10.1717 62.1177 10.1607C62.1067 10.1443 62.1998 10.0129 62.3257 9.87065C63.1578 8.92933 63.6286 7.72532 63.4808 6.9263C63.4206 6.61435 63.1687 6.07255 63.0647 6.04518C63.0374 6.03424 62.8622 6.22578 62.6815 6.47206C62.26 7.04123 61.3075 8.00444 60.5903 8.58455C60.2783 8.8363 60.0265 9.02784 60.0265 9.00595C60.0265 8.98953 60.1469 8.82535 60.2947 8.6338C60.9516 7.79647 61.4772 6.84968 61.7947 5.93025C61.9972 5.35561 62.2709 4.22822 62.2709 3.97648C62.2709 3.80135 62.2381 3.80135 61.1706 3.91627C59.8184 4.05857 59.0356 4.29937 58.0721 4.88496C57.9736 4.94516 57.8914 4.97799 57.8914 4.96157C57.8914 4.95063 58.0283 4.74266 58.198 4.50733C58.9754 3.42373 59.479 2.23613 59.5666 1.26745L59.6049 0.900777L59.3914 0.917195C54.2127 1.38785 49.7456 3.4292 46.4226 6.84968C44.9774 8.33827 43.9044 9.85971 42.9409 11.7916C42.3826 12.919 42.1636 13.5429 42.0705 14.3091C41.8297 16.23 42.5358 18.036 43.7785 18.6709C44.107 18.8351 44.6873 18.95 45.0978 18.9281C45.3004 18.9171 45.4646 18.9226 45.4646 18.939C45.4701 18.9555 45.492 19.1361 45.5139 19.3385C45.6124 20.1047 45.3661 20.86 44.8734 21.2923C44.3041 21.7958 43.3515 22.0914 42.2074 22.1242L41.6052 22.1406L41.5724 21.3197C41.5286 20.3948 41.4519 20.0774 41.1673 19.6505C41.0632 19.4918 40.9756 19.355 40.9756 19.344C40.9756 19.3331 41.0249 19.3221 41.0851 19.3221C41.3041 19.3221 41.5724 19.1634 41.7366 18.9336C41.8297 18.8077 41.9063 18.6873 41.9063 18.6599C41.9063 18.638 41.7421 18.5724 41.5395 18.5067C40.795 18.2823 40.5049 17.9813 40.4118 17.341C40.368 17.0181 40.3789 16.7171 40.4775 15.7375C40.6581 13.9314 40.6308 14.0737 40.8388 14.1066C41.0085 14.1339 41.4136 13.9916 41.4136 13.9041C41.4136 13.8822 41.3643 13.822 41.3096 13.7727C41.2494 13.718 41.1454 13.5484 41.0742 13.3951C40.9538 13.127 40.9483 13.0558 40.9538 11.9612C40.9538 11.0801 40.9975 10.4015 41.1344 9.06068C41.337 7.07954 41.3424 6.22578 41.1454 5.46507C41.0304 5.0163 40.8224 4.55659 40.6746 4.43619C40.5979 4.37051 40.6034 4.34862 40.7403 4.20633C40.8716 4.06951 40.8935 4.00384 40.8826 3.77398C40.8771 3.57696 40.899 3.50582 40.9538 3.50582C40.9921 3.50582 41.107 3.43467 41.2056 3.34711C41.3698 3.19934 41.3862 3.16103 41.3808 2.8655C41.3808 2.63017 41.3424 2.47146 41.2329 2.25802C41.1508 2.10479 41.0687 1.97344 41.0468 1.97344C41.0249 1.97344 40.9264 2.05006 40.8278 2.14857C40.6691 2.30181 40.6034 2.32917 40.2968 2.34559C40.0012 2.36748 39.8917 2.34559 39.6235 2.21972C39.3388 2.08837 39.3169 2.06648 39.41 2.01175C39.8315 1.74906 39.9903 1.46995 39.9903 0.999287C39.9903 0.665448 39.8151 0.222153 39.618 0.0415518C39.5304 -0.035067 39.514 -0.0241214 39.3607 0.233099ZM38.6271 59.2515C39.9738 60.1216 41.5614 60.4883 42.9081 60.2366C43.1709 60.1873 43.4227 60.1326 43.472 60.1107C43.5541 60.0833 43.5596 60.1271 43.5377 60.5102C43.4829 61.4898 42.8315 62.07 41.7968 62.0754C41.3424 62.0754 40.7074 61.9003 40.264 61.6431C39.618 61.2709 38.8954 60.5759 38.4465 59.8973C38.1837 59.5087 37.7458 58.6878 37.7458 58.6002C37.7458 58.5729 37.8553 58.6495 37.9921 58.7753C38.129 58.9012 38.4136 59.1147 38.6271 59.2515ZM32.0907 59.038C31.5981 59.8754 31.2586 60.3351 30.7112 60.9097C29.3317 62.3545 27.8262 62.9018 26.8244 62.3108C26.37 62.0481 26.1401 61.4844 26.2168 60.8605C26.2715 60.4008 26.2715 60.4062 26.7751 60.543C27.3445 60.6963 28.6474 60.7127 29.2222 60.5704C30.1857 60.3296 31.1546 59.8425 31.7568 59.2953C32.0798 59.0052 32.1345 58.9614 32.0907 59.038Z"/>
            </symbol>
            <symbol id="coinflip--reshka" viewBox="0 0 66 66">
                <path d="M57.75 0C59.9384 0 62.0365 0.869194 63.5835 2.41636C65.1304 3.96354 66 6.06196 66 8.25V57.75C66 59.9381 65.1304 62.0364 63.5835 63.5836C62.0365 65.1308 59.9384 66 57.75 66H8.25C6.06158 66 3.96348 65.1308 2.41653 63.5836C0.869585 62.0364 0 59.9381 0 57.75V8.25C0 6.06196 0.869585 3.96354 2.41653 2.41636C3.96348 0.869194 6.06158 0 8.25 0H57.75ZM24.354 44.5624L41.25 27.6664V39.0844C41.25 39.6314 41.4677 40.156 41.8544 40.5428C42.2412 40.9296 42.7657 41.1468 43.3122 41.1468C43.8599 41.1468 44.3844 40.9296 44.7712 40.5428C45.1579 40.156 45.3756 39.6314 45.3756 39.0844V22.6876C45.3756 22.1405 45.1579 21.6159 44.7712 21.2291C44.3844 20.8423 43.8599 20.625 43.3122 20.625H26.9153C26.3687 20.625 25.8442 20.8423 25.4575 21.2291C25.0707 21.6159 24.8531 22.1405 24.8531 22.6876C24.8531 23.2345 25.0707 23.7591 25.4575 24.1459C25.8442 24.5327 26.3687 24.75 26.9153 24.75H38.3333L21.4373 41.646C21.0621 42.0349 20.8537 42.556 20.8583 43.0967C20.863 43.6376 21.0806 44.1548 21.4627 44.5373C21.8448 44.9196 22.3624 45.1366 22.9032 45.1412C23.4439 45.146 23.965 44.9381 24.354 44.5624Z"/>
            </symbol>
            <symbol id="hunt" viewBox="0 0 20 20">
                <path d="M10 7C9.40666 7 8.82664 7.17595 8.33329 7.50559C7.83994 7.83524 7.45542 8.30377 7.22836 8.85195C7.0013 9.40013 6.94189 10.0033 7.05764 10.5853C7.1734 11.1672 7.45912 11.7018 7.87868 12.1213C8.29824 12.5409 8.83279 12.8266 9.41473 12.9424C9.99667 13.0581 10.5999 12.9987 11.1481 12.7716C11.6962 12.5446 12.1648 12.1601 12.4944 11.6667C12.8241 11.1734 13 10.5933 13 10C13 9.20435 12.6839 8.44129 12.1213 7.87868C11.5587 7.31607 10.7956 7 10 7ZM10 11C9.80222 11 9.60888 10.9414 9.44443 10.8315C9.27998 10.7216 9.15181 10.5654 9.07612 10.3827C9.00043 10.2 8.98063 9.99889 9.01921 9.80491C9.0578 9.61093 9.15304 9.43275 9.29289 9.29289C9.43275 9.15304 9.61093 9.0578 9.80491 9.01921C9.99889 8.98063 10.2 9.00043 10.3827 9.07612C10.5654 9.15181 10.7216 9.27998 10.8315 9.44443C10.9414 9.60888 11 9.80222 11 10C11 10.2652 10.8946 10.5196 10.7071 10.7071C10.5196 10.8946 10.2652 11 10 11ZM19 9H17.93C17.7068 7.23998 16.9049 5.60408 15.6504 4.34959C14.3959 3.0951 12.76 2.29319 11 2.07V1C11 0.734784 10.8946 0.48043 10.7071 0.292893C10.5196 0.105357 10.2652 0 10 0C9.73478 0 9.48043 0.105357 9.29289 0.292893C9.10536 0.48043 9 0.734784 9 1V2.07C7.23998 2.29319 5.60408 3.0951 4.34959 4.34959C3.0951 5.60408 2.29319 7.23998 2.07 9H1C0.734784 9 0.48043 9.10536 0.292893 9.29289C0.105357 9.48043 0 9.73478 0 10C0 10.2652 0.105357 10.5196 0.292893 10.7071C0.48043 10.8946 0.734784 11 1 11H2.07C2.29319 12.76 3.0951 14.3959 4.34959 15.6504C5.60408 16.9049 7.23998 17.7068 9 17.93V19C9 19.2652 9.10536 19.5196 9.29289 19.7071C9.48043 19.8946 9.73478 20 10 20C10.2652 20 10.5196 19.8946 10.7071 19.7071C10.8946 19.5196 11 19.2652 11 19V17.93C12.76 17.7068 14.3959 16.9049 15.6504 15.6504C16.9049 14.3959 17.7068 12.76 17.93 11H19C19.2652 11 19.5196 10.8946 19.7071 10.7071C19.8946 10.5196 20 10.2652 20 10C20 9.73478 19.8946 9.48043 19.7071 9.29289C19.5196 9.10536 19.2652 9 19 9ZM10 16C8.81331 16 7.65327 15.6481 6.66658 14.9888C5.67988 14.3295 4.91085 13.3925 4.45672 12.2961C4.0026 11.1997 3.88378 9.99334 4.11529 8.82946C4.3468 7.66557 4.91824 6.59647 5.75736 5.75736C6.59647 4.91824 7.66557 4.3468 8.82946 4.11529C9.99334 3.88378 11.1997 4.0026 12.2961 4.45672C13.3925 4.91085 14.3295 5.67988 14.9888 6.66658C15.6481 7.65327 16 8.81331 16 10C16 11.5913 15.3679 13.1174 14.2426 14.2426C13.1174 15.3679 11.5913 16 10 16Z"/>
            </symbol>
            <symbol id="refresh" viewBox="0 0 20 14">
                <path d="M8 5.99974H5.101L5.102 5.99074C5.23257 5.35138 5.48813 4.74409 5.854 4.20374C6.39845 3.40156 7.16215 2.7729 8.054 2.39274C8.356 2.26474 8.671 2.16674 8.992 2.10174C9.65789 1.96674 10.3441 1.96674 11.01 2.10174C11.967 2.29784 12.8451 2.77116 13.535 3.46274L14.951 2.05074C14.3128 1.41238 13.5578 0.902783 12.727 0.549742C12.3033 0.370371 11.8628 0.233695 11.412 0.141742C10.4818 -0.0472473 9.52316 -0.0472473 8.593 0.141742C8.14185 0.234076 7.70101 0.371085 7.277 0.550742C6.02753 1.08084 4.95793 1.96083 4.197 3.08474C3.68489 3.84259 3.32676 4.69373 3.143 5.58974C3.115 5.72474 3.1 5.86274 3.08 5.99974H0L4 9.99974L8 5.99974ZM12 7.99974H14.899L14.898 8.00774C14.6367 9.28951 13.8812 10.4168 12.795 11.1457C12.2548 11.5119 11.6475 11.7675 11.008 11.8977C10.3424 12.0327 9.65656 12.0327 8.991 11.8977C8.35163 11.7672 7.74435 11.5116 7.204 11.1457C6.93862 10.9662 6.69085 10.762 6.464 10.5357L5.05 11.9497C5.68851 12.5879 6.44392 13.0972 7.275 13.4497C7.699 13.6297 8.142 13.7667 8.59 13.8577C9.51982 14.0468 10.4782 14.0468 11.408 13.8577C13.2005 13.4857 14.7773 12.4292 15.803 10.9127C16.3146 10.1555 16.6724 9.30501 16.856 8.40974C16.883 8.27474 16.899 8.13674 16.919 7.99974H20L16 3.99974L12 7.99974Z"/>
            </symbol>
            <symbol id="pochinko" viewBox="0 0 16 16">
                <path fill-rule="evenodd" clip-rule="evenodd" d="M4.518 7.07105C2.046 7.07105 0.0400009 9.06605 0.0400009 11.5291C0.0400009 13.9901 2.046 15.9851 4.518 15.9851C6.99 15.9851 8.994 13.9901 8.994 11.5291C8.99135 10.3444 8.51835 9.20931 7.67899 8.37333C6.83964 7.53735 5.70264 7.06893 4.518 7.07105V7.07105ZM5.082 8.45405C4.1174 8.45564 3.19289 8.84015 2.51166 9.52307C1.83042 10.206 1.4482 11.1314 1.449 12.0961C1.449 12.9181 0.732001 12.5661 0.732001 11.3771C0.731475 10.8993 0.825095 10.4261 1.00751 9.98447C1.18993 9.54287 1.45756 9.14155 1.79513 8.80343C2.1327 8.4653 2.53358 8.197 2.97487 8.01386C3.41616 7.83071 3.88921 7.73631 4.367 7.73605C5.553 7.73605 5.902 8.45405 5.082 8.45405Z"/>
                <path fill-rule="evenodd" clip-rule="evenodd" d="M11.518 7.07099C10.5227 7.07429 9.55722 7.41126 8.776 8.02799C8.907 8.18499 9.026 8.34999 9.137 8.52099C9.77077 8.01575 10.5565 7.73916 11.367 7.73599C12.553 7.73599 12.902 8.45399 12.082 8.45399C11.129 8.45399 10.27 8.82999 9.621 9.43199C9.889 10.078 10.039 10.786 10.039 11.53C10.0401 12.8083 9.5928 14.0465 8.775 15.029C9.535 15.62 10.479 15.986 11.517 15.986C13.989 15.986 15.993 13.991 15.993 11.53C15.9921 10.9433 15.8756 10.3626 15.6502 9.821C15.4248 9.27938 15.0949 8.78748 14.6793 8.37339C14.2637 7.95931 13.7706 7.63116 13.2282 7.40769C12.6858 7.18422 12.1047 7.06981 11.518 7.07099V7.07099Z"/>
                <path fill-rule="evenodd" clip-rule="evenodd" d="M8.018 7.19702C8.66585 6.67541 9.42229 6.3055 10.2318 6.11446C11.0413 5.92342 11.8833 5.91609 12.696 6.09302C12.8892 5.59437 12.9902 5.06477 12.994 4.53002C12.994 2.06702 10.99 0.0720215 8.518 0.0720215C6.046 0.0720215 4.04 2.06702 4.04 4.53002C4.04 5.04002 4.144 5.52202 4.303 5.97802C4.375 5.97502 4.446 5.96702 4.518 5.96702C5.844 5.96702 7.06 6.42902 8.018 7.19702V7.19702ZM8.367 0.736022C9.553 0.736022 9.902 1.45402 9.082 1.45402C8.1174 1.45561 7.19289 1.84012 6.51166 2.52304C5.83042 3.20596 5.4482 4.13142 5.449 5.09602C5.449 5.91802 4.732 5.56602 4.732 4.37702C4.73148 3.89924 4.8251 3.42603 5.00751 2.98444C5.18993 2.54284 5.45756 2.14152 5.79513 1.8034C6.1327 1.46527 6.53358 1.19697 6.97487 1.01383C7.41616 0.830684 7.88921 0.736284 8.367 0.736022V0.736022Z"/>
            </symbol>
            <symbol id="tournier" viewBox="0 0 80 65">
                <path d="M77.5762 46.5346L64 40.6249V65H78C79.105 65 80 64.091 80 62.9687V50.2683C80 49.4734 79.7703 48.6959 79.3395 48.0322C78.9087 47.3686 78.2956 46.8478 77.5762 46.5346ZM0 50.2683V62.9687C0 64.091 0.895 65 2 65H16V40.6249L2.42375 46.5346C1.70438 46.8478 1.09131 47.3686 0.660487 48.0322C0.229662 48.6959 1.65501e-05 49.4734 0 50.2683H0ZM58.0575 31.3166L52 27.6248V13.0289C52 11.9511 51.5787 10.919 50.8275 10.156L41.4137 0.595096C40.6325 -0.198365 39.3663 -0.198365 38.5863 0.595096L29.1725 10.156C28.4225 10.9177 28 11.9511 28 13.0289V27.6248L21.9425 31.3166C21.3501 31.6775 20.8598 32.188 20.5194 32.7985C20.1789 33.409 20 34.0986 20 34.8002V65H32V52.8124C32 48.3246 35.5825 44.6874 40 44.6874C44.4175 44.6874 48 48.3246 48 52.8124V65H60V34.8002C60 33.3733 59.2625 32.0504 58.0575 31.3166V31.3166Z"/>
            </symbol>
            <symbol id="mobile_promo" viewBox="0 0 34 30">
                <path opacity="0.4" d="M32.4167 17.4606C31.0483 17.4606 29.935 16.3575 29.935 15.0017C29.935 13.6442 31.0483 12.541 32.4167 12.541C32.7483 12.541 33.0667 12.4105 33.3 12.1793C33.535 11.9465 33.6667 11.6311 33.6667 11.3024L33.665 6.84025C33.665 3.06837 30.5667 0 26.76 0H7.24001C3.43334 0 0.33501 3.06837 0.33501 6.84025L0.333344 11.4461C0.333344 11.7747 0.46501 12.0902 0.70001 12.323C0.933343 12.5542 1.25168 12.6847 1.58334 12.6847C2.99834 12.6847 4.06501 13.6805 4.06501 15.0017C4.06501 16.3575 2.95168 17.4606 1.58334 17.4606C0.893344 17.4606 0.333344 18.0155 0.333344 18.6992V23.1581C0.333344 26.93 3.43001 30 7.23834 30H26.7617C30.57 30 33.6667 26.93 33.6667 23.1581V18.6992C33.6667 18.0155 33.1067 17.4606 32.4167 17.4606Z"/>
                <path d="M22.7175 14.3143L20.7525 16.2277L21.2175 18.9327C21.2975 19.401 21.1092 19.8627 20.7242 20.1393C20.3425 20.4193 19.8442 20.4543 19.4242 20.231L16.9992 18.956L14.5692 20.2327C14.3892 20.3277 14.1925 20.3777 13.9975 20.3777C13.7425 20.3777 13.4908 20.2977 13.2742 20.141C12.8908 19.8627 12.7025 19.401 12.7825 18.9327L13.2458 16.2277L11.2808 14.3143C10.9408 13.9843 10.8225 13.4993 10.9692 13.0477C11.1175 12.5977 11.5008 12.2777 11.9692 12.211L14.6792 11.816L15.8942 9.35433C16.1058 8.931 16.5292 8.66766 16.9992 8.66766H17.0025C17.4742 8.66933 17.8975 8.93266 18.1058 9.356L19.3208 11.816L22.0358 12.2127C22.4992 12.2777 22.8825 12.5977 23.0292 13.0477C23.1775 13.4993 23.0592 13.9843 22.7175 14.3143Z"/>
            </symbol>
            <symbol id="mobile_chat" viewBox="0 0 40 40">
                <path opacity="0.4" d="M3.33334 21.6167V11.65C3.33334 7.05001 7.06668 3.33334 11.6667 3.33334H28.3333C32.9333 3.33334 36.6667 7.05001 36.6667 11.65V23.2833C36.6667 27.8667 32.9333 31.5833 28.3333 31.5833H25.8333C25.3167 31.5833 24.8167 31.8333 24.5 32.25L22 35.5667C20.9 37.0333 19.1 37.0333 18 35.5667L15.5 32.25C15.2333 31.8833 14.6333 31.5833 14.1667 31.5833H11.6667C7.06668 31.5833 3.33334 27.8667 3.33334 23.2833V21.6167Z"/>
                <path d="M28.3333 14.5833H11.6667C10.9833 14.5833 10.4167 14.0167 10.4167 13.3333C10.4167 12.65 10.9833 12.0833 11.6667 12.0833H28.3333C29.0167 12.0833 29.5833 12.65 29.5833 13.3333C29.5833 14.0167 29.0167 14.5833 28.3333 14.5833ZM21.6667 22.9167H11.6667C10.9833 22.9167 10.4167 22.35 10.4167 21.6667C10.4167 20.9833 10.9833 20.4167 11.6667 20.4167H21.6667C22.35 20.4167 22.9167 20.9833 22.9167 21.6667C22.9167 22.35 22.35 22.9167 21.6667 22.9167Z"/>
            </symbol>
            <symbol id="mobile_game" viewBox="0 0 40 40">
                <path d="M16.8833 25.0134L15.1666 23.2967L16.8166 21.6467C17.2999 21.1634 17.2999 20.3634 16.8166 19.88C16.5814 19.6476 16.264 19.5172 15.9333 19.5172C15.6026 19.5172 15.2852 19.6476 15.0499 19.88L13.3999 21.53L11.7999 19.93C11.5647 19.6976 11.2473 19.5672 10.9166 19.5672C10.5859 19.5672 10.2685 19.6976 10.0333 19.93C9.54994 20.4134 9.54994 21.2134 10.0333 21.6967L11.6333 23.2967L9.98327 24.9467C9.49994 25.43 9.49994 26.23 9.98327 26.7134C10.2333 26.9634 10.5499 27.08 10.8666 27.08C11.1833 27.08 11.4999 26.9634 11.7499 26.7134L13.3999 25.0634L15.1166 26.78C15.3666 27.03 15.6833 27.1467 15.9999 27.1467C16.3166 27.1467 16.6333 27.03 16.8833 26.78C17.3666 26.2967 17.3666 25.4967 16.8833 25.0134ZM22.5666 25C21.6499 25 20.8833 24.25 20.8833 23.3334C20.8833 22.4167 21.6166 21.6667 22.5333 21.6667H22.5666C23.4833 21.6667 24.2333 22.4167 24.2333 23.3334C24.2333 24.25 23.4999 25 22.5666 25ZM29.1333 25C28.2166 25 27.4499 24.25 27.4499 23.3334C27.4499 22.4167 28.1833 21.6667 29.0999 21.6667H29.1333C30.0499 21.6667 30.7999 22.4167 30.7999 23.3334C30.7999 24.25 30.0666 25 29.1333 25ZM25.8333 28.2834C24.9166 28.2834 24.1666 27.55 24.1666 26.6334V26.6C24.1666 25.6834 24.9166 24.9334 25.8333 24.9334C26.7499 24.9334 27.4999 25.6834 27.4999 26.6C27.4999 27.5167 26.7666 28.2834 25.8333 28.2834ZM25.8333 21.7167C24.9166 21.7167 24.1666 20.9834 24.1666 20.0667V20.0334C24.1666 19.1167 24.9166 18.3667 25.8333 18.3667C26.7499 18.3667 27.4999 19.1167 27.4999 20.0334C27.4999 20.95 26.7666 21.7167 25.8333 21.7167Z"/>
                <path opacity="0.4" d="M36.6667 18.4483V27.7483C36.6667 32.665 32.6667 36.665 27.75 36.665H12.25C7.33333 36.665 3.33333 32.665 3.33333 27.7483V18.4483C3.33333 13.5316 7.33333 9.53165 12.25 9.53165H27.75C32.6667 9.53165 36.6667 13.5316 36.6667 18.4483Z"/>
                <path d="M22.7331 4.51668L22.7164 6.08334C22.7034 6.79669 22.412 7.47667 21.9043 7.97804C21.3967 8.47942 20.7132 8.76245 19.9998 8.76668C19.7498 8.76668 19.5998 8.93334 19.5998 9.15001C19.5998 9.36668 19.7664 9.53334 19.9831 9.53334H17.2998C17.2831 9.41668 17.2664 9.28334 17.2664 9.15001C17.2664 7.65001 18.4831 6.43334 19.9664 6.43334C20.2164 6.43334 20.3831 6.26668 20.3831 6.05001L20.3998 4.48334C20.4164 3.85001 20.9331 3.33334 21.5664 3.33334H21.5831C22.2331 3.33334 22.7331 3.86668 22.7331 4.51668Z"/>
            </symbol>  
            <symbol id="mobile_wallet" viewBox="0 0 40 40">
                <path opacity="0.4" d="M30.0667 22.5833C29.3667 23.2667 28.9667 24.25 29.0667 25.3C29.2167 27.1 30.8667 28.4167 32.6667 28.4167H35.8333V30.4C35.8333 33.85 33.0167 36.6667 29.5667 36.6667H10.4333C6.98334 36.6667 4.16667 33.85 4.16667 30.4V19.1833C4.16667 15.7333 6.98334 12.9167 10.4333 12.9167H29.5667C33.0167 12.9167 35.8333 15.7333 35.8333 19.1833V21.5833H32.4667C31.5333 21.5833 30.6833 21.95 30.0667 22.5833Z"/>
                <path d="M24.75 6.58676V12.9201H10.4333C6.98334 12.9201 4.16667 15.7368 4.16667 19.1868V13.0701C4.16667 11.0868 5.38334 9.32009 7.23334 8.62009L20.4667 3.62009C22.5333 2.85343 24.75 4.37009 24.75 6.58676ZM37.5983 23.2834V26.7168C37.5983 27.6334 36.865 28.3834 35.9317 28.4168H32.665C30.865 28.4168 29.215 27.1001 29.065 25.3001C28.965 24.2501 29.365 23.2668 30.065 22.5834C30.6817 21.9501 31.5317 21.5834 32.465 21.5834H35.9317C36.865 21.6168 37.5983 22.3668 37.5983 23.2834ZM23.3333 21.2501H11.6667C10.9833 21.2501 10.4167 20.6834 10.4167 20.0001C10.4167 19.3168 10.9833 18.7501 11.6667 18.7501H23.3333C24.0167 18.7501 24.5833 19.3168 24.5833 20.0001C24.5833 20.6834 24.0167 21.2501 23.3333 21.2501Z"/>
            </symbol>
            <symbol id="mobile_menu" viewBox="0 0 40 40">
                <path opacity="0.4" d="M26.9833 3.33334H13.0167C6.95 3.33334 3.33334 6.95001 3.33334 13.0167V26.9667C3.33334 33.05 6.95 36.6667 13.0167 36.6667H26.9667C33.0333 36.6667 36.65 33.05 36.65 26.9833V13.0167C36.6667 6.95001 33.05 3.33334 26.9833 3.33334Z"/>
                <path d="M28.3333 13.75H11.6667C10.9833 13.75 10.4167 13.1833 10.4167 12.5C10.4167 11.8167 10.9833 11.25 11.6667 11.25H28.3333C29.0167 11.25 29.5833 11.8167 29.5833 12.5C29.5833 13.1833 29.0167 13.75 28.3333 13.75ZM28.3333 21.25H11.6667C10.9833 21.25 10.4167 20.6833 10.4167 20C10.4167 19.3167 10.9833 18.75 11.6667 18.75H28.3333C29.0167 18.75 29.5833 19.3167 29.5833 20C29.5833 20.6833 29.0167 21.25 28.3333 21.25ZM28.3333 28.75H11.6667C10.9833 28.75 10.4167 28.1833 10.4167 27.5C10.4167 26.8167 10.9833 26.25 11.6667 26.25H28.3333C29.0167 26.25 29.5833 26.8167 29.5833 27.5C29.5833 28.1833 29.0167 28.75 28.3333 28.75Z"/>
            </symbol>




        </defs>
    </svg>
