<svg aria-hidden="true" style="position: absolute; width: 0; height: 0; overflow: hidden;z-index:100" version="1.1" xmlns="http://www.w3.org/2000/svg" xmlns:xlink="http://www.w3.org/1999/xlink">


    <defs> 

        <symbol id="wave" viewBox="0 0 214 85" preserveAspectRatio="none">           
            <path d="M52.2441 16.9307C35.0138 12.4169 13.2108 35.2093 4.19497 45.7965C1.38623 49.0947 0 53.3076 0 57.6397V65C0 76.0457 8.9543 85 20 85H194C205.046 85 214 76.0457 214 65V34.3967C214 31.6792 213.46 28.9964 212.257 26.5595C208.526 19 199.297 2.37084 189.385 0.247087C171.274 -3.63312 172.491 39.4388 154.221 41.6225C137.067 43.6727 132.55 9.89773 115.54 13.4797C99.7557 16.8035 101.844 49.4974 85.9014 50.9653C69.4223 52.4826 68.4507 21.1764 52.2441 16.9307Z" />

        </symbol>
        <symbol id="x50" viewBox="0 0 113 113" >           
            <path d="M30.9055 21.583C36.4001 17.5433 42.8764 14.7607 49.9072 13.6836V0.395538C39.2463 1.63501 29.493 5.84073 21.4912 12.1687L30.9055 21.583ZM13.6836 49.9072C14.7642 42.8765 17.5432 36.4002 21.583 30.9055L12.1687 21.4912C5.84069 29.4966 1.63497 39.2464 0.3955 49.9072H13.6836ZM100.831 21.4912L91.417 30.9055C95.4603 36.4002 98.2394 42.8765 99.3164 49.9107H112.604C111.365 39.2464 107.159 29.4966 100.831 21.4948V21.4912ZM63.0928 13.6836C70.1236 14.7642 76.6034 17.5433 82.098 21.583L91.5123 12.1687C83.507 5.84073 73.7572 1.63501 63.0964 0.395538V13.6836H63.0928ZM99.3164 63.0929C98.2394 70.1236 95.4567 76.6035 91.417 82.0981L100.831 91.5124C107.159 83.507 111.365 73.7573 112.604 63.0964H99.3164V63.0929ZM82.098 91.417C76.6034 95.4603 70.1271 98.2394 63.0928 99.3165V112.605C73.7537 111.365 83.507 107.159 91.5088 100.831L82.0945 91.417H82.098ZM21.583 82.0981C17.5432 76.6035 14.7606 70.1271 13.6836 63.0929H0.3955C1.63497 73.7537 5.84069 83.507 12.1687 91.5089L21.583 82.0945V82.0981ZM49.9072 99.3165C42.8764 98.2394 36.4001 95.4568 30.902 91.417L21.4877 100.831C29.493 107.159 39.2428 111.365 49.9036 112.605V99.3165H49.9072Z" />


        </symbol>
        <symbol id="x100" viewBox="0 0 134 101" >           

            <path fill-rule="evenodd" clip-rule="evenodd" d="M57.957 26.0442L63.0311 32.7591C64.8873 35.2157 68.4771 35.2157 70.3332 32.7591L75.3921 26.0642C105.365 29.4089 129.146 50.2949 133.27 88.0211C133.99 94.609 128.715 100.015 122.314 100.015C117.139 100.015 112.985 95.7225 112.23 90.4196C108.16 61.8079 89.3149 47.1946 66.6822 47.1946C43.9882 47.1946 25.1025 61.1875 21.1014 90.4136C20.3747 95.7218 16.2205 100.015 11.0441 100.015C4.64279 100.015 -0.63048 94.6075 0.0611178 88.0163C4.1083 49.4457 27.9234 29.2583 57.957 26.0442Z" />
            <path d="M64.6408 26.4609L52.725 3.54119C51.8063 1.77426 53.2619 -0.310827 55.1699 0.0386878L66.2781 2.07361C66.5454 2.12254 66.8187 2.12254 67.0857 2.07361L78.1939 0.0386878C80.102 -0.310827 81.5575 1.77426 80.6389 3.54119L68.723 26.4609C67.8477 28.1444 65.5161 28.1444 64.6408 26.4609Z" />
            <path d="M64.6408 26.4609L52.725 3.54119C51.8063 1.77426 53.2619 -0.310827 55.1699 0.0386878L66.2781 2.07361C66.5454 2.12254 66.8187 2.12254 67.0857 2.07361L78.1939 0.0386878C80.102 -0.310827 81.5575 1.77426 80.6389 3.54119L68.723 26.4609C67.8477 28.1444 65.5161 28.1444 64.6408 26.4609Z" />

        </symbol>
        <symbol id="dice" viewBox="0 0 113 103" > 

            <path d="M28.1158 5.057L0 48.5691L23.8713 95.1533L51.9871 51.6413L28.1158 5.06053V5.057ZM14.0191 51.4364C11.7767 51.4364 9.95813 49.6178 9.95813 47.3755C9.95813 45.1332 11.7767 43.3146 14.0191 43.3146C16.2614 43.3146 18.08 45.1332 18.08 47.3755C18.08 49.6178 16.2614 51.4364 14.0191 51.4364ZM23.8536 70.8195C21.6112 70.8195 19.7927 69.0009 19.7927 66.7585C19.7927 64.5162 21.6112 62.6976 23.8536 62.6976C26.0959 62.6976 27.9145 64.5162 27.9145 66.7585C27.9145 69.0009 26.0959 70.8195 23.8536 70.8195ZM25.1884 34.3452C22.9461 34.3452 21.1275 32.5266 21.1275 30.2842C21.1275 28.0419 22.9461 26.2233 25.1884 26.2233C27.4307 26.2233 29.2493 28.0419 29.2493 30.2842C29.2493 32.5266 27.4307 34.3452 25.1884 34.3452ZM35.9976 54.5687C33.7552 54.5687 31.9402 52.7536 31.9402 50.5112C31.9402 48.2689 33.7552 46.4503 35.9976 46.4503C38.2399 46.4503 40.0585 48.2689 40.0585 50.5112C40.0585 52.7536 38.2399 54.5722 35.9976 54.5722V54.5687ZM57.8313 55.4126L29.1681 99.7722L83.4576 102.495L112.121 58.1317L57.8313 55.4126ZM54.8827 92.6249C52.6403 92.6249 50.8253 90.8063 50.8253 88.5675C50.8253 86.3287 52.6439 84.5101 54.8827 84.5101C57.125 84.5101 58.9401 86.3287 58.9401 88.5675C58.9401 90.8063 57.1215 92.6249 54.8827 92.6249ZM87.4055 74.8769C85.1632 74.8769 83.3481 73.0583 83.3481 70.8195C83.3481 68.5807 85.1667 66.7621 87.4055 66.7621C89.6479 66.7621 91.4629 68.5807 91.4629 70.8195C91.4629 73.0583 89.6443 74.8769 87.4055 74.8769ZM88.4296 3.25253L33.6069 0.505219L58.1773 48.4631L113 51.2069L88.4296 3.25253ZM75.4275 30.2101C73.1852 30.2101 71.3666 28.3915 71.3666 26.1492C71.3666 23.9068 73.1852 22.0882 75.4275 22.0882C77.6698 22.0882 79.4884 23.9068 79.4884 26.1492C79.4884 28.3915 77.6698 30.2101 75.4275 30.2101Z"/>

        </symbol>

        <symbol id="mines" viewBox="0 0 85 120" > 

            <path d="M58.2345 38.4225V30.8175C58.2307 28.5787 56.4104 26.7638 54.1605 26.7638H47.9835V19.3687H54.7597C57.1453 19.3687 59.3688 18.4312 61.012 16.7325C62.512 15.1912 63.4391 13.0913 63.4391 10.7738C63.4391 10.65 63.4353 10.5225 63.4315 10.3988V10.4175L63.213 4.55625C63.1187 2.02125 61.0309 0 58.4681 0C58.4041 0 58.3438 0 58.2797 0.00375H58.2872C55.7396 0.10125 53.712 2.17875 53.712 4.72875C53.712 4.78875 53.712 4.8525 53.7158 4.9125V4.905L53.9004 9.91125H47.3014C42.4359 9.91125 38.475 13.8525 38.475 18.6938V26.7638H30.8433C28.5934 26.7675 26.7731 28.5787 26.7693 30.8175V38.4225C11.0989 44.6587 0 59.9175 0 77.7113C0 101.029 19.0623 120 42.5 120C65.9378 120 85 101.029 85 77.7113C85 59.9175 73.9011 44.6587 58.2307 38.4263L58.2345 38.4225Z"/>

        </symbol>

        <symbol id="jackpot" viewBox="0 0 122 94" > 

            <path d="M118.962 21.7213C117.764 20.7105 116.309 20.0604 114.762 19.8453C113.216 19.6302 111.641 19.8587 110.217 20.5046L83.7378 32.3979L68.3201 4.35352C67.5948 3.03401 66.5339 1.93461 65.2463 1.16914C63.9592 0.403613 62.4924 0 60.9988 0C59.5051 0 58.0388 0.403613 56.7518 1.16914C55.4642 1.93461 54.4033 3.03401 53.678 4.35352L38.2594 32.3974L11.7765 20.502C10.3515 19.8622 8.77823 19.637 7.23356 19.8518C5.68888 20.0667 4.23422 20.713 3.03339 21.718C1.8325 22.723 0.933082 24.0468 0.436356 25.5404C-0.0603693 27.034 -0.134632 28.638 0.221887 30.1719L13.5411 87.4808C13.7945 88.5901 14.2691 89.6357 14.9358 90.5537C15.6026 91.4712 16.4475 92.2425 17.4189 92.8192C18.3955 93.3998 19.4777 93.7767 20.6012 93.9263C21.7246 94.0764 22.8663 93.9968 23.9587 93.6921C48.1902 86.9318 73.781 86.9295 98.0136 93.6853C99.1058 93.9895 100.247 94.069 101.369 93.919C102.492 93.7689 103.574 93.3925 104.55 92.8119C105.521 92.2352 106.366 91.465 107.033 90.5481C107.7 89.6312 108.174 88.5862 108.428 87.4774L121.772 30.1783C122.135 28.6442 122.064 27.038 121.567 25.5427C121.07 24.0475 120.168 22.723 118.962 21.7213ZM100.252 85.5285C74.5465 78.3579 47.398 78.3652 21.6968 85.551L21.6952 85.5454L8.37548 28.2368L34.8579 40.1312C36.7689 41.0002 38.9335 41.1097 40.9209 40.4382C42.9082 39.7667 44.5723 38.3633 45.5817 36.5076L60.9988 8.46322L76.417 36.5082C77.4265 38.3636 79.0905 39.7667 81.0777 40.4382C83.065 41.1097 85.2292 41.0002 87.1399 40.1312L113.62 28.2385L100.252 85.5285ZM81.9147 68.7915C81.8578 69.3445 81.6936 69.8805 81.4312 70.3692C81.1693 70.8578 80.8142 71.2895 80.3865 71.6393C79.9588 71.9891 79.4674 72.2504 78.9397 72.4078C78.4121 72.5652 77.8587 72.616 77.3121 72.5573C66.4663 71.4063 55.5318 71.4063 44.6861 72.5573C43.5844 72.6691 42.4839 72.335 41.6251 71.6291C40.7663 70.9227 40.2191 69.902 40.1033 68.7892C39.9874 67.6765 40.3123 66.5627 41.0069 65.6915C41.7015 64.8203 42.7093 64.2622 43.8098 64.1398C55.2381 62.9272 66.76 62.9272 78.1882 64.1398C78.7354 64.1979 79.2653 64.3643 79.7488 64.6295C80.2324 64.8947 80.659 65.2536 81.0051 65.6853C81.3513 66.1175 81.6099 66.614 81.7662 67.1467C81.922 67.6799 81.9722 68.2385 81.9147 68.7915Z" />


        </symbol>

        <symbol id="bonus" viewBox="0 0 24 23" > 

         <path d="M1.45349 5.625H8.48474V8.4375H1.45349V5.625Z" />
         <path d="M1.45349 9.84375H8.48474V19.6875H1.45349V9.84375Z"/>
         <path d="M15.516 5.625H22.5472V8.4375H15.516V5.625Z" />
         <path d="M15.516 19.6875H22.5472V9.84375H15.516V19.6875ZM16.9222 15.4688H21.141V16.875H16.9222V15.4688Z" />
         <path d="M16.1745 3.71999C16.65 3.31799 16.9215 2.73149 16.9215 2.10899C16.9215 0.945737 15.975 -0.000762939 14.8117 -0.000762939C13.8877 -0.000762939 13.0785 0.590987 12.801 1.47149L11.9992 4.00124L11.1975 1.47149C10.92 0.590987 10.1115 -0.000762939 9.18675 -0.000762939C8.0235 -0.000762939 7.077 0.945737 7.077 2.10899C7.077 2.73074 7.34925 3.31799 7.8255 3.72074L10.0777 5.62499H9.8895V24L11.9992 21.8902L14.109 24V5.62499H13.9207L16.1745 3.71999ZM14.142 1.89674C14.2357 1.60349 14.5042 1.40624 14.8125 1.40624C15.1995 1.40624 15.516 1.72124 15.516 2.10899C15.516 2.31599 15.4252 2.51249 15.2677 2.64674L13.407 4.21874L14.142 1.89674ZM8.48475 2.10974C8.48475 1.72199 8.8005 1.40624 9.18825 1.40624C9.49575 1.40624 9.765 1.60349 9.85875 1.89674L10.5945 4.21874L8.73525 2.64749C8.57625 2.51324 8.4855 2.31674 8.4855 2.10899L8.48475 2.10974Z" />


     </symbol>

     <symbol id="home" viewBox="0 0 24 23" > 

         <path d="M23.5033 11.3116L12.5988 0.251884C12.5203 0.172037 12.427 0.10869 12.3244 0.0654689C12.2217 0.0222474 12.1116 0 12.0005 0C11.8893 0 11.7793 0.0222474 11.6766 0.0654689C11.574 0.10869 11.4807 0.172037 11.4022 0.251884L0.497704 11.3116C0.180021 11.634 0 12.072 0 12.5288C0 13.4773 0.759793 14.2485 1.69431 14.2485H2.84327V22.1402C2.84327 22.6158 3.22184 23 3.69042 23H10.3062V16.9811H13.2712V23H20.3106C20.7792 23 21.1577 22.6158 21.1577 22.1402V14.2485H22.3067C22.7567 14.2485 23.1883 14.0684 23.5059 13.7433C24.1651 13.0715 24.1651 11.9833 23.5033 11.3116Z" />


     </symbol>

     <symbol id="user" viewBox="0 0 23 23" > 

         <path d="M10.6696 9.97969C13.244 9.97969 15.3308 7.8836 15.3308 5.29766C15.3308 2.71172 13.244 0.615631 10.6696 0.615631C8.09511 0.615631 6.00833 2.71172 6.00833 5.29766C6.00833 7.8836 8.09511 9.97969 10.6696 9.97969ZM0.7 18.85C0.570112 19.6563 1.218 20.3852 2.02067 20.3852H19.3192C20.1483 20.3852 20.7698 19.6563 20.6399 18.85C19.8886 14.1945 15.7197 11.5406 10.6703 11.5406C5.621 11.5406 1.45133 14.1938 0.7 18.85Z" />


     </symbol>

     <symbol id="faq" viewBox="0 0 20 23" > 

         <path d="M10 0C4.486 0 0 4.486 0 10C0 15.514 4.486 20 10 20C15.514 20 20 15.514 20 10C20 4.486 15.514 0 10 0ZM11 16H9V14H11V16ZM11.976 11.115C11.78 11.273 11.591 11.424 11.441 11.574C11.033 11.981 11.001 12.351 11 12.367V12.5H9V12.333C9 12.215 9.029 11.156 10.026 10.159C10.221 9.964 10.463 9.766 10.717 9.56C11.451 8.965 11.933 8.531 11.933 7.933C11.9214 7.42782 11.7125 6.94725 11.3511 6.59412C10.9896 6.24099 10.5043 6.04334 9.99901 6.04347C9.4937 6.0436 9.0085 6.2415 8.64725 6.59482C8.28599 6.94814 8.07736 7.42881 8.066 7.934H6.066C6.066 5.765 7.831 4 10 4C12.169 4 13.934 5.765 13.934 7.934C13.934 9.531 12.755 10.484 11.976 11.115Z"/>


     </symbol>

     <symbol id="support" viewBox="0 0 24 26" > 

       <path d="M23.5 9.95312H21V8.008C21 4.68 17.0672 0.8125 12 0.8125C6.9328 0.8125 3 4.68 3 8.008V9.95312H0.5C0.224 9.95312 0 10.1806 0 10.4609V18.5859C0 18.8654 0.224 19.0938 0.5 19.0938H3.5C3.7752 19.0938 4 18.8654 4 18.5859V8.008C4 5.20894 7.5672 1.82812 12 1.82812C16.4328 1.82812 20 5.20894 20 8.00881V21.1884C20 22.2722 19.1304 23.1554 18.0624 23.1554H17V22.6476C17 22.3681 16.7752 22.1398 16.5 22.1398H12.4536C11.652 22.1398 11 22.802 11 23.7112C11.0008 24.5261 11.6512 25.1867 12.4528 25.1867H16.5C16.7752 25.1867 17 24.96 17 24.6789V24.1711H18.0632C19.6832 24.1711 21 22.8345 21 21.1884V19.0929H23.5C23.776 19.0929 24 18.8646 24 18.5851V10.4601C24 10.1798 23.7752 9.95231 23.5 9.95231V9.95312Z" />
       <path d="M19 12.0689V10.0165C19 6.10269 15.8592 2.91931 12 2.91931C8.1408 2.91931 5 6.11325 5 10.0384V11.8373C5 15.5642 7.9392 21.0933 12 21.0933C15.7696 21.0957 19 16.1322 19 12.0689Z" />

   </symbol>

   <symbol id="coins" viewBox="0 0 24 24" > 

     <path d="M0 18.9984V20.9999C0 22.6546 4.03125 23.9999 9 23.9999C13.9688 23.9999 18 22.6546 18 20.9999V18.9984C16.0641 20.3624 12.525 20.9999 9 20.9999C5.475 20.9999 1.93594 20.3624 0 18.9984ZM15 5.99994C19.9688 5.99994 24 4.65463 24 2.99994C24 1.34525 19.9688 -6.10352e-05 15 -6.10352e-05C10.0312 -6.10352e-05 6 1.34525 6 2.99994C6 4.65463 10.0312 5.99994 15 5.99994ZM0 14.0812V16.4999C0 18.1546 4.03125 19.4999 9 19.4999C13.9688 19.4999 18 18.1546 18 16.4999V14.0812C16.0641 15.6749 12.5203 16.4999 9 16.4999C5.47969 16.4999 1.93594 15.6749 0 14.0812ZM19.5 14.5968C22.1859 14.0765 24 13.1109 24 11.9999V9.99838C22.9125 10.7671 21.3141 11.2921 19.5 11.6156V14.5968ZM9 7.49994C4.03125 7.49994 0 9.17806 0 11.2499C0 13.3218 4.03125 14.9999 9 14.9999C13.9688 14.9999 18 13.3218 18 11.2499C18 9.17806 13.9688 7.49994 9 7.49994ZM19.2797 10.139C22.0922 9.63275 24 8.639 24 7.49994V5.49838C22.3359 6.67494 19.4766 7.30775 16.4672 7.45775C17.85 8.12806 18.8672 9.02806 19.2797 10.139Z"/>


 </symbol>
 <symbol id="chat" viewBox="0 0 28 22" > 

     <path d="M16.5227 14.9287C18.2151 14.2152 19.5511 13.244 20.5301 12.0148C21.509 10.7858 21.9985 9.44739 21.9985 7.99956C21.9985 6.55167 21.509 5.21317 20.5297 3.98412C19.5508 2.75508 18.215 1.78378 16.5224 1.07012C14.8298 0.356576 12.9888 -6.10352e-05 10.9992 -6.10352e-05C9.00977 -6.10352e-05 7.1688 0.356794 5.47607 1.07012C3.78351 1.78372 2.44764 2.75502 1.46868 3.98412C0.489616 5.21339 0 6.55167 0 7.99961C0 9.239 0.370318 10.4061 1.1098 11.4998C1.84923 12.5932 2.86486 13.5152 4.15635 14.265C4.05226 14.5152 3.94549 14.7441 3.8361 14.9527C3.72665 15.161 3.59657 15.3613 3.44543 15.5542C3.29439 15.7471 3.17733 15.898 3.09393 16.007C3.01059 16.1163 2.8752 16.2703 2.68761 16.4679C2.50007 16.6658 2.38022 16.796 2.32823 16.8583C2.32823 16.8479 2.30738 16.8715 2.26568 16.9288C2.22393 16.9861 2.20051 17.012 2.19536 17.0071C2.19011 17.0014 2.16926 17.0275 2.13281 17.0848C2.09637 17.1421 2.07809 17.1708 2.07809 17.1708L2.03896 17.2486C2.02353 17.2801 2.01291 17.3109 2.00777 17.3423C2.00252 17.3733 1.99989 17.4074 1.99989 17.4438C1.99989 17.4801 2.00503 17.5138 2.01565 17.5452C2.0365 17.6805 2.09637 17.7896 2.19531 17.8734C2.2942 17.9565 2.40085 17.9981 2.51555 17.9981H2.56245C3.08315 17.9252 3.53112 17.8419 3.90604 17.748C5.51011 17.3316 6.95805 16.6647 8.24959 15.7482C9.18696 15.9148 10.1036 15.9981 10.9993 15.9981C12.9889 15.9988 14.8301 15.6423 16.5227 14.9287Z"/>
     <path d="M26.8889 15.5067C27.6287 14.4183 27.9983 13.2495 27.9983 11.9994C27.9983 10.7181 27.6072 9.51954 26.8263 8.40514C26.045 7.29085 24.9824 6.36366 23.6389 5.62411C23.8783 6.40525 23.9981 7.19683 23.9981 7.99903C23.9981 9.39466 23.6496 10.7175 22.9513 11.9676C22.2534 13.2172 21.2534 14.3212 19.9515 15.2797C18.7432 16.1546 17.3683 16.8262 15.8266 17.2951C14.2853 17.7637 12.6759 17.9982 10.9989 17.9982C10.6866 17.9982 10.2282 17.9776 9.62415 17.936C11.7177 19.3106 14.1759 19.9983 16.9985 19.9983C17.8944 19.9983 18.8109 19.9148 19.7485 19.7481C21.04 20.665 22.488 21.3313 24.0919 21.7482C24.4669 21.8422 24.9148 21.9254 25.4356 21.9982C25.5606 22.0087 25.6754 21.9722 25.7794 21.8888C25.8836 21.8055 25.9514 21.6913 25.9825 21.5456C25.9776 21.483 25.9825 21.4487 25.9982 21.4437C26.0136 21.4388 26.0109 21.4048 25.9903 21.3424C25.9697 21.2798 25.9592 21.2485 25.9592 21.2485L25.9203 21.1706C25.9094 21.15 25.8918 21.1212 25.8656 21.0849C25.8395 21.0487 25.8188 21.0223 25.803 21.0068C25.7877 20.9912 25.7645 20.965 25.733 20.9288C25.7019 20.8927 25.6809 20.8691 25.6704 20.8586C25.6184 20.7961 25.4987 20.666 25.3112 20.468C25.1236 20.2702 24.9884 20.1166 24.9051 20.0073C24.8217 19.8979 24.7045 19.747 24.5535 19.5541C24.4026 19.3615 24.2722 19.161 24.1628 18.9526C24.0535 18.7443 23.9467 18.5151 23.8426 18.2653C25.1342 17.5147 26.1495 16.5955 26.8889 15.5067Z" />


 </symbol>  

 <symbol id="more" viewBox="0 0 24 23" > 

    <path d="M11.9999 10.0101C14.7642 10.0101 17.005 7.76924 17.005 5.00501C17.005 2.24079 14.7642 -6.10352e-05 11.9999 -6.10352e-05C9.23572 -6.10352e-05 6.99487 2.24079 6.99487 5.00501C6.99487 7.76924 9.23572 10.0101 11.9999 10.0101Z" />
    <path d="M18.9949 22.0101C21.7591 22.0101 24 19.7692 24 17.005C24 14.2408 21.7591 11.9999 18.9949 11.9999C16.2307 11.9999 13.9898 14.2408 13.9898 17.005C13.9898 19.7692 16.2307 22.0101 18.9949 22.0101Z" />
    <path d="M5.00507 22.0101C7.7693 22.0101 10.0101 19.7692 10.0101 17.005C10.0101 14.2408 7.7693 11.9999 5.00507 11.9999C2.24085 11.9999 0 14.2408 0 17.005C0 19.7692 2.24085 22.0101 5.00507 22.0101Z" />


</symbol>



<symbol id="users" viewBox="0 0 20 13" > 

 <path d="M20 8.6125C20 9.1 19 9.425 17.8333 9.5875C17.0833 8.20625 15.5833 7.15 13.8333 6.41875C14 6.175 14.1667 6.0125 14.3333 5.76875H15C17.5833 5.6875 20 7.23125 20 8.6125ZM5.66667 5.6875H5C2.41667 5.6875 0 7.23125 0 8.6125C0 9.1 1 9.425 2.16667 9.5875C2.91667 8.20625 4.41667 7.15 6.16667 6.41875L5.66667 5.6875ZM10 6.5C11.8333 6.5 13.3333 5.0375 13.3333 3.25C13.3333 1.4625 11.8333 0 10 0C8.16667 0 6.66667 1.4625 6.66667 3.25C6.66667 5.0375 8.16667 6.5 10 6.5ZM10 7.3125C6.58333 7.3125 3.33333 9.425 3.33333 11.375C3.33333 13 10 13 10 13C10 13 16.6667 13 16.6667 11.375C16.6667 9.425 13.4167 7.3125 10 7.3125ZM14.75 4.875H15C16.4167 4.875 17.5 3.81875 17.5 2.4375C17.5 1.05625 16.4167 0 15 0C14.5833 0 14.25 0.0812502 13.9167 0.24375C14.5833 1.05625 15 2.1125 15 3.25C15 3.81875 14.9167 4.3875 14.75 4.875ZM5 4.875H5.25C5.08333 4.3875 5 3.81875 5 3.25C5 2.1125 5.41667 1.05625 6.08333 0.24375C5.75 0.0812502 5.41667 0 5 0C3.58333 0 2.5 1.05625 2.5 2.4375C2.5 3.81875 3.58333 4.875 5 4.875Z"/>


</symbol>

<symbol id="logout" viewBox="0 0 18 18" > 

 <path d="M2 18H16C17.103 18 18 17.103 18 16V2C18 0.897 17.103 0 16 0H2C0.897 0 0 0.897 0 2V8.001H6.998V4L12.998 9L6.998 14V10.001H0V16C0 17.103 0.897 18 2 18Z" /> 


</symbol>
</defs>

</svg>    



