<svg width="24" height="24" viewBox="0 0 24 24" fill="none" xmlns="http://www.w3.org/2000/svg">
<g clip-path="url(#clip0)">
<path d="M1.45349 5.625H8.48474V8.4375H1.45349V5.625Z" fill="#67749A"/>
<path d="M1.45349 9.84375H8.48474V19.6875H1.45349V9.84375Z" fill="#67749A"/>
<path d="M15.516 5.625H22.5472V8.4375H15.516V5.625Z" fill="#67749A"/>
<path d="M15.516 19.6875H22.5472V9.84375H15.516V19.6875ZM16.9222 15.4688H21.141V16.875H16.9222V15.4688Z" fill="#67749A"/>
<path d="M16.1745 3.71999C16.65 3.31799 16.9215 2.73149 16.9215 2.10899C16.9215 0.945737 15.975 -0.000762939 14.8117 -0.000762939C13.8877 -0.000762939 13.0785 0.590987 12.801 1.47149L11.9992 4.00124L11.1975 1.47149C10.92 0.590987 10.1115 -0.000762939 9.18675 -0.000762939C8.0235 -0.000762939 7.077 0.945737 7.077 2.10899C7.077 2.73074 7.34925 3.31799 7.8255 3.72074L10.0777 5.62499H9.8895V24L11.9992 21.8902L14.109 24V5.62499H13.9207L16.1745 3.71999ZM14.142 1.89674C14.2357 1.60349 14.5042 1.40624 14.8125 1.40624C15.1995 1.40624 15.516 1.72124 15.516 2.10899C15.516 2.31599 15.4252 2.51249 15.2677 2.64674L13.407 4.21874L14.142 1.89674ZM8.48475 2.10974C8.48475 1.72199 8.8005 1.40624 9.18825 1.40624C9.49575 1.40624 9.765 1.60349 9.85875 1.89674L10.5945 4.21874L8.73525 2.64749C8.57625 2.51324 8.4855 2.31674 8.4855 2.10899L8.48475 2.10974Z" fill="#67749A"/>
</g>
<defs>
<clipPath id="clip0">
<rect width="24" height="24" fill="white"/>
</clipPath>
</defs>
</svg>
