<svg width="24" height="22" viewBox="0 0 24 22" fill="none" xmlns="http://www.w3.org/2000/svg">
<path d="M5.9715 1.136L0 10.3775L5.07 20.2715L11.0415 11.03L5.9715 1.13675V1.136ZM2.9775 10.9865C2.50125 10.9865 2.115 10.6002 2.115 10.124C2.115 9.64775 2.50125 9.2615 2.9775 9.2615C3.45375 9.2615 3.84 9.64775 3.84 10.124C3.84 10.6002 3.45375 10.9865 2.9775 10.9865ZM5.06625 15.1032C4.59 15.1032 4.20375 14.717 4.20375 14.2407C4.20375 13.7645 4.59 13.3782 5.06625 13.3782C5.5425 13.3782 5.92875 13.7645 5.92875 14.2407C5.92875 14.717 5.5425 15.1032 5.06625 15.1032ZM5.34975 7.3565C4.8735 7.3565 4.48725 6.97025 4.48725 6.494C4.48725 6.01775 4.8735 5.6315 5.34975 5.6315C5.826 5.6315 6.21225 6.01775 6.21225 6.494C6.21225 6.97025 5.826 7.3565 5.34975 7.3565ZM7.6455 11.6517C7.16925 11.6517 6.78375 11.2662 6.78375 10.79C6.78375 10.3138 7.16925 9.9275 7.6455 9.9275C8.12175 9.9275 8.508 10.3138 8.508 10.79C8.508 11.2662 8.12175 11.6525 7.6455 11.6525V11.6517ZM12.2828 11.831L6.195 21.2525L17.7255 21.8307L23.8132 12.4085L12.2828 11.831ZM11.6565 19.7345C11.1803 19.7345 10.7948 19.3482 10.7948 18.8727C10.7948 18.3972 11.181 18.011 11.6565 18.011C12.1327 18.011 12.5182 18.3972 12.5182 18.8727C12.5182 19.3482 12.132 19.7345 11.6565 19.7345ZM18.564 15.965C18.0878 15.965 17.7023 15.5787 17.7023 15.1032C17.7023 14.6277 18.0885 14.2415 18.564 14.2415C19.0403 14.2415 19.4257 14.6277 19.4257 15.1032C19.4257 15.5787 19.0395 15.965 18.564 15.965ZM18.7815 0.75275L7.13775 0.16925L12.3563 10.355L24 10.9377L18.7815 0.75275ZM16.02 6.47825C15.5438 6.47825 15.1575 6.092 15.1575 5.61575C15.1575 5.1395 15.5438 4.75325 16.02 4.75325C16.4963 4.75325 16.8825 5.1395 16.8825 5.61575C16.8825 6.092 16.4963 6.47825 16.02 6.47825Z" fill="#495064"/>
</svg>
