<svg width="24" height="23" viewBox="0 0 24 23" fill="none" xmlns="http://www.w3.org/2000/svg">
<path d="M23.5033 11.3116L12.5988 0.251884C12.5203 0.172037 12.427 0.10869 12.3244 0.0654689C12.2217 0.0222474 12.1116 0 12.0005 0C11.8893 0 11.7793 0.0222474 11.6766 0.0654689C11.574 0.10869 11.4807 0.172037 11.4022 0.251884L0.497704 11.3116C0.180021 11.634 0 12.072 0 12.5288C0 13.4773 0.759793 14.2485 1.69431 14.2485H2.84327V22.1402C2.84327 22.6158 3.22184 23 3.69042 23H10.3062V16.9811H13.2712V23H20.3106C20.7792 23 21.1577 22.6158 21.1577 22.1402V14.2485H22.3067C22.7567 14.2485 23.1883 14.0684 23.5059 13.7433C24.1651 13.0715 24.1651 11.9833 23.5033 11.3116Z" fill="url(#paint0_radial)"/>
<defs>
<radialGradient id="paint0_radial" cx="0" cy="0" r="1" gradientUnits="userSpaceOnUse" gradientTransform="translate(12 11.5) rotate(90) scale(11.5 12)">
<stop stop-color="#699AF8"/>
<stop offset="0.0001" stop-color="#7D7AFF"/>
<stop offset="1" stop-color="#5E5BE5"/>
</radialGradient>
</defs>
</svg>

