<svg width="22" height="17" viewBox="0 0 22 17" fill="none" xmlns="http://www.w3.org/2000/svg">
<path d="M21.3808 3.8935C21.1662 3.71436 20.9056 3.59915 20.6286 3.56103C20.3517 3.5229 20.0696 3.56339 19.8146 3.67787L15.0724 5.78565L12.3112 0.815495C12.1813 0.581645 11.9913 0.386805 11.7607 0.251145C11.5302 0.115475 11.2675 0.0439453 11 0.0439453C10.7325 0.0439453 10.4699 0.115475 10.2394 0.251145C10.0088 0.386805 9.8188 0.581645 9.6889 0.815495L6.92755 5.78555L2.18464 3.6774C1.92945 3.56401 1.64768 3.52411 1.37104 3.56218C1.0944 3.60026 0.83388 3.7148 0.61882 3.89291C0.40375 4.07102 0.24267 4.30563 0.15371 4.57033C0.0647498 4.83503 0.0514499 5.11929 0.1153 5.39114L2.50067 15.5477C2.54606 15.7443 2.63105 15.9296 2.75046 16.0923C2.86987 16.2549 3.02119 16.3916 3.19517 16.4938C3.37007 16.5967 3.56388 16.6635 3.76508 16.69C3.96628 16.7166 4.17076 16.7025 4.36639 16.6485C8.70608 15.4504 13.2892 15.45 17.6291 16.6473C17.8247 16.7012 18.029 16.7153 18.2301 16.6887C18.4312 16.6621 18.6249 16.5954 18.7998 16.4925C18.9737 16.3903 19.1249 16.2538 19.2444 16.0913C19.3638 15.9288 19.4488 15.7436 19.4943 15.5471L21.884 5.39227C21.949 5.1204 21.9363 4.83574 21.8473 4.57075C21.7583 4.30575 21.5967 4.07102 21.3808 3.8935ZM18.0299 15.2017C13.4263 13.9309 8.5642 13.9322 3.9613 15.2057L3.96102 15.2047L1.57555 5.04821L6.31836 7.15619C6.6606 7.31018 7.04828 7.32959 7.4042 7.21059C7.76011 7.09159 8.05814 6.84286 8.23892 6.51398L11 1.54384L13.7613 6.51408C13.9421 6.84291 14.2401 7.09159 14.596 7.21059C14.9519 7.32959 15.3395 7.31018 15.6817 7.15619L20.424 5.0485L18.0299 15.2017ZM14.7459 12.2355C14.7357 12.3335 14.7063 12.4285 14.6593 12.5151C14.6124 12.6017 14.5488 12.6782 14.4722 12.7402C14.3956 12.8022 14.3076 12.8485 14.2131 12.8764C14.1186 12.9043 14.0195 12.9133 13.9216 12.9029C11.9792 12.6989 10.0209 12.6989 8.07852 12.9029C7.88122 12.9227 7.68412 12.8635 7.53031 12.7384C7.37651 12.6132 7.27851 12.4323 7.25777 12.2351C7.23702 12.0379 7.29521 11.8405 7.41961 11.6861C7.544 11.5317 7.72449 11.4328 7.92158 11.4111C9.9683 11.1962 12.0318 11.1962 14.0785 11.4111C14.1765 11.4214 14.2714 11.4509 14.358 11.4979C14.4446 11.5449 14.521 11.6085 14.583 11.685C14.645 11.7616 14.6913 11.8496 14.7193 11.944C14.7472 12.0385 14.7562 12.1375 14.7459 12.2355Z" fill="#495064"/>
</svg>
