<svg width="17" height="24" viewBox="0 0 17 24" fill="none" xmlns="http://www.w3.org/2000/svg">
<path d="M11.589 7.6845V6.1635C11.5883 5.71575 11.226 5.35275 10.7782 5.35275H9.549V3.87375H10.8975C11.3723 3.87375 11.8147 3.68625 12.1417 3.3465C12.4402 3.03825 12.6248 2.61825 12.6248 2.15475C12.6248 2.13 12.624 2.1045 12.6232 2.07975V2.0835L12.5798 0.91125C12.561 0.40425 12.1455 0 11.6355 0C11.6228 0 11.6108 0 11.598 0.00075H11.5995C11.0925 0.02025 10.689 0.43575 10.689 0.94575C10.689 0.95775 10.689 0.9705 10.6898 0.9825V0.981L10.7265 1.98225H9.41325C8.445 1.98225 7.65675 2.7705 7.65675 3.73875V5.35275H6.138C5.69025 5.3535 5.328 5.71575 5.32725 6.1635V7.6845C2.20875 8.93175 0 11.9835 0 15.5423C0 20.2058 3.7935 24 8.45775 24C13.122 24 16.9155 20.2058 16.9155 15.5423C16.9155 11.9835 14.7067 8.93175 11.5883 7.68525L11.589 7.6845Z" fill="#495064"/>
</svg>
