<svg width="18" height="18" viewBox="0 0 18 18" fill="none" xmlns="http://www.w3.org/2000/svg">
<path d="M17.7825 0.217495C17.6813 0.11675 17.5534 0.0469978 17.4139 0.0164399C17.2744 -0.014118 17.1291 -0.00421136 16.995 0.0449951L0.495001 6.045C0.352702 6.09897 0.230191 6.19496 0.143739 6.32021C0.0572872 6.44546 0.0109863 6.59405 0.0109863 6.74624C0.0109863 6.89844 0.0572872 7.04703 0.143739 7.17228C0.230191 7.29753 0.352702 7.39352 0.495001 7.44749L6.9375 10.02L11.6925 5.25L12.75 6.30749L7.9725 11.085L10.5525 17.5275C10.6081 17.667 10.7043 17.7867 10.8286 17.8709C10.953 17.9552 11.0998 18.0001 11.25 18C11.4016 17.9969 11.5486 17.9479 11.6718 17.8596C11.795 17.7712 11.8885 17.6476 11.94 17.505L17.94 1.005C17.9911 0.872302 18.0034 0.727818 17.9755 0.588388C17.9476 0.448958 17.8807 0.320328 17.7825 0.217495Z" fill="#79829E"/>
</svg>
