<svg width="24" height="26" viewBox="0 0 24 26" fill="none" xmlns="http://www.w3.org/2000/svg">
<path d="M23.5 9.95312H21V8.008C21 4.68 17.0672 0.8125 12 0.8125C6.9328 0.8125 3 4.68 3 8.008V9.95312H0.5C0.224 9.95312 0 10.1806 0 10.4609V18.5859C0 18.8654 0.224 19.0938 0.5 19.0938H3.5C3.7752 19.0938 4 18.8654 4 18.5859V8.008C4 5.20894 7.5672 1.82812 12 1.82812C16.4328 1.82812 20 5.20894 20 8.00881V21.1884C20 22.2722 19.1304 23.1554 18.0624 23.1554H17V22.6476C17 22.3681 16.7752 22.1398 16.5 22.1398H12.4536C11.652 22.1398 11 22.802 11 23.7112C11.0008 24.5261 11.6512 25.1867 12.4528 25.1867H16.5C16.7752 25.1867 17 24.96 17 24.6789V24.1711H18.0632C19.6832 24.1711 21 22.8345 21 21.1884V19.0929H23.5C23.776 19.0929 24 18.8646 24 18.5851V10.4601C24 10.1798 23.7752 9.95231 23.5 9.95231V9.95312Z" fill="#67749A"/>
<path d="M19 12.0689V10.0165C19 6.10269 15.8592 2.91931 12 2.91931C8.1408 2.91931 5 6.11325 5 10.0384V11.8373C5 15.5642 7.9392 21.0933 12 21.0933C15.7696 21.0957 19 16.1322 19 12.0689Z" fill="#67749A"/>
</svg>
