<svg width="24" height="24" viewBox="0 0 24 24" fill="none" xmlns="http://www.w3.org/2000/svg">
<path d="M6.56398 4.584C7.73098 3.726 9.10648 3.135 10.5997 2.90625V0.0839996C8.33548 0.34725 6.26398 1.2405 4.56448 2.5845L6.56398 4.584ZM2.90623 10.5997C3.13573 9.1065 3.72598 7.731 4.58398 6.564L2.58448 4.5645C1.24048 6.26475 0.347234 8.3355 0.0839844 10.5997H2.90623ZM21.4155 4.5645L19.416 6.564C20.2747 7.731 20.865 9.1065 21.0937 10.6005H23.916C23.6527 8.3355 22.7595 6.26475 21.4155 4.56525V4.5645ZM13.4002 2.90625C14.8935 3.13575 16.2697 3.726 17.4367 4.584L19.4362 2.5845C17.736 1.2405 15.6652 0.34725 13.401 0.0839996V2.90625H13.4002ZM21.0937 13.4003C20.865 14.8935 20.274 16.2698 19.416 17.4368L21.4155 19.4363C22.7595 17.736 23.6527 15.6652 23.916 13.401H21.0937V13.4003ZM17.4367 19.416C16.2697 20.2747 14.8942 20.865 13.4002 21.0938V23.916C15.6645 23.6528 17.736 22.7595 19.4355 21.4155L17.436 19.416H17.4367ZM4.58398 17.4368C3.72598 16.2698 3.13498 14.8943 2.90623 13.4003H0.0839844C0.347234 15.6645 1.24048 17.736 2.58448 19.4355L4.58398 17.436V17.4368ZM10.5997 21.0938C9.10648 20.865 7.73098 20.274 6.56323 19.416L4.56373 21.4155C6.26398 22.7595 8.33473 23.6528 10.599 23.916V21.0938H10.5997Z" fill="#5F5CE5"/>
</svg>
