<svg width="28" height="27" viewBox="0 0 28 27" fill="none" xmlns="http://www.w3.org/2000/svg">
<g clip-path="url(#clip0)">
<path d="M14.1873 16.5025C15.8425 16.5025 17.1844 15.1903 17.1844 13.5716C17.1844 11.9529 15.8425 10.6406 14.1873 10.6406C12.532 10.6406 11.1901 11.9529 11.1901 13.5716C11.1901 15.1903 12.532 16.5025 14.1873 16.5025Z" fill="#FFD833"/>
<path d="M11.7832 11.0013C10.8876 9.65094 10.3296 8.11345 10.1544 6.51313C8.7981 5.40784 6.64055 4.86506 3.68172 4.8848C3.65274 5.58609 3.69737 6.28845 3.81492 6.98085C4.42041 10.2019 7.15723 12.2566 10.3844 12.7303L10.669 12.7658C10.8489 12.0808 11.2374 11.4654 11.7832 11.0013Z" fill="#F54182"/>
<path d="M11.7832 11.0013C10.8876 9.65094 10.3296 8.11345 10.1544 6.51313C8.7981 5.40784 6.64055 4.86506 3.68172 4.8848C3.65274 5.58609 3.69737 6.28845 3.81492 6.98085C4.42041 10.2019 7.15723 12.2566 10.3844 12.7303L10.669 12.7658C10.8489 12.0808 11.2374 11.4654 11.7832 11.0013Z" fill="url(#paint0_radial)"/>
<path d="M6.09181 17.8524C5.24816 19.1156 4.70928 20.9196 4.47516 23.2643C5.67067 23.4662 6.89711 23.4055 8.0657 23.0867C9.01155 22.8078 9.88503 22.3332 10.6269 21.6952L10.7964 21.5294C11.9999 20.2473 12.8135 18.6622 13.1457 16.9524C12.6072 16.7977 12.1162 16.515 11.7168 16.1294C10.0537 17.2277 8.09846 17.8266 6.09181 17.8524Z" fill="#F54182"/>
<path d="M6.09181 17.8524C5.24816 19.1156 4.70928 20.9196 4.47516 23.2643C5.67067 23.4662 6.89711 23.4055 8.0657 23.0867C9.01155 22.8078 9.88503 22.3332 10.6269 21.6952L10.7964 21.5294C11.9999 20.2473 12.8135 18.6622 13.1457 16.9524C12.6072 16.7977 12.1162 16.515 11.7168 16.1294C10.0537 17.2277 8.09846 17.8266 6.09181 17.8524Z" fill="url(#paint1_radial)"/>
<path d="M5.50435 11.6584C5.3102 11.504 5.12427 11.34 4.9473 11.167C3.26615 11.6988 1.71297 12.5589 0.381927 13.6953C1.0597 14.6825 1.95569 15.5081 3.00368 16.1111C3.86744 16.5962 4.83646 16.8742 5.83132 16.9223H6.0977C7.89781 16.8983 9.65045 16.3545 11.1354 15.3592C10.8274 14.855 10.6565 14.2823 10.6389 13.6953C8.77113 13.4805 6.99725 12.7768 5.50435 11.6584Z" fill="#F54182"/>
<path d="M5.50435 11.6584C5.3102 11.504 5.12427 11.34 4.9473 11.167C3.26615 11.6988 1.71297 12.5589 0.381927 13.6953C1.0597 14.6825 1.95569 15.5081 3.00368 16.1111C3.86744 16.5962 4.83646 16.8742 5.83132 16.9223H6.0977C7.89781 16.8983 9.65045 16.3545 11.1354 15.3592C10.8274 14.855 10.6565 14.2823 10.6389 13.6953C8.77113 13.4805 6.99725 12.7768 5.50435 11.6584Z" fill="url(#paint2_radial)"/>
<path d="M16.5546 16.3246C17.4328 17.7273 17.9655 19.3105 18.1107 20.949C19.4468 22.0701 21.5983 22.6425 24.5652 22.6661C24.8134 22.6661 24.3169 19.747 24.2382 19.5043C23.3118 16.668 20.6053 14.9509 17.6626 14.5542C17.4817 15.2391 17.0959 15.8555 16.5546 16.3246Z" fill="#F54182"/>
<path d="M16.5546 16.3246C17.4328 17.7273 17.9655 19.3105 18.1107 20.949C19.4468 22.0701 21.5983 22.6425 24.5652 22.6661C24.8134 22.6661 24.3169 19.747 24.2382 19.5043C23.3118 16.668 20.6053 14.9509 17.6626 14.5542C17.4817 15.2391 17.0959 15.8555 16.5546 16.3246Z" fill="url(#paint3_radial)"/>
<path d="M22.343 9.42672C23.2028 8.15959 23.768 6.33195 24.0384 3.94375C23.4241 3.84405 22.8022 3.79651 22.1796 3.80165C21.5409 3.83283 20.9095 3.94835 20.3026 4.14507C17.5294 5.03916 15.8341 7.52011 15.277 10.2379C15.8139 10.4066 16.3004 10.7014 16.6938 11.0965C18.3662 10.0049 20.3324 9.42371 22.343 9.42672Z" fill="#F54182"/>
<path d="M22.343 9.42672C23.2028 8.15959 23.768 6.33195 24.0384 3.94375C23.4241 3.84405 22.8022 3.79651 22.1796 3.80165C21.5409 3.83283 20.9095 3.94835 20.3026 4.14507C17.5294 5.03916 15.8341 7.52011 15.277 10.2379C15.8139 10.4066 16.3004 10.7014 16.6938 11.0965C18.3662 10.0049 20.3324 9.42371 22.343 9.42672Z" fill="url(#paint4_radial)"/>
<path d="M22.8396 15.7384C23.0335 15.8994 23.2174 16.0714 23.3905 16.2536C25.0842 15.7312 26.6504 14.8748 27.9922 13.7371C27.3303 12.7304 26.447 11.8808 25.4068 11.2502C24.5519 10.7472 23.5868 10.4509 22.5913 10.3857H22.3249C20.5214 10.396 18.7609 10.9252 17.263 11.9075C17.5679 12.4291 17.7325 13.0179 17.7413 13.6187C19.6046 13.8644 21.3658 14.5967 22.8396 15.7384Z" fill="#F54182"/>
<path d="M22.8396 15.7384C23.0335 15.8994 23.2174 16.0714 23.3905 16.2536C25.0842 15.7312 26.6504 14.8748 27.9922 13.7371C27.3303 12.7304 26.447 11.8808 25.4068 11.2502C24.5519 10.7472 23.5868 10.4509 22.5913 10.3857H22.3249C20.5214 10.396 18.7609 10.9252 17.263 11.9075C17.5679 12.4291 17.7325 13.0179 17.7413 13.6187C19.6046 13.8644 21.3658 14.5967 22.8396 15.7384Z" fill="url(#paint5_radial)"/>
<path d="M11.0264 6.229V6.25865C11.2364 7.74708 11.7557 9.17777 12.5523 10.4626C13.0474 10.2023 13.6007 10.066 14.1628 10.0659H14.2294C14.5994 8.18157 15.5012 6.43613 16.833 5.02703V4.98559C16.5787 3.48952 15.6866 1.82765 14.1568 0C13.1694 0.69524 12.344 1.58722 11.7348 2.61714C11.3034 3.36906 11.0336 4.19916 10.9416 5.05664C10.9356 5.11372 10.9356 5.17127 10.9416 5.22834C10.9449 5.56351 10.9732 5.89794 11.0264 6.229Z" fill="#F54182"/>
<path d="M11.0264 6.229V6.25865C11.2364 7.74708 11.7557 9.17777 12.5523 10.4626C13.0474 10.2023 13.6007 10.066 14.1628 10.0659H14.2294C14.5994 8.18157 15.5012 6.43613 16.833 5.02703V4.98559C16.5787 3.48952 15.6866 1.82765 14.1568 0C13.1694 0.69524 12.344 1.58722 11.7348 2.61714C11.3034 3.36906 11.0336 4.19916 10.9416 5.05664C10.9356 5.11372 10.9356 5.17127 10.9416 5.22834C10.9449 5.56351 10.9732 5.89794 11.0264 6.229Z" fill="url(#paint6_radial)"/>
<path d="M17.3751 20.851C17.3751 20.7455 17.3446 20.6459 17.3264 20.5462C17.0784 19.1751 16.5752 17.8585 15.8411 16.6597C15.3433 16.9106 14.7898 17.0414 14.228 17.0407H14.161C13.7904 18.9084 12.8836 20.6387 11.5435 22.0351V22.0703C11.8438 23.5553 12.7609 25.1986 14.2949 27.0002C14.8254 26.612 15.3185 26.1784 15.7681 25.7047C16.1725 25.2747 16.5107 24.7911 16.7724 24.2685C17.3072 23.2079 17.5163 22.0222 17.3751 20.851Z" fill="#F54182"/>
<path d="M17.3751 20.851C17.3751 20.7455 17.3446 20.6459 17.3264 20.5462C17.0784 19.1751 16.5752 17.8585 15.8411 16.6597C15.3433 16.9106 14.7898 17.0414 14.228 17.0407H14.161C13.7904 18.9084 12.8836 20.6387 11.5435 22.0351V22.0703C11.8438 23.5553 12.7609 25.1986 14.2949 27.0002C14.8254 26.612 15.3185 26.1784 15.7681 25.7047C16.1725 25.2747 16.5107 24.7911 16.7724 24.2685C17.3072 23.2079 17.5163 22.0222 17.3751 20.851Z" fill="url(#paint7_radial)"/>
</g>
<defs>
<radialGradient id="paint0_radial" cx="0" cy="0" r="1" gradientUnits="userSpaceOnUse" gradientTransform="translate(14.1871 13.5001) scale(13.8052 17.9219)">
<stop stop-color="#FF8F50"/>
<stop offset="0.694393" stop-color="#FF4D7A"/>
<stop offset="1" stop-color="#FF4182"/>
</radialGradient>
<radialGradient id="paint1_radial" cx="0" cy="0" r="1" gradientUnits="userSpaceOnUse" gradientTransform="translate(14.1871 13.5005) scale(13.8052 17.9219)">
<stop stop-color="#FF8F50"/>
<stop offset="0.694393" stop-color="#FF4D7A"/>
<stop offset="1" stop-color="#FF4182"/>
</radialGradient>
<radialGradient id="paint2_radial" cx="0" cy="0" r="1" gradientUnits="userSpaceOnUse" gradientTransform="translate(14.1871 13.5) scale(13.8052 17.9219)">
<stop stop-color="#FF8F50"/>
<stop offset="0.694393" stop-color="#FF4D7A"/>
<stop offset="1" stop-color="#FF4182"/>
</radialGradient>
<radialGradient id="paint3_radial" cx="0" cy="0" r="1" gradientUnits="userSpaceOnUse" gradientTransform="translate(14.1871 13.5004) scale(13.8052 17.9219)">
<stop stop-color="#FF8F50"/>
<stop offset="0.694393" stop-color="#FF4D7A"/>
<stop offset="1" stop-color="#FF4182"/>
</radialGradient>
<radialGradient id="paint4_radial" cx="0" cy="0" r="1" gradientUnits="userSpaceOnUse" gradientTransform="translate(14.1871 13.5006) scale(13.8052 17.9219)">
<stop stop-color="#FF8F50"/>
<stop offset="0.694393" stop-color="#FF4D7A"/>
<stop offset="1" stop-color="#FF4182"/>
</radialGradient>
<radialGradient id="paint5_radial" cx="0" cy="0" r="1" gradientUnits="userSpaceOnUse" gradientTransform="translate(14.1871 13.5003) scale(13.8052 17.9219)">
<stop stop-color="#FF8F50"/>
<stop offset="0.694393" stop-color="#FF4D7A"/>
<stop offset="1" stop-color="#FF4182"/>
</radialGradient>
<radialGradient id="paint6_radial" cx="0" cy="0" r="1" gradientUnits="userSpaceOnUse" gradientTransform="translate(14.1871 13.5003) scale(13.8052 17.9219)">
<stop stop-color="#FF8F50"/>
<stop offset="0.694393" stop-color="#FF4D7A"/>
<stop offset="1" stop-color="#FF4182"/>
</radialGradient>
<radialGradient id="paint7_radial" cx="0" cy="0" r="1" gradientUnits="userSpaceOnUse" gradientTransform="translate(14.1871 13.5002) scale(13.8052 17.9219)">
<stop stop-color="#FF8F50"/>
<stop offset="0.694393" stop-color="#FF4D7A"/>
<stop offset="1" stop-color="#FF4182"/>
</radialGradient>
<clipPath id="clip0">
<rect width="27.6099" height="27" fill="white" transform="translate(0.381927)"/>
</clipPath>
</defs>
</svg>
