<svg width="92" height="147" viewBox="0 0 92 147" fill="none" xmlns="http://www.w3.org/2000/svg">
<path d="M23.322 130H25.548L27.06 127.662L28.572 130H30.854L28.208 126.15L30.742 122.496H28.516L27.102 124.68L25.702 122.496H23.42L25.954 126.192L23.322 130Z" fill="white" fill-opacity="0.15"/>
<path opacity="0.5" d="M59 108.035L59.0103 110.261L61.3552 111.762L59.0242 113.285L59.0347 115.567L62.8725 112.903L66.5381 115.42L66.5279 113.194L64.3374 111.79L66.5149 110.38L66.5044 108.098L62.8201 110.649L59 108.035Z" fill="white" fill-opacity="0.15"/>
<path opacity="0.5" d="M41.282 95.5786L41.2888 97.0509L42.8398 98.0439L41.298 99.0511L41.305 100.561L43.8434 98.7986L46.2681 100.464L46.2613 98.9912L44.8124 98.0626L46.2527 97.1299L46.2457 95.6205L43.8088 97.3078L41.282 95.5786Z" fill="white" fill-opacity="0.15"/>
<path d="M17.0537 103.619L18.6992 102.12L18.2423 99.3737L20.9346 100.084L22.6215 98.5468L18.0727 97.4828L17.485 93.0752L15.8395 94.5743L16.2651 97.141L13.7593 96.4694L12.0724 98.0063L16.4348 99.0319L17.0537 103.619Z" fill="white" fill-opacity="0.15"/>
<path d="M86.5678 131.619L84.9223 130.12L85.3792 127.374L82.6869 128.084L81 126.547L85.5488 125.483L86.1365 121.075L87.782 122.574L87.3564 125.141L89.8621 124.469L91.549 126.006L87.1867 127.032L86.5678 131.619Z" fill="white" fill-opacity="0.15"/>
<path opacity="0.5" d="M0 116H1.18216L1.98513 114.754L2.7881 116H4L2.5948 113.948L3.94052 112H2.75836L2.00744 113.164L1.26394 112H0.0520446L1.39777 113.97L0 116Z" fill="white" fill-opacity="0.15"/>
<path d="M53 147H57.1375L59.948 142.638L62.7584 147H67L62.0818 139.817L66.7918 133H62.6543L60.026 137.075L57.4238 133H53.1822L57.8922 139.896L53 147Z" fill="white" fill-opacity="0.15"/>
<path d="M23.322 16.9999H25.548L27.06 19.3379L28.572 16.9999H30.854L28.208 20.8499L30.742 24.5039H28.516L27.102 22.3199L25.702 24.5039H23.42L25.954 20.8079L23.322 16.9999Z" fill="white" fill-opacity="0.15"/>
<path opacity="0.5" d="M59 38.9654L59.0103 36.7394L61.3552 35.2382L59.0242 33.7154L59.0347 31.4335L62.8725 34.0972L66.5381 31.5801L66.5279 33.8061L64.3374 35.21L66.5149 36.62L66.5044 38.902L62.8201 36.351L59 38.9654Z" fill="white" fill-opacity="0.15"/>
<path opacity="0.5" d="M41.282 51.4214L41.2888 49.9491L42.8398 48.9561L41.298 47.9489L41.305 46.4395L43.8434 48.2014L46.2681 46.5365L46.2613 48.0088L44.8124 48.9374L46.2527 49.8701L46.2457 51.3795L43.8088 49.6922L41.282 51.4214Z" fill="white" fill-opacity="0.15"/>
<path d="M17.0537 43.3806L18.6992 44.8798L18.2423 47.6263L20.9346 46.9163L22.6215 48.4532L18.0727 49.5172L17.485 53.9248L15.8395 52.4257L16.2651 49.859L13.7593 50.5306L12.0724 48.9937L16.4348 47.9681L17.0537 43.3806Z" fill="white" fill-opacity="0.15"/>
<path d="M86.5678 15.3806L84.9223 16.8798L85.3792 19.6263L82.6869 18.9163L81 20.4532L85.5488 21.5172L86.1365 25.9248L87.782 24.4257L87.3564 21.859L89.8621 22.5306L91.549 20.9937L87.1867 19.9681L86.5678 15.3806Z" fill="white" fill-opacity="0.15"/>
<path opacity="0.5" d="M0 31H1.18216L1.98513 32.2463L2.7881 31H4L2.5948 33.0522L3.94052 35H2.75836L2.00744 33.8358L1.26394 35H0.0520446L1.39777 33.0299L0 31Z" fill="white" fill-opacity="0.15"/>
<path d="M53 -2.95326e-07H57.1375L59.948 4.36194L62.7584 -2.95326e-07H67L62.0818 7.18284L66.7918 14H62.6543L60.026 9.92537L57.4238 14H53.1822L57.8922 7.10448L53 -2.95326e-07Z" fill="white" fill-opacity="0.15"/>
</svg>
