<svg width="800" height="800" viewBox="0 0 800 800" fill="none" xmlns="http://www.w3.org/2000/svg">
<path d="M400 10C408.169 10 416.336 10.2567 424.488 10.7696" stroke="#FFD849" stroke-width="20" stroke-linejoin="round"/>
<path d="M424.488 10.7696C432.641 11.2825 440.776 12.0514 448.88 13.0753" stroke="#1F2872" stroke-width="20" stroke-linejoin="round"/>
<path d="M448.88 13.0753C456.984 14.0991 465.055 15.3773 473.079 16.908" stroke="#33C9C0" stroke-width="20" stroke-linejoin="round"/>
<path d="M473.079 16.908C481.103 18.4387 489.077 20.2211 496.989 22.2526" stroke="#1F2872" stroke-width="20" stroke-linejoin="round"/>
<path d="M496.989 22.2526C504.901 24.2841 512.748 26.5637 520.517 29.088" stroke="#33C9C0" stroke-width="20" stroke-linejoin="round"/>
<path d="M520.517 29.088C528.286 31.6123 535.973 34.3801 543.569 37.3872" stroke="#1F2872" stroke-width="20" stroke-linejoin="round"/>
<path d="M543.569 37.3872C551.164 40.3943 558.663 43.6394 566.054 47.1175" stroke="#33C9C0" stroke-width="20" stroke-linejoin="round"/>
<path d="M566.054 47.1175C573.445 50.5956 580.726 54.3051 587.884 58.2404" stroke="#1F2872" stroke-width="20" stroke-linejoin="round"/>
<path d="M587.884 58.2404C595.042 62.1758 602.075 66.3351 608.973 70.7122" stroke="#FF8049" stroke-width="20" stroke-linejoin="round"/>
<path d="M608.973 70.7122C615.87 75.0892 622.628 79.6819 629.236 84.4834" stroke="#1F2872" stroke-width="20" stroke-linejoin="round"/>
<path d="M608.973 70.7122C615.87 75.0892 622.628 79.6819 629.236 84.4834" stroke="#1F2872" stroke-width="20" stroke-linejoin="round"/>
<path d="M629.236 84.4834C635.845 89.2849 642.301 94.2929 648.595 99.4999" stroke="#1F2872" stroke-width="20" stroke-linejoin="round"/>
<path d="M629.236 84.4834C635.845 89.2849 642.301 94.2929 648.595 99.4999" stroke="#33C9C0" stroke-width="20" stroke-linejoin="round"/>
<path d="M648.595 99.4999C654.89 104.707 661.019 110.11 666.973 115.702" stroke="#1F2872" stroke-width="20" stroke-linejoin="round"/>
<path d="M648.595 99.4999C654.89 104.707 661.019 110.11 666.973 115.702" stroke="#1F2872" stroke-width="20" stroke-linejoin="round"/>
<path d="M666.973 115.702C672.928 121.294 678.706 127.072 684.298 133.027" stroke="#1F2872" stroke-width="20" stroke-linejoin="round"/>
<path d="M666.973 115.702C672.928 121.294 678.706 127.072 684.298 133.027" stroke="#33C9C0" stroke-width="20" stroke-linejoin="round"/>
<path d="M684.298 133.027C689.89 138.982 695.293 145.111 700.5 151.405" stroke="#1F2872" stroke-width="20" stroke-linejoin="round"/>
<path d="M684.298 133.027C689.89 138.982 695.293 145.111 700.5 151.405" stroke="#1F2872" stroke-width="20" stroke-linejoin="round"/>
<path d="M700.5 151.405C705.707 157.699 710.715 164.155 715.517 170.764" stroke="#1F2872" stroke-width="20" stroke-linejoin="round"/>
<path d="M700.5 151.405C705.707 157.699 710.715 164.155 715.517 170.764" stroke="#FF8049" stroke-width="20" stroke-linejoin="round"/>
<path d="M715.517 170.764C720.318 177.373 724.911 184.131 729.288 191.028" stroke="#1F2872" stroke-width="20" stroke-linejoin="round"/>
<path d="M715.517 170.764C720.318 177.373 724.911 184.131 729.288 191.028" stroke="#1F2872" stroke-width="20" stroke-linejoin="round"/>
<path d="M729.288 191.028C733.665 197.925 737.824 204.958 741.76 212.116" stroke="#1F2872" stroke-width="20" stroke-linejoin="round"/>
<path d="M729.288 191.028C733.665 197.925 737.824 204.958 741.76 212.116" stroke="#33C9C0" stroke-width="20" stroke-linejoin="round"/>
<path d="M741.76 212.116C745.695 219.274 749.404 226.555 752.883 233.946" stroke="#1F2872" stroke-width="20" stroke-linejoin="round"/>
<path d="M741.76 212.116C745.695 219.274 749.404 226.555 752.883 233.946" stroke="#1F2872" stroke-width="20" stroke-linejoin="round"/>
<path d="M752.883 233.946C756.361 241.337 759.606 248.836 762.613 256.431" stroke="#1F2872" stroke-width="20" stroke-linejoin="round"/>
<path d="M752.883 233.946C756.361 241.337 759.606 248.836 762.613 256.431" stroke="#33C9C0" stroke-width="20" stroke-linejoin="round"/>
<path d="M762.613 256.431C765.62 264.027 768.388 271.714 770.912 279.483" stroke="#1F2872" stroke-width="20" stroke-linejoin="round"/>
<path d="M770.912 279.483C773.436 287.252 775.716 295.099 777.747 303.011" stroke="#1F2872" stroke-width="20" stroke-linejoin="round"/>
<path d="M770.912 279.483C773.436 287.252 775.716 295.099 777.747 303.011" stroke="#FF8049" stroke-width="20" stroke-linejoin="round"/>
<path d="M777.747 303.011C779.779 310.923 781.561 318.897 783.092 326.921" stroke="#1F2872" stroke-width="20" stroke-linejoin="round"/>
<path d="M777.747 303.011C779.779 310.923 781.561 318.897 783.092 326.921" stroke="#1F2872" stroke-width="20" stroke-linejoin="round"/>
<path d="M783.092 326.921C784.623 334.945 785.901 343.016 786.925 351.12" stroke="#1F2872" stroke-width="20" stroke-linejoin="round"/>
<path d="M783.092 326.921C784.623 334.945 785.901 343.016 786.925 351.12" stroke="#33C9C0" stroke-width="20" stroke-linejoin="round"/>
<path d="M786.925 351.12C787.949 359.224 788.718 367.359 789.23 375.512" stroke="#1F2872" stroke-width="20" stroke-linejoin="round"/>
<path d="M786.925 351.12C787.949 359.224 788.718 367.359 789.23 375.512" stroke="#1F2872" stroke-width="20" stroke-linejoin="round"/>
<path d="M789.23 375.512C789.743 383.664 790 391.831 790 400" stroke="#1F2872" stroke-width="20" stroke-linejoin="round"/>
<path d="M789.23 375.512C789.743 383.664 790 391.831 790 400" stroke="#7A49FF" stroke-width="20" stroke-linejoin="round"/>
<path d="M400 790C408.169 790 416.336 789.743 424.488 789.23" stroke="#1F2872" stroke-width="20" stroke-linejoin="round"/>
<path d="M400 790C408.169 790 416.336 789.743 424.488 789.23" stroke="#1F2872" stroke-width="20" stroke-linejoin="round"/>
<path d="M424.488 789.23C432.641 788.717 440.776 787.949 448.88 786.925" stroke="#33C9C0" stroke-width="20" stroke-linejoin="round"/>
<path d="M448.88 786.925C456.984 785.901 465.055 784.623 473.079 783.092" stroke="#1F2872" stroke-width="20" stroke-linejoin="round"/>
<path d="M448.88 786.925C456.984 785.901 465.055 784.623 473.079 783.092" stroke="#1F2872" stroke-width="20" stroke-linejoin="round"/>
<path d="M473.079 783.092C481.103 781.561 489.077 779.779 496.989 777.747" stroke="#1F2872" stroke-width="20" stroke-linejoin="round"/>
<path d="M473.079 783.092C481.103 781.561 489.077 779.779 496.989 777.747" stroke="#7A49FF" stroke-width="20" stroke-linejoin="round"/>
<path d="M496.989 777.747C504.901 775.716 512.748 773.436 520.517 770.912" stroke="#1F2872" stroke-width="20" stroke-linejoin="round"/>
<path d="M496.989 777.747C504.901 775.716 512.748 773.436 520.517 770.912" stroke="#1F2872" stroke-width="20" stroke-linejoin="round"/>
<path d="M520.517 770.912C528.286 768.388 535.973 765.62 543.569 762.613" stroke="#33C9C0" stroke-width="20" stroke-linejoin="round"/>
<path d="M543.569 762.613C551.164 759.606 558.663 756.361 566.054 752.883" stroke="#1F2872" stroke-width="20" stroke-linejoin="round"/>
<path d="M543.569 762.613C551.164 759.606 558.663 756.361 566.054 752.883" stroke="#1F2872" stroke-width="20" stroke-linejoin="round"/>
<path d="M566.054 752.883C573.445 749.404 580.726 745.695 587.884 741.76" stroke="#1F2872" stroke-width="20" stroke-linejoin="round"/>
<path d="M566.054 752.883C573.445 749.404 580.726 745.695 587.884 741.76" stroke="#33C9C0" stroke-width="20" stroke-linejoin="round"/>
<path d="M587.884 741.76C595.042 737.824 602.075 733.665 608.973 729.288" stroke="#1F2872" stroke-width="20" stroke-linejoin="round"/>
<path d="M587.884 741.76C595.042 737.824 602.075 733.665 608.973 729.288" stroke="#1F2872" stroke-width="20" stroke-linejoin="round"/>
<path d="M608.973 729.288C615.87 724.911 622.628 720.318 629.236 715.517" stroke="#FF8049" stroke-width="20" stroke-linejoin="round"/>
<path d="M629.236 715.517C635.845 710.715 642.301 705.707 648.595 700.5" stroke="#1F2872" stroke-width="20" stroke-linejoin="round"/>
<path d="M629.236 715.517C635.845 710.715 642.301 705.707 648.595 700.5" stroke="#FFD849" stroke-width="20" stroke-linejoin="round"/>
<path d="M648.595 700.5C654.89 695.293 661.019 689.89 666.973 684.298" stroke="#33C9C0" stroke-width="20" stroke-linejoin="round"/>
<path d="M666.973 684.298C672.928 678.706 678.706 672.928 684.298 666.973" stroke="#1F2872" stroke-width="20" stroke-linejoin="round"/>
<path d="M684.298 666.973C689.89 661.018 695.293 654.889 700.5 648.595" stroke="#33C9C0" stroke-width="20" stroke-linejoin="round"/>
<path d="M700.5 648.595C705.707 642.301 710.715 635.845 715.517 629.236" stroke="#1F2872" stroke-width="20" stroke-linejoin="round"/>
<path d="M715.517 629.236C720.318 622.627 724.911 615.869 729.288 608.972" stroke="#7A49FF" stroke-width="20" stroke-linejoin="round"/>
<path d="M729.288 608.972C733.665 602.075 737.824 595.042 741.76 587.884" stroke="#1F2872" stroke-width="20" stroke-linejoin="round"/>
<path d="M741.76 587.884C745.695 580.726 749.404 573.445 752.883 566.054" stroke="#FF8049" stroke-width="20" stroke-linejoin="round"/>
<path d="M752.883 566.054C756.361 558.663 759.606 551.164 762.613 543.569" stroke="#1F2872" stroke-width="20" stroke-linejoin="round"/>
<path d="M762.613 543.569C765.62 535.973 768.388 528.286 770.912 520.517" stroke="#33C9C0" stroke-width="20" stroke-linejoin="round"/>
<path d="M770.912 520.517C773.436 512.748 775.716 504.901 777.747 496.989" stroke="#1F2872" stroke-width="20" stroke-linejoin="round"/>
<path d="M777.747 496.989C779.779 489.077 781.561 481.103 783.092 473.079" stroke="#FFD849" stroke-width="20" stroke-linejoin="round"/>
<path d="M783.092 473.079C784.623 465.055 785.901 456.984 786.925 448.88" stroke="#1F2872" stroke-width="20" stroke-linejoin="round"/>
<path d="M786.925 448.88C787.949 440.776 788.718 432.641 789.23 424.488" stroke="#1F2872" stroke-width="20" stroke-linejoin="round"/>
<path d="M786.925 448.88C787.949 440.776 788.718 432.641 789.23 424.488" stroke="#33C9C0" stroke-width="20" stroke-linejoin="round"/>
<path d="M789.23 424.488C789.743 416.336 790 408.169 790 400" stroke="#1F2872" stroke-width="20" stroke-linejoin="round"/>
<path d="M789.23 424.488C789.743 416.336 790 408.169 790 400" stroke="#1F2872" stroke-width="20" stroke-linejoin="round"/>
<path d="M400 790C391.831 790 383.664 789.743 375.512 789.23" stroke="#FF8049" stroke-width="20" stroke-linejoin="round"/>
<path d="M375.512 789.23C367.359 788.717 359.224 787.949 351.12 786.925" stroke="#1F2872" stroke-width="20" stroke-linejoin="round"/>
<path d="M375.512 789.23C367.359 788.717 359.224 787.949 351.12 786.925" stroke="#1F2872" stroke-width="20" stroke-linejoin="round"/>
<path d="M351.12 786.925C343.016 785.901 334.945 784.623 326.921 783.092" stroke="#1F2872" stroke-width="20" stroke-linejoin="round"/>
<path d="M351.12 786.925C343.016 785.901 334.945 784.623 326.921 783.092" stroke="#33C9C0" stroke-width="20" stroke-linejoin="round"/>
<path d="M326.921 783.092C318.897 781.561 310.923 779.779 303.011 777.747" stroke="#1F2872" stroke-width="20" stroke-linejoin="round"/>
<path d="M326.921 783.092C318.897 781.561 310.923 779.779 303.011 777.747" stroke="#1F2872" stroke-width="20" stroke-linejoin="round"/>
<path d="M303.011 777.747C295.099 775.716 287.252 773.436 279.483 770.912" stroke="#1F2872" stroke-width="20" stroke-linejoin="round"/>
<path d="M303.011 777.747C295.099 775.716 287.252 773.436 279.483 770.912" stroke="#FF8049" stroke-width="20" stroke-linejoin="round"/>
<path d="M279.483 770.912C271.714 768.388 264.027 765.62 256.431 762.613" stroke="#1F2872" stroke-width="20" stroke-linejoin="round"/>
<path d="M279.483 770.912C271.714 768.388 264.027 765.62 256.431 762.613" stroke="#1F2872" stroke-width="20" stroke-linejoin="round"/>
<path d="M256.431 762.613C248.836 759.606 241.337 756.361 233.946 752.883" stroke="#1F2872" stroke-width="20" stroke-linejoin="round"/>
<path d="M256.431 762.613C248.836 759.606 241.337 756.361 233.946 752.883" stroke="#33C9C0" stroke-width="20" stroke-linejoin="round"/>
<path d="M233.946 752.883C226.555 749.404 219.274 745.695 212.116 741.76" stroke="#1F2872" stroke-width="20" stroke-linejoin="round"/>
<path d="M233.946 752.883C226.555 749.404 219.274 745.695 212.116 741.76" stroke="#1F2872" stroke-width="20" stroke-linejoin="round"/>
<path d="M212.116 741.76C204.958 737.824 197.925 733.665 191.027 729.288" stroke="#1F2872" stroke-width="20" stroke-linejoin="round"/>
<path d="M212.116 741.76C204.958 737.824 197.925 733.665 191.027 729.288" stroke="#FFD849" stroke-width="20" stroke-linejoin="round"/>
<path d="M191.027 729.288C184.13 724.911 177.372 720.318 170.764 715.517" stroke="#1F2872" stroke-width="20" stroke-linejoin="round"/>
<path d="M191.027 729.288C184.13 724.911 177.372 720.318 170.764 715.517" stroke="#1F2872" stroke-width="20" stroke-linejoin="round"/>
<path d="M170.764 715.517C164.155 710.715 157.699 705.707 151.405 700.5" stroke="#33C9C0" stroke-width="20" stroke-linejoin="round"/>
<path d="M151.405 700.5C145.11 695.293 138.981 689.89 133.027 684.298" stroke="#1F2872" stroke-width="20" stroke-linejoin="round"/>
<path d="M151.405 700.5C145.11 695.293 138.981 689.89 133.027 684.298" stroke="#1F2872" stroke-width="20" stroke-linejoin="round"/>
<path d="M133.027 684.298C127.072 678.706 121.294 672.928 115.702 666.973" stroke="#33C9C0" stroke-width="20" stroke-linejoin="round"/>
<path d="M115.702 666.973C110.11 661.018 104.707 654.889 99.4997 648.595" stroke="#1F2872" stroke-width="20" stroke-linejoin="round"/>
<path d="M115.702 666.973C110.11 661.018 104.707 654.889 99.4997 648.595" stroke="#1F2872" stroke-width="20" stroke-linejoin="round"/>
<path d="M99.4997 648.595C94.2927 642.301 89.2848 635.845 84.4833 629.236" stroke="#7A49FF" stroke-width="20" stroke-linejoin="round"/>
<path d="M84.4833 629.236C79.6818 622.627 75.0891 615.869 70.712 608.972" stroke="#1F2872" stroke-width="20" stroke-linejoin="round"/>
<path d="M84.4833 629.236C79.6818 622.627 75.0891 615.869 70.712 608.972" stroke="#1F2872" stroke-width="20" stroke-linejoin="round"/>
<path d="M70.712 608.972C66.335 602.075 62.1757 595.042 58.2403 587.884" stroke="#1F2872" stroke-width="20" stroke-linejoin="round"/>
<path d="M70.712 608.972C66.335 602.075 62.1757 595.042 58.2403 587.884" stroke="#33C9C0" stroke-width="20" stroke-linejoin="round"/>
<path d="M58.2404 587.884C54.305 580.726 50.5956 573.445 47.1175 566.054" stroke="#1F2872" stroke-width="20" stroke-linejoin="round"/>
<path d="M58.2404 587.884C54.305 580.726 50.5956 573.445 47.1175 566.054" stroke="#1F2872" stroke-width="20" stroke-linejoin="round"/>
<path d="M47.1175 566.054C43.6393 558.663 40.3943 551.164 37.3872 543.569" stroke="#1F2872" stroke-width="20" stroke-linejoin="round"/>
<path d="M47.1175 566.054C43.6393 558.663 40.3943 551.164 37.3872 543.569" stroke="#33C9C0" stroke-width="20" stroke-linejoin="round"/>
<path d="M37.3872 543.569C34.38 535.973 31.6123 528.286 29.088 520.517" stroke="#1F2872" stroke-width="20" stroke-linejoin="round"/>
<path d="M37.3872 543.569C34.38 535.973 31.6123 528.286 29.088 520.517" stroke="#1F2872" stroke-width="20" stroke-linejoin="round"/>
<path d="M29.088 520.517C26.5637 512.748 24.2841 504.901 22.2526 496.989" stroke="#1F2872" stroke-width="20" stroke-linejoin="round"/>
<path d="M29.088 520.517C26.5637 512.748 24.2841 504.901 22.2526 496.989" stroke="#FF8049" stroke-width="20" stroke-linejoin="round"/>
<path d="M22.2526 496.989C20.2211 489.077 18.4386 481.103 16.908 473.079" stroke="#1F2872" stroke-width="20" stroke-linejoin="round"/>
<path d="M22.2526 496.989C20.2211 489.077 18.4386 481.103 16.908 473.079" stroke="#1F2872" stroke-width="20" stroke-linejoin="round"/>
<path d="M16.908 473.079C15.3773 465.055 14.0991 456.984 13.0753 448.88" stroke="#1F2872" stroke-width="20" stroke-linejoin="round"/>
<path d="M16.908 473.079C15.3773 465.055 14.0991 456.984 13.0753 448.88" stroke="#33C9C0" stroke-width="20" stroke-linejoin="round"/>
<path d="M13.0753 448.88C12.0514 440.776 11.2825 432.641 10.7696 424.488" stroke="#1F2872" stroke-width="20" stroke-linejoin="round"/>
<path d="M13.0753 448.88C12.0514 440.776 11.2825 432.641 10.7696 424.488" stroke="#1F2872" stroke-width="20" stroke-linejoin="round"/>
<path d="M10.7696 424.488C10.2566 416.336 10 408.169 10 400" stroke="#1F2872" stroke-width="20" stroke-linejoin="round"/>
<path d="M10.7696 424.488C10.2566 416.336 10 408.169 10 400" stroke="#FF5247" stroke-width="20" stroke-linejoin="round"/>
<path d="M400 10C391.831 10 383.664 10.2567 375.512 10.7696" stroke="#1F2872" stroke-width="20" stroke-linejoin="round"/>
<path d="M375.512 10.7696C367.359 11.2825 359.224 12.0514 351.12 13.0753" stroke="#1F2872" stroke-width="20" stroke-linejoin="round"/>
<path d="M375.512 10.7696C367.359 11.2825 359.224 12.0514 351.12 13.0753" stroke="#33C9C0" stroke-width="20" stroke-linejoin="round"/>
<path d="M351.12 13.0753C343.016 14.0991 334.945 15.3773 326.921 16.908" stroke="#1F2872" stroke-width="20" stroke-linejoin="round"/>
<path d="M326.921 16.908C318.897 18.4387 310.923 20.2211 303.011 22.2526" stroke="#1F2872" stroke-width="20" stroke-linejoin="round"/>
<path d="M326.921 16.908C318.897 18.4387 310.923 20.2211 303.011 22.2526" stroke="#7A49FF" stroke-width="20" stroke-linejoin="round"/>
<path d="M303.011 22.2526C295.099 24.2841 287.252 26.5637 279.483 29.088" stroke="#1F2872" stroke-width="20" stroke-linejoin="round"/>
<path d="M279.483 29.088C271.714 31.6123 264.027 34.3801 256.431 37.3872" stroke="#1F2872" stroke-width="20" stroke-linejoin="round"/>
<path d="M279.483 29.088C271.714 31.6123 264.027 34.3801 256.431 37.3872" stroke="#33C9C0" stroke-width="20" stroke-linejoin="round"/>
<path d="M256.431 37.3872C248.836 40.3943 241.337 43.6394 233.946 47.1175" stroke="#1F2872" stroke-width="20" stroke-linejoin="round"/>
<path d="M233.946 47.1175C226.555 50.5956 219.274 54.3051 212.116 58.2404" stroke="#1F2872" stroke-width="20" stroke-linejoin="round"/>
<path d="M233.946 47.1175C226.555 50.5956 219.274 54.3051 212.116 58.2404" stroke="#FFD849" stroke-width="20" stroke-linejoin="round"/>
<path d="M212.116 58.2404C204.958 62.1758 197.925 66.3351 191.027 70.7122" stroke="#1F2872" stroke-width="20" stroke-linejoin="round"/>
<path d="M191.027 70.7122C184.13 75.0892 177.372 79.6819 170.764 84.4834" stroke="#1F2872" stroke-width="20" stroke-linejoin="round"/>
<path d="M191.027 70.7122C184.13 75.0892 177.372 79.6819 170.764 84.4834" stroke="#7A49FF" stroke-width="20" stroke-linejoin="round"/>
<path d="M170.764 84.4834C164.155 89.2849 157.699 94.2929 151.405 99.4999" stroke="#1F2872" stroke-width="20" stroke-linejoin="round"/>
<path d="M151.405 99.4999C145.11 104.707 138.981 110.11 133.027 115.702" stroke="#1F2872" stroke-width="20" stroke-linejoin="round"/>
<path d="M151.405 99.4999C145.11 104.707 138.981 110.11 133.027 115.702" stroke="#33C9C0" stroke-width="20" stroke-linejoin="round"/>
<path d="M133.027 115.702C127.072 121.294 121.294 127.072 115.702 133.027" stroke="#1F2872" stroke-width="20" stroke-linejoin="round"/>
<path d="M115.702 133.027C110.11 138.982 104.707 145.111 99.4997 151.405" stroke="#1F2872" stroke-width="20" stroke-linejoin="round"/>
<path d="M115.702 133.027C110.11 138.982 104.707 145.111 99.4997 151.405" stroke="#33C9C0" stroke-width="20" stroke-linejoin="round"/>
<path d="M99.4997 151.405C94.2927 157.699 89.2848 164.155 84.4833 170.764" stroke="#1F2872" stroke-width="20" stroke-linejoin="round"/>
<path d="M84.4833 170.764C79.6818 177.373 75.0891 184.131 70.712 191.028" stroke="#1F2872" stroke-width="20" stroke-linejoin="round"/>
<path d="M84.4833 170.764C79.6818 177.373 75.0891 184.131 70.712 191.028" stroke="#7A49FF" stroke-width="20" stroke-linejoin="round"/>
<path d="M70.712 191.028C66.335 197.925 62.1757 204.958 58.2403 212.116" stroke="#1F2872" stroke-width="20" stroke-linejoin="round"/>
<path d="M70.712 191.028C66.335 197.925 62.1757 204.958 58.2403 212.116" stroke="#1F2872" stroke-width="20" stroke-linejoin="round"/>
<path d="M58.2404 212.116C54.305 219.274 50.5956 226.555 47.1175 233.946" stroke="#1F2872" stroke-width="20" stroke-linejoin="round"/>
<path d="M58.2404 212.116C54.305 219.274 50.5956 226.555 47.1175 233.946" stroke="#1F2872" stroke-width="20" stroke-linejoin="round"/>
<path d="M58.2404 212.116C54.305 219.274 50.5956 226.555 47.1175 233.946" stroke="#33C9C0" stroke-width="20" stroke-linejoin="round"/>
<path d="M47.1175 233.946C43.6393 241.337 40.3943 248.836 37.3872 256.431" stroke="#1F2872" stroke-width="20" stroke-linejoin="round"/>
<path d="M47.1175 233.946C43.6393 241.337 40.3943 248.836 37.3872 256.431" stroke="#FF8049" stroke-width="20" stroke-linejoin="round"/>
<path d="M37.3872 256.431C34.38 264.027 31.6123 271.714 29.088 279.483" stroke="#1F2872" stroke-width="20" stroke-linejoin="round"/>
<path d="M37.3872 256.431C34.38 264.027 31.6123 271.714 29.088 279.483" stroke="#33C9C0" stroke-width="20" stroke-linejoin="round"/>
<path d="M29.088 279.483C26.5637 287.252 24.2841 295.099 22.2526 303.011" stroke="#1F2872" stroke-width="20" stroke-linejoin="round"/>
<path d="M29.088 279.483C26.5637 287.252 24.2841 295.099 22.2526 303.011" stroke="#1F2872" stroke-width="20" stroke-linejoin="round"/>
<path d="M22.2526 303.011C20.2211 310.923 18.4386 318.897 16.908 326.921" stroke="#FF8049" stroke-width="20" stroke-linejoin="round"/>
<path d="M16.908 326.921C15.3773 334.945 14.0991 343.016 13.0753 351.12" stroke="#1F2872" stroke-width="20" stroke-linejoin="round"/>
<path d="M16.908 326.921C15.3773 334.945 14.0991 343.016 13.0753 351.12" stroke="#1F2872" stroke-width="20" stroke-linejoin="round"/>
<path d="M13.0753 351.12C12.0514 359.224 11.2825 367.359 10.7696 375.512" stroke="#1F2872" stroke-width="20" stroke-linejoin="round"/>
<path d="M13.0753 351.12C12.0514 359.224 11.2825 367.359 10.7696 375.512" stroke="#33C9C0" stroke-width="20" stroke-linejoin="round"/>
<path d="M10.7696 375.512C10.2566 383.664 10 391.831 10 400" stroke="#1F2872" stroke-width="20" stroke-linejoin="round"/>
<path d="M10.7696 375.512C10.2566 383.664 10 391.831 10 400" stroke="#1F2872" stroke-width="20" stroke-linejoin="round"/>
</svg>
