<svg width="18" height="12" viewBox="0 0 18 12" fill="none" xmlns="http://www.w3.org/2000/svg">
<path fill-rule="evenodd" clip-rule="evenodd" d="M0 6C0 5.82321 0.0677242 5.65367 0.188276 5.52866C0.308826 5.40366 0.47233 5.33343 0.642817 5.33343H15.8043L11.7584 1.13935C11.6986 1.07737 11.6512 1.0038 11.6189 0.922824C11.5865 0.84185 11.5699 0.755061 11.5699 0.667415C11.5699 0.579769 11.5865 0.492981 11.6189 0.412006C11.6512 0.331032 11.6986 0.257456 11.7584 0.195481C11.8182 0.133506 11.8891 0.0843448 11.9672 0.050804C12.0453 0.0172633 12.129 0 12.2135 0C12.298 0 12.3817 0.0172633 12.4598 0.050804C12.5379 0.0843448 12.6089 0.133506 12.6686 0.195481L17.8111 5.52807C17.871 5.58998 17.9185 5.66354 17.9509 5.74452C17.9833 5.82551 18 5.91232 18 6C18 6.08768 17.9833 6.17449 17.9509 6.25548C17.9185 6.33646 17.871 6.41002 17.8111 6.47193L12.6686 11.8045C12.6089 11.8665 12.5379 11.9157 12.4598 11.9492C12.3817 11.9827 12.298 12 12.2135 12C12.129 12 12.0453 11.9827 11.9672 11.9492C11.8891 11.9157 11.8182 11.8665 11.7584 11.8045C11.6986 11.7425 11.6512 11.669 11.6189 11.588C11.5865 11.507 11.5699 11.4202 11.5699 11.3326C11.5699 11.2449 11.5865 11.1582 11.6189 11.0772C11.6512 10.9962 11.6986 10.9226 11.7584 10.8607L15.8043 6.66657H0.642817C0.47233 6.66657 0.308826 6.59635 0.188276 6.47134C0.0677242 6.34633 0 6.17679 0 6Z" fill="#67749A"/>
</svg>
