<svg width="26" height="16" viewBox="0 0 26 16" fill="none" xmlns="http://www.w3.org/2000/svg">
<path fill-rule="evenodd" clip-rule="evenodd" d="M0 8C0 8.23571 0.0978241 8.46177 0.271954 8.62845C0.446085 8.79513 0.682255 8.88876 0.928513 8.88876H22.8284L16.9843 14.4809C16.898 14.5635 16.8295 14.6616 16.7828 14.7696C16.7361 14.8775 16.712 14.9933 16.712 15.1101C16.712 15.227 16.7361 15.3427 16.7828 15.4507C16.8295 15.5586 16.898 15.6567 16.9843 15.7394C17.0707 15.822 17.1732 15.8875 17.286 15.9323C17.3988 15.977 17.5196 16 17.6417 16C17.7638 16 17.8847 15.977 17.9975 15.9323C18.1103 15.8875 18.2128 15.822 18.2991 15.7394L25.7272 8.62925C25.8137 8.54669 25.8823 8.44861 25.9291 8.34063C25.9759 8.23266 26 8.1169 26 8C26 7.8831 25.9759 7.76734 25.9291 7.65937C25.8823 7.55139 25.8137 7.45331 25.7272 7.37076L18.2991 0.260641C18.2128 0.178007 18.1103 0.112459 17.9975 0.0677376C17.8847 0.0230169 17.7638 0 17.6417 0C17.5196 0 17.3988 0.0230169 17.286 0.0677376C17.1732 0.112459 17.0707 0.178007 16.9843 0.260641C16.898 0.343275 16.8295 0.441375 16.7828 0.549341C16.7361 0.657307 16.712 0.773025 16.712 0.889886C16.712 1.00675 16.7361 1.12247 16.7828 1.23043C16.8295 1.3384 16.898 1.4365 16.9843 1.51913L22.8284 7.11124H0.928513C0.682255 7.11124 0.446085 7.20487 0.271954 7.37155C0.0978241 7.53822 0 7.76429 0 8Z" fill="#95A5BE"/>
</svg>
