<svg width="13" height="12" viewBox="0 0 13 12" fill="none" xmlns="http://www.w3.org/2000/svg">
<path d="M0 9.31591V10.2974C0 11.1088 2.18359 11.7684 4.875 11.7684C7.5664 11.7684 9.74999 11.1088 9.74999 10.2974V9.31591C8.70136 9.98478 6.78437 10.2974 4.875 10.2974C2.96562 10.2974 1.04863 9.98478 0 9.31591ZM8.125 2.94211C10.8164 2.94211 13 2.28243 13 1.47105C13 0.659676 10.8164 0 8.125 0C5.43359 0 3.25 0.659676 3.25 1.47105C3.25 2.28243 5.43359 2.94211 8.125 2.94211ZM0 6.90476V8.0908C0 8.90218 2.18359 9.56185 4.875 9.56185C7.5664 9.56185 9.74999 8.90218 9.74999 8.0908V6.90476C8.70136 7.68626 6.78183 8.0908 4.875 8.0908C2.96816 8.0908 1.04863 7.68626 0 6.90476ZM10.5625 7.1576C12.0174 6.90246 13 6.42897 13 5.88422V4.90275C12.4109 5.27971 11.5451 5.53714 10.5625 5.69574V7.1576ZM4.875 3.67764C2.18359 3.67764 0 4.50051 0 5.51645C0 6.5324 2.18359 7.35527 4.875 7.35527C7.5664 7.35527 9.74999 6.5324 9.74999 5.51645C9.74999 4.50051 7.5664 3.67764 4.875 3.67764ZM10.4432 4.9717C11.9666 4.72346 13 4.23618 13 3.67764V2.69617C12.0986 3.2731 10.5498 3.5834 8.91972 3.65695C9.66874 3.98564 10.2197 4.42695 10.4432 4.9717Z" fill="#1A2547"/>
</svg>
