<svg width="15" height="15" viewBox="0 0 15 15" fill="none" xmlns="http://www.w3.org/2000/svg">
<path d="M0 11.874V13.125C0 14.1592 2.51953 15 5.625 15C8.73047 15 11.25 14.1592 11.25 13.125V11.874C10.04 12.7266 7.82812 13.125 5.625 13.125C3.42188 13.125 1.20996 12.7266 0 11.874ZM9.375 3.75C12.4805 3.75 15 2.90918 15 1.875C15 0.84082 12.4805 0 9.375 0C6.26953 0 3.75 0.84082 3.75 1.875C3.75 2.90918 6.26953 3.75 9.375 3.75ZM0 8.80078V10.3125C0 11.3467 2.51953 12.1875 5.625 12.1875C8.73047 12.1875 11.25 11.3467 11.25 10.3125V8.80078C10.04 9.79688 7.8252 10.3125 5.625 10.3125C3.4248 10.3125 1.20996 9.79688 0 8.80078ZM12.1875 9.12305C13.8662 8.79785 15 8.19434 15 7.5V6.24902C14.3203 6.72949 13.3213 7.05762 12.1875 7.25977V9.12305ZM5.625 4.6875C2.51953 4.6875 0 5.73633 0 7.03125C0 8.32617 2.51953 9.375 5.625 9.375C8.73047 9.375 11.25 8.32617 11.25 7.03125C11.25 5.73633 8.73047 4.6875 5.625 4.6875ZM12.0498 6.33691C13.8076 6.02051 15 5.39941 15 4.6875V3.43652C13.96 4.17188 12.1729 4.56738 10.292 4.66113C11.1562 5.08008 11.792 5.64258 12.0498 6.33691Z" fill="#A9A9C6"/>
</svg>
