<svg width="12" height="15" viewBox="0 0 12 12"  fill="none" xmlns="http://www.w3.org/2000/svg">
<path d="M0 9.49922V10.5C0 11.3273 2.01562 12 4.5 12C6.98438 12 9 11.3273 9 10.5V9.49922C8.03203 10.1812 6.2625 10.5 4.5 10.5C2.7375 10.5 0.967969 10.1812 0 9.49922ZM7.5 3C9.98438 3 12 2.32734 12 1.5C12 0.672656 9.98438 0 7.5 0C5.01562 0 3 0.672656 3 1.5C3 2.32734 5.01562 3 7.5 3ZM0 7.04062V8.25C0 9.07734 2.01562 9.75 4.5 9.75C6.98438 9.75 9 9.07734 9 8.25V7.04062C8.03203 7.8375 6.26016 8.25 4.5 8.25C2.73984 8.25 0.967969 7.8375 0 7.04062ZM9.75 7.29844C11.093 7.03828 12 6.55547 12 6V4.99922C11.4563 5.38359 10.657 5.64609 9.75 5.80781V7.29844ZM4.5 3.75C2.01562 3.75 0 4.58906 0 5.625C0 6.66094 2.01562 7.5 4.5 7.5C6.98438 7.5 9 6.66094 9 5.625C9 4.58906 6.98438 3.75 4.5 3.75ZM9.63984 5.06953C11.0461 4.81641 12 4.31953 12 3.75V2.74922C11.168 3.3375 9.73828 3.65391 8.23359 3.72891C8.925 4.06406 9.43359 4.51406 9.63984 5.06953Z" fill="#677087"/>
</svg>
