<svg width="293" height="147" viewBox="0 0 293 147" fill="none" xmlns="http://www.w3.org/2000/svg">
<rect x="72.3789" y="9.97656" width="10" height="4" transform="rotate(45 72.3789 9.97656)" fill="#76EE03"/>
<rect width="10" height="4" transform="matrix(0.707107 -0.707107 -0.707107 -0.707107 61.8284 136.189)" fill="#76EE03"/>
<rect x="91.0001" y="22.2041" width="7" height="4" transform="rotate(-45 91.0001 22.2041)" fill="#FD0272"/>
<rect width="7" height="4" transform="matrix(0.707107 0.707107 0.707107 -0.707107 80.4496 123.962)" fill="#FD0272"/>
<rect x="135.631" width="7" height="4" transform="rotate(56.5813 135.631 0)" fill="#FFE803"/>
<rect width="7" height="4" transform="matrix(0.550754 -0.834668 -0.834668 -0.550754 125.08 146.166)" fill="#FFE803"/>
<rect x="154.695" y="15.1338" width="14" height="4" transform="rotate(10.0052 154.695 15.1338)" fill="#501BD5"/>
<rect width="14" height="4" transform="matrix(0.984792 -0.173737 -0.173737 -0.984792 144.144 131.032)" fill="#501BD5"/>
<rect x="4.31726" y="45.1338" width="14" height="4" transform="rotate(56.0262 4.31726 45.1338)" fill="#501BD5"/>
<rect width="14" height="4" transform="matrix(-0.558813 0.829294 0.829294 0.558813 287.76 45.1338)" fill="#501BD5"/>
<rect x="12.3854" y="75.0635" width="5" height="4" transform="rotate(137.088 12.3854 75.0635)" fill="#FD0272"/>
<rect width="5" height="4" transform="matrix(0.732397 0.680877 0.680877 -0.732397 279.692 75.0635)" fill="#FD0272"/>
<rect x="12.5297" y="103.959" width="14" height="4" transform="rotate(-153.506 12.5297 103.959)" fill="#FFE803"/>
<rect width="14" height="4" transform="matrix(0.89498 -0.446106 -0.446106 -0.89498 279.548 103.959)" fill="#FFE803"/>
<rect x="14.188" y="126.214" width="6" height="4" transform="rotate(-50.8691 14.188 126.214)" fill="#76EE03"/>
<rect width="6" height="4" transform="matrix(-0.631095 -0.775706 -0.775706 0.631095 277.889 126.214)" fill="#76EE03"/>
<rect x="181.728" y="4.13379" width="5" height="4" transform="rotate(68.7523 181.728 4.13379)" fill="#01EDB1"/>
<rect width="5" height="4" transform="matrix(0.3624 -0.932023 -0.932023 -0.3624 171.178 142.032)" fill="#01EDB1"/>
<rect x="208.728" y="17.1338" width="5" height="4" transform="rotate(68.7523 208.728 17.1338)" fill="#F70A19"/>
<rect width="5" height="4" transform="matrix(0.3624 -0.932023 -0.932023 -0.3624 198.178 129.032)" fill="#F70A19"/>
<rect x="236.838" y="3.9043" width="12" height="4" transform="rotate(-15 236.838 3.9043)" fill="#FFE803"/>
<rect width="12" height="4" transform="matrix(0.965926 0.258819 0.258819 -0.965926 226.287 142.262)" fill="#FFE803"/>
</svg>
