<svg width="22" height="22" viewBox="0 0 22 22" fill="none" xmlns="http://www.w3.org/2000/svg">
<path d="M19.4029 13.0373C20.835 13.0373 22 11.8723 22 10.4403V9.19981H20.3541C19.8486 9.19981 19.3597 9.34749 18.9408 9.62054C18.8941 9.36291 18.8355 9.10838 18.7644 8.85801L19.2609 8.57223C19.8617 8.2254 20.2914 7.66537 20.471 6.9953C20.6505 6.32518 20.5584 5.62534 20.2115 5.02457L19.5913 3.95027L18.1659 4.77321C17.7281 5.02599 17.3787 5.3983 17.1529 5.84412C16.974 5.63384 16.7833 5.43216 16.5818 5.23954L16.8211 4.82512C17.1679 4.22435 17.2601 3.52446 17.0805 2.85443C16.901 2.18432 16.4713 1.62429 15.8705 1.27746L14.7962 0.657227L13.9733 2.08257C13.6264 2.68334 13.5343 3.38323 13.7138 4.0533C13.8933 4.72337 14.3231 5.2834 14.9238 5.63023L15.3882 5.89844C16.9104 7.18878 17.7827 9.07035 17.7827 11.0697C17.7827 13.9238 16.0105 16.3716 13.5089 17.3711V19.353C13.8567 19.9418 14.4106 20.3633 15.0721 20.5405C15.2959 20.6005 15.5229 20.6301 15.7485 20.6301C16.1985 20.6301 16.6427 20.512 17.0429 20.281L18.1172 19.6608L17.2942 18.2354C17.0408 17.7965 16.6673 17.4466 16.2201 17.2208C16.4194 17.0514 16.6104 16.8726 16.7924 16.6849L17.2934 16.9752C17.6936 17.2062 18.1377 17.3242 18.5877 17.3242C18.8133 17.3242 19.0404 17.2946 19.264 17.2346C19.9341 17.0551 20.4942 16.6254 20.841 16.0246L21.4613 14.9503L20.0359 14.1274C19.5982 13.8747 19.1007 13.7585 18.6009 13.7863C18.6886 13.5416 18.7649 13.2914 18.829 13.0365L19.4029 13.0373Z" fill="#615EE8"/>
<path d="M4.21756 11.0706C4.21756 9.07128 5.08984 7.18971 6.61199 5.89937L7.07642 5.63117C7.67719 5.28434 8.1069 4.72431 8.28646 4.05423C8.46602 3.38412 8.3739 2.68427 8.02702 2.08351L7.20412 0.658203L6.12981 1.27839C4.88965 1.99439 4.4632 3.58589 5.17921 4.82605L5.41849 5.24047C5.21689 5.43313 5.02616 5.63491 4.84716 5.84527C4.62137 5.39936 4.272 5.02697 3.83408 4.77415L2.40869 3.9512L1.78846 5.02546C1.44159 5.62623 1.34947 6.32612 1.52903 6.99619C1.70859 7.66626 2.1383 8.22629 2.73984 8.5736L3.23581 8.85907C3.16474 9.10948 3.10609 9.36398 3.05934 9.62165C2.64046 9.34851 2.15149 9.20074 1.64585 9.20074H0V10.4412C0 11.8732 1.16505 13.0383 2.59796 13.0383L3.17136 13.0375C3.23542 13.2925 3.31173 13.5426 3.39947 13.7873C2.8995 13.7595 2.40195 13.8756 1.96415 14.1284L0.538807 14.9512L1.15904 16.0256C1.50587 16.6264 2.0659 17.0561 2.73601 17.2356C2.9597 17.2956 3.18665 17.3252 3.41219 17.3252C3.86235 17.3252 4.30672 17.2071 4.70747 16.9757L5.20787 16.6858C5.38983 16.8735 5.58082 17.0523 5.78015 17.2217C5.33282 17.4474 4.95922 17.7974 4.70584 18.2364L3.88289 19.6618L4.95715 20.282C5.35735 20.5131 5.80146 20.6311 6.25154 20.6311C6.47711 20.6311 6.7042 20.6015 6.92793 20.5415C7.58919 20.3643 8.14291 19.9431 8.49115 19.3539V17.372C5.98957 16.3723 4.21756 13.9246 4.21756 11.0706Z" fill="#615EE8"/>
<path d="M15.4519 11.0489C15.4519 8.59392 13.4547 6.59668 10.9997 6.59668C8.54477 6.59668 6.54749 8.59392 6.54749 11.0489C6.54749 13.5039 8.54472 15.5011 10.9997 15.5011C13.4547 15.5011 15.4519 13.5039 15.4519 11.0489ZM12.504 13.2332H9.4961V11.9442H10.3555V10.1536H9.71094V8.86457H11.6445V11.9442H12.504V13.2332Z" fill="#615EE8"/>
<path d="M12.2199 16.6582C11.8265 16.7437 11.4183 16.7892 10.9996 16.7892C10.5812 16.7892 10.1733 16.7438 9.78003 16.6583V21.3413L11.0001 20.9195L12.2199 21.3412V16.6582H12.2199Z" fill="#615EE8"/>
</svg>
