<svg width="20" height="13" viewBox="0 0 20 13" fill="none" xmlns="http://www.w3.org/2000/svg">
<path d="M20 8.6125C20 9.1 19 9.425 17.8333 9.5875C17.0833 8.20625 15.5833 7.15 13.8333 6.41875C14 6.175 14.1667 6.0125 14.3333 5.76875H15C17.5833 5.6875 20 7.23125 20 8.6125ZM5.66667 5.6875H5C2.41667 5.6875 0 7.23125 0 8.6125C0 9.1 1 9.425 2.16667 9.5875C2.91667 8.20625 4.41667 7.15 6.16667 6.41875L5.66667 5.6875ZM10 6.5C11.8333 6.5 13.3333 5.0375 13.3333 3.25C13.3333 1.4625 11.8333 0 10 0C8.16667 0 6.66667 1.4625 6.66667 3.25C6.66667 5.0375 8.16667 6.5 10 6.5ZM10 7.3125C6.58333 7.3125 3.33333 9.425 3.33333 11.375C3.33333 13 10 13 10 13C10 13 16.6667 13 16.6667 11.375C16.6667 9.425 13.4167 7.3125 10 7.3125ZM14.75 4.875H15C16.4167 4.875 17.5 3.81875 17.5 2.4375C17.5 1.05625 16.4167 0 15 0C14.5833 0 14.25 0.0812502 13.9167 0.24375C14.5833 1.05625 15 2.1125 15 3.25C15 3.81875 14.9167 4.3875 14.75 4.875ZM5 4.875H5.25C5.08333 4.3875 5 3.81875 5 3.25C5 2.1125 5.41667 1.05625 6.08333 0.24375C5.75 0.0812502 5.41667 0 5 0C3.58333 0 2.5 1.05625 2.5 2.4375C2.5 3.81875 3.58333 4.875 5 4.875Z" fill="#1A2547"/>
</svg>
