 <svg width="100%"  height="85" class="d-comp" viewBox="0 0 214 85" fill="none" xmlns="http://www.w3.org/2000/svg">
                                <path d="M52.2441 16.9307C35.0138 12.4169 13.2108 35.2093 4.19497 45.7965C1.38623 49.0947 0 53.3076 0 57.6397V65C0 76.0457 8.9543 85 20 85H194C205.046 85 214 76.0457 214 65V34.3967C214 31.6792 213.46 28.9964 212.257 26.5595C208.526 19 199.297 2.37084 189.385 0.247087C171.274 -3.63312 172.491 39.4388 154.221 41.6225C137.067 43.6727 132.55 9.89773 115.54 13.4797C99.7557 16.8035 101.844 49.4974 85.9014 50.9653C69.4223 52.4826 68.4507 21.1764 52.2441 16.9307Z" fill="#963FDB"/>
                            </svg>