 <svg width="100%" height="70" class="d-mob" viewBox="0 0 372 85" fill="none" xmlns="http://www.w3.org/2000/svg">
                            <path  d="M90.8169 16.9307C61.3343 12.4876 24.1502 34.5018 8.04508 45.29C2.87399 48.7539 0 54.6153 0 60.8393V65C0 76.0457 8.95431 85 20 85H352C363.046 85 372 76.0457 372 65V36.9282C372 32.6107 370.622 28.4006 367.758 25.1698C360.636 17.1354 345.451 2.24871 329.211 0.247087C297.729 -3.63312 299.845 39.4388 268.085 41.6225C238.266 43.6727 230.415 9.89773 200.845 13.4797C173.407 16.8035 177.038 49.4974 149.324 50.9653C120.678 52.4826 118.989 21.1764 90.8169 16.9307Z" fill="#AD0355"/>
                            </svg>