<svg width="800" height="800" viewBox="0 0 800 800" fill="none" xmlns="http://www.w3.org/2000/svg">
<path d="M387.671 7.69371C395.888 7.43548 404.112 7.43548 412.329 7.69372" stroke="#FFD849" stroke-width="15" stroke-linejoin="round"/>
<path d="M412.329 7.69372C420.546 7.95195 428.753 8.46829 436.938 9.24197" stroke="#1F2872" stroke-width="15" stroke-linejoin="round"/>
<path d="M436.938 9.24197C445.122 10.0157 453.281 11.0463 461.401 12.3324" stroke="#33C9C0" stroke-width="15" stroke-linejoin="round"/>
<path d="M461.401 12.3324C469.52 13.6184 477.598 15.1593 485.621 16.9527" stroke="#1F2872" stroke-width="15" stroke-linejoin="round"/>
<path d="M485.621 16.9527C493.644 18.7461 501.609 20.7911 509.504 23.0848" stroke="#33C9C0" stroke-width="15" stroke-linejoin="round"/>
<path d="M509.504 23.0848C517.399 25.3784 525.22 27.9195 532.955 30.7044" stroke="#1F2872" stroke-width="15" stroke-linejoin="round"/>
<path d="M532.955 30.7044C540.69 33.4892 548.336 36.5164 555.881 39.7814" stroke="#33C9C0" stroke-width="15" stroke-linejoin="round"/>
<path d="M555.881 39.7814C563.426 43.0464 570.866 46.5477 578.191 50.28" stroke="#1F2872" stroke-width="15" stroke-linejoin="round"/>
<path d="M578.191 50.28C585.516 54.0124 592.722 57.9739 599.799 62.1588" stroke="#FF8049" stroke-width="15" stroke-linejoin="round"/>
<path d="M599.799 62.1588C606.875 66.3438 613.818 70.75 620.618 75.371" stroke="#1F2872" stroke-width="15" stroke-linejoin="round"/>
<path d="M599.799 62.1588C606.875 66.3438 613.818 70.75 620.618 75.371" stroke="#1F2872" stroke-width="15" stroke-linejoin="round"/>
<path d="M620.618 75.371C627.417 79.992 634.07 84.8254 640.566 89.8643" stroke="#1F2872" stroke-width="15" stroke-linejoin="round"/>
<path d="M620.618 75.371C627.417 79.992 634.07 84.8254 640.566 89.8643" stroke="#33C9C0" stroke-width="15" stroke-linejoin="round"/>
<path d="M640.566 89.8643C647.062 94.9031 653.398 100.145 659.565 105.582" stroke="#1F2872" stroke-width="15" stroke-linejoin="round"/>
<path d="M640.566 89.8643C647.062 94.9031 653.398 100.145 659.565 105.582" stroke="#1F2872" stroke-width="15" stroke-linejoin="round"/>
<path d="M659.565 105.582C665.732 111.018 671.726 116.647 677.539 122.461" stroke="#1F2872" stroke-width="15" stroke-linejoin="round"/>
<path d="M659.565 105.582C665.732 111.018 671.726 116.647 677.539 122.461" stroke="#33C9C0" stroke-width="15" stroke-linejoin="round"/>
<path d="M677.539 122.461C683.353 128.274 688.982 134.268 694.419 140.435" stroke="#1F2872" stroke-width="15" stroke-linejoin="round"/>
<path d="M677.539 122.461C683.353 128.274 688.982 134.268 694.419 140.435" stroke="#1F2872" stroke-width="15" stroke-linejoin="round"/>
<path d="M694.419 140.435C699.855 146.602 705.097 152.938 710.136 159.434" stroke="#1F2872" stroke-width="15" stroke-linejoin="round"/>
<path d="M694.419 140.435C699.855 146.602 705.097 152.938 710.136 159.434" stroke="#FF8049" stroke-width="15" stroke-linejoin="round"/>
<path d="M710.136 159.434C715.175 165.93 720.008 172.583 724.629 179.382" stroke="#1F2872" stroke-width="15" stroke-linejoin="round"/>
<path d="M710.136 159.434C715.175 165.93 720.008 172.583 724.629 179.382" stroke="#1F2872" stroke-width="15" stroke-linejoin="round"/>
<path d="M724.629 179.382C729.25 186.182 733.656 193.125 737.841 200.201" stroke="#1F2872" stroke-width="15" stroke-linejoin="round"/>
<path d="M724.629 179.382C729.25 186.182 733.656 193.125 737.841 200.201" stroke="#33C9C0" stroke-width="15" stroke-linejoin="round"/>
<path d="M737.841 200.201C742.026 207.278 745.988 214.484 749.72 221.809" stroke="#1F2872" stroke-width="15" stroke-linejoin="round"/>
<path d="M737.841 200.201C742.026 207.278 745.988 214.484 749.72 221.809" stroke="#1F2872" stroke-width="15" stroke-linejoin="round"/>
<path d="M749.72 221.809C753.452 229.134 756.954 236.574 760.219 244.119" stroke="#1F2872" stroke-width="15" stroke-linejoin="round"/>
<path d="M749.72 221.809C753.452 229.134 756.954 236.574 760.219 244.119" stroke="#33C9C0" stroke-width="15" stroke-linejoin="round"/>
<path d="M760.219 244.119C763.484 251.665 766.511 259.31 769.296 267.045" stroke="#1F2872" stroke-width="15" stroke-linejoin="round"/>
<path d="M769.296 267.045C772.08 274.781 774.622 282.601 776.915 290.496" stroke="#1F2872" stroke-width="15" stroke-linejoin="round"/>
<path d="M769.296 267.045C772.08 274.781 774.622 282.601 776.915 290.496" stroke="#FF8049" stroke-width="15" stroke-linejoin="round"/>
<path d="M776.915 290.496C779.209 298.391 781.254 306.356 783.047 314.379" stroke="#1F2872" stroke-width="15" stroke-linejoin="round"/>
<path d="M776.915 290.496C779.209 298.391 781.254 306.356 783.047 314.379" stroke="#1F2872" stroke-width="15" stroke-linejoin="round"/>
<path d="M783.047 314.379C784.841 322.402 786.382 330.48 787.668 338.6" stroke="#1F2872" stroke-width="15" stroke-linejoin="round"/>
<path d="M783.047 314.379C784.841 322.402 786.382 330.48 787.668 338.6" stroke="#33C9C0" stroke-width="15" stroke-linejoin="round"/>
<path d="M787.668 338.6C788.954 346.72 789.984 354.878 790.758 363.063" stroke="#1F2872" stroke-width="15" stroke-linejoin="round"/>
<path d="M787.668 338.6C788.954 346.72 789.984 354.878 790.758 363.063" stroke="#1F2872" stroke-width="15" stroke-linejoin="round"/>
<path d="M790.758 363.063C791.532 371.247 792.048 379.454 792.306 387.671" stroke="#1F2872" stroke-width="15" stroke-linejoin="round"/>
<path d="M790.758 363.063C791.532 371.247 792.048 379.454 792.306 387.671" stroke="#7A49FF" stroke-width="15" stroke-linejoin="round"/>
<path d="M412.329 792.307C420.546 792.048 428.753 791.532 436.938 790.758" stroke="#1F2872" stroke-width="15" stroke-linejoin="round"/>
<path d="M412.329 792.307C420.546 792.048 428.753 791.532 436.938 790.758" stroke="#1F2872" stroke-width="15" stroke-linejoin="round"/>
<path d="M436.938 790.758C445.122 789.985 453.281 788.954 461.401 787.668" stroke="#33C9C0" stroke-width="15" stroke-linejoin="round"/>
<path d="M461.401 787.668C469.521 786.382 477.598 784.841 485.621 783.048" stroke="#1F2872" stroke-width="15" stroke-linejoin="round"/>
<path d="M461.401 787.668C469.521 786.382 477.598 784.841 485.621 783.048" stroke="#1F2872" stroke-width="15" stroke-linejoin="round"/>
<path d="M485.621 783.048C493.644 781.254 501.609 779.209 509.504 776.916" stroke="#1F2872" stroke-width="15" stroke-linejoin="round"/>
<path d="M485.621 783.048C493.644 781.254 501.609 779.209 509.504 776.916" stroke="#7A49FF" stroke-width="15" stroke-linejoin="round"/>
<path d="M509.504 776.916C517.399 774.622 525.22 772.081 532.955 769.296" stroke="#1F2872" stroke-width="15" stroke-linejoin="round"/>
<path d="M509.504 776.916C517.399 774.622 525.22 772.081 532.955 769.296" stroke="#1F2872" stroke-width="15" stroke-linejoin="round"/>
<path d="M532.955 769.296C540.69 766.511 548.336 763.484 555.881 760.219" stroke="#FFD849" stroke-width="15" stroke-linejoin="round"/>
<path d="M555.881 760.219C563.426 756.954 570.866 753.453 578.191 749.72" stroke="#1F2872" stroke-width="15" stroke-linejoin="round"/>
<path d="M555.881 760.219C563.426 756.954 570.866 753.453 578.191 749.72" stroke="#1F2872" stroke-width="15" stroke-linejoin="round"/>
<path d="M578.191 749.72C585.516 745.988 592.723 742.026 599.799 737.841" stroke="#1F2872" stroke-width="15" stroke-linejoin="round"/>
<path d="M578.191 749.72C585.516 745.988 592.723 742.026 599.799 737.841" stroke="#33C9C0" stroke-width="15" stroke-linejoin="round"/>
<path d="M599.799 737.841C606.875 733.657 613.818 729.25 620.618 724.629" stroke="#1F2872" stroke-width="15" stroke-linejoin="round"/>
<path d="M599.799 737.841C606.875 733.657 613.818 729.25 620.618 724.629" stroke="#1F2872" stroke-width="15" stroke-linejoin="round"/>
<path d="M620.618 724.629C627.417 720.008 634.07 715.175 640.566 710.136" stroke="#FF8049" stroke-width="15" stroke-linejoin="round"/>
<path d="M640.566 710.136C647.062 705.097 653.398 699.856 659.565 694.419" stroke="#1F2872" stroke-width="15" stroke-linejoin="round"/>
<path d="M640.566 710.136C647.062 705.097 653.398 699.856 659.565 694.419" stroke="#22B6AD" stroke-width="15" stroke-linejoin="round"/>
<path d="M659.565 694.419C665.732 688.982 671.726 683.353 677.54 677.54" stroke="#33C9C0" stroke-width="15" stroke-linejoin="round"/>
<path d="M677.54 677.54C683.353 671.726 688.982 665.732 694.419 659.565" stroke="#1F2872" stroke-width="15" stroke-linejoin="round"/>
<path d="M694.419 659.565C699.855 653.398 705.097 647.062 710.136 640.566" stroke="#33C9C0" stroke-width="15" stroke-linejoin="round"/>
<path d="M710.136 640.566C715.175 634.07 720.008 627.417 724.629 620.618" stroke="#1F2872" stroke-width="15" stroke-linejoin="round"/>
<path d="M724.629 620.618C729.25 613.818 733.656 606.875 737.841 599.799" stroke="#7A49FF" stroke-width="15" stroke-linejoin="round"/>
<path d="M737.841 599.799C742.026 592.723 745.988 585.517 749.72 578.191" stroke="#1F2872" stroke-width="15" stroke-linejoin="round"/>
<path d="M749.72 578.192C753.452 570.866 756.954 563.426 760.219 555.881" stroke="#FF8049" stroke-width="15" stroke-linejoin="round"/>
<path d="M760.219 555.881C763.484 548.336 766.511 540.69 769.296 532.955" stroke="#1F2872" stroke-width="15" stroke-linejoin="round"/>
<path d="M769.296 532.955C772.081 525.22 774.622 517.399 776.915 509.504" stroke="#33C9C0" stroke-width="15" stroke-linejoin="round"/>
<path d="M776.915 509.504C779.209 501.61 781.254 493.645 783.047 485.621" stroke="#1F2872" stroke-width="15" stroke-linejoin="round"/>
<path d="M783.047 485.621C784.841 477.598 786.382 469.521 787.668 461.401" stroke="#FFD849" stroke-width="15" stroke-linejoin="round"/>
<path d="M787.668 461.401C788.954 453.281 789.984 445.122 790.758 436.938" stroke="#1F2872" stroke-width="15" stroke-linejoin="round"/>
<path d="M790.758 436.938C791.532 428.753 792.048 420.546 792.306 412.329" stroke="#1F2872" stroke-width="15" stroke-linejoin="round"/>
<path d="M790.758 436.938C791.532 428.753 792.048 420.546 792.306 412.329" stroke="#33C9C0" stroke-width="15" stroke-linejoin="round"/>
<path d="M792.306 412.329C792.565 404.112 792.565 395.889 792.306 387.671" stroke="#1F2872" stroke-width="15" stroke-linejoin="round"/>
<path d="M792.306 412.329C792.565 404.112 792.565 395.889 792.306 387.671" stroke="#1F2872" stroke-width="15" stroke-linejoin="round"/>
<path d="M412.329 792.306C404.112 792.565 395.888 792.565 387.671 792.306" stroke="#FF8049" stroke-width="15" stroke-linejoin="round"/>
<path d="M387.671 792.306C379.454 792.048 371.247 791.532 363.062 790.758" stroke="#1F2872" stroke-width="15" stroke-linejoin="round"/>
<path d="M387.671 792.306C379.454 792.048 371.247 791.532 363.062 790.758" stroke="#1F2872" stroke-width="15" stroke-linejoin="round"/>
<path d="M363.062 790.758C354.878 789.984 346.719 788.954 338.599 787.668" stroke="#1F2872" stroke-width="15" stroke-linejoin="round"/>
<path d="M363.062 790.758C354.878 789.984 346.719 788.954 338.599 787.668" stroke="#33C9C0" stroke-width="15" stroke-linejoin="round"/>
<path d="M338.599 787.668C330.479 786.382 322.402 784.841 314.379 783.047" stroke="#1F2872" stroke-width="15" stroke-linejoin="round"/>
<path d="M338.599 787.668C330.479 786.382 322.402 784.841 314.379 783.047" stroke="#1F2872" stroke-width="15" stroke-linejoin="round"/>
<path d="M314.379 783.047C306.356 781.254 298.391 779.209 290.496 776.915" stroke="#1F2872" stroke-width="15" stroke-linejoin="round"/>
<path d="M314.379 783.047C306.356 781.254 298.391 779.209 290.496 776.915" stroke="#FF8049" stroke-width="15" stroke-linejoin="round"/>
<path d="M290.496 776.915C282.601 774.622 274.78 772.08 267.045 769.296" stroke="#1F2872" stroke-width="15" stroke-linejoin="round"/>
<path d="M290.496 776.915C282.601 774.622 274.78 772.08 267.045 769.296" stroke="#1F2872" stroke-width="15" stroke-linejoin="round"/>
<path d="M267.045 769.296C259.31 766.511 251.664 763.484 244.119 760.219" stroke="#1F2872" stroke-width="15" stroke-linejoin="round"/>
<path d="M267.045 769.296C259.31 766.511 251.664 763.484 244.119 760.219" stroke="#33C9C0" stroke-width="15" stroke-linejoin="round"/>
<path d="M244.119 760.219C236.574 756.954 229.134 753.452 221.809 749.72" stroke="#1F2872" stroke-width="15" stroke-linejoin="round"/>
<path d="M244.119 760.219C236.574 756.954 229.134 753.452 221.809 749.72" stroke="#1F2872" stroke-width="15" stroke-linejoin="round"/>
<path d="M221.809 749.72C214.483 745.988 207.277 742.026 200.201 737.841" stroke="#1F2872" stroke-width="15" stroke-linejoin="round"/>
<path d="M221.809 749.72C214.483 745.988 207.277 742.026 200.201 737.841" stroke="#FFD849" stroke-width="15" stroke-linejoin="round"/>
<path d="M200.201 737.841C193.125 733.656 186.182 729.25 179.382 724.629" stroke="#1F2872" stroke-width="15" stroke-linejoin="round"/>
<path d="M200.201 737.841C193.125 733.656 186.182 729.25 179.382 724.629" stroke="#1F2872" stroke-width="15" stroke-linejoin="round"/>
<path d="M179.382 724.629C172.583 720.008 165.93 715.175 159.434 710.136" stroke="#33C9C0" stroke-width="15" stroke-linejoin="round"/>
<path d="M159.434 710.136C152.938 705.097 146.602 699.855 140.435 694.418" stroke="#1F2872" stroke-width="15" stroke-linejoin="round"/>
<path d="M159.434 710.136C152.938 705.097 146.602 699.855 140.435 694.418" stroke="#1F2872" stroke-width="15" stroke-linejoin="round"/>
<path d="M140.435 694.418C134.268 688.982 128.274 683.353 122.46 677.539" stroke="#33C9C0" stroke-width="15" stroke-linejoin="round"/>
<path d="M122.46 677.539C116.647 671.726 111.018 665.732 105.581 659.565" stroke="#1F2872" stroke-width="15" stroke-linejoin="round"/>
<path d="M122.46 677.539C116.647 671.726 111.018 665.732 105.581 659.565" stroke="#1F2872" stroke-width="15" stroke-linejoin="round"/>
<path d="M105.581 659.565C100.145 653.398 94.9029 647.062 89.864 640.566" stroke="#7A49FF" stroke-width="15" stroke-linejoin="round"/>
<path d="M89.864 640.566C84.8252 634.07 79.9917 627.417 75.3708 620.618" stroke="#1F2872" stroke-width="15" stroke-linejoin="round"/>
<path d="M89.864 640.566C84.8252 634.07 79.9917 627.417 75.3708 620.618" stroke="#1F2872" stroke-width="15" stroke-linejoin="round"/>
<path d="M75.3708 620.618C70.7498 613.818 66.3436 606.875 62.1586 599.799" stroke="#1F2872" stroke-width="15" stroke-linejoin="round"/>
<path d="M75.3708 620.618C70.7498 613.818 66.3436 606.875 62.1586 599.799" stroke="#33C9C0" stroke-width="15" stroke-linejoin="round"/>
<path d="M62.1587 599.799C57.9738 592.722 54.0123 585.516 50.2799 578.191" stroke="#1F2872" stroke-width="15" stroke-linejoin="round"/>
<path d="M62.1587 599.799C57.9738 592.722 54.0123 585.516 50.2799 578.191" stroke="#1F2872" stroke-width="15" stroke-linejoin="round"/>
<path d="M50.2799 578.191C46.5476 570.866 43.0463 563.426 39.7813 555.881" stroke="#1F2872" stroke-width="15" stroke-linejoin="round"/>
<path d="M50.2799 578.191C46.5476 570.866 43.0463 563.426 39.7813 555.881" stroke="#33C9C0" stroke-width="15" stroke-linejoin="round"/>
<path d="M39.7813 555.881C36.5163 548.335 33.4891 540.69 30.7043 532.955" stroke="#1F2872" stroke-width="15" stroke-linejoin="round"/>
<path d="M39.7813 555.881C36.5163 548.335 33.4891 540.69 30.7043 532.955" stroke="#1F2872" stroke-width="15" stroke-linejoin="round"/>
<path d="M30.7043 532.955C27.9194 525.219 25.3783 517.399 23.0847 509.504" stroke="#1F2872" stroke-width="15" stroke-linejoin="round"/>
<path d="M30.7043 532.955C27.9194 525.219 25.3783 517.399 23.0847 509.504" stroke="#FF8049" stroke-width="15" stroke-linejoin="round"/>
<path d="M23.0847 509.504C20.7911 501.609 18.746 493.644 16.9526 485.621" stroke="#1F2872" stroke-width="15" stroke-linejoin="round"/>
<path d="M23.0847 509.504C20.7911 501.609 18.746 493.644 16.9526 485.621" stroke="#1F2872" stroke-width="15" stroke-linejoin="round"/>
<path d="M16.9526 485.621C15.1592 477.598 13.6184 469.52 12.3323 461.4" stroke="#1F2872" stroke-width="15" stroke-linejoin="round"/>
<path d="M16.9526 485.621C15.1592 477.598 13.6184 469.52 12.3323 461.4" stroke="#33C9C0" stroke-width="15" stroke-linejoin="round"/>
<path d="M12.3323 461.4C11.0462 453.28 10.0156 445.122 9.2419 436.937" stroke="#1F2872" stroke-width="15" stroke-linejoin="round"/>
<path d="M12.3323 461.4C11.0462 453.28 10.0156 445.122 9.2419 436.937" stroke="#1F2872" stroke-width="15" stroke-linejoin="round"/>
<path d="M9.2419 436.937C8.46822 428.753 7.95188 420.546 7.69365 412.329" stroke="#1F2872" stroke-width="15" stroke-linejoin="round"/>
<path d="M9.2419 436.937C8.46822 428.753 7.95188 420.546 7.69365 412.329" stroke="#FF5247" stroke-width="15" stroke-linejoin="round"/>
<path d="M387.671 7.69341C379.454 7.95165 371.247 8.46799 363.062 9.24167" stroke="#1F2872" stroke-width="15" stroke-linejoin="round"/>
<path d="M363.062 9.24167C354.878 10.0154 346.719 11.046 338.599 12.3321" stroke="#1F2872" stroke-width="15" stroke-linejoin="round"/>
<path d="M363.062 9.24167C354.878 10.0154 346.719 11.046 338.599 12.3321" stroke="#33C9C0" stroke-width="15" stroke-linejoin="round"/>
<path d="M338.599 12.3321C330.479 13.6181 322.402 15.159 314.379 16.9524" stroke="#1F2872" stroke-width="15" stroke-linejoin="round"/>
<path d="M314.379 16.9524C306.356 18.7458 298.391 20.7908 290.496 23.0845" stroke="#1F2872" stroke-width="15" stroke-linejoin="round"/>
<path d="M314.379 16.9524C306.356 18.7458 298.391 20.7908 290.496 23.0845" stroke="#7A49FF" stroke-width="15" stroke-linejoin="round"/>
<path d="M290.496 23.0845C282.601 25.3781 274.78 27.9192 267.045 30.7041" stroke="#1F2872" stroke-width="15" stroke-linejoin="round"/>
<path d="M267.045 30.7041C259.31 33.4889 251.664 36.516 244.119 39.7811" stroke="#1F2872" stroke-width="15" stroke-linejoin="round"/>
<path d="M267.045 30.7041C259.31 33.4889 251.664 36.516 244.119 39.7811" stroke="#33C9C0" stroke-width="15" stroke-linejoin="round"/>
<path d="M244.119 39.7811C236.574 43.0461 229.134 46.5474 221.809 50.2797" stroke="#1F2872" stroke-width="15" stroke-linejoin="round"/>
<path d="M221.809 50.2797C214.484 54.0121 207.277 57.9736 200.201 62.1585" stroke="#1F2872" stroke-width="15" stroke-linejoin="round"/>
<path d="M221.809 50.2797C214.484 54.0121 207.277 57.9736 200.201 62.1585" stroke="#FFD849" stroke-width="15" stroke-linejoin="round"/>
<path d="M200.201 62.1585C193.125 66.3435 186.182 70.7497 179.382 75.3707" stroke="#1F2872" stroke-width="15" stroke-linejoin="round"/>
<path d="M179.382 75.3707C172.583 79.9917 165.93 84.8251 159.434 89.864" stroke="#1F2872" stroke-width="15" stroke-linejoin="round"/>
<path d="M179.382 75.3707C172.583 79.9917 165.93 84.8251 159.434 89.864" stroke="#7A49FF" stroke-width="15" stroke-linejoin="round"/>
<path d="M159.434 89.864C152.938 94.9028 146.602 100.144 140.435 105.581" stroke="#1F2872" stroke-width="15" stroke-linejoin="round"/>
<path d="M140.435 105.581C134.268 111.018 128.274 116.647 122.46 122.46" stroke="#1F2872" stroke-width="15" stroke-linejoin="round"/>
<path d="M140.435 105.581C134.268 111.018 128.274 116.647 122.46 122.46" stroke="#33C9C0" stroke-width="15" stroke-linejoin="round"/>
<path d="M122.46 122.46C116.647 128.274 111.018 134.268 105.581 140.435" stroke="#1F2872" stroke-width="15" stroke-linejoin="round"/>
<path d="M105.581 140.435C100.145 146.602 94.9029 152.938 89.864 159.434" stroke="#1F2872" stroke-width="15" stroke-linejoin="round"/>
<path d="M105.581 140.435C100.145 146.602 94.9029 152.938 89.864 159.434" stroke="#33C9C0" stroke-width="15" stroke-linejoin="round"/>
<path d="M89.864 159.434C84.8252 165.93 79.9918 172.583 75.3708 179.382" stroke="#1F2872" stroke-width="15" stroke-linejoin="round"/>
<path d="M75.3708 179.382C70.7498 186.182 66.3436 193.125 62.1587 200.201" stroke="#1F2872" stroke-width="15" stroke-linejoin="round"/>
<path d="M75.3708 179.382C70.7498 186.182 66.3436 193.125 62.1587 200.201" stroke="#7A49FF" stroke-width="15" stroke-linejoin="round"/>
<path d="M62.1587 200.201C57.9737 207.277 54.0122 214.483 50.2798 221.809" stroke="#1F2872" stroke-width="15" stroke-linejoin="round"/>
<path d="M62.1587 200.201C57.9737 207.277 54.0122 214.483 50.2798 221.809" stroke="#1F2872" stroke-width="15" stroke-linejoin="round"/>
<path d="M50.2799 221.808C46.5476 229.134 43.0463 236.574 39.7813 244.119" stroke="#1F2872" stroke-width="15" stroke-linejoin="round"/>
<path d="M50.2799 221.808C46.5476 229.134 43.0463 236.574 39.7813 244.119" stroke="#1F2872" stroke-width="15" stroke-linejoin="round"/>
<path d="M50.2799 221.808C46.5476 229.134 43.0463 236.574 39.7813 244.119" stroke="#FF8049" stroke-width="15" stroke-linejoin="round"/>
<path d="M39.7813 244.119C36.5163 251.664 33.4891 259.31 30.7043 267.045" stroke="#1F2872" stroke-width="15" stroke-linejoin="round"/>
<path d="M39.7813 244.119C36.5163 251.664 33.4891 259.31 30.7043 267.045" stroke="#22B6AD" stroke-width="15" stroke-linejoin="round"/>
<path d="M30.7043 267.045C27.9195 274.78 25.3783 282.601 23.0847 290.496" stroke="#1F2872" stroke-width="15" stroke-linejoin="round"/>
<path d="M30.7043 267.045C27.9195 274.78 25.3783 282.601 23.0847 290.496" stroke="#33C9C0" stroke-width="15" stroke-linejoin="round"/>
<path d="M23.0847 290.496C20.7911 298.39 18.746 306.355 16.9526 314.379" stroke="#1F2872" stroke-width="15" stroke-linejoin="round"/>
<path d="M23.0847 290.496C20.7911 298.39 18.746 306.355 16.9526 314.379" stroke="#1F2872" stroke-width="15" stroke-linejoin="round"/>
<path d="M16.9526 314.379C15.1593 322.402 13.6184 330.479 12.3323 338.599" stroke="#FF8049" stroke-width="15" stroke-linejoin="round"/>
<path d="M12.3323 338.599C11.0462 346.719 10.0156 354.878 9.24191 363.062" stroke="#1F2872" stroke-width="15" stroke-linejoin="round"/>
<path d="M12.3323 338.599C11.0462 346.719 10.0156 354.878 9.24191 363.062" stroke="#1F2872" stroke-width="15" stroke-linejoin="round"/>
<path d="M9.24191 363.062C8.46823 371.247 7.95189 379.454 7.69365 387.671" stroke="#1F2872" stroke-width="15" stroke-linejoin="round"/>
<path d="M9.24191 363.062C8.46823 371.247 7.95189 379.454 7.69365 387.671" stroke="#33C9C0" stroke-width="15" stroke-linejoin="round"/>
<path d="M7.69365 387.671C7.43542 395.888 7.43542 404.111 7.69366 412.329" stroke="#1F2872" stroke-width="15" stroke-linejoin="round"/>
<path d="M7.69365 387.671C7.43542 395.888 7.43542 404.111 7.69366 412.329" stroke="#1F2872" stroke-width="15" stroke-linejoin="round"/>
</svg>
 