
<svg width="800" height="800" viewBox="0 0 800 800" fill="none" xmlns="http://www.w3.org/2000/svg">
<path d="M400 2.5C408.326 2.5 416.65 2.76159 424.959 3.28438" stroke="#FFD849" stroke-width="5" stroke-linejoin="round"/>
<path d="M424.959 3.28438C433.269 3.80716 441.56 4.5909 449.82 5.63441" stroke="#1F2872" stroke-width="5" stroke-linejoin="round"/>
<path d="M449.82 5.63441C458.08 6.67792 466.306 7.9807 474.484 9.54082" stroke="#33C9C0" stroke-width="5" stroke-linejoin="round"/>
<path d="M474.484 9.54082C482.663 11.1009 490.79 12.9176 498.854 14.9882" stroke="#1F2872" stroke-width="5" stroke-linejoin="round"/>
<path d="M498.854 14.9882C506.919 17.0588 514.916 19.3822 522.834 21.9551" stroke="#33C9C0" stroke-width="5" stroke-linejoin="round"/>
<path d="M522.834 21.9551C530.753 24.5279 538.588 27.3489 546.33 30.4139" stroke="#1F2872" stroke-width="5" stroke-linejoin="round"/>
<path d="M546.33 30.4139C554.071 33.4788 561.714 36.7863 569.247 40.3313" stroke="#33C9C0" stroke-width="5" stroke-linejoin="round"/>
<path d="M569.247 40.3313C576.781 43.8763 584.201 47.6571 591.497 51.6681" stroke="#1F2872" stroke-width="5" stroke-linejoin="round"/>
<path d="M591.497 51.6681C598.793 55.6792 605.961 59.9185 612.991 64.3797" stroke="#FF8049" stroke-width="5" stroke-linejoin="round"/>
<path d="M612.991 64.3797C620.021 68.8409 626.909 73.522 633.645 78.4158" stroke="#1F2872" stroke-width="5" stroke-linejoin="round"/>
<path d="M612.991 64.3797C620.021 68.8409 626.909 73.522 633.645 78.4158" stroke="#1F2872" stroke-width="5" stroke-linejoin="round"/>
<path d="M633.645 78.4158C640.381 83.3097 646.961 88.4139 653.376 93.7211" stroke="#1F2872" stroke-width="5" stroke-linejoin="round"/>
<path d="M633.645 78.4158C640.381 83.3097 646.961 88.4139 653.376 93.7211" stroke="#33C9C0" stroke-width="5" stroke-linejoin="round"/>
<path d="M653.376 93.7211C659.791 99.0282 666.038 104.536 672.108 110.235" stroke="#1F2872" stroke-width="5" stroke-linejoin="round"/>
<path d="M653.376 93.7211C659.791 99.0282 666.038 104.536 672.108 110.235" stroke="#1F2872" stroke-width="5" stroke-linejoin="round"/>
<path d="M672.108 110.235C678.177 115.935 684.066 121.823 689.765 127.893" stroke="#1F2872" stroke-width="5" stroke-linejoin="round"/>
<path d="M672.108 110.235C678.177 115.935 684.066 121.823 689.765 127.893" stroke="#33C9C0" stroke-width="5" stroke-linejoin="round"/>
<path d="M689.765 127.893C695.465 133.962 700.972 140.209 706.279 146.624" stroke="#1F2872" stroke-width="5" stroke-linejoin="round"/>
<path d="M689.765 127.893C695.465 133.962 700.972 140.209 706.279 146.624" stroke="#1F2872" stroke-width="5" stroke-linejoin="round"/>
<path d="M706.279 146.624C711.586 153.039 716.691 159.62 721.584 166.355" stroke="#1F2872" stroke-width="5" stroke-linejoin="round"/>
<path d="M706.279 146.624C711.586 153.039 716.691 159.62 721.584 166.355" stroke="#FF8049" stroke-width="5" stroke-linejoin="round"/>
<path d="M721.584 166.355C726.478 173.091 731.159 179.979 735.62 187.009" stroke="#1F2872" stroke-width="5" stroke-linejoin="round"/>
<path d="M721.584 166.355C726.478 173.091 731.159 179.979 735.62 187.009" stroke="#1F2872" stroke-width="5" stroke-linejoin="round"/>
<path d="M735.62 187.009C740.082 194.039 744.321 201.207 748.332 208.503" stroke="#1F2872" stroke-width="5" stroke-linejoin="round"/>
<path d="M735.62 187.009C740.082 194.039 744.321 201.207 748.332 208.503" stroke="#33C9C0" stroke-width="5" stroke-linejoin="round"/>
<path d="M748.332 208.503C752.343 215.799 756.124 223.219 759.669 230.753" stroke="#1F2872" stroke-width="5" stroke-linejoin="round"/>
<path d="M748.332 208.503C752.343 215.799 756.124 223.219 759.669 230.753" stroke="#1F2872" stroke-width="5" stroke-linejoin="round"/>
<path d="M759.669 230.753C763.214 238.286 766.521 245.929 769.586 253.67" stroke="#1F2872" stroke-width="5" stroke-linejoin="round"/>
<path d="M759.669 230.753C763.214 238.286 766.521 245.929 769.586 253.67" stroke="#33C9C0" stroke-width="5" stroke-linejoin="round"/>
<path d="M769.586 253.67C772.651 261.412 775.472 269.247 778.045 277.166" stroke="#1F2872" stroke-width="5" stroke-linejoin="round"/>
<path d="M778.045 277.166C780.618 285.084 782.941 293.081 785.012 301.146" stroke="#1F2872" stroke-width="5" stroke-linejoin="round"/>
<path d="M778.045 277.166C780.618 285.084 782.941 293.081 785.012 301.146" stroke="#FF8049" stroke-width="5" stroke-linejoin="round"/>
<path d="M785.012 301.146C787.082 309.21 788.899 317.338 790.459 325.516" stroke="#1F2872" stroke-width="5" stroke-linejoin="round"/>
<path d="M785.012 301.146C787.082 309.21 788.899 317.338 790.459 325.516" stroke="#1F2872" stroke-width="5" stroke-linejoin="round"/>
<path d="M790.459 325.516C792.019 333.694 793.322 341.92 794.366 350.18" stroke="#1F2872" stroke-width="5" stroke-linejoin="round"/>
<path d="M790.459 325.516C792.019 333.694 793.322 341.92 794.366 350.18" stroke="#33C9C0" stroke-width="5" stroke-linejoin="round"/>
<path d="M794.366 350.18C795.409 358.44 796.193 366.731 796.716 375.041" stroke="#1F2872" stroke-width="5" stroke-linejoin="round"/>
<path d="M794.366 350.18C795.409 358.44 796.193 366.731 796.716 375.041" stroke="#1F2872" stroke-width="5" stroke-linejoin="round"/>
<path d="M796.716 375.041C797.238 383.35 797.5 391.674 797.5 400" stroke="#1F2872" stroke-width="5" stroke-linejoin="round"/>
<path d="M796.716 375.041C797.238 383.35 797.5 391.674 797.5 400" stroke="#7A49FF" stroke-width="5" stroke-linejoin="round"/>
<path d="M400 797.5C408.326 797.5 416.65 797.238 424.959 796.716" stroke="#1F2872" stroke-width="5" stroke-linejoin="round"/>
<path d="M400 797.5C408.326 797.5 416.65 797.238 424.959 796.716" stroke="#1F2872" stroke-width="5" stroke-linejoin="round"/>
<path d="M424.959 796.716C433.269 796.193 441.56 795.409 449.82 794.366" stroke="#33C9C0" stroke-width="5" stroke-linejoin="round"/>
<path d="M449.82 794.366C458.08 793.322 466.306 792.019 474.484 790.459" stroke="#1F2872" stroke-width="5" stroke-linejoin="round"/>
<path d="M449.82 794.366C458.08 793.322 466.306 792.019 474.484 790.459" stroke="#1F2872" stroke-width="5" stroke-linejoin="round"/>
<path d="M474.484 790.459C482.663 788.899 490.79 787.082 498.854 785.012" stroke="#1F2872" stroke-width="5" stroke-linejoin="round"/>
<path d="M474.484 790.459C482.663 788.899 490.79 787.082 498.854 785.012" stroke="#7A49FF" stroke-width="5" stroke-linejoin="round"/>
<path d="M498.854 785.012C506.919 782.941 514.916 780.618 522.834 778.045" stroke="#1F2872" stroke-width="5" stroke-linejoin="round"/>
<path d="M498.854 785.012C506.919 782.941 514.916 780.618 522.834 778.045" stroke="#1F2872" stroke-width="5" stroke-linejoin="round"/>
<path d="M522.834 778.045C530.753 775.472 538.588 772.651 546.33 769.586" stroke="#33C9C0" stroke-width="5" stroke-linejoin="round"/>
<path d="M546.33 769.586C554.071 766.521 561.714 763.214 569.247 759.669" stroke="#1F2872" stroke-width="5" stroke-linejoin="round"/>
<path d="M546.33 769.586C554.071 766.521 561.714 763.214 569.247 759.669" stroke="#1F2872" stroke-width="5" stroke-linejoin="round"/>
<path d="M569.247 759.669C576.781 756.124 584.201 752.343 591.497 748.332" stroke="#1F2872" stroke-width="5" stroke-linejoin="round"/>
<path d="M569.247 759.669C576.781 756.124 584.201 752.343 591.497 748.332" stroke="#33C9C0" stroke-width="5" stroke-linejoin="round"/>
<path d="M591.497 748.332C598.793 744.321 605.961 740.082 612.991 735.62" stroke="#1F2872" stroke-width="5" stroke-linejoin="round"/>
<path d="M591.497 748.332C598.793 744.321 605.961 740.082 612.991 735.62" stroke="#1F2872" stroke-width="5" stroke-linejoin="round"/>
<path d="M612.991 735.62C620.021 731.159 626.909 726.478 633.645 721.584" stroke="#FF8049" stroke-width="5" stroke-linejoin="round"/>
<path d="M633.645 721.584C640.381 716.69 646.961 711.586 653.376 706.279" stroke="#1F2872" stroke-width="5" stroke-linejoin="round"/>
<path d="M633.645 721.584C640.381 716.69 646.961 711.586 653.376 706.279" stroke="#FFD849" stroke-width="5" stroke-linejoin="round"/>
<path d="M653.376 706.279C659.791 700.972 666.038 695.464 672.108 689.765" stroke="#33C9C0" stroke-width="5" stroke-linejoin="round"/>
<path d="M672.108 689.765C678.177 684.065 684.066 678.177 689.765 672.107" stroke="#1F2872" stroke-width="5" stroke-linejoin="round"/>
<path d="M689.765 672.107C695.465 666.038 700.972 659.791 706.279 653.376" stroke="#33C9C0" stroke-width="5" stroke-linejoin="round"/>
<path d="M706.279 653.376C711.586 646.961 716.691 640.38 721.584 633.645" stroke="#1F2872" stroke-width="5" stroke-linejoin="round"/>
<path d="M721.584 633.645C726.478 626.909 731.159 620.021 735.62 612.991" stroke="#7A49FF" stroke-width="5" stroke-linejoin="round"/>
<path d="M735.62 612.991C740.082 605.961 744.321 598.793 748.332 591.497" stroke="#1F2872" stroke-width="5" stroke-linejoin="round"/>
<path d="M748.332 591.497C752.343 584.201 756.124 576.781 759.669 569.247" stroke="#FF8049" stroke-width="5" stroke-linejoin="round"/>
<path d="M759.669 569.247C763.214 561.714 766.521 554.071 769.586 546.33" stroke="#1F2872" stroke-width="5" stroke-linejoin="round"/>
<path d="M769.586 546.33C772.651 538.588 775.472 530.753 778.045 522.834" stroke="#33C9C0" stroke-width="5" stroke-linejoin="round"/>
<path d="M778.045 522.834C780.618 514.916 782.941 506.919 785.012 498.854" stroke="#1F2872" stroke-width="5" stroke-linejoin="round"/>
<path d="M785.012 498.854C787.082 490.79 788.899 482.662 790.459 474.484" stroke="#FFD849" stroke-width="5" stroke-linejoin="round"/>
<path d="M790.459 474.484C792.019 466.306 793.322 458.08 794.366 449.82" stroke="#1F2872" stroke-width="5" stroke-linejoin="round"/>
<path d="M794.366 449.82C795.409 441.56 796.193 433.269 796.716 424.959" stroke="#1F2872" stroke-width="5" stroke-linejoin="round"/>
<path d="M794.366 449.82C795.409 441.56 796.193 433.269 796.716 424.959" stroke="#33C9C0" stroke-width="5" stroke-linejoin="round"/>
<path d="M796.716 424.959C797.238 416.65 797.5 408.326 797.5 400" stroke="#1F2872" stroke-width="5" stroke-linejoin="round"/>
<path d="M796.716 424.959C797.238 416.65 797.5 408.326 797.5 400" stroke="#1F2872" stroke-width="5" stroke-linejoin="round"/>
<path d="M400 797.5C391.674 797.5 383.35 797.238 375.041 796.716" stroke="#FF8049" stroke-width="5" stroke-linejoin="round"/>
<path d="M375.041 796.716C366.731 796.193 358.44 795.409 350.18 794.366" stroke="#1F2872" stroke-width="5" stroke-linejoin="round"/>
<path d="M375.041 796.716C366.731 796.193 358.44 795.409 350.18 794.366" stroke="#1F2872" stroke-width="5" stroke-linejoin="round"/>
<path d="M350.18 794.366C341.92 793.322 333.694 792.019 325.516 790.459" stroke="#1F2872" stroke-width="5" stroke-linejoin="round"/>
<path d="M350.18 794.366C341.92 793.322 333.694 792.019 325.516 790.459" stroke="#33C9C0" stroke-width="5" stroke-linejoin="round"/>
<path d="M325.516 790.459C317.337 788.899 309.21 787.082 301.146 785.012" stroke="#1F2872" stroke-width="5" stroke-linejoin="round"/>
<path d="M325.516 790.459C317.337 788.899 309.21 787.082 301.146 785.012" stroke="#1F2872" stroke-width="5" stroke-linejoin="round"/>
<path d="M301.146 785.012C293.081 782.941 285.084 780.618 277.166 778.045" stroke="#1F2872" stroke-width="5" stroke-linejoin="round"/>
<path d="M301.146 785.012C293.081 782.941 285.084 780.618 277.166 778.045" stroke="#FF8049" stroke-width="5" stroke-linejoin="round"/>
<path d="M277.166 778.045C269.247 775.472 261.412 772.651 253.67 769.586" stroke="#1F2872" stroke-width="5" stroke-linejoin="round"/>
<path d="M277.166 778.045C269.247 775.472 261.412 772.651 253.67 769.586" stroke="#1F2872" stroke-width="5" stroke-linejoin="round"/>
<path d="M253.67 769.586C245.929 766.521 238.286 763.214 230.753 759.669" stroke="#1F2872" stroke-width="5" stroke-linejoin="round"/>
<path d="M253.67 769.586C245.929 766.521 238.286 763.214 230.753 759.669" stroke="#33C9C0" stroke-width="5" stroke-linejoin="round"/>
<path d="M230.753 759.669C223.219 756.124 215.799 752.343 208.503 748.332" stroke="#1F2872" stroke-width="5" stroke-linejoin="round"/>
<path d="M230.753 759.669C223.219 756.124 215.799 752.343 208.503 748.332" stroke="#1F2872" stroke-width="5" stroke-linejoin="round"/>
<path d="M208.503 748.332C201.207 744.321 194.039 740.082 187.009 735.62" stroke="#1F2872" stroke-width="5" stroke-linejoin="round"/>
<path d="M208.503 748.332C201.207 744.321 194.039 740.082 187.009 735.62" stroke="#FFD849" stroke-width="5" stroke-linejoin="round"/>
<path d="M187.009 735.62C179.979 731.159 173.091 726.478 166.355 721.584" stroke="#1F2872" stroke-width="5" stroke-linejoin="round"/>
<path d="M187.009 735.62C179.979 731.159 173.091 726.478 166.355 721.584" stroke="#1F2872" stroke-width="5" stroke-linejoin="round"/>
<path d="M166.355 721.584C159.619 716.69 153.039 711.586 146.624 706.279" stroke="#33C9C0" stroke-width="5" stroke-linejoin="round"/>
<path d="M146.624 706.279C140.209 700.972 133.962 695.464 127.892 689.765" stroke="#1F2872" stroke-width="5" stroke-linejoin="round"/>
<path d="M146.624 706.279C140.209 700.972 133.962 695.464 127.892 689.765" stroke="#1F2872" stroke-width="5" stroke-linejoin="round"/>
<path d="M127.892 689.765C121.823 684.065 115.934 678.177 110.235 672.107" stroke="#33C9C0" stroke-width="5" stroke-linejoin="round"/>
<path d="M110.235 672.107C104.535 666.038 99.028 659.791 93.7209 653.376" stroke="#1F2872" stroke-width="5" stroke-linejoin="round"/>
<path d="M110.235 672.107C104.535 666.038 99.028 659.791 93.7209 653.376" stroke="#1F2872" stroke-width="5" stroke-linejoin="round"/>
<path d="M93.7209 653.376C88.4138 646.961 83.3095 640.38 78.4157 633.645" stroke="#7A49FF" stroke-width="5" stroke-linejoin="round"/>
<path d="M78.4157 633.645C73.5218 626.909 68.8408 620.021 64.3796 612.991" stroke="#1F2872" stroke-width="5" stroke-linejoin="round"/>
<path d="M78.4157 633.645C73.5218 626.909 68.8408 620.021 64.3796 612.991" stroke="#1F2872" stroke-width="5" stroke-linejoin="round"/>
<path d="M64.3796 612.991C59.9183 605.961 55.679 598.793 51.668 591.497" stroke="#1F2872" stroke-width="5" stroke-linejoin="round"/>
<path d="M64.3796 612.991C59.9183 605.961 55.679 598.793 51.668 591.497" stroke="#33C9C0" stroke-width="5" stroke-linejoin="round"/>
<path d="M51.6681 591.497C47.6571 584.201 43.8762 576.781 40.3312 569.247" stroke="#1F2872" stroke-width="5" stroke-linejoin="round"/>
<path d="M51.6681 591.497C47.6571 584.201 43.8762 576.781 40.3312 569.247" stroke="#1F2872" stroke-width="5" stroke-linejoin="round"/>
<path d="M40.3312 569.247C36.7862 561.714 33.4788 554.071 30.4138 546.33" stroke="#1F2872" stroke-width="5" stroke-linejoin="round"/>
<path d="M40.3312 569.247C36.7862 561.714 33.4788 554.071 30.4138 546.33" stroke="#33C9C0" stroke-width="5" stroke-linejoin="round"/>
<path d="M30.4138 546.33C27.3489 538.588 24.5279 530.753 21.955 522.834" stroke="#1F2872" stroke-width="5" stroke-linejoin="round"/>
<path d="M30.4138 546.33C27.3489 538.588 24.5279 530.753 21.955 522.834" stroke="#1F2872" stroke-width="5" stroke-linejoin="round"/>
<path d="M21.955 522.834C19.3822 514.916 17.0588 506.919 14.9882 498.854" stroke="#1F2872" stroke-width="5" stroke-linejoin="round"/>
<path d="M21.955 522.834C19.3822 514.916 17.0588 506.919 14.9882 498.854" stroke="#FF8049" stroke-width="5" stroke-linejoin="round"/>
<path d="M14.9882 498.854C12.9176 490.79 11.1009 482.662 9.54081 474.484" stroke="#1F2872" stroke-width="5" stroke-linejoin="round"/>
<path d="M14.9882 498.854C12.9176 490.79 11.1009 482.662 9.54081 474.484" stroke="#1F2872" stroke-width="5" stroke-linejoin="round"/>
<path d="M9.54081 474.484C7.98069 466.306 6.67791 458.08 5.6344 449.82" stroke="#1F2872" stroke-width="5" stroke-linejoin="round"/>
<path d="M9.54081 474.484C7.98069 466.306 6.67791 458.08 5.6344 449.82" stroke="#33C9C0" stroke-width="5" stroke-linejoin="round"/>
<path d="M5.6344 449.82C4.59089 441.56 3.80716 433.269 3.28437 424.959" stroke="#1F2872" stroke-width="5" stroke-linejoin="round"/>
<path d="M5.6344 449.82C4.59089 441.56 3.80716 433.269 3.28437 424.959" stroke="#1F2872" stroke-width="5" stroke-linejoin="round"/>
<path d="M3.28437 424.959C2.76158 416.65 2.5 408.326 2.5 400" stroke="#1F2872" stroke-width="5" stroke-linejoin="round"/>
<path d="M3.28437 424.959C2.76158 416.65 2.5 408.326 2.5 400" stroke="#FF5247" stroke-width="5" stroke-linejoin="round"/>
<path d="M400 2.5C391.674 2.5 383.35 2.76159 375.041 3.28438" stroke="#1F2872" stroke-width="5" stroke-linejoin="round"/>
<path d="M375.041 3.28438C366.731 3.80716 358.44 4.5909 350.18 5.63441" stroke="#1F2872" stroke-width="5" stroke-linejoin="round"/>
<path d="M375.041 3.28438C366.731 3.80716 358.44 4.5909 350.18 5.63441" stroke="#33C9C0" stroke-width="5" stroke-linejoin="round"/>
<path d="M350.18 5.63441C341.92 6.67792 333.694 7.9807 325.516 9.54082" stroke="#1F2872" stroke-width="5" stroke-linejoin="round"/>
<path d="M325.516 9.54082C317.337 11.1009 309.21 12.9176 301.146 14.9882" stroke="#1F2872" stroke-width="5" stroke-linejoin="round"/>
<path d="M325.516 9.54082C317.337 11.1009 309.21 12.9176 301.146 14.9882" stroke="#7A49FF" stroke-width="5" stroke-linejoin="round"/>
<path d="M301.146 14.9882C293.081 17.0588 285.084 19.3822 277.166 21.9551" stroke="#1F2872" stroke-width="5" stroke-linejoin="round"/>
<path d="M277.166 21.9551C269.247 24.5279 261.412 27.3489 253.67 30.4139" stroke="#1F2872" stroke-width="5" stroke-linejoin="round"/>
<path d="M277.166 21.9551C269.247 24.5279 261.412 27.3489 253.67 30.4139" stroke="#33C9C0" stroke-width="5" stroke-linejoin="round"/>
<path d="M253.67 30.4139C245.929 33.4788 238.286 36.7863 230.753 40.3313" stroke="#1F2872" stroke-width="5" stroke-linejoin="round"/>
<path d="M230.753 40.3313C223.219 43.8763 215.799 47.6571 208.503 51.6681" stroke="#1F2872" stroke-width="5" stroke-linejoin="round"/>
<path d="M230.753 40.3313C223.219 43.8763 215.799 47.6571 208.503 51.6681" stroke="#FFD849" stroke-width="5" stroke-linejoin="round"/>
<path d="M208.503 51.6681C201.207 55.6792 194.039 59.9185 187.009 64.3797" stroke="#1F2872" stroke-width="5" stroke-linejoin="round"/>
<path d="M187.009 64.3797C179.979 68.8409 173.091 73.522 166.355 78.4158" stroke="#1F2872" stroke-width="5" stroke-linejoin="round"/>
<path d="M187.009 64.3797C179.979 68.8409 173.091 73.522 166.355 78.4158" stroke="#7A49FF" stroke-width="5" stroke-linejoin="round"/>
<path d="M166.355 78.4158C159.619 83.3097 153.039 88.4139 146.624 93.7211" stroke="#1F2872" stroke-width="5" stroke-linejoin="round"/>
<path d="M146.624 93.7211C140.209 99.0282 133.962 104.536 127.892 110.235" stroke="#1F2872" stroke-width="5" stroke-linejoin="round"/>
<path d="M146.624 93.7211C140.209 99.0282 133.962 104.536 127.892 110.235" stroke="#33C9C0" stroke-width="5" stroke-linejoin="round"/>
<path d="M127.892 110.235C121.823 115.935 115.934 121.823 110.235 127.893" stroke="#1F2872" stroke-width="5" stroke-linejoin="round"/>
<path d="M110.235 127.893C104.535 133.962 99.028 140.209 93.7209 146.624" stroke="#1F2872" stroke-width="5" stroke-linejoin="round"/>
<path d="M110.235 127.893C104.535 133.962 99.028 140.209 93.7209 146.624" stroke="#33C9C0" stroke-width="5" stroke-linejoin="round"/>
<path d="M93.7209 146.624C88.4138 153.039 83.3095 159.62 78.4157 166.355" stroke="#1F2872" stroke-width="5" stroke-linejoin="round"/>
<path d="M78.4157 166.355C73.5218 173.091 68.8408 179.979 64.3796 187.009" stroke="#1F2872" stroke-width="5" stroke-linejoin="round"/>
<path d="M78.4157 166.355C73.5218 173.091 68.8408 179.979 64.3796 187.009" stroke="#7A49FF" stroke-width="5" stroke-linejoin="round"/>
<path d="M64.3796 187.009C59.9183 194.039 55.679 201.207 51.668 208.503" stroke="#1F2872" stroke-width="5" stroke-linejoin="round"/>
<path d="M64.3796 187.009C59.9183 194.039 55.679 201.207 51.668 208.503" stroke="#1F2872" stroke-width="5" stroke-linejoin="round"/>
<path d="M51.6681 208.503C47.6571 215.799 43.8762 223.219 40.3312 230.753" stroke="#1F2872" stroke-width="5" stroke-linejoin="round"/>
<path d="M51.6681 208.503C47.6571 215.799 43.8762 223.219 40.3312 230.753" stroke="#1F2872" stroke-width="5" stroke-linejoin="round"/>
<path d="M51.6681 208.503C47.6571 215.799 43.8762 223.219 40.3312 230.753" stroke="#33C9C0" stroke-width="5" stroke-linejoin="round"/>
<path d="M40.3312 230.753C36.7862 238.286 33.4788 245.929 30.4138 253.67" stroke="#1F2872" stroke-width="5" stroke-linejoin="round"/>
<path d="M40.3312 230.753C36.7862 238.286 33.4788 245.929 30.4138 253.67" stroke="#FF8049" stroke-width="5" stroke-linejoin="round"/>
<path d="M30.4138 253.67C27.3489 261.412 24.5279 269.247 21.955 277.166" stroke="#1F2872" stroke-width="5" stroke-linejoin="round"/>
<path d="M30.4138 253.67C27.3489 261.412 24.5279 269.247 21.955 277.166" stroke="#33C9C0" stroke-width="5" stroke-linejoin="round"/>
<path d="M21.955 277.166C19.3822 285.084 17.0588 293.081 14.9882 301.146" stroke="#1F2872" stroke-width="5" stroke-linejoin="round"/>
<path d="M21.955 277.166C19.3822 285.084 17.0588 293.081 14.9882 301.146" stroke="#1F2872" stroke-width="5" stroke-linejoin="round"/>
<path d="M14.9882 301.146C12.9176 309.21 11.1009 317.338 9.54081 325.516" stroke="#FF8049" stroke-width="5" stroke-linejoin="round"/>
<path d="M9.54081 325.516C7.98069 333.694 6.67791 341.92 5.6344 350.18" stroke="#1F2872" stroke-width="5" stroke-linejoin="round"/>
<path d="M9.54081 325.516C7.98069 333.694 6.67791 341.92 5.6344 350.18" stroke="#1F2872" stroke-width="5" stroke-linejoin="round"/>
<path d="M5.6344 350.18C4.59089 358.44 3.80716 366.731 3.28437 375.041" stroke="#1F2872" stroke-width="5" stroke-linejoin="round"/>
<path d="M5.6344 350.18C4.59089 358.44 3.80716 366.731 3.28437 375.041" stroke="#33C9C0" stroke-width="5" stroke-linejoin="round"/>
<path d="M3.28437 375.041C2.76158 383.35 2.5 391.674 2.5 400" stroke="#1F2872" stroke-width="5" stroke-linejoin="round"/>
<path d="M3.28437 375.041C2.76158 383.35 2.5 391.674 2.5 400" stroke="#1F2872" stroke-width="5" stroke-linejoin="round"/>
</svg>
