<svg width="800" height="800" viewBox="0 0 800 800" fill="none" xmlns="http://www.w3.org/2000/svg">
<path d="M400 5C408.274 5 416.545 5.25994 424.802 5.77944" stroke="#FFD849" stroke-width="6" stroke-linejoin="round"/>
<path d="M424.802 5.77944C433.059 6.29894 441.298 7.07775 449.507 8.1147" stroke="#1F2872" stroke-width="6" stroke-linejoin="round"/>
<path d="M449.507 8.1147C457.715 9.15165 465.889 10.4462 474.016 11.9965" stroke="#33C9C0" stroke-width="6" stroke-linejoin="round"/>
<path d="M474.016 11.9965C482.143 13.5469 490.219 15.3521 498.233 17.4097" stroke="#1F2872" stroke-width="6" stroke-linejoin="round"/>
<path d="M498.233 17.4097C506.246 19.4672 514.193 21.776 522.062 24.3327" stroke="#33C9C0" stroke-width="6" stroke-linejoin="round"/>
<path d="M522.062 24.3327C529.93 26.8894 537.717 29.6926 545.409 32.7383" stroke="#1F2872" stroke-width="6" stroke-linejoin="round"/>
<path d="M545.409 32.7383C553.102 35.784 560.697 39.0706 568.183 42.5933" stroke="#33C9C0" stroke-width="6" stroke-linejoin="round"/>
<path d="M568.183 42.5933C575.669 46.1161 583.043 49.8731 590.293 53.8589" stroke="#1F2872" stroke-width="6" stroke-linejoin="round"/>
<path d="M590.293 53.8589C597.543 57.8447 604.666 62.0573 611.652 66.4905" stroke="#FF8049" stroke-width="6" stroke-linejoin="round"/>
<path d="M611.652 66.4905C618.637 70.9237 625.482 75.5753 632.175 80.4383" stroke="#1F2872" stroke-width="6" stroke-linejoin="round"/>
<path d="M611.652 66.4905C618.637 70.9237 625.482 75.5753 632.175 80.4383" stroke="#1F2872" stroke-width="6" stroke-linejoin="round"/>
<path d="M632.175 80.4383C638.869 85.3014 645.408 90.3736 651.783 95.6473" stroke="#1F2872" stroke-width="6" stroke-linejoin="round"/>
<path d="M632.175 80.4383C638.869 85.3014 645.408 90.3736 651.783 95.6473" stroke="#33C9C0" stroke-width="6" stroke-linejoin="round"/>
<path d="M651.783 95.6473C658.157 100.921 664.365 106.394 670.396 112.057" stroke="#1F2872" stroke-width="6" stroke-linejoin="round"/>
<path d="M651.783 95.6473C658.157 100.921 664.365 106.394 670.396 112.057" stroke="#1F2872" stroke-width="6" stroke-linejoin="round"/>
<path d="M670.396 112.057C676.427 117.721 682.279 123.573 687.943 129.604" stroke="#1F2872" stroke-width="6" stroke-linejoin="round"/>
<path d="M670.396 112.057C676.427 117.721 682.279 123.573 687.943 129.604" stroke="#33C9C0" stroke-width="6" stroke-linejoin="round"/>
<path d="M687.943 129.604C693.606 135.635 699.079 141.843 704.353 148.218" stroke="#1F2872" stroke-width="6" stroke-linejoin="round"/>
<path d="M687.943 129.604C693.606 135.635 699.079 141.843 704.353 148.218" stroke="#1F2872" stroke-width="6" stroke-linejoin="round"/>
<path d="M704.353 148.218C709.627 154.593 714.699 161.132 719.562 167.825" stroke="#1F2872" stroke-width="6" stroke-linejoin="round"/>
<path d="M704.353 148.218C709.627 154.593 714.699 161.132 719.562 167.825" stroke="#FF8049" stroke-width="6" stroke-linejoin="round"/>
<path d="M719.562 167.825C724.425 174.518 729.076 181.363 733.51 188.349" stroke="#1F2872" stroke-width="6" stroke-linejoin="round"/>
<path d="M719.562 167.825C724.425 174.518 729.076 181.363 733.51 188.349" stroke="#1F2872" stroke-width="6" stroke-linejoin="round"/>
<path d="M733.51 188.349C737.943 195.334 742.155 202.457 746.141 209.707" stroke="#1F2872" stroke-width="6" stroke-linejoin="round"/>
<path d="M733.51 188.349C737.943 195.334 742.155 202.457 746.141 209.707" stroke="#33C9C0" stroke-width="6" stroke-linejoin="round"/>
<path d="M746.141 209.707C750.127 216.957 753.884 224.331 757.407 231.817" stroke="#1F2872" stroke-width="6" stroke-linejoin="round"/>
<path d="M746.141 209.707C750.127 216.957 753.884 224.331 757.407 231.817" stroke="#1F2872" stroke-width="6" stroke-linejoin="round"/>
<path d="M757.407 231.817C760.929 239.303 764.216 246.898 767.262 254.591" stroke="#1F2872" stroke-width="6" stroke-linejoin="round"/>
<path d="M757.407 231.817C760.929 239.303 764.216 246.898 767.262 254.591" stroke="#33C9C0" stroke-width="6" stroke-linejoin="round"/>
<path d="M767.262 254.591C770.307 262.283 773.111 270.07 775.667 277.938" stroke="#1F2872" stroke-width="6" stroke-linejoin="round"/>
<path d="M775.667 277.938C778.224 285.807 780.533 293.754 782.59 301.768" stroke="#1F2872" stroke-width="6" stroke-linejoin="round"/>
<path d="M775.667 277.938C778.224 285.807 780.533 293.754 782.59 301.768" stroke="#FF8049" stroke-width="6" stroke-linejoin="round"/>
<path d="M782.59 301.768C784.648 309.781 786.453 317.857 788.003 325.984" stroke="#1F2872" stroke-width="6" stroke-linejoin="round"/>
<path d="M782.59 301.768C784.648 309.781 786.453 317.857 788.003 325.984" stroke="#1F2872" stroke-width="6" stroke-linejoin="round"/>
<path d="M788.003 325.984C789.554 334.111 790.848 342.285 791.885 350.493" stroke="#1F2872" stroke-width="6" stroke-linejoin="round"/>
<path d="M788.003 325.984C789.554 334.111 790.848 342.285 791.885 350.493" stroke="#33C9C0" stroke-width="6" stroke-linejoin="round"/>
<path d="M791.885 350.493C792.922 358.702 793.701 366.941 794.221 375.198" stroke="#1F2872" stroke-width="6" stroke-linejoin="round"/>
<path d="M791.885 350.493C792.922 358.702 793.701 366.941 794.221 375.198" stroke="#1F2872" stroke-width="6" stroke-linejoin="round"/>
<path d="M794.221 375.198C794.74 383.455 795 391.727 795 400" stroke="#1F2872" stroke-width="6" stroke-linejoin="round"/>
<path d="M794.221 375.198C794.74 383.455 795 391.727 795 400" stroke="#7A49FF" stroke-width="6" stroke-linejoin="round"/>
<path d="M400 795C408.274 795 416.545 794.74 424.802 794.221" stroke="#1F2872" stroke-width="6" stroke-linejoin="round"/>
<path d="M400 795C408.274 795 416.545 794.74 424.802 794.221" stroke="#1F2872" stroke-width="6" stroke-linejoin="round"/>
<path d="M424.802 794.221C433.059 793.701 441.298 792.922 449.507 791.885" stroke="#33C9C0" stroke-width="6" stroke-linejoin="round"/>
<path d="M449.507 791.885C457.715 790.848 465.889 789.554 474.016 788.003" stroke="#1F2872" stroke-width="6" stroke-linejoin="round"/>
<path d="M449.507 791.885C457.715 790.848 465.889 789.554 474.016 788.003" stroke="#1F2872" stroke-width="6" stroke-linejoin="round"/>
<path d="M474.016 788.003C482.143 786.453 490.219 784.648 498.233 782.59" stroke="#1F2872" stroke-width="6" stroke-linejoin="round"/>
<path d="M474.016 788.003C482.143 786.453 490.219 784.648 498.233 782.59" stroke="#7A49FF" stroke-width="6" stroke-linejoin="round"/>
<path d="M498.233 782.59C506.246 780.533 514.193 778.224 522.062 775.667" stroke="#1F2872" stroke-width="6" stroke-linejoin="round"/>
<path d="M498.233 782.59C506.246 780.533 514.193 778.224 522.062 775.667" stroke="#1F2872" stroke-width="6" stroke-linejoin="round"/>
<path d="M522.062 775.667C529.93 773.111 537.717 770.307 545.409 767.262" stroke="#FFD849" stroke-width="6" stroke-linejoin="round"/>
<path d="M545.409 767.262C553.102 764.216 560.697 760.929 568.183 757.407" stroke="#1F2872" stroke-width="6" stroke-linejoin="round"/>
<path d="M545.409 767.262C553.102 764.216 560.697 760.929 568.183 757.407" stroke="#1F2872" stroke-width="6" stroke-linejoin="round"/>
<path d="M568.183 757.407C575.669 753.884 583.043 750.127 590.293 746.141" stroke="#1F2872" stroke-width="6" stroke-linejoin="round"/>
<path d="M568.183 757.407C575.669 753.884 583.043 750.127 590.293 746.141" stroke="#33C9C0" stroke-width="6" stroke-linejoin="round"/>
<path d="M590.293 746.141C597.543 742.155 604.666 737.943 611.652 733.509" stroke="#1F2872" stroke-width="6" stroke-linejoin="round"/>
<path d="M590.293 746.141C597.543 742.155 604.666 737.943 611.652 733.509" stroke="#1F2872" stroke-width="6" stroke-linejoin="round"/>
<path d="M611.652 733.509C618.637 729.076 625.482 724.425 632.175 719.562" stroke="#FF8049" stroke-width="6" stroke-linejoin="round"/>
<path d="M632.175 719.562C638.869 714.699 645.408 709.626 651.783 704.353" stroke="#1F2872" stroke-width="6" stroke-linejoin="round"/>
<path d="M632.175 719.562C638.869 714.699 645.408 709.626 651.783 704.353" stroke="#22B6AD" stroke-width="6" stroke-linejoin="round"/>
<path d="M651.783 704.353C658.157 699.079 664.365 693.606 670.396 687.943" stroke="#33C9C0" stroke-width="6" stroke-linejoin="round"/>
<path d="M670.396 687.943C676.427 682.279 682.279 676.427 687.943 670.396" stroke="#1F2872" stroke-width="6" stroke-linejoin="round"/>
<path d="M687.943 670.396C693.606 664.365 699.079 658.157 704.353 651.782" stroke="#33C9C0" stroke-width="6" stroke-linejoin="round"/>
<path d="M704.353 651.782C709.627 645.407 714.699 638.868 719.562 632.175" stroke="#1F2872" stroke-width="6" stroke-linejoin="round"/>
<path d="M719.562 632.175C724.425 625.482 729.076 618.637 733.51 611.651" stroke="#7A49FF" stroke-width="6" stroke-linejoin="round"/>
<path d="M733.51 611.651C737.943 604.666 742.155 597.543 746.141 590.293" stroke="#1F2872" stroke-width="6" stroke-linejoin="round"/>
<path d="M746.141 590.293C750.127 583.043 753.884 575.669 757.407 568.183" stroke="#FF8049" stroke-width="6" stroke-linejoin="round"/>
<path d="M757.407 568.183C760.929 560.697 764.216 553.102 767.262 545.409" stroke="#1F2872" stroke-width="6" stroke-linejoin="round"/>
<path d="M767.262 545.409C770.307 537.717 773.111 529.93 775.667 522.062" stroke="#33C9C0" stroke-width="6" stroke-linejoin="round"/>
<path d="M775.667 522.062C778.224 514.193 780.533 506.246 782.59 498.232" stroke="#1F2872" stroke-width="6" stroke-linejoin="round"/>
<path d="M782.59 498.232C784.648 490.219 786.453 482.143 788.003 474.016" stroke="#FFD849" stroke-width="6" stroke-linejoin="round"/>
<path d="M788.003 474.016C789.554 465.889 790.848 457.715 791.885 449.507" stroke="#1F2872" stroke-width="6" stroke-linejoin="round"/>
<path d="M791.885 449.507C792.922 441.298 793.701 433.059 794.221 424.802" stroke="#1F2872" stroke-width="6" stroke-linejoin="round"/>
<path d="M791.885 449.507C792.922 441.298 793.701 433.059 794.221 424.802" stroke="#33C9C0" stroke-width="6" stroke-linejoin="round"/>
<path d="M794.221 424.802C794.74 416.545 795 408.273 795 400" stroke="#1F2872" stroke-width="6" stroke-linejoin="round"/>
<path d="M794.221 424.802C794.74 416.545 795 408.273 795 400" stroke="#1F2872" stroke-width="6" stroke-linejoin="round"/>
<path d="M400 795C391.726 795 383.455 794.74 375.198 794.221" stroke="#FF8049" stroke-width="6" stroke-linejoin="round"/>
<path d="M375.198 794.221C366.941 793.701 358.702 792.922 350.493 791.885" stroke="#1F2872" stroke-width="6" stroke-linejoin="round"/>
<path d="M375.198 794.221C366.941 793.701 358.702 792.922 350.493 791.885" stroke="#1F2872" stroke-width="6" stroke-linejoin="round"/>
<path d="M350.493 791.885C342.285 790.848 334.111 789.554 325.984 788.003" stroke="#1F2872" stroke-width="6" stroke-linejoin="round"/>
<path d="M350.493 791.885C342.285 790.848 334.111 789.554 325.984 788.003" stroke="#33C9C0" stroke-width="6" stroke-linejoin="round"/>
<path d="M325.984 788.003C317.857 786.453 309.781 784.648 301.767 782.59" stroke="#1F2872" stroke-width="6" stroke-linejoin="round"/>
<path d="M325.984 788.003C317.857 786.453 309.781 784.648 301.767 782.59" stroke="#1F2872" stroke-width="6" stroke-linejoin="round"/>
<path d="M301.767 782.59C293.754 780.533 285.807 778.224 277.938 775.667" stroke="#1F2872" stroke-width="6" stroke-linejoin="round"/>
<path d="M301.767 782.59C293.754 780.533 285.807 778.224 277.938 775.667" stroke="#FF8049" stroke-width="6" stroke-linejoin="round"/>
<path d="M277.938 775.667C270.07 773.111 262.283 770.307 254.591 767.262" stroke="#1F2872" stroke-width="6" stroke-linejoin="round"/>
<path d="M277.938 775.667C270.07 773.111 262.283 770.307 254.591 767.262" stroke="#1F2872" stroke-width="6" stroke-linejoin="round"/>
<path d="M254.591 767.262C246.898 764.216 239.303 760.929 231.817 757.407" stroke="#1F2872" stroke-width="6" stroke-linejoin="round"/>
<path d="M254.591 767.262C246.898 764.216 239.303 760.929 231.817 757.407" stroke="#33C9C0" stroke-width="6" stroke-linejoin="round"/>
<path d="M231.817 757.407C224.331 753.884 216.957 750.127 209.707 746.141" stroke="#1F2872" stroke-width="6" stroke-linejoin="round"/>
<path d="M231.817 757.407C224.331 753.884 216.957 750.127 209.707 746.141" stroke="#1F2872" stroke-width="6" stroke-linejoin="round"/>
<path d="M209.707 746.141C202.457 742.155 195.334 737.943 188.348 733.509" stroke="#1F2872" stroke-width="6" stroke-linejoin="round"/>
<path d="M209.707 746.141C202.457 742.155 195.334 737.943 188.348 733.509" stroke="#FFD849" stroke-width="6" stroke-linejoin="round"/>
<path d="M188.348 733.509C181.363 729.076 174.518 724.425 167.825 719.562" stroke="#1F2872" stroke-width="6" stroke-linejoin="round"/>
<path d="M188.348 733.509C181.363 729.076 174.518 724.425 167.825 719.562" stroke="#1F2872" stroke-width="6" stroke-linejoin="round"/>
<path d="M167.825 719.562C161.131 714.699 154.592 709.626 148.217 704.353" stroke="#33C9C0" stroke-width="6" stroke-linejoin="round"/>
<path d="M148.217 704.353C141.843 699.079 135.635 693.606 129.604 687.943" stroke="#1F2872" stroke-width="6" stroke-linejoin="round"/>
<path d="M148.217 704.353C141.843 699.079 135.635 693.606 129.604 687.943" stroke="#1F2872" stroke-width="6" stroke-linejoin="round"/>
<path d="M129.604 687.943C123.573 682.279 117.721 676.427 112.057 670.396" stroke="#33C9C0" stroke-width="6" stroke-linejoin="round"/>
<path d="M112.057 670.396C106.394 664.365 100.921 658.157 95.6472 651.782" stroke="#1F2872" stroke-width="6" stroke-linejoin="round"/>
<path d="M112.057 670.396C106.394 664.365 100.921 658.157 95.6472 651.782" stroke="#1F2872" stroke-width="6" stroke-linejoin="round"/>
<path d="M95.6472 651.782C90.3734 645.407 85.3013 638.868 80.4382 632.175" stroke="#7A49FF" stroke-width="6" stroke-linejoin="round"/>
<path d="M80.4382 632.175C75.5751 625.482 70.9236 618.637 66.4904 611.651" stroke="#1F2872" stroke-width="6" stroke-linejoin="round"/>
<path d="M80.4382 632.175C75.5751 625.482 70.9236 618.637 66.4904 611.651" stroke="#1F2872" stroke-width="6" stroke-linejoin="round"/>
<path d="M66.4904 611.651C62.0572 604.666 57.8446 597.543 53.8588 590.293" stroke="#1F2872" stroke-width="6" stroke-linejoin="round"/>
<path d="M66.4904 611.651C62.0572 604.666 57.8446 597.543 53.8588 590.293" stroke="#33C9C0" stroke-width="6" stroke-linejoin="round"/>
<path d="M53.8589 590.293C49.8731 583.043 46.116 575.669 42.5933 568.183" stroke="#1F2872" stroke-width="6" stroke-linejoin="round"/>
<path d="M53.8589 590.293C49.8731 583.043 46.116 575.669 42.5933 568.183" stroke="#1F2872" stroke-width="6" stroke-linejoin="round"/>
<path d="M42.5933 568.183C39.0706 560.697 35.784 553.102 32.7383 545.409" stroke="#1F2872" stroke-width="6" stroke-linejoin="round"/>
<path d="M42.5933 568.183C39.0706 560.697 35.784 553.102 32.7383 545.409" stroke="#33C9C0" stroke-width="6" stroke-linejoin="round"/>
<path d="M32.7383 545.409C29.6926 537.717 26.8893 529.93 24.3327 522.062" stroke="#1F2872" stroke-width="6" stroke-linejoin="round"/>
<path d="M32.7383 545.409C29.6926 537.717 26.8893 529.93 24.3327 522.062" stroke="#1F2872" stroke-width="6" stroke-linejoin="round"/>
<path d="M24.3327 522.062C21.776 514.193 19.4672 506.246 17.4096 498.232" stroke="#1F2872" stroke-width="6" stroke-linejoin="round"/>
<path d="M24.3327 522.062C21.776 514.193 19.4672 506.246 17.4096 498.232" stroke="#FF8049" stroke-width="6" stroke-linejoin="round"/>
<path d="M17.4096 498.232C15.3521 490.219 13.5468 482.143 11.9965 474.016" stroke="#1F2872" stroke-width="6" stroke-linejoin="round"/>
<path d="M17.4096 498.232C15.3521 490.219 13.5468 482.143 11.9965 474.016" stroke="#1F2872" stroke-width="6" stroke-linejoin="round"/>
<path d="M11.9965 474.016C10.4462 465.889 9.15164 457.715 8.11469 449.507" stroke="#1F2872" stroke-width="6" stroke-linejoin="round"/>
<path d="M11.9965 474.016C10.4462 465.889 9.15164 457.715 8.11469 449.507" stroke="#33C9C0" stroke-width="6" stroke-linejoin="round"/>
<path d="M8.11469 449.507C7.07774 441.298 6.29894 433.059 5.77944 424.802" stroke="#1F2872" stroke-width="6" stroke-linejoin="round"/>
<path d="M8.11469 449.507C7.07774 441.298 6.29894 433.059 5.77944 424.802" stroke="#1F2872" stroke-width="6" stroke-linejoin="round"/>
<path d="M5.77944 424.802C5.25994 416.545 5 408.273 5 400" stroke="#1F2872" stroke-width="6" stroke-linejoin="round"/>
<path d="M5.77944 424.802C5.25994 416.545 5 408.273 5 400" stroke="#FF5247" stroke-width="6" stroke-linejoin="round"/>
<path d="M400 5C391.726 5 383.455 5.25994 375.198 5.77944" stroke="#1F2872" stroke-width="6" stroke-linejoin="round"/>
<path d="M375.198 5.77944C366.941 6.29894 358.702 7.07775 350.493 8.1147" stroke="#1F2872" stroke-width="6" stroke-linejoin="round"/>
<path d="M375.198 5.77944C366.941 6.29894 358.702 7.07775 350.493 8.1147" stroke="#33C9C0" stroke-width="6" stroke-linejoin="round"/>
<path d="M350.493 8.1147C342.285 9.15165 334.111 10.4462 325.984 11.9965" stroke="#1F2872" stroke-width="6" stroke-linejoin="round"/>
<path d="M325.984 11.9965C317.857 13.5469 309.781 15.3521 301.767 17.4097" stroke="#1F2872" stroke-width="6" stroke-linejoin="round"/>
<path d="M325.984 11.9965C317.857 13.5469 309.781 15.3521 301.767 17.4097" stroke="#7A49FF" stroke-width="6" stroke-linejoin="round"/>
<path d="M301.767 17.4097C293.754 19.4672 285.807 21.776 277.938 24.3327" stroke="#1F2872" stroke-width="6" stroke-linejoin="round"/>
<path d="M277.938 24.3327C270.07 26.8894 262.283 29.6926 254.591 32.7383" stroke="#1F2872" stroke-width="6" stroke-linejoin="round"/>
<path d="M277.938 24.3327C270.07 26.8894 262.283 29.6926 254.591 32.7383" stroke="#33C9C0" stroke-width="6" stroke-linejoin="round"/>
<path d="M254.591 32.7383C246.898 35.784 239.303 39.0706 231.817 42.5933" stroke="#1F2872" stroke-width="6" stroke-linejoin="round"/>
<path d="M231.817 42.5933C224.331 46.1161 216.957 49.8731 209.707 53.8589" stroke="#1F2872" stroke-width="6" stroke-linejoin="round"/>
<path d="M231.817 42.5933C224.331 46.1161 216.957 49.8731 209.707 53.8589" stroke="#FFD849" stroke-width="6" stroke-linejoin="round"/>
<path d="M209.707 53.8589C202.457 57.8447 195.334 62.0573 188.348 66.4905" stroke="#1F2872" stroke-width="6" stroke-linejoin="round"/>
<path d="M188.348 66.4905C181.363 70.9237 174.518 75.5753 167.825 80.4383" stroke="#1F2872" stroke-width="6" stroke-linejoin="round"/>
<path d="M188.348 66.4905C181.363 70.9237 174.518 75.5753 167.825 80.4383" stroke="#7A49FF" stroke-width="6" stroke-linejoin="round"/>
<path d="M167.825 80.4383C161.131 85.3014 154.592 90.3736 148.217 95.6473" stroke="#1F2872" stroke-width="6" stroke-linejoin="round"/>
<path d="M148.217 95.6473C141.843 100.921 135.635 106.394 129.604 112.057" stroke="#1F2872" stroke-width="6" stroke-linejoin="round"/>
<path d="M148.217 95.6473C141.843 100.921 135.635 106.394 129.604 112.057" stroke="#33C9C0" stroke-width="6" stroke-linejoin="round"/>
<path d="M129.604 112.057C123.573 117.721 117.721 123.573 112.057 129.604" stroke="#1F2872" stroke-width="6" stroke-linejoin="round"/>
<path d="M112.057 129.604C106.394 135.635 100.921 141.843 95.6472 148.218" stroke="#1F2872" stroke-width="6" stroke-linejoin="round"/>
<path d="M112.057 129.604C106.394 135.635 100.921 141.843 95.6472 148.218" stroke="#33C9C0" stroke-width="6" stroke-linejoin="round"/>
<path d="M95.6472 148.218C90.3734 154.593 85.3013 161.132 80.4382 167.825" stroke="#1F2872" stroke-width="6" stroke-linejoin="round"/>
<path d="M80.4382 167.825C75.5751 174.518 70.9236 181.363 66.4904 188.349" stroke="#1F2872" stroke-width="6" stroke-linejoin="round"/>
<path d="M80.4382 167.825C75.5751 174.518 70.9236 181.363 66.4904 188.349" stroke="#7A49FF" stroke-width="6" stroke-linejoin="round"/>
<path d="M66.4904 188.349C62.0572 195.334 57.8446 202.457 53.8588 209.707" stroke="#1F2872" stroke-width="6" stroke-linejoin="round"/>
<path d="M66.4904 188.349C62.0572 195.334 57.8446 202.457 53.8588 209.707" stroke="#1F2872" stroke-width="6" stroke-linejoin="round"/>
<path d="M53.8589 209.707C49.8731 216.957 46.116 224.331 42.5933 231.817" stroke="#1F2872" stroke-width="6" stroke-linejoin="round"/>
<path d="M53.8589 209.707C49.8731 216.957 46.116 224.331 42.5933 231.817" stroke="#1F2872" stroke-width="6" stroke-linejoin="round"/>
<path d="M53.8589 209.707C49.8731 216.957 46.116 224.331 42.5933 231.817" stroke="#FF8049" stroke-width="6" stroke-linejoin="round"/>
<path d="M42.5933 231.817C39.0706 239.303 35.784 246.898 32.7383 254.591" stroke="#1F2872" stroke-width="6" stroke-linejoin="round"/>
<path d="M42.5933 231.817C39.0706 239.303 35.784 246.898 32.7383 254.591" stroke="#22B6AD" stroke-width="6" stroke-linejoin="round"/>
<path d="M32.7383 254.591C29.6926 262.283 26.8893 270.07 24.3327 277.938" stroke="#1F2872" stroke-width="6" stroke-linejoin="round"/>
<path d="M32.7383 254.591C29.6926 262.283 26.8893 270.07 24.3327 277.938" stroke="#33C9C0" stroke-width="6" stroke-linejoin="round"/>
<path d="M24.3327 277.938C21.776 285.807 19.4672 293.754 17.4096 301.768" stroke="#1F2872" stroke-width="6" stroke-linejoin="round"/>
<path d="M24.3327 277.938C21.776 285.807 19.4672 293.754 17.4096 301.768" stroke="#1F2872" stroke-width="6" stroke-linejoin="round"/>
<path d="M17.4096 301.768C15.3521 309.781 13.5468 317.857 11.9965 325.984" stroke="#FF8049" stroke-width="6" stroke-linejoin="round"/>
<path d="M11.9965 325.984C10.4462 334.111 9.15164 342.285 8.11469 350.493" stroke="#1F2872" stroke-width="6" stroke-linejoin="round"/>
<path d="M11.9965 325.984C10.4462 334.111 9.15164 342.285 8.11469 350.493" stroke="#1F2872" stroke-width="6" stroke-linejoin="round"/>
<path d="M8.11469 350.493C7.07774 358.702 6.29894 366.941 5.77944 375.198" stroke="#1F2872" stroke-width="6" stroke-linejoin="round"/>
<path d="M8.11469 350.493C7.07774 358.702 6.29894 366.941 5.77944 375.198" stroke="#33C9C0" stroke-width="6" stroke-linejoin="round"/>
<path d="M5.77944 375.198C5.25994 383.455 5 391.727 5 400" stroke="#1F2872" stroke-width="6" stroke-linejoin="round"/>
<path d="M5.77944 375.198C5.25994 383.455 5 391.727 5 400" stroke="#1F2872" stroke-width="6" stroke-linejoin="round"/>
</svg>
