<svg width="28" height="37" viewBox="0 0 28 37" fill="none" xmlns="http://www.w3.org/2000/svg" class="dop_btn">
<g filter="url(#filter0_f)">
<path d="M2 16.2488V17.75C2 18.991 5.02344 20 8.75 20C12.4766 20 15.5 18.991 15.5 17.75V16.2488C14.048 17.2719 11.3938 17.75 8.75 17.75C6.10625 17.75 3.45195 17.2719 2 16.2488ZM13.25 6.5C16.9766 6.5 20 5.49102 20 4.25C20 3.00898 16.9766 2 13.25 2C9.52344 2 6.5 3.00898 6.5 4.25C6.5 5.49102 9.52344 6.5 13.25 6.5ZM2 12.5609V14.375C2 15.616 5.02344 16.625 8.75 16.625C12.4766 16.625 15.5 15.616 15.5 14.375V12.5609C14.048 13.7562 11.3902 14.375 8.75 14.375C6.10977 14.375 3.45195 13.7562 2 12.5609ZM16.625 12.9477C18.6395 12.5574 20 11.8332 20 11V9.49883C19.1844 10.0754 17.9855 10.4691 16.625 10.7117V12.9477ZM8.75 7.625C5.02344 7.625 2 8.88359 2 10.4375C2 11.9914 5.02344 13.25 8.75 13.25C12.4766 13.25 15.5 11.9914 15.5 10.4375C15.5 8.88359 12.4766 7.625 8.75 7.625ZM16.4598 9.6043C18.5691 9.22461 20 8.4793 20 7.625V6.12383C18.752 7.00625 16.6074 7.48086 14.3504 7.59336C15.3875 8.09609 16.1504 8.77109 16.4598 9.6043Z" fill="#FFD234" fill-opacity="0.41"/>
</g>
<path d="M2 31.5816V33.75C2 35.5426 6.36719 37 11.75 37C17.1328 37 21.5 35.5426 21.5 33.75V31.5816C19.4027 33.0594 15.5687 33.75 11.75 33.75C7.93125 33.75 4.09727 33.0594 2 31.5816ZM18.25 17.5C23.6328 17.5 28 16.0426 28 14.25C28 12.4574 23.6328 11 18.25 11C12.8672 11 8.5 12.4574 8.5 14.25C8.5 16.0426 12.8672 17.5 18.25 17.5ZM2 26.2547V28.875C2 30.6676 6.36719 32.125 11.75 32.125C17.1328 32.125 21.5 30.6676 21.5 28.875V26.2547C19.4027 27.9812 15.5637 28.875 11.75 28.875C7.93633 28.875 4.09727 27.9812 2 26.2547ZM23.125 26.8133C26.0348 26.2496 28 25.2035 28 24V21.8316C26.8219 22.6645 25.0902 23.2332 23.125 23.5836V26.8133ZM11.75 19.125C6.36719 19.125 2 20.943 2 23.1875C2 25.432 6.36719 27.25 11.75 27.25C17.1328 27.25 21.5 25.432 21.5 23.1875C21.5 20.943 17.1328 19.125 11.75 19.125ZM22.8863 21.984C25.9332 21.4355 28 20.359 28 19.125V16.9566C26.1973 18.2313 23.0996 18.9168 19.8395 19.0793C21.3375 19.8055 22.4395 20.7805 22.8863 21.984Z" fill="#FFD234"/>
<defs>
<filter id="filter0_f" x="0" y="0" width="22" height="22" filterUnits="userSpaceOnUse" color-interpolation-filters="sRGB">
<feFlood flood-opacity="0" result="BackgroundImageFix"/>
<feBlend mode="normal" in="SourceGraphic" in2="BackgroundImageFix" result="shape"/>
<feGaussianBlur stdDeviation="1" result="effect1_foregroundBlur"/>
</filter>
</defs>
</svg>