<svg width="438" height="481" viewBox="0 0 438 481" fill="none" xmlns="http://www.w3.org/2000/svg">
<path d="M95.1086 358.825C124.44 358.825 148.215 335.05 148.215 305.719C148.215 276.388 124.44 252.612 95.1086 252.612C65.7777 252.612 42 276.388 42 305.719C42 335.05 65.7777 358.825 95.1086 358.825ZM110.661 277.269C126.372 277.269 139.111 290.007 139.111 305.719C139.111 321.43 126.372 334.169 110.661 334.169C94.9496 334.169 82.2105 321.43 82.2105 305.719C82.2105 290.007 94.9494 277.269 110.661 277.269Z" fill="#FA8D62"/>
<path d="M100.651 311.939C100.651 316 104.158 320.292 111.774 320.292C118.743 320.292 123.313 316.601 123.313 311.154C123.313 307.323 120.728 304.831 117.773 303.723V303.586C120.773 302.109 122.159 299.569 122.159 296.986C122.159 293.34 119.25 289.277 112.236 289.277C106.236 289.277 101.669 292.646 101.669 297.723C101.669 300.354 103.098 302.801 106.006 304.324V304.415C102.727 305.849 100.651 308.339 100.651 311.939ZM111.913 294.031C114.496 294.031 115.559 295.877 115.559 297.771C115.559 299.617 114.127 301.094 112.513 301.556C110.112 300.818 108.312 299.525 108.312 297.493C108.312 295.647 109.511 294.031 111.913 294.031ZM111.451 306.77C114.175 307.51 116.158 309.078 116.158 311.709C116.158 313.833 114.496 315.449 112.049 315.449C109.418 315.449 107.756 313.419 107.802 311.25C107.804 309.078 109.143 307.417 111.451 306.77Z" fill="#FA8D62"/>
<path d="M207.494 227.512C199.455 241.436 204.225 259.24 218.15 267.279C232.074 275.318 249.878 270.548 257.917 256.623C265.956 242.699 261.186 224.895 247.262 216.855C233.337 208.816 215.533 213.588 207.494 227.512ZM241.949 257.249C237.643 264.707 228.104 267.263 220.645 262.957C213.186 258.651 210.63 249.112 214.937 241.653C219.243 234.194 228.782 231.638 236.241 235.944C243.699 240.251 246.255 249.79 241.949 257.249Z" fill="#FA8D62"/>
<path d="M228.233 242.994C226.306 241.881 223.307 242.369 221.219 245.985C219.309 249.293 219.809 252.475 222.395 253.968C224.213 255.017 226.105 254.473 227.441 253.374L227.506 253.412C227.385 255.241 228.211 256.595 229.437 257.303C231.168 258.302 233.894 258.035 235.817 254.705C237.461 251.857 237.114 248.765 234.703 247.373C233.454 246.652 231.901 246.66 230.381 247.624L230.338 247.599C230.556 245.649 229.943 243.981 228.233 242.994ZM233.648 253.248C232.94 254.475 231.773 254.473 230.874 253.954C229.997 253.448 229.689 252.364 229.912 251.471C230.92 250.533 232.027 250.033 232.992 250.59C233.868 251.096 234.306 252.108 233.648 253.248ZM227.727 249.538C226.629 250.628 225.342 251.139 224.092 250.418C223.084 249.836 222.773 248.605 223.443 247.443C224.164 246.194 225.584 245.961 226.601 246.578C227.631 247.174 228.053 248.265 227.727 249.538Z" fill="#FA8D62"/>
<path d="M241.036 424.332C232.997 410.407 237.767 392.604 251.692 384.564C265.616 376.525 283.419 381.296 291.459 395.22C299.498 409.144 294.728 426.949 280.804 434.988C266.879 443.027 249.075 438.256 241.036 424.332ZM275.491 394.595C271.185 387.136 261.646 384.58 254.187 388.886C246.728 393.193 244.172 402.732 248.478 410.19C252.785 417.649 262.324 420.205 269.783 415.899C277.241 411.593 279.797 402.054 275.491 394.595Z" fill="#FA8D62"/>
<path d="M261.775 408.85C259.848 409.962 256.849 409.474 254.761 405.859C252.851 402.55 253.351 399.369 255.937 397.876C257.755 396.826 259.647 397.37 260.983 398.469L261.048 398.431C260.927 396.602 261.753 395.248 262.979 394.54C264.71 393.541 267.436 393.808 269.358 397.138C271.003 399.987 270.656 403.078 268.245 404.47C266.996 405.191 265.443 405.183 263.923 404.22L263.88 404.245C264.098 406.195 263.485 407.863 261.775 408.85ZM267.19 398.595C266.482 397.368 265.314 397.37 264.416 397.889C263.539 398.395 263.23 399.48 263.453 400.372C264.462 401.31 265.569 401.81 266.534 401.253C267.41 400.747 267.848 399.735 267.19 398.595ZM261.269 402.306C260.171 401.215 258.883 400.704 257.634 401.425C256.626 402.007 256.314 403.239 256.985 404.4C257.706 405.649 259.126 405.882 260.143 405.266C261.173 404.669 261.595 403.579 261.269 402.306Z" fill="#FA8D62"/>
<path d="M365.533 128.643C338.134 128.406 316.118 106.005 316.355 78.6069C316.592 51.2087 338.993 29.1923 366.391 29.4294C393.789 29.6666 415.808 52.0674 415.571 79.4657C415.334 106.864 392.931 128.88 365.533 128.643ZM351.664 52.3352C336.988 52.2081 324.986 64.0045 324.859 78.6805C324.732 93.3566 336.528 105.359 351.204 105.486C365.88 105.613 377.883 93.8167 378.01 79.1406C378.137 64.4645 366.341 52.4622 351.664 52.3352Z" fill="#FA8D62"/>
<path d="M360.735 84.8021C360.702 88.5948 357.391 92.5762 350.277 92.5146C343.768 92.4583 339.528 88.973 339.572 83.8851C339.603 80.3069 342.038 78 344.807 76.9885L344.808 76.8609C342.018 75.4569 340.744 73.073 340.765 70.66C340.794 67.2541 343.544 63.4827 350.096 63.5394C355.701 63.5879 359.94 66.7715 359.899 71.5145C359.878 73.9723 358.523 76.2461 355.794 77.6448L355.793 77.7298C358.845 79.0958 360.764 81.4386 360.735 84.8021ZM350.36 67.9831C347.947 67.9622 346.939 69.6778 346.924 71.4466C346.909 73.1708 348.235 74.5622 349.738 75.0067C351.987 74.3374 353.679 73.1442 353.695 71.2458C353.71 69.5218 352.603 68.0025 350.36 67.9831ZM350.688 79.8864C348.138 80.5551 346.273 82.004 346.252 84.4619C346.235 86.4453 347.773 87.9684 350.059 87.9882C352.517 88.0094 354.086 86.1264 354.061 84.0999C354.076 82.0716 352.839 80.5089 350.688 79.8864Z" fill="#FA8D62"/>
<path d="M74.8323 114.609C80.6154 131.799 99.2372 141.046 116.428 135.263C133.618 129.48 142.864 110.858 137.081 93.6676C131.298 76.4775 112.676 67.2295 95.4858 73.0125C78.2955 78.7955 69.0494 97.4188 74.8323 114.609ZM125.697 107.644C128.795 116.852 123.841 126.83 114.633 129.927C105.424 133.025 95.4469 128.071 92.3492 118.863C89.2515 109.654 94.2057 99.6767 103.414 96.579C112.622 93.4813 122.599 98.4356 125.697 107.644Z" fill="#FA8D62"/>
<path d="M103.404 108.613C101.024 109.413 99.1999 112.315 100.701 116.779C102.075 120.863 105.14 122.814 108.332 121.74C110.577 120.985 111.528 118.978 111.595 117.028L111.675 117.001C113.133 118.468 114.895 118.779 116.408 118.27C118.545 117.551 120.353 115.045 118.97 110.935C117.787 107.418 114.912 105.405 111.936 106.406C110.394 106.925 109.242 108.245 108.923 110.25L108.87 110.268C107.383 108.629 105.514 107.903 103.404 108.613ZM116.12 111.682C116.629 113.197 115.757 114.183 114.647 114.557C113.565 114.92 112.417 114.373 111.828 113.518C111.787 111.965 112.19 110.655 113.381 110.255C114.463 109.891 115.646 110.275 116.12 111.682ZM108.563 113.923C108.666 115.666 108.138 117.137 106.596 117.656C105.352 118.074 104.077 117.419 103.594 115.985C103.076 114.443 103.938 113.069 105.218 112.668C106.491 112.241 107.729 112.698 108.563 113.923Z" fill="#FA8D62"/>
</svg>
