<svg width="266" height="266" viewBox="0 0 266 266" fill="none" xmlns="http://www.w3.org/2000/svg">
<path d="M119.952 254.356L1.50574 125.227L25.5661 105.338L23.6839 103.145L43.1132 95.6095L40.4781 92.5393L87.8459 51.8843L95.119 53.2587L91.3546 48.8728L109.337 33.4389L115.36 40.4563C113.733 30.9318 114.034 25.5994 123.244 17.6942C132.454 9.78909 152.673 12.4687 173.22 34.2118C191.494 55.3116 195.071 65.9417 189.237 82.16L197.571 75.0077L227.558 106.396L230.628 103.761L257.545 137.785C248.718 156.786 235.785 164.132 210.353 160.009L225.034 177.114L187.667 172.624L199.337 186.221L183.986 199.396L156.948 172.331L181.793 201.278L158.986 220.853L154.469 215.59L149.344 239.792L141.004 236.287L119.952 254.356Z" fill="url(#paint0_linear)"/>
<path d="M198.055 143.905C180.739 123.73 176.289 104.278 197.326 83.5965L219.722 107.028C208.318 116.816 207.946 121.706 213.091 129.476C218.237 137.246 228.749 143.582 235.415 137.737L220.547 123.077L231.512 113.666L252.03 140.233C230.087 162.708 215.371 164.08 198.055 143.905Z" fill="#C4C4C4"/>
<path d="M198.055 143.905C180.739 123.73 176.289 104.278 197.326 83.5965L219.722 107.028C208.318 116.816 207.946 121.706 213.091 129.476C218.237 137.246 228.749 143.582 235.415 137.737L220.547 123.077L231.512 113.666L252.03 140.233C230.087 162.708 215.371 164.08 198.055 143.905Z" fill="url(#paint1_linear)"/>
<path d="M145.821 124.756L130.719 134.671L185.236 193.753L193.569 186.601L176.253 166.425L213.306 169.661L164.241 108.946L154.154 117.604L165.447 130.761L145.821 124.756Z" fill="#C4C4C4"/>
<path d="M145.821 124.756L130.719 134.671L185.236 193.753L193.569 186.601L176.253 166.425L213.306 169.661L164.241 108.946L154.154 117.604L165.447 130.761L145.821 124.756Z" fill="url(#paint2_linear)"/>
<path d="M86.2344 175.136L68.6908 190.194L121.264 247.898L135.738 235.475L124.821 222.756L145.829 232.146L151.271 214.526L126.44 206.894L113.002 173.489L97.1476 182.527L105.999 200.827L86.2344 175.136Z" fill="url(#paint3_linear)"/>
<path d="M161.114 214.457L107.85 155.061L126.27 139.25L176.026 201.658L161.114 214.457Z" fill="#C4C4C4"/>
<path d="M161.114 214.457L107.85 155.061L126.27 139.25L176.026 201.658L161.114 214.457Z" fill="url(#paint4_linear)"/>
<path d="M122.996 117.687L78.0139 67.9397L90.7331 57.0231L109.669 61.3363L99.5049 49.4943L109.154 41.2127L158.218 101.928L120.914 96.624L135.218 113.29L122.996 117.687Z" fill="#C4C4C4"/>
<path d="M122.996 117.687L78.0139 67.9397L90.7331 57.0231L109.669 61.3363L99.5049 49.4943L109.154 41.2127L158.218 101.928L120.914 96.624L135.218 113.29L122.996 117.687Z" fill="url(#paint5_linear)"/>
<path d="M97.3751 147.294L48.1898 93.5373L74.5053 70.9511L95.2093 95.0736L83.6159 101.977L89.6389 108.995L99.7265 100.337L107.759 113.246L97.9205 118.644L105.826 127.854L114.407 117.442L118.172 121.828L97.3751 147.294Z" fill="#C4C4C4"/>
<path d="M97.3751 147.294L48.1898 93.5373L74.5053 70.9511L95.2093 95.0736L83.6159 101.977L89.6389 108.995L99.7265 100.337L107.759 113.246L97.9205 118.644L105.826 127.854L114.407 117.442L118.172 121.828L97.3751 147.294Z" fill="url(#paint6_linear)"/>
<path d="M61.4142 183.49L10.0324 126.287L27.576 111.23L47.3407 136.92L30.1419 104.458L49.5712 96.9218L66.967 142.926L92.2363 150.181L83.9723 167.176L63.9039 156.218L76.3262 170.692L61.4142 183.49Z" fill="url(#paint7_linear)"/>
<path fill-rule="evenodd" clip-rule="evenodd" d="M180.024 84.7364C189.955 76.2125 186.04 55.3607 171.279 38.1626C156.518 20.9645 136.501 13.9327 126.57 22.4566C116.638 30.9805 120.554 51.8323 135.314 69.0304C150.075 86.2285 170.092 93.2603 180.024 84.7364ZM169.169 71.2022C172.56 68.2916 170.59 60.4339 164.769 53.6515C158.948 46.8692 151.48 43.7305 148.089 46.6411C144.698 49.5517 146.667 57.4094 152.489 64.1917C158.31 70.9741 165.778 74.1128 169.169 71.2022Z" fill="#C4C4C4"/>
<path fill-rule="evenodd" clip-rule="evenodd" d="M180.024 84.7364C189.955 76.2125 186.04 55.3607 171.279 38.1626C156.518 20.9645 136.501 13.9327 126.57 22.4566C116.638 30.9805 120.554 51.8323 135.314 69.0304C150.075 86.2285 170.092 93.2603 180.024 84.7364ZM169.169 71.2022C172.56 68.2916 170.59 60.4339 164.769 53.6515C158.948 46.8692 151.48 43.7305 148.089 46.6411C144.698 49.5517 146.667 57.4094 152.489 64.1917C158.31 70.9741 165.778 74.1128 169.169 71.2022Z" fill="url(#paint8_linear)"/>
<path d="M86.7094 174.375L68.7975 161.92C81.3356 157.919 87.167 154.357 95.7383 145.979C104.31 137.6 124.536 108.176 143.852 107.376L149.087 120.837L163.817 130.637C154.329 133.758 148.94 135.937 138.359 146.203C127.779 156.469 113.233 179.348 88.7621 185.181L86.7094 174.375Z" fill="url(#paint9_radial)" stroke="#001893" stroke-width="3"/>
<path d="M103.086 153.868C102.939 154.047 102.849 154.265 102.826 154.495C102.804 154.726 102.85 154.958 102.959 155.161C103.069 155.365 103.236 155.532 103.44 155.641C103.644 155.75 103.876 155.796 104.106 155.773C104.337 155.75 104.555 155.66 104.734 155.513C104.913 155.366 105.044 155.169 105.111 154.948C105.178 154.726 105.177 154.49 105.11 154.268C105.043 154.047 104.911 153.851 104.732 153.704C104.492 153.507 104.184 153.414 103.875 153.445C103.566 153.476 103.282 153.628 103.086 153.868Z" fill="white"/>
<path d="M121.428 135.156C121.834 134.66 121.762 133.928 121.265 133.521C120.769 133.115 120.037 133.187 119.631 133.684C119.224 134.18 119.297 134.912 119.793 135.318C120.29 135.725 121.021 135.652 121.428 135.156Z" fill="white"/>
<path d="M107.776 140.836C107.923 140.659 108.014 140.442 108.038 140.213C108.062 139.984 108.017 139.754 107.91 139.55C107.802 139.347 107.637 139.18 107.434 139.071C107.232 138.962 107.001 138.915 106.772 138.937C106.543 138.959 106.326 139.048 106.147 139.194C105.969 139.34 105.838 139.535 105.772 139.755C105.705 139.975 105.704 140.21 105.771 140.43C105.838 140.651 105.969 140.846 106.147 140.992C106.384 141.186 106.688 141.279 106.993 141.249C107.299 141.22 107.58 141.072 107.776 140.836Z" fill="white"/>
<path d="M121.156 137.309C120.68 138.269 120.304 139.276 120.035 140.313C119.723 141.592 119.553 142.901 119.526 144.217C118.365 144.213 117.207 144.084 116.073 143.83C114.168 143.347 112.301 142.726 110.485 141.974C110.314 141.903 110.123 141.891 109.944 141.94C109.765 141.989 109.608 142.096 109.496 142.245C109.373 142.383 109.299 142.559 109.286 142.744C109.273 142.929 109.322 143.113 109.426 143.267C110.522 144.899 111.497 146.608 112.345 148.381C112.818 149.44 113.171 150.548 113.398 151.685C112.117 151.98 110.87 152.406 109.676 152.958C108.732 153.411 107.836 153.958 107 154.589C106.876 154.683 106.781 154.81 106.725 154.955C106.669 155.1 106.655 155.258 106.684 155.411C106.715 155.567 106.79 155.712 106.9 155.827C107.01 155.942 107.152 156.024 107.307 156.061C111.1 157.119 114.744 158.653 118.152 160.625C118.326 160.723 118.528 160.756 118.724 160.718C118.919 160.68 119.095 160.574 119.218 160.418L129.28 148.135C129.409 147.983 129.479 147.79 129.477 147.591C129.476 147.391 129.404 147.199 129.273 147.049C126.669 144.095 124.448 140.824 122.664 137.314C122.597 137.169 122.489 137.047 122.355 136.961C122.22 136.876 122.063 136.831 121.904 136.831C121.747 136.832 121.593 136.878 121.461 136.963C121.329 137.047 121.223 137.167 121.156 137.309V137.309ZM118.321 157.187C118.206 157.331 118.051 157.436 117.876 157.491C117.7 157.546 117.512 157.548 117.336 157.496C117.16 157.444 117.003 157.341 116.885 157.199C116.768 157.058 116.695 156.885 116.676 156.702C116.657 156.519 116.693 156.335 116.779 156.172C116.865 156.01 116.997 155.877 117.159 155.789C117.32 155.702 117.505 155.665 117.688 155.683C117.871 155.7 118.044 155.772 118.186 155.888C118.376 156.043 118.496 156.267 118.521 156.51C118.546 156.753 118.475 156.997 118.321 157.187ZM122.108 152.565C121.945 152.729 121.728 152.826 121.497 152.838C121.267 152.85 121.04 152.776 120.861 152.63C120.683 152.483 120.565 152.276 120.532 152.047C120.498 151.819 120.55 151.586 120.679 151.395C120.842 151.231 121.059 151.134 121.29 151.122C121.52 151.11 121.747 151.184 121.926 151.33C122.104 151.477 122.222 151.684 122.255 151.913C122.289 152.141 122.236 152.374 122.108 152.565ZM125.9 147.936C125.784 148.08 125.629 148.185 125.454 148.24C125.278 148.295 125.091 148.297 124.914 148.245C124.738 148.193 124.581 148.09 124.464 147.948C124.346 147.807 124.273 147.634 124.254 147.451C124.235 147.268 124.271 147.084 124.357 146.921C124.443 146.759 124.575 146.626 124.737 146.538C124.899 146.451 125.083 146.414 125.266 146.432C125.449 146.449 125.622 146.521 125.765 146.637C125.954 146.792 126.074 147.016 126.099 147.259C126.125 147.502 126.053 147.746 125.9 147.936Z" fill="white"/>
<defs>
<linearGradient id="paint0_linear" x1="71.9298" y1="61.7364" x2="193.895" y2="203.84" gradientUnits="userSpaceOnUse">
<stop stop-color="#000018"/>
<stop offset="0.4375" stop-color="#050D4A"/>
<stop offset="1" stop-color="#0D24C3"/>
</linearGradient>
<linearGradient id="paint1_linear" x1="185.045" y1="94.1367" x2="236.563" y2="154.161" gradientUnits="userSpaceOnUse">
<stop stop-color="#FF8A59"/>
<stop offset="1" stop-color="#FFDD47"/>
</linearGradient>
<linearGradient id="paint2_linear" x1="146.727" y1="120.931" x2="199.052" y2="181.895" gradientUnits="userSpaceOnUse">
<stop stop-color="#FF8A59"/>
<stop offset="1" stop-color="#FFDD47"/>
</linearGradient>
<linearGradient id="paint3_linear" x1="86.4537" y1="174.948" x2="139.908" y2="237.228" gradientUnits="userSpaceOnUse">
<stop stop-color="#FF8A59"/>
<stop offset="1" stop-color="#FFDD47"/>
</linearGradient>
<linearGradient id="paint4_linear" x1="117.06" y1="147.156" x2="169.008" y2="207.681" gradientUnits="userSpaceOnUse">
<stop stop-color="#FF8A59"/>
<stop offset="1" stop-color="#FFDD47"/>
</linearGradient>
<linearGradient id="paint5_linear" x1="93.5839" y1="54.5762" x2="144.403" y2="113.786" gradientUnits="userSpaceOnUse">
<stop stop-color="#FFE253"/>
<stop offset="1" stop-color="#FF9154"/>
</linearGradient>
<linearGradient id="paint6_linear" x1="61.3476" y1="82.2442" x2="108.778" y2="137.507" gradientUnits="userSpaceOnUse">
<stop stop-color="#FFE253"/>
<stop offset="1" stop-color="#FF9154"/>
</linearGradient>
<linearGradient id="paint7_linear" x1="26.4139" y1="107.657" x2="80.2442" y2="170.376" gradientUnits="userSpaceOnUse">
<stop stop-color="#FFE253"/>
<stop offset="1" stop-color="#FF9154"/>
</linearGradient>
<linearGradient id="paint8_linear" x1="126.57" y1="22.4566" x2="180.024" y2="84.7364" gradientUnits="userSpaceOnUse">
<stop stop-color="#FFE253"/>
<stop offset="1" stop-color="#FF9154"/>
</linearGradient>
<radialGradient id="paint9_radial" cx="0" cy="0" r="1" gradientUnits="userSpaceOnUse" gradientTransform="translate(116.932 143.457) rotate(-37.6262) scale(43.9876 106.637)">
<stop stop-color="#FF123C"/>
<stop offset="1" stop-color="#960000"/>
</radialGradient>
</defs>
</svg>
