<svg width="421" height="421" viewBox="0 0 421 421" fill="none" xmlns="http://www.w3.org/2000/svg">
<path d="M412.708 208.549C412.714 209.199 412.717 209.85 412.717 210.501" stroke="#DEDEF0" stroke-opacity="0.46" stroke-width="15"/>
<path d="M412.517 201.493C412.546 202.143 412.572 202.793 412.594 203.443" stroke="#DEDEF0" stroke-opacity="0.46" stroke-width="15"/>
<path d="M412.079 194.448C412.131 195.097 412.179 195.745 412.225 196.395" stroke="#DEDEF0" stroke-opacity="0.46" stroke-width="15"/>
<path d="M411.396 187.423C411.471 188.069 411.542 188.716 411.61 189.363" stroke="#DEDEF0" stroke-opacity="0.46" stroke-width="15"/>
<path d="M410.469 180.426C410.565 181.069 410.659 181.713 410.749 182.357" stroke="#DEDEF0" stroke-opacity="0.46" stroke-width="15"/>
<path d="M409.297 173.465C409.416 174.105 409.532 174.745 409.645 175.386" stroke="#DEDEF0" stroke-opacity="0.46" stroke-width="15"/>
<path d="M407.883 166.55C408.025 167.185 408.163 167.821 408.299 168.457" stroke="#DEDEF0" stroke-opacity="0.46" stroke-width="15"/>
<path d="M406.229 159.688C406.393 160.318 406.553 160.948 406.711 161.579" stroke="#DEDEF0" stroke-opacity="0.46" stroke-width="15"/>
<path d="M404.337 152.888C404.522 153.512 404.705 154.136 404.884 154.762" stroke="#DEDEF0" stroke-opacity="0.46" stroke-width="15"/>
<path d="M402.208 146.158C402.415 146.775 402.619 147.393 402.82 148.012" stroke="#DEDEF0" stroke-opacity="0.46" stroke-width="15"/>
<path d="M399.846 139.507C400.074 140.116 400.3 140.726 400.522 141.338" stroke="#DEDEF0" stroke-opacity="0.46" stroke-width="15"/>
<path d="M397.253 132.942C397.502 133.543 397.749 134.145 397.993 134.748" stroke="#DEDEF0" stroke-opacity="0.46" stroke-width="15"/>
<path d="M394.432 126.472C394.703 127.063 394.97 127.657 395.235 128.251" stroke="#DEDEF0" stroke-opacity="0.46" stroke-width="15"/>
<path d="M391.388 120.104C391.679 120.686 391.967 121.269 392.252 121.854" stroke="#DEDEF0" stroke-opacity="0.46" stroke-width="15"/>
<path d="M388.123 113.846C388.434 114.417 388.742 114.99 389.047 115.565" stroke="#DEDEF0" stroke-opacity="0.46" stroke-width="15"/>
<path d="M384.641 107.706C384.972 108.266 385.3 108.828 385.625 109.391" stroke="#DEDEF0" stroke-opacity="0.46" stroke-width="15"/>
<path d="M380.948 101.691C381.298 102.239 381.645 102.789 381.99 103.341" stroke="#DEDEF0" stroke-opacity="0.46" stroke-width="15"/>
<path d="M377.046 95.8086C377.415 96.3444 377.782 96.882 378.146 97.4214" stroke="#DEDEF0" stroke-opacity="0.46" stroke-width="15"/>
<path d="M372.942 90.066C373.33 90.5887 373.715 91.1132 374.097 91.6395" stroke="#DEDEF0" stroke-opacity="0.46" stroke-width="15"/>
<path d="M368.64 84.4701C369.046 84.979 369.449 85.4897 369.849 86.0024" stroke="#DEDEF0" stroke-opacity="0.46" stroke-width="15"/>
<path d="M364.146 79.0279C364.569 79.5222 364.989 80.0186 365.407 80.517" stroke="#DEDEF0" stroke-opacity="0.46" stroke-width="15"/>
<path d="M359.464 73.7458C359.904 74.225 360.341 74.7064 360.777 75.1899" stroke="#DEDEF0" stroke-opacity="0.46" stroke-width="15"/>
<path d="M354.6 68.6303C355.057 69.0939 355.511 69.5598 355.963 70.0278" stroke="#DEDEF0" stroke-opacity="0.46" stroke-width="15"/>
<path d="M349.561 63.6877C350.034 64.1351 350.504 64.5848 350.972 65.0368" stroke="#DEDEF0" stroke-opacity="0.46" stroke-width="15"/>
<path d="M344.353 58.9239C344.84 59.3545 345.326 59.7875 345.81 60.2229" stroke="#DEDEF0" stroke-opacity="0.46" stroke-width="15"/>
<path d="M338.981 54.3448C339.484 54.7582 339.984 55.174 340.483 55.5922" stroke="#DEDEF0" stroke-opacity="0.46" stroke-width="15"/>
<path d="M333.453 49.9559C333.97 50.3515 334.484 50.7496 334.997 51.1502" stroke="#DEDEF0" stroke-opacity="0.46" stroke-width="15"/>
<path d="M327.775 45.7627C328.305 46.14 328.834 46.5199 329.36 46.9023" stroke="#DEDEF0" stroke-opacity="0.46" stroke-width="15"/>
<path d="M321.955 41.7701C322.498 42.1287 323.039 42.4899 323.578 42.8538" stroke="#DEDEF0" stroke-opacity="0.46" stroke-width="15"/>
<path d="M315.998 37.9832C316.553 38.3226 317.107 38.6647 317.658 39.0095" stroke="#DEDEF0" stroke-opacity="0.46" stroke-width="15"/>
<path d="M309.913 34.4064C310.48 34.7262 311.045 35.0488 311.608 35.3741" stroke="#DEDEF0" stroke-opacity="0.46" stroke-width="15"/>
<path d="M303.707 31.0442C304.284 31.344 304.86 31.6467 305.435 31.9522" stroke="#DEDEF0" stroke-opacity="0.46" stroke-width="15"/>
<path d="M297.387 27.9006C297.975 28.1801 298.561 28.4625 299.146 28.7477" stroke="#DEDEF0" stroke-opacity="0.46" stroke-width="15"/>
<path d="M290.962 24.9794C291.559 25.2383 292.154 25.5001 292.749 25.7647" stroke="#DEDEF0" stroke-opacity="0.46" stroke-width="15"/>
<path d="M284.438 22.2843C285.044 22.5222 285.648 22.7631 286.251 23.0068" stroke="#DEDEF0" stroke-opacity="0.46" stroke-width="15"/>
<path d="M277.824 19.8185C278.438 20.0352 279.05 20.2547 279.662 20.4773" stroke="#DEDEF0" stroke-opacity="0.46" stroke-width="15"/>
<path d="M271.129 17.5851C271.749 17.7802 272.369 17.9782 272.988 18.1793" stroke="#DEDEF0" stroke-opacity="0.46" stroke-width="15"/>
<path d="M264.359 15.5867C264.986 15.76 265.613 15.9363 266.238 16.1156" stroke="#DEDEF0" stroke-opacity="0.46" stroke-width="15"/>
<path d="M257.524 13.8257C258.157 13.977 258.789 14.1313 259.42 14.2887" stroke="#DEDEF0" stroke-opacity="0.46" stroke-width="15"/>
<path d="M250.631 12.3044C251.269 12.4335 251.906 12.5657 252.543 12.701" stroke="#DEDEF0" stroke-opacity="0.46" stroke-width="15"/>
<path d="M243.69 11.0245C244.332 11.1313 244.973 11.2412 245.614 11.3541" stroke="#DEDEF0" stroke-opacity="0.46" stroke-width="15"/>
<path d="M236.708 9.98765C237.353 10.072 237.998 10.1594 238.642 10.25" stroke="#DEDEF0" stroke-opacity="0.46" stroke-width="15"/>
<path d="M229.694 9.19511C230.342 9.25687 230.989 9.32176 231.637 9.38976" stroke="#DEDEF0" stroke-opacity="0.46" stroke-width="15"/>
<path d="M222.657 8.64782C223.307 8.68694 223.956 8.72919 224.605 8.77458" stroke="#DEDEF0" stroke-opacity="0.46" stroke-width="15"/>
<path d="M215.605 8.34647C216.256 8.3629 216.906 8.38246 217.556 8.40517" stroke="#DEDEF0" stroke-opacity="0.46" stroke-width="15"/>
<path d="M208.547 8.2914C209.198 8.28512 209.848 8.28198 210.499 8.28198" stroke="#DEDEF0" stroke-opacity="0.46" stroke-width="15"/>
<path d="M201.491 8.4827C202.141 8.45372 202.791 8.42787 203.442 8.40517" stroke="#DEDEF0" stroke-opacity="0.46" stroke-width="15"/>
<path d="M194.446 8.92012C195.095 8.86847 195.744 8.81996 196.393 8.77457" stroke="#DEDEF0" stroke-opacity="0.46" stroke-width="15"/>
<path d="M187.421 9.60314C188.068 9.52889 188.714 9.45776 189.361 9.38975" stroke="#DEDEF0" stroke-opacity="0.46" stroke-width="15"/>
<path d="M180.424 10.5309C181.067 10.4342 181.711 10.3405 182.356 10.25" stroke="#DEDEF0" stroke-opacity="0.46" stroke-width="15"/>
<path d="M173.463 11.7014C174.103 11.5823 174.743 11.4662 175.384 11.3532" stroke="#DEDEF0" stroke-opacity="0.46" stroke-width="15"/>
<path d="M166.548 13.115C167.183 12.9736 167.819 12.8353 168.455 12.7" stroke="#DEDEF0" stroke-opacity="0.46" stroke-width="15"/>
<path d="M159.686 14.7691C160.316 14.6057 160.946 14.4452 161.578 14.2878" stroke="#DEDEF0" stroke-opacity="0.46" stroke-width="15"/>
<path d="M152.886 16.6617C153.51 16.4763 154.135 16.294 154.76 16.1146" stroke="#DEDEF0" stroke-opacity="0.46" stroke-width="15"/>
<path d="M146.157 18.7904C146.773 18.5834 147.391 18.3794 148.01 18.1783" stroke="#DEDEF0" stroke-opacity="0.46" stroke-width="15"/>
<path d="M139.505 21.1527C140.114 20.9243 140.725 20.6988 141.336 20.4763" stroke="#DEDEF0" stroke-opacity="0.46" stroke-width="15"/>
<path d="M132.94 23.7457C133.541 23.4962 134.143 23.2496 134.746 23.0058" stroke="#DEDEF0" stroke-opacity="0.46" stroke-width="15"/>
<path d="M126.47 26.5662C127.062 26.2959 127.655 26.0284 128.249 25.7638" stroke="#DEDEF0" stroke-opacity="0.46" stroke-width="15"/>
<path d="M120.102 29.6108C120.684 29.32 121.267 29.032 121.852 28.7468" stroke="#DEDEF0" stroke-opacity="0.46" stroke-width="15"/>
<path d="M113.844 32.8759C114.416 32.5649 114.989 32.2567 115.563 31.9512" stroke="#DEDEF0" stroke-opacity="0.46" stroke-width="15"/>
<path d="M107.704 36.3573C108.264 36.0265 108.826 35.6985 109.39 35.3732" stroke="#DEDEF0" stroke-opacity="0.46" stroke-width="15"/>
<path d="M101.689 40.0509C102.237 39.7008 102.788 39.3533 103.339 39.0086" stroke="#DEDEF0" stroke-opacity="0.46" stroke-width="15"/>
<path d="M95.8068 43.9521C96.3427 43.5831 96.8803 43.2166 97.4197 42.8528" stroke="#DEDEF0" stroke-opacity="0.46" stroke-width="15"/>
<path d="M90.0643 48.0562C90.5869 47.6687 91.1115 47.2838 91.6378 46.9013" stroke="#DEDEF0" stroke-opacity="0.46" stroke-width="15"/>
<path d="M84.4684 52.3583C84.9772 51.9528 85.488 51.5498 86.0007 51.1492" stroke="#DEDEF0" stroke-opacity="0.46" stroke-width="15"/>
<path d="M79.0262 56.853C79.5205 56.43 80.0169 56.0094 80.5153 55.5912" stroke="#DEDEF0" stroke-opacity="0.46" stroke-width="15"/>
<path d="M73.744 61.535C74.2233 61.095 74.7047 60.6573 75.1882 60.222" stroke="#DEDEF0" stroke-opacity="0.46" stroke-width="15"/>
<path d="M68.6286 66.3984C69.0922 65.9419 69.558 65.4877 70.026 65.0357" stroke="#DEDEF0" stroke-opacity="0.46" stroke-width="15"/>
<path d="M63.686 71.4373C64.1334 70.965 64.5831 70.4948 65.035 70.0268" stroke="#DEDEF0" stroke-opacity="0.46" stroke-width="15"/>
<path d="M58.9222 76.6458C59.3528 76.1581 59.7858 75.6725 60.2212 75.189" stroke="#DEDEF0" stroke-opacity="0.46" stroke-width="15"/>
<path d="M54.3431 82.0172C54.7565 81.5148 55.1723 81.0144 55.5905 80.516" stroke="#DEDEF0" stroke-opacity="0.46" stroke-width="15"/>
<path d="M49.9542 87.5453C50.3498 87.0288 50.7479 86.5141 51.1484 86.0015" stroke="#DEDEF0" stroke-opacity="0.46" stroke-width="15"/>
<path d="M45.761 93.2231C46.1383 92.6931 46.5182 92.1649 46.9006 91.6385" stroke="#DEDEF0" stroke-opacity="0.46" stroke-width="15"/>
<path d="M41.7684 99.0439C42.127 98.501 42.4882 97.9598 42.852 97.4205" stroke="#DEDEF0" stroke-opacity="0.46" stroke-width="15"/>
<path d="M37.9815 105C38.3209 104.445 38.663 103.892 39.0078 103.34" stroke="#DEDEF0" stroke-opacity="0.46" stroke-width="15"/>
<path d="M34.4047 111.085C34.7245 110.519 35.0471 109.954 35.3724 109.39" stroke="#DEDEF0" stroke-opacity="0.46" stroke-width="15"/>
<path d="M31.0424 117.292C31.3423 116.714 31.645 116.138 31.9504 115.564" stroke="#DEDEF0" stroke-opacity="0.46" stroke-width="15"/>
<path d="M27.8989 123.611C28.1784 123.024 28.4608 122.438 28.746 121.853" stroke="#DEDEF0" stroke-opacity="0.46" stroke-width="15"/>
<path d="M24.9777 130.037C25.2366 129.44 25.4983 128.844 25.763 128.25" stroke="#DEDEF0" stroke-opacity="0.46" stroke-width="15"/>
<path d="M22.2826 136.56C22.5205 135.955 22.7613 135.35 23.0051 134.747" stroke="#DEDEF0" stroke-opacity="0.46" stroke-width="15"/>
<path d="M19.8168 143.174C20.0334 142.561 20.253 141.948 20.4755 141.337" stroke="#DEDEF0" stroke-opacity="0.46" stroke-width="15"/>
<path d="M17.5834 149.87C17.7784 149.249 17.9765 148.629 18.1776 148.011" stroke="#DEDEF0" stroke-opacity="0.46" stroke-width="15"/>
<path d="M15.5849 156.639C15.7582 156.012 15.9346 155.386 16.1139 154.761" stroke="#DEDEF0" stroke-opacity="0.46" stroke-width="15"/>
<path d="M13.824 163.475C13.9753 162.842 14.1296 162.21 14.287 161.579" stroke="#DEDEF0" stroke-opacity="0.46" stroke-width="15"/>
<path d="M12.3026 170.367C12.4318 169.729 12.564 169.092 12.6992 168.456" stroke="#DEDEF0" stroke-opacity="0.46" stroke-width="15"/>
<path d="M11.0228 177.309C11.1296 176.667 11.2394 176.026 11.3524 175.385" stroke="#DEDEF0" stroke-opacity="0.46" stroke-width="15"/>
<path d="M9.98593 184.29C10.0703 183.645 10.1577 183.001 10.2482 182.356" stroke="#DEDEF0" stroke-opacity="0.46" stroke-width="15"/>
<path d="M9.19339 191.304C9.25515 190.656 9.32004 190.009 9.38805 189.362" stroke="#DEDEF0" stroke-opacity="0.46" stroke-width="15"/>
<path d="M8.6461 198.341C8.68522 197.692 8.72747 197.043 8.77286 196.394" stroke="#DEDEF0" stroke-opacity="0.46" stroke-width="15"/>
<path d="M8.34475 205.393C8.36118 204.743 8.38075 204.092 8.40345 203.442" stroke="#DEDEF0" stroke-opacity="0.46" stroke-width="15"/>
<path d="M8.28968 212.451C8.2834 211.801 8.28026 211.15 8.28026 210.5" stroke="#DEDEF0" stroke-opacity="0.46" stroke-width="15"/>
<path d="M8.48098 219.507C8.452 218.857 8.42616 218.207 8.40345 217.557" stroke="#DEDEF0" stroke-opacity="0.46" stroke-width="15"/>
<path d="M8.9184 226.552C8.86675 225.903 8.81824 225.255 8.77285 224.606" stroke="#DEDEF0" stroke-opacity="0.46" stroke-width="15"/>
<path d="M9.60142 233.577C9.52717 232.931 9.45604 232.284 9.38804 231.637" stroke="#DEDEF0" stroke-opacity="0.46" stroke-width="15"/>
<path d="M10.5292 240.574C10.4324 239.931 10.3388 239.287 10.2482 238.643" stroke="#DEDEF0" stroke-opacity="0.46" stroke-width="15"/>
<path d="M11.701 247.535C11.5818 246.895 11.4657 246.255 11.3527 245.614" stroke="#DEDEF0" stroke-opacity="0.46" stroke-width="15"/>
<path d="M13.1146 254.45C12.9732 253.815 12.8348 253.18 12.6996 252.543" stroke="#DEDEF0" stroke-opacity="0.46" stroke-width="15"/>
<path d="M14.7687 261.312C14.6052 260.683 14.4447 260.052 14.2873 259.421" stroke="#DEDEF0" stroke-opacity="0.46" stroke-width="15"/>
<path d="M16.6612 268.112C16.4759 267.489 16.2935 266.864 16.1142 266.239" stroke="#DEDEF0" stroke-opacity="0.46" stroke-width="15"/>
<path d="M18.79 274.842C18.583 274.225 18.3789 273.607 18.1779 272.989" stroke="#DEDEF0" stroke-opacity="0.46" stroke-width="15"/>
<path d="M21.1523 281.493C20.9238 280.884 20.6984 280.274 20.4758 279.662" stroke="#DEDEF0" stroke-opacity="0.46" stroke-width="15"/>
<path d="M23.7453 288.058C23.4957 287.457 23.2491 286.855 23.0054 286.252" stroke="#DEDEF0" stroke-opacity="0.46" stroke-width="15"/>
<path d="M26.5658 294.529C26.2954 293.937 26.0279 293.344 25.7633 292.749" stroke="#DEDEF0" stroke-opacity="0.46" stroke-width="15"/>
<path d="M29.6104 300.897C29.3195 300.315 29.0315 299.731 28.7463 299.146" stroke="#DEDEF0" stroke-opacity="0.46" stroke-width="15"/>
<path d="M32.8754 307.154C32.5644 306.583 32.2562 306.01 31.9508 305.435" stroke="#DEDEF0" stroke-opacity="0.46" stroke-width="15"/>
<path d="M36.3568 313.294C36.026 312.734 35.698 312.172 35.3727 311.609" stroke="#DEDEF0" stroke-opacity="0.46" stroke-width="15"/>
<path d="M40.0504 319.309C39.7003 318.761 39.3529 318.211 39.0081 317.659" stroke="#DEDEF0" stroke-opacity="0.46" stroke-width="15"/>
<path d="M43.9516 325.192C43.5826 324.656 43.2162 324.118 42.8523 323.579" stroke="#DEDEF0" stroke-opacity="0.46" stroke-width="15"/>
<path d="M48.0557 330.934C47.6682 330.412 47.2833 329.887 46.9009 329.361" stroke="#DEDEF0" stroke-opacity="0.46" stroke-width="15"/>
<path d="M52.3578 336.53C51.9523 336.021 51.5493 335.511 51.1487 334.998" stroke="#DEDEF0" stroke-opacity="0.46" stroke-width="15"/>
<path d="M56.8525 341.972C56.4295 341.478 56.0089 340.982 55.5907 340.483" stroke="#DEDEF0" stroke-opacity="0.46" stroke-width="15"/>
<path d="M61.5345 347.254C61.0945 346.775 60.6568 346.294 60.2215 345.81" stroke="#DEDEF0" stroke-opacity="0.46" stroke-width="15"/>
<path d="M66.3979 352.37C65.9414 351.906 65.4872 351.44 65.0353 350.972" stroke="#DEDEF0" stroke-opacity="0.46" stroke-width="15"/>
<path d="M71.4368 357.313C70.9645 356.865 70.4943 356.415 70.0263 355.963" stroke="#DEDEF0" stroke-opacity="0.46" stroke-width="15"/>
<path d="M76.6453 362.076C76.1576 361.646 75.672 361.213 75.1885 360.777" stroke="#DEDEF0" stroke-opacity="0.46" stroke-width="15"/>
<path d="M82.0167 366.655C81.5143 366.242 81.0139 365.826 80.5155 365.408" stroke="#DEDEF0" stroke-opacity="0.46" stroke-width="15"/>
<path d="M87.5448 371.044C87.0283 370.649 86.5137 370.251 86.001 369.85" stroke="#DEDEF0" stroke-opacity="0.46" stroke-width="15"/>
<path d="M93.2226 375.238C92.6926 374.86 92.1644 374.48 91.638 374.098" stroke="#DEDEF0" stroke-opacity="0.46" stroke-width="15"/>
<path d="M99.0434 379.23C98.5005 378.871 97.9594 378.51 97.42 378.146" stroke="#DEDEF0" stroke-opacity="0.46" stroke-width="15"/>
<path d="M105 383.017C104.445 382.678 103.891 382.335 103.34 381.991" stroke="#DEDEF0" stroke-opacity="0.46" stroke-width="15"/>
<path d="M111.085 386.594C110.518 386.274 109.953 385.951 109.39 385.626" stroke="#DEDEF0" stroke-opacity="0.46" stroke-width="15"/>
<path d="M117.291 389.956C116.714 389.656 116.138 389.353 115.563 389.048" stroke="#DEDEF0" stroke-opacity="0.46" stroke-width="15"/>
<path d="M123.611 393.1C123.023 392.82 122.437 392.538 121.852 392.252" stroke="#DEDEF0" stroke-opacity="0.46" stroke-width="15"/>
<path d="M130.036 396.021C129.439 395.762 128.844 395.5 128.249 395.236" stroke="#DEDEF0" stroke-opacity="0.46" stroke-width="15"/>
<path d="M136.56 398.716C135.954 398.478 135.35 398.237 134.747 397.993" stroke="#DEDEF0" stroke-opacity="0.46" stroke-width="15"/>
<path d="M143.174 401.182C142.56 400.965 141.948 400.745 141.336 400.523" stroke="#DEDEF0" stroke-opacity="0.46" stroke-width="15"/>
<path d="M149.869 403.415C149.249 403.22 148.629 403.022 148.01 402.821" stroke="#DEDEF0" stroke-opacity="0.46" stroke-width="15"/>
<path d="M156.639 405.414C156.012 405.24 155.386 405.064 154.76 404.885" stroke="#DEDEF0" stroke-opacity="0.46" stroke-width="15"/>
<path d="M163.474 407.175C162.841 407.023 162.209 406.869 161.578 406.711" stroke="#DEDEF0" stroke-opacity="0.46" stroke-width="15"/>
<path d="M170.367 408.696C169.729 408.567 169.092 408.435 168.456 408.299" stroke="#DEDEF0" stroke-opacity="0.46" stroke-width="15"/>
<path d="M177.308 409.976C176.666 409.869 176.025 409.759 175.384 409.646" stroke="#DEDEF0" stroke-opacity="0.46" stroke-width="15"/>
<path d="M184.29 411.013C183.645 410.928 183 410.841 182.356 410.75" stroke="#DEDEF0" stroke-opacity="0.46" stroke-width="15"/>
<path d="M191.304 411.805C190.656 411.743 190.009 411.678 189.362 411.61" stroke="#DEDEF0" stroke-opacity="0.46" stroke-width="15"/>
<path d="M198.341 412.352C197.691 412.313 197.042 412.271 196.393 412.226" stroke="#DEDEF0" stroke-opacity="0.46" stroke-width="15"/>
<path d="M205.393 412.654C204.742 412.637 204.092 412.618 203.442 412.595" stroke="#DEDEF0" stroke-opacity="0.46" stroke-width="15"/>
<path d="M212.451 412.709C211.8 412.715 211.15 412.718 210.499 412.718" stroke="#DEDEF0" stroke-opacity="0.46" stroke-width="15"/>
<path d="M219.507 412.518C218.857 412.547 218.207 412.572 217.556 412.595" stroke="#DEDEF0" stroke-opacity="0.46" stroke-width="15"/>
<path d="M226.552 412.08C225.903 412.132 225.254 412.18 224.605 412.226" stroke="#DEDEF0" stroke-opacity="0.46" stroke-width="15"/>
<path d="M233.577 411.397C232.931 411.471 232.284 411.542 231.637 411.61" stroke="#DEDEF0" stroke-opacity="0.46" stroke-width="15"/>
<path d="M240.574 410.469C239.931 410.566 239.287 410.66 238.643 410.75" stroke="#DEDEF0" stroke-opacity="0.46" stroke-width="15"/>
<path d="M247.535 409.298C246.895 409.417 246.255 409.533 245.614 409.646" stroke="#DEDEF0" stroke-opacity="0.46" stroke-width="15"/>
<path d="M254.45 407.884C253.815 408.025 253.179 408.164 252.543 408.299" stroke="#DEDEF0" stroke-opacity="0.46" stroke-width="15"/>
<path d="M261.312 406.23C260.682 406.393 260.052 406.554 259.42 406.711" stroke="#DEDEF0" stroke-opacity="0.46" stroke-width="15"/>
<path d="M268.112 404.337C267.488 404.523 266.864 404.705 266.238 404.884" stroke="#DEDEF0" stroke-opacity="0.46" stroke-width="15"/>
<path d="M274.842 402.209C274.225 402.416 273.607 402.62 272.988 402.821" stroke="#DEDEF0" stroke-opacity="0.46" stroke-width="15"/>
<path d="M281.493 399.846C280.884 400.075 280.273 400.3 279.662 400.523" stroke="#DEDEF0" stroke-opacity="0.46" stroke-width="15"/>
<path d="M288.058 397.253C287.457 397.503 286.855 397.749 286.252 397.993" stroke="#DEDEF0" stroke-opacity="0.46" stroke-width="15"/>
<path d="M294.528 394.433C293.936 394.703 293.343 394.971 292.749 395.235" stroke="#DEDEF0" stroke-opacity="0.46" stroke-width="15"/>
<path d="M300.896 391.388C300.314 391.679 299.731 391.967 299.146 392.252" stroke="#DEDEF0" stroke-opacity="0.46" stroke-width="15"/>
<path d="M307.154 388.123C306.582 388.434 306.009 388.742 305.435 389.048" stroke="#DEDEF0" stroke-opacity="0.46" stroke-width="15"/>
<path d="M313.294 384.642C312.734 384.972 312.172 385.301 311.608 385.626" stroke="#DEDEF0" stroke-opacity="0.46" stroke-width="15"/>
<path d="M319.309 380.948C318.761 381.298 318.21 381.646 317.659 381.99" stroke="#DEDEF0" stroke-opacity="0.46" stroke-width="15"/>
<path d="M325.191 377.047C324.655 377.416 324.118 377.782 323.578 378.146" stroke="#DEDEF0" stroke-opacity="0.46" stroke-width="15"/>
<path d="M330.934 372.943C330.411 373.33 329.887 373.715 329.36 374.098" stroke="#DEDEF0" stroke-opacity="0.46" stroke-width="15"/>
<path d="M336.53 368.641C336.021 369.046 335.51 369.449 334.997 369.85" stroke="#DEDEF0" stroke-opacity="0.46" stroke-width="15"/>
<path d="M341.972 364.146C341.477 364.569 340.981 364.99 340.483 365.408" stroke="#DEDEF0" stroke-opacity="0.46" stroke-width="15"/>
<path d="M347.254 359.464C346.775 359.904 346.293 360.342 345.81 360.777" stroke="#DEDEF0" stroke-opacity="0.46" stroke-width="15"/>
<path d="M352.369 354.601C351.906 355.057 351.44 355.511 350.972 355.963" stroke="#DEDEF0" stroke-opacity="0.46" stroke-width="15"/>
<path d="M357.312 349.562C356.865 350.034 356.415 350.504 355.963 350.972" stroke="#DEDEF0" stroke-opacity="0.46" stroke-width="15"/>
<path d="M362.076 344.353C361.645 344.841 361.212 345.327 360.777 345.81" stroke="#DEDEF0" stroke-opacity="0.46" stroke-width="15"/>
<path d="M366.655 338.982C366.242 339.484 365.826 339.985 365.408 340.483" stroke="#DEDEF0" stroke-opacity="0.46" stroke-width="15"/>
<path d="M371.044 333.454C370.648 333.97 370.25 334.485 369.85 334.998" stroke="#DEDEF0" stroke-opacity="0.46" stroke-width="15"/>
<path d="M375.237 327.776C374.86 328.306 374.48 328.834 374.097 329.361" stroke="#DEDEF0" stroke-opacity="0.46" stroke-width="15"/>
<path d="M379.23 321.955C378.871 322.498 378.51 323.039 378.146 323.579" stroke="#DEDEF0" stroke-opacity="0.46" stroke-width="15"/>
<path d="M383.017 315.999C382.677 316.554 382.335 317.107 381.99 317.659" stroke="#DEDEF0" stroke-opacity="0.46" stroke-width="15"/>
<path d="M386.593 309.914C386.274 310.48 385.951 311.045 385.626 311.609" stroke="#DEDEF0" stroke-opacity="0.46" stroke-width="15"/>
<path d="M389.956 303.707C389.656 304.285 389.353 304.861 389.048 305.435" stroke="#DEDEF0" stroke-opacity="0.46" stroke-width="15"/>
<path d="M393.099 297.388C392.82 297.975 392.537 298.561 392.252 299.146" stroke="#DEDEF0" stroke-opacity="0.46" stroke-width="15"/>
<path d="M396.02 290.962C395.761 291.559 395.5 292.155 395.235 292.749" stroke="#DEDEF0" stroke-opacity="0.46" stroke-width="15"/>
<path d="M398.715 284.439C398.478 285.044 398.237 285.649 397.993 286.252" stroke="#DEDEF0" stroke-opacity="0.46" stroke-width="15"/>
<path d="M401.181 277.825C400.965 278.438 400.745 279.051 400.522 279.662" stroke="#DEDEF0" stroke-opacity="0.46" stroke-width="15"/>
<path d="M403.415 271.129C403.22 271.75 403.022 272.37 402.82 272.988" stroke="#DEDEF0" stroke-opacity="0.46" stroke-width="15"/>
<path d="M405.413 264.36C405.24 264.987 405.063 265.613 404.884 266.238" stroke="#DEDEF0" stroke-opacity="0.46" stroke-width="15"/>
<path d="M407.174 257.524C407.023 258.157 406.868 258.789 406.711 259.42" stroke="#DEDEF0" stroke-opacity="0.46" stroke-width="15"/>
<path d="M408.695 250.632C408.566 251.27 408.434 251.907 408.299 252.543" stroke="#DEDEF0" stroke-opacity="0.46" stroke-width="15"/>
<path d="M409.975 243.69C409.868 244.332 409.759 244.974 409.646 245.614" stroke="#DEDEF0" stroke-opacity="0.46" stroke-width="15"/>
<path d="M411.012 236.709C410.928 237.354 410.84 237.998 410.75 238.643" stroke="#DEDEF0" stroke-opacity="0.46" stroke-width="15"/>
<path d="M411.805 229.695C411.743 230.343 411.678 230.99 411.61 231.637" stroke="#DEDEF0" stroke-opacity="0.46" stroke-width="15"/>
<path d="M412.352 222.658C412.313 223.307 412.271 223.956 412.225 224.605" stroke="#DEDEF0" stroke-opacity="0.46" stroke-width="15"/>
<path d="M412.653 215.606C412.637 216.256 412.617 216.907 412.595 217.557" stroke="#DEDEF0" stroke-opacity="0.46" stroke-width="15"/>
<circle cx="210.5" cy="210.5" r="180.539" stroke="#6D6AF2" stroke-opacity="0.1" stroke-width="7"/>
</svg>
