<svg width="335" height="335" viewBox="0 0 335 335" fill="none" xmlns="http://www.w3.org/2000/svg">
<g clip-path="url(#clip0_8_2)">
<path d="M167.5 1C123.076 0.999999 80.472 18.6473 49.0596 50.0596L108.28 109.28C123.986 93.5736 145.288 84.75 167.5 84.75V1Z" fill="url(#paint0_linear_8_2)"/>
<path d="M285.94 50.0596C254.528 18.6473 211.924 1 167.5 1V84.75C189.712 84.75 211.014 93.5736 226.72 109.28L285.94 50.0596Z" fill="url(#paint1_linear_8_2)"/>
<path d="M335 168.5C335 124.076 317.353 81.472 285.94 50.0596L226.72 109.28C242.426 124.986 251.25 146.288 251.25 168.5H335Z" fill="url(#paint2_linear_8_2)"/>
<path d="M285.94 286.94C317.353 255.528 335 212.924 335 168.5L251.25 168.5C251.25 190.712 242.426 212.014 226.72 227.72L285.94 286.94Z" fill="url(#paint3_linear_8_2)"/>
<path d="M167.5 336C211.924 336 254.528 318.353 285.94 286.94L226.72 227.72C211.014 243.426 189.712 252.25 167.5 252.25V336Z" fill="url(#paint4_linear_8_2)"/>
<path d="M49.0596 286.94C80.4719 318.353 123.076 336 167.5 336L167.5 252.25C145.288 252.25 123.986 243.426 108.28 227.72L49.0596 286.94Z" fill="url(#paint5_linear_8_2)"/>
<path d="M0 168.5C-3.88365e-06 212.924 17.6473 255.528 49.0596 286.94L108.28 227.72C92.5736 212.014 83.75 190.712 83.75 168.5L0 168.5Z" fill="url(#paint6_linear_8_2)"/>
<path d="M49.0596 50.0596C17.6473 81.472 3.88365e-06 124.076 0 168.5L83.75 168.5C83.75 146.288 92.5736 124.986 108.28 109.28L49.0596 50.0596Z" fill="url(#paint7_linear_8_2)"/>
<path d="M114.185 69.0341C110.51 70.5307 107.442 70.2943 104.458 69.1601L106.178 63.9677C108.417 64.7143 110.356 64.8924 112.134 64.1682C114.031 63.3958 114.783 62.0184 114.167 60.5069L114.143 60.4477C113.527 58.9362 111.921 58.554 110.113 59.2903C108.838 59.8093 107.952 60.6883 107.216 61.6793L103.023 61.1409L99.3433 50.4082L113.213 44.7597L115.144 49.5015L105.809 53.3034L106.91 56.5173C107.678 55.6865 108.535 54.9919 109.928 54.4246C113.632 52.9159 117.885 53.6025 119.72 58.1073L119.744 58.1665C121.615 62.7602 119.223 66.9823 114.185 69.0341ZM134.66 60.6955C128.762 63.0973 123.108 59.7336 120.718 53.8655L120.694 53.8062C118.304 47.9382 120.035 41.4978 125.933 39.0959C131.83 36.6941 137.485 40.0579 139.874 45.9259L139.898 45.9852C142.288 51.8532 140.587 58.2816 134.66 60.6955ZM132.643 55.5739C134.955 54.6325 135.483 51.6877 134.143 48.398L134.119 48.3388C132.768 45.0195 130.219 43.2586 127.937 44.1879C125.655 45.1173 125.097 48.0741 126.449 51.3934L126.473 51.4527C127.837 54.8016 130.361 56.5032 132.643 55.5739Z" fill="white"/>
<path d="M205.477 61.4103L212.018 45.936L208.191 45.2911L208.97 40.4089L215.735 41.2535L219.89 43.0102L211.107 63.79L205.477 61.4103Z" fill="white"/>
<path d="M273.951 125.45C272.284 121.431 272.562 118.093 273.962 115.122L279.076 117.261C278.194 119.394 277.963 121.257 278.76 123.178C279.447 124.833 280.679 125.465 281.95 124.938L282.009 124.913C283.339 124.361 283.659 122.878 282.739 120.661L281.733 118.237L284.387 116.2L290.635 119.151L287.361 111.26L292.001 109.334L298.194 124.26L294.116 125.953L287.811 122.783C288.388 126.008 287.755 129.077 284.209 130.549L284.15 130.573C279.982 132.302 275.852 130.032 273.951 125.45Z" fill="white"/>
<path d="M275.498 214.161C277.118 210.539 279.498 208.589 282.438 207.345L284.785 212.286C282.651 213.295 281.128 214.506 280.344 216.259C279.507 218.129 279.916 219.644 281.406 220.31L281.464 220.336C282.954 221.003 284.379 220.168 285.176 218.386C285.738 217.13 285.771 215.882 285.618 214.657L289.019 212.147L299.098 217.357L292.983 231.027L288.309 228.937L292.425 219.735L289.407 218.175C289.427 219.306 289.288 220.4 288.674 221.773C287.041 225.425 283.493 227.869 279.053 225.883L278.995 225.857C274.467 223.832 273.276 219.127 275.498 214.161Z" fill="white"/>
<path d="M211.296 278.511C216.156 276.212 220.734 276.984 222.403 280.513L222.43 280.571C223.594 283.03 223.048 285.094 221.287 287.059C223.244 287.231 225.089 287.987 226.129 290.185L226.156 290.243C227.689 293.483 225.745 297.305 221.203 299.454C216.662 301.602 212.444 300.694 210.912 297.454L210.884 297.396C209.844 295.198 210.401 293.306 211.568 291.657C209.076 291.703 206.988 290.956 205.825 288.497L205.798 288.439C204.073 284.795 206.436 280.81 211.296 278.511ZM217.153 290.891C215.648 291.603 215.088 293.036 215.69 294.309L215.717 294.367C216.251 295.495 217.655 296.07 219.246 295.317C220.779 294.592 221.255 293.128 220.721 292L220.694 291.942C220.092 290.669 218.657 290.18 217.153 290.891ZM213.28 282.705C211.4 283.594 210.851 285.128 211.44 286.372L211.467 286.43C212.11 287.79 213.707 288.096 215.442 287.275C217.178 286.454 217.953 285.026 217.31 283.666L217.283 283.608C216.694 282.364 215.16 281.816 213.28 282.705Z" fill="white"/>
<path d="M132.302 280.603L125.942 296.153L129.776 296.753L129.054 301.644L122.28 300.878L118.104 299.17L126.645 278.289L132.302 280.603ZM114.023 272.643C119.917 275.053 121.603 281.413 119.204 287.277L119.18 287.337C116.781 293.201 111.038 296.591 105.144 294.18C99.2504 291.769 97.5646 285.41 99.9634 279.545L99.9876 279.486C102.386 273.622 108.1 270.22 114.023 272.643ZM111.88 277.713C109.57 276.768 107.132 278.502 105.787 281.789L105.763 281.849C104.406 285.166 104.995 288.207 107.275 289.14C109.556 290.073 112.023 288.351 113.38 285.033L113.405 284.974C114.774 281.627 114.161 278.645 111.88 277.713Z" fill="white"/>
<path d="M63.9724 221.806L48.403 228.117L50.6519 231.28L46.6483 234.181L42.4638 228.799L40.7688 224.617L61.6763 216.142L63.9724 221.806ZM57.6329 204.975C59.1236 208.652 58.8823 211.72 57.7432 214.702L52.5535 212.973C53.3038 210.735 53.485 208.797 52.7637 207.018C51.9943 205.12 50.6182 204.365 49.1057 204.979L49.0464 205.003C47.5339 205.616 47.1492 207.222 47.8825 209.031C48.3994 210.306 49.277 211.193 50.2669 211.932L49.7217 216.123L38.9831 219.786L33.3569 205.907L38.1019 203.984L41.8887 213.325L45.1044 212.229C44.2748 211.46 43.5816 210.602 43.0165 209.208C41.5138 205.501 42.2073 201.249 46.715 199.422L46.7743 199.398C51.371 197.534 55.5892 199.933 57.6329 204.975Z" fill="white"/>
<path d="M54.7364 142.665L50.4262 140.862L47.7571 130.658C47.0541 128.109 46.4305 126.946 45.1611 126.415C43.8326 125.86 42.6527 126.442 42.06 127.859C41.4797 129.246 41.8494 130.684 43.0301 133.086L38.1946 135.607C36.2867 132.208 35.6186 129.327 37.2856 125.341C39.1625 120.854 43.1579 118.849 47.0547 120.478L47.1138 120.503C50.4202 121.886 51.4163 124.315 52.3462 128.311L53.3442 132.891L56.9128 124.359L61.5772 126.31L54.7364 142.665ZM66.1892 116.445C64.658 120.106 62.3266 122.113 59.4178 123.429L56.9506 118.547C59.0591 117.486 60.5525 116.238 61.2934 114.466C62.0837 112.577 61.6378 111.072 60.1322 110.443L60.0731 110.418C58.5675 109.788 57.1632 110.658 56.41 112.459C55.879 113.728 55.8773 114.976 56.0603 116.197L52.7213 118.789L42.5177 113.828L48.2966 100.012L53.02 101.987L49.1304 111.287L52.1856 112.773C52.1379 111.643 52.2502 110.545 52.8305 109.158C54.374 105.467 57.8606 102.937 62.3479 104.814L62.4069 104.838C66.9827 106.752 68.2884 111.426 66.1892 116.445Z" fill="white"/>
</g>
<defs>
<linearGradient id="paint0_linear_8_2" x1="93.5" y1="18.5" x2="124" y2="91.5" gradientUnits="userSpaceOnUse">
<stop stop-color="#A55624"/>
<stop offset="1" stop-color="#E79F46"/>
</linearGradient>
<linearGradient id="paint1_linear_8_2" x1="220.5" y1="8.5" x2="197.5" y2="88.5" gradientUnits="userSpaceOnUse">
<stop stop-color="#822722"/>
<stop offset="1" stop-color="#CF4C46"/>
</linearGradient>
<linearGradient id="paint2_linear_8_2" x1="320" y1="96.5" x2="244.5" y2="137" gradientUnits="userSpaceOnUse">
<stop stop-color="#2E355E"/>
<stop offset="1" stop-color="#394782"/>
</linearGradient>
<linearGradient id="paint3_linear_8_2" x1="321" y1="233" x2="245" y2="197.5" gradientUnits="userSpaceOnUse">
<stop stop-color="#34475D"/>
<stop offset="1" stop-color="#487173"/>
</linearGradient>
<linearGradient id="paint4_linear_8_2" x1="191" y1="249.5" x2="229" y2="322.5" gradientUnits="userSpaceOnUse">
<stop stop-color="#5DA752"/>
<stop offset="1" stop-color="#467A3F"/>
</linearGradient>
<linearGradient id="paint5_linear_8_2" x1="134.5" y1="244.5" x2="102.5" y2="322.5" gradientUnits="userSpaceOnUse">
<stop stop-color="#8C41B3"/>
<stop offset="1" stop-color="#4E326B"/>
</linearGradient>
<linearGradient id="paint6_linear_8_2" x1="12.5" y1="229" x2="91.5" y2="203.5" gradientUnits="userSpaceOnUse">
<stop stop-color="#34485D"/>
<stop offset="1" stop-color="#477173"/>
</linearGradient>
<linearGradient id="paint7_linear_8_2" x1="16.5" y1="101" x2="90.5" y2="140" gradientUnits="userSpaceOnUse">
<stop stop-color="#A42B98"/>
<stop offset="1" stop-color="#EE57DF"/>
</linearGradient>
<clipPath id="clip0_8_2">
<rect width="335" height="335" fill="white"/>
</clipPath>
</defs>
</svg>
