<svg width="420" height="420" viewBox="0 0 420 420" fill="none" xmlns="http://www.w3.org/2000/svg">
<path d="M411.928 207.768C411.934 208.419 411.937 209.069 411.937 209.72" stroke="#333660" stroke-width="15"/>
<path d="M411.736 200.712C411.765 201.362 411.791 202.012 411.814 202.663" stroke="#333660" stroke-width="15"/>
<path d="M411.299 193.667C411.351 194.316 411.399 194.965 411.445 195.614" stroke="#333660" stroke-width="15"/>
<path d="M410.616 186.642C410.69 187.289 410.761 187.935 410.829 188.582" stroke="#333660" stroke-width="15"/>
<path d="M409.688 179.645C409.785 180.288 409.879 180.932 409.969 181.576" stroke="#333660" stroke-width="15"/>
<path d="M408.517 172.684C408.636 173.324 408.752 173.964 408.865 174.605" stroke="#333660" stroke-width="15"/>
<path d="M407.103 165.769C407.245 166.404 407.383 167.04 407.518 167.676" stroke="#333660" stroke-width="15"/>
<path d="M405.449 158.907C405.613 159.537 405.773 160.168 405.93 160.799" stroke="#333660" stroke-width="15"/>
<path d="M403.557 152.107C403.742 152.731 403.924 153.356 404.104 153.981" stroke="#333660" stroke-width="15"/>
<path d="M401.428 145.378C401.635 145.994 401.839 146.612 402.04 147.231" stroke="#333660" stroke-width="15"/>
<path d="M399.066 138.726C399.294 139.335 399.519 139.946 399.742 140.557" stroke="#333660" stroke-width="15"/>
<path d="M396.473 132.161C396.722 132.762 396.969 133.364 397.212 133.967" stroke="#333660" stroke-width="15"/>
<path d="M393.652 125.691C393.922 126.283 394.19 126.876 394.454 127.47" stroke="#333660" stroke-width="15"/>
<path d="M390.607 119.323C390.898 119.905 391.186 120.488 391.472 121.073" stroke="#333660" stroke-width="15"/>
<path d="M387.342 113.065C387.653 113.637 387.962 114.21 388.267 114.784" stroke="#333660" stroke-width="15"/>
<path d="M383.861 106.925C384.192 107.485 384.52 108.047 384.845 108.611" stroke="#333660" stroke-width="15"/>
<path d="M380.167 100.91C380.517 101.459 380.865 102.009 381.21 102.56" stroke="#333660" stroke-width="15"/>
<path d="M376.266 95.0278C376.635 95.5637 377.002 96.1013 377.365 96.6407" stroke="#333660" stroke-width="15"/>
<path d="M372.162 89.2853C372.55 89.808 372.935 90.3325 373.317 90.8588" stroke="#333660" stroke-width="15"/>
<path d="M367.86 83.6894C368.265 84.1983 368.668 84.709 369.069 85.2217" stroke="#333660" stroke-width="15"/>
<path d="M363.365 78.2472C363.788 78.7415 364.209 79.2379 364.627 79.7363" stroke="#333660" stroke-width="15"/>
<path d="M358.683 72.9651C359.123 73.4443 359.561 73.9257 359.996 74.4092" stroke="#333660" stroke-width="15"/>
<path d="M353.82 67.8496C354.276 68.3132 354.731 68.7791 355.183 69.2471" stroke="#333660" stroke-width="15"/>
<path d="M348.781 62.907C349.253 63.3544 349.723 63.8041 350.192 64.2561" stroke="#333660" stroke-width="15"/>
<path d="M343.572 58.1432C344.06 58.5738 344.546 59.0068 345.029 59.4422" stroke="#333660" stroke-width="15"/>
<path d="M338.201 53.5641C338.703 53.9775 339.204 54.3933 339.702 54.8115" stroke="#333660" stroke-width="15"/>
<path d="M332.673 49.1752C333.189 49.5708 333.704 49.9689 334.217 50.3695" stroke="#333660" stroke-width="15"/>
<path d="M326.995 44.982C327.525 45.3593 328.053 45.7392 328.58 46.1216" stroke="#333660" stroke-width="15"/>
<path d="M321.174 40.9894C321.717 41.348 322.258 41.7092 322.798 42.0731" stroke="#333660" stroke-width="15"/>
<path d="M315.218 37.2025C315.773 37.5419 316.326 37.884 316.878 38.2288" stroke="#333660" stroke-width="15"/>
<path d="M309.133 33.6257C309.699 33.9455 310.264 34.2681 310.828 34.5934" stroke="#333660" stroke-width="15"/>
<path d="M302.927 30.2635C303.504 30.5633 304.08 30.866 304.654 31.1715" stroke="#333660" stroke-width="15"/>
<path d="M296.607 27.1199C297.195 27.3994 297.781 27.6818 298.365 27.967" stroke="#333660" stroke-width="15"/>
<path d="M290.181 24.1987C290.778 24.4576 291.374 24.7194 291.968 24.984" stroke="#333660" stroke-width="15"/>
<path d="M283.658 21.5036C284.263 21.7415 284.868 21.9824 285.471 22.2261" stroke="#333660" stroke-width="15"/>
<path d="M277.044 19.0378C277.658 19.2545 278.27 19.474 278.881 19.6966" stroke="#333660" stroke-width="15"/>
<path d="M270.348 16.8044C270.969 16.9995 271.589 17.1975 272.208 17.3986" stroke="#333660" stroke-width="15"/>
<path d="M263.579 14.806C264.206 14.9793 264.832 15.1556 265.458 15.3349" stroke="#333660" stroke-width="15"/>
<path d="M256.744 13.045C257.376 13.1963 258.008 13.3506 258.64 13.508" stroke="#333660" stroke-width="15"/>
<path d="M249.851 11.5237C250.489 11.6528 251.126 11.785 251.762 11.9203" stroke="#333660" stroke-width="15"/>
<path d="M242.91 10.2438C243.551 10.3506 244.193 10.4605 244.833 10.5734" stroke="#333660" stroke-width="15"/>
<path d="M235.928 9.20695C236.573 9.29128 237.218 9.37872 237.862 9.46926" stroke="#333660" stroke-width="15"/>
<path d="M228.914 8.41441C229.562 8.47617 230.209 8.54106 230.856 8.60906" stroke="#333660" stroke-width="15"/>
<path d="M221.877 7.86712C222.526 7.90624 223.176 7.94849 223.825 7.99388" stroke="#333660" stroke-width="15"/>
<path d="M214.825 7.56577C215.475 7.5822 216.126 7.60176 216.776 7.62447" stroke="#333660" stroke-width="15"/>
<path d="M207.767 7.5107C208.417 7.50442 209.068 7.50128 209.719 7.50128" stroke="#333660" stroke-width="15"/>
<path d="M200.711 7.702C201.361 7.67302 202.011 7.64717 202.661 7.62447" stroke="#333660" stroke-width="15"/>
<path d="M193.666 8.13942C194.315 8.08777 194.964 8.03925 195.613 7.99387" stroke="#333660" stroke-width="15"/>
<path d="M186.641 8.82244C187.287 8.74819 187.934 8.67706 188.581 8.60905" stroke="#333660" stroke-width="15"/>
<path d="M179.644 9.75022C180.287 9.65345 180.931 9.5598 181.575 9.46925" stroke="#333660" stroke-width="15"/>
<path d="M172.683 10.9208C173.323 10.8016 173.963 10.6856 174.604 10.5726" stroke="#333660" stroke-width="15"/>
<path d="M165.768 12.3344C166.403 12.193 167.039 12.0547 167.675 11.9194" stroke="#333660" stroke-width="15"/>
<path d="M158.906 13.9885C159.536 13.825 160.167 13.6646 160.798 13.5072" stroke="#333660" stroke-width="15"/>
<path d="M152.106 15.8811C152.73 15.6957 153.355 15.5133 153.98 15.334" stroke="#333660" stroke-width="15"/>
<path d="M145.377 18.0098C145.993 17.8028 146.611 17.5988 147.23 17.3977" stroke="#333660" stroke-width="15"/>
<path d="M138.725 20.3721C139.334 20.1437 139.945 19.9182 140.556 19.6957" stroke="#333660" stroke-width="15"/>
<path d="M132.16 22.9651C132.761 22.7156 133.363 22.4689 133.967 22.2252" stroke="#333660" stroke-width="15"/>
<path d="M125.69 25.7856C126.282 25.5152 126.875 25.2478 127.469 24.9831" stroke="#333660" stroke-width="15"/>
<path d="M119.322 28.8302C119.904 28.5394 120.487 28.2513 121.072 27.9661" stroke="#333660" stroke-width="15"/>
<path d="M113.064 32.0952C113.636 31.7842 114.209 31.476 114.783 31.1706" stroke="#333660" stroke-width="15"/>
<path d="M106.924 35.5766C107.484 35.2459 108.046 34.9179 108.61 34.5925" stroke="#333660" stroke-width="15"/>
<path d="M100.909 39.2702C101.458 38.9201 102.008 38.5727 102.559 38.2279" stroke="#333660" stroke-width="15"/>
<path d="M95.0269 43.1714C95.5628 42.8024 96.1004 42.436 96.6398 42.0722" stroke="#333660" stroke-width="15"/>
<path d="M89.2844 47.2756C89.807 46.8881 90.3315 46.5031 90.8579 46.1207" stroke="#333660" stroke-width="15"/>
<path d="M83.6885 51.5777C84.1973 51.1722 84.7081 50.7691 85.2208 50.3686" stroke="#333660" stroke-width="15"/>
<path d="M78.2463 56.0724C78.7406 55.6494 79.237 55.2288 79.7354 54.8105" stroke="#333660" stroke-width="15"/>
<path d="M72.9641 60.7543C73.4434 60.3143 73.9248 59.8767 74.4083 59.4413" stroke="#333660" stroke-width="15"/>
<path d="M67.8487 65.6177C68.3123 65.1613 68.7781 64.7071 69.2461 64.2551" stroke="#333660" stroke-width="15"/>
<path d="M62.9061 70.6567C63.3535 70.1843 63.8032 69.7141 64.2551 69.2461" stroke="#333660" stroke-width="15"/>
<path d="M58.1422 75.8651C58.5729 75.3774 59.0059 74.8918 59.4413 74.4083" stroke="#333660" stroke-width="15"/>
<path d="M53.5632 81.2366C53.9766 80.7342 54.3924 80.2338 54.8106 79.7354" stroke="#333660" stroke-width="15"/>
<path d="M49.1743 86.7647C49.5699 86.2481 49.968 85.7335 50.3685 85.2208" stroke="#333660" stroke-width="15"/>
<path d="M44.9811 92.4425C45.3584 91.9124 45.7383 91.3842 46.1207 90.8579" stroke="#333660" stroke-width="15"/>
<path d="M40.9885 98.2632C41.3471 97.7203 41.7083 97.1792 42.0721 96.6398" stroke="#333660" stroke-width="15"/>
<path d="M37.2016 104.22C37.541 103.665 37.8831 103.111 38.2279 102.559" stroke="#333660" stroke-width="15"/>
<path d="M33.6248 110.305C33.9446 109.738 34.2672 109.173 34.5925 108.61" stroke="#333660" stroke-width="15"/>
<path d="M30.2625 116.511C30.5624 115.934 30.8651 115.358 31.1705 114.783" stroke="#333660" stroke-width="15"/>
<path d="M27.119 122.831C27.3985 122.243 27.6809 121.657 27.9661 121.072" stroke="#333660" stroke-width="15"/>
<path d="M24.1978 129.256C24.4567 128.659 24.7184 128.064 24.9831 127.469" stroke="#333660" stroke-width="15"/>
<path d="M21.5027 135.78C21.7406 135.174 21.9814 134.57 22.2251 133.967" stroke="#333660" stroke-width="15"/>
<path d="M19.0369 142.394C19.2535 141.78 19.4731 141.168 19.6956 140.556" stroke="#333660" stroke-width="15"/>
<path d="M16.8035 149.089C16.9985 148.469 17.1966 147.849 17.3976 147.23" stroke="#333660" stroke-width="15"/>
<path d="M14.805 155.859C14.9783 155.232 15.1546 154.605 15.334 153.98" stroke="#333660" stroke-width="15"/>
<path d="M13.0441 162.694C13.1954 162.061 13.3497 161.429 13.5071 160.798" stroke="#333660" stroke-width="15"/>
<path d="M11.5227 169.586C11.6519 168.949 11.7841 168.312 11.9193 167.675" stroke="#333660" stroke-width="15"/>
<path d="M10.2429 176.528C10.3496 175.886 10.4595 175.245 10.5725 174.604" stroke="#333660" stroke-width="15"/>
<path d="M9.20603 183.51C9.29035 182.865 9.37779 182.22 9.46834 181.576" stroke="#333660" stroke-width="15"/>
<path d="M8.41349 190.523C8.47525 189.876 8.54013 189.228 8.60814 188.581" stroke="#333660" stroke-width="15"/>
<path d="M7.8662 197.561C7.90532 196.911 7.94757 196.262 7.99295 195.613" stroke="#333660" stroke-width="15"/>
<path d="M7.56484 204.613C7.58127 203.962 7.60084 203.312 7.62354 202.662" stroke="#333660" stroke-width="15"/>
<path d="M7.50978 211.671C7.5035 211.02 7.50036 210.37 7.50036 209.719" stroke="#333660" stroke-width="15"/>
<path d="M7.70107 218.727C7.67209 218.077 7.64625 217.427 7.62354 216.776" stroke="#333660" stroke-width="15"/>
<path d="M8.13849 225.771C8.08685 225.123 8.03833 224.474 7.99295 223.825" stroke="#333660" stroke-width="15"/>
<path d="M8.82152 232.797C8.74727 232.15 8.67614 231.504 8.60813 230.857" stroke="#333660" stroke-width="15"/>
<path d="M9.74929 239.794C9.65253 239.15 9.55887 238.507 9.46833 237.862" stroke="#333660" stroke-width="15"/>
<path d="M10.9207 246.754C10.8015 246.115 10.6855 245.475 10.5725 244.834" stroke="#333660" stroke-width="15"/>
<path d="M12.3343 253.67C12.1929 253.035 12.0546 252.399 11.9193 251.763" stroke="#333660" stroke-width="15"/>
<path d="M13.9884 260.532C13.8249 259.902 13.6645 259.271 13.5071 258.64" stroke="#333660" stroke-width="15"/>
<path d="M15.881 267.332C15.6956 266.708 15.5132 266.083 15.3339 265.458" stroke="#333660" stroke-width="15"/>
<path d="M18.0097 274.061C17.8027 273.445 17.5986 272.827 17.3976 272.208" stroke="#333660" stroke-width="15"/>
<path d="M20.372 280.713C20.1436 280.103 19.9181 279.493 19.6956 278.882" stroke="#333660" stroke-width="15"/>
<path d="M22.965 287.278C22.7155 286.677 22.4688 286.075 22.2251 285.471" stroke="#333660" stroke-width="15"/>
<path d="M25.7855 293.748C25.5151 293.156 25.2476 292.563 24.983 291.969" stroke="#333660" stroke-width="15"/>
<path d="M28.8301 300.116C28.5393 299.534 28.2512 298.95 27.966 298.366" stroke="#333660" stroke-width="15"/>
<path d="M32.0951 306.374C31.7841 305.802 31.4759 305.229 31.1705 304.655" stroke="#333660" stroke-width="15"/>
<path d="M35.5765 312.514C35.2458 311.954 34.9177 311.392 34.5924 310.828" stroke="#333660" stroke-width="15"/>
<path d="M39.2701 318.529C38.92 317.98 38.5726 317.43 38.2278 316.879" stroke="#333660" stroke-width="15"/>
<path d="M43.1713 324.411C42.8023 323.875 42.4359 323.338 42.0721 322.798" stroke="#333660" stroke-width="15"/>
<path d="M47.2754 330.154C46.888 329.631 46.503 329.106 46.1206 328.58" stroke="#333660" stroke-width="15"/>
<path d="M51.5775 335.749C51.1721 335.241 50.769 334.73 50.3685 334.217" stroke="#333660" stroke-width="15"/>
<path d="M56.0723 341.192C55.6493 340.697 55.2286 340.201 54.8104 339.703" stroke="#333660" stroke-width="15"/>
<path d="M60.7542 346.474C60.3142 345.995 59.8765 345.513 59.4412 345.03" stroke="#333660" stroke-width="15"/>
<path d="M65.6176 351.589C65.1612 351.126 64.7069 350.66 64.255 350.192" stroke="#333660" stroke-width="15"/>
<path d="M70.6566 356.532C70.1842 356.084 69.714 355.635 69.246 355.183" stroke="#333660" stroke-width="15"/>
<path d="M75.865 361.296C75.3773 360.865 74.8917 360.432 74.4082 359.997" stroke="#333660" stroke-width="15"/>
<path d="M81.2365 365.875C80.7341 365.461 80.2336 365.046 79.7352 364.627" stroke="#333660" stroke-width="15"/>
<path d="M86.7645 370.264C86.248 369.868 85.7334 369.47 85.2207 369.069" stroke="#333660" stroke-width="15"/>
<path d="M92.4423 374.457C91.9123 374.08 91.3841 373.7 90.8578 373.317" stroke="#333660" stroke-width="15"/>
<path d="M98.2631 378.449C97.7202 378.091 97.1791 377.73 96.6397 377.366" stroke="#333660" stroke-width="15"/>
<path d="M104.22 382.236C103.665 381.897 103.111 381.555 102.559 381.21" stroke="#333660" stroke-width="15"/>
<path d="M110.305 385.813C109.738 385.493 109.173 385.171 108.61 384.845" stroke="#333660" stroke-width="15"/>
<path d="M116.511 389.175C115.933 388.876 115.357 388.573 114.783 388.267" stroke="#333660" stroke-width="15"/>
<path d="M122.83 392.319C122.243 392.039 121.657 391.757 121.072 391.472" stroke="#333660" stroke-width="15"/>
<path d="M129.256 395.24C128.659 394.981 128.064 394.72 127.469 394.455" stroke="#333660" stroke-width="15"/>
<path d="M135.78 397.935C135.174 397.697 134.57 397.457 133.966 397.213" stroke="#333660" stroke-width="15"/>
<path d="M142.393 400.401C141.78 400.184 141.167 399.965 140.556 399.742" stroke="#333660" stroke-width="15"/>
<path d="M149.089 402.634C148.468 402.439 147.849 402.241 147.23 402.04" stroke="#333660" stroke-width="15"/>
<path d="M155.859 404.633C155.232 404.46 154.605 404.283 153.98 404.104" stroke="#333660" stroke-width="15"/>
<path d="M162.694 406.394C162.061 406.243 161.429 406.088 160.798 405.931" stroke="#333660" stroke-width="15"/>
<path d="M169.586 407.915C168.949 407.786 168.312 407.654 167.675 407.519" stroke="#333660" stroke-width="15"/>
<path d="M176.528 409.195C175.886 409.088 175.245 408.978 174.604 408.865" stroke="#333660" stroke-width="15"/>
<path d="M183.51 410.232C182.864 410.148 182.22 410.06 181.575 409.97" stroke="#333660" stroke-width="15"/>
<path d="M190.523 411.024C189.876 410.963 189.228 410.898 188.581 410.83" stroke="#333660" stroke-width="15"/>
<path d="M197.561 411.572C196.911 411.533 196.262 411.49 195.613 411.445" stroke="#333660" stroke-width="15"/>
<path d="M204.612 411.873C203.962 411.857 203.312 411.837 202.662 411.814" stroke="#333660" stroke-width="15"/>
<path d="M211.671 411.928C211.02 411.934 210.37 411.938 209.719 411.938" stroke="#333660" stroke-width="15"/>
<path d="M218.726 411.737C218.077 411.766 217.426 411.792 216.776 411.814" stroke="#333660" stroke-width="15"/>
<path d="M225.771 411.299C225.123 411.351 224.474 411.4 223.825 411.445" stroke="#333660" stroke-width="15"/>
<path d="M232.797 410.616C232.15 410.691 231.504 410.762 230.856 410.83" stroke="#333660" stroke-width="15"/>
<path d="M239.794 409.689C239.15 409.785 238.507 409.879 237.862 409.97" stroke="#333660" stroke-width="15"/>
<path d="M246.754 408.517C246.115 408.636 245.474 408.752 244.834 408.865" stroke="#333660" stroke-width="15"/>
<path d="M253.67 407.103C253.035 407.245 252.399 407.383 251.763 407.518" stroke="#333660" stroke-width="15"/>
<path d="M260.532 405.449C259.902 405.613 259.271 405.773 258.64 405.93" stroke="#333660" stroke-width="15"/>
<path d="M267.331 403.557C266.708 403.742 266.083 403.924 265.458 404.104" stroke="#333660" stroke-width="15"/>
<path d="M274.061 401.428C273.444 401.635 272.827 401.839 272.208 402.04" stroke="#333660" stroke-width="15"/>
<path d="M280.713 399.066C280.103 399.294 279.493 399.519 278.882 399.742" stroke="#333660" stroke-width="15"/>
<path d="M287.277 396.473C286.677 396.722 286.075 396.969 285.471 397.212" stroke="#333660" stroke-width="15"/>
<path d="M293.748 393.652C293.156 393.922 292.563 394.19 291.969 394.455" stroke="#333660" stroke-width="15"/>
<path d="M300.116 390.607C299.534 390.898 298.95 391.186 298.366 391.472" stroke="#333660" stroke-width="15"/>
<path d="M306.374 387.342C305.802 387.653 305.229 387.962 304.655 388.267" stroke="#333660" stroke-width="15"/>
<path d="M312.514 383.861C311.953 384.192 311.392 384.52 310.828 384.845" stroke="#333660" stroke-width="15"/>
<path d="M318.529 380.167C317.98 380.518 317.43 380.865 316.878 381.21" stroke="#333660" stroke-width="15"/>
<path d="M324.411 376.266C323.875 376.635 323.337 377.002 322.798 377.365" stroke="#333660" stroke-width="15"/>
<path d="M330.153 372.162C329.631 372.55 329.106 372.935 328.58 373.317" stroke="#333660" stroke-width="15"/>
<path d="M335.749 367.86C335.241 368.265 334.73 368.669 334.217 369.069" stroke="#333660" stroke-width="15"/>
<path d="M341.192 363.365C340.697 363.788 340.201 364.209 339.702 364.627" stroke="#333660" stroke-width="15"/>
<path d="M346.474 358.683C345.994 359.123 345.513 359.561 345.03 359.996" stroke="#333660" stroke-width="15"/>
<path d="M351.589 353.82C351.126 354.276 350.66 354.731 350.192 355.183" stroke="#333660" stroke-width="15"/>
<path d="M356.532 348.781C356.084 349.253 355.635 349.724 355.183 350.192" stroke="#333660" stroke-width="15"/>
<path d="M361.296 343.573C360.865 344.06 360.432 344.546 359.997 345.029" stroke="#333660" stroke-width="15"/>
<path d="M365.875 338.201C365.461 338.703 365.045 339.204 364.627 339.702" stroke="#333660" stroke-width="15"/>
<path d="M370.264 332.673C369.868 333.19 369.47 333.704 369.069 334.217" stroke="#333660" stroke-width="15"/>
<path d="M374.457 326.995C374.079 327.525 373.7 328.053 373.317 328.58" stroke="#333660" stroke-width="15"/>
<path d="M378.449 321.174C378.091 321.717 377.73 322.258 377.366 322.798" stroke="#333660" stroke-width="15"/>
<path d="M382.236 315.218C381.897 315.773 381.555 316.326 381.21 316.878" stroke="#333660" stroke-width="15"/>
<path d="M385.813 309.133C385.493 309.699 385.171 310.264 384.845 310.828" stroke="#333660" stroke-width="15"/>
<path d="M389.175 302.927C388.875 303.504 388.573 304.08 388.267 304.655" stroke="#333660" stroke-width="15"/>
<path d="M392.319 296.607C392.039 297.195 391.757 297.781 391.472 298.365" stroke="#333660" stroke-width="15"/>
<path d="M395.24 290.181C394.981 290.778 394.719 291.374 394.455 291.968" stroke="#333660" stroke-width="15"/>
<path d="M397.935 283.658C397.697 284.263 397.456 284.868 397.213 285.471" stroke="#333660" stroke-width="15"/>
<path d="M400.401 277.044C400.184 277.658 399.965 278.27 399.742 278.881" stroke="#333660" stroke-width="15"/>
<path d="M402.634 270.348C402.439 270.969 402.241 271.589 402.04 272.208" stroke="#333660" stroke-width="15"/>
<path d="M404.633 263.579C404.46 264.206 404.283 264.832 404.104 265.458" stroke="#333660" stroke-width="15"/>
<path d="M406.394 256.744C406.242 257.376 406.088 258.008 405.931 258.64" stroke="#333660" stroke-width="15"/>
<path d="M407.915 249.851C407.786 250.489 407.654 251.126 407.519 251.762" stroke="#333660" stroke-width="15"/>
<path d="M409.195 242.91C409.088 243.552 408.978 244.193 408.865 244.834" stroke="#333660" stroke-width="15"/>
<path d="M410.232 235.928C410.147 236.573 410.06 237.218 409.97 237.862" stroke="#333660" stroke-width="15"/>
<path d="M411.024 228.914C410.963 229.562 410.898 230.209 410.83 230.856" stroke="#333660" stroke-width="15"/>
<path d="M411.572 221.877C411.533 222.526 411.49 223.176 411.445 223.825" stroke="#333660" stroke-width="15"/>
<path d="M411.873 214.825C411.857 215.475 411.837 216.126 411.814 216.776" stroke="#333660" stroke-width="15"/>
<circle cx="209.72" cy="209.719" r="180.539" stroke="#6D6AF2" stroke-opacity="0.1" stroke-width="7"/>
</svg>
