<svg width="74" height="110" viewBox="0 0 74 110" fill="none" xmlns="http://www.w3.org/2000/svg">
<path d="M2.5 2.5H71.3806V88.7985L36.9403 107.167L2.5 88.7985V2.5Z" stroke="url(#paint0_linear)" stroke-width="5"/>
<path d="M12.3135 45.1492L36.5615 54.2422L60.8095 45.1492V60.3042L36.5615 69.776L12.3135 60.3042V45.1492Z" fill="url(#paint1_linear)"/>
<path d="M12.3135 69.7761L36.5615 78.8691L60.8095 69.7761V84.9311L36.5615 94.403L12.3135 84.9311V69.7761Z" fill="url(#paint2_linear)"/>
<path d="M36.5297 8.20898L40.6765 20.9715H54.0959L43.2394 28.8592L47.3862 41.6218L36.5297 33.7341L25.6732 41.6218L29.82 28.8592L18.9636 20.9715H32.3829L36.5297 8.20898Z" fill="url(#paint3_linear)"/>
<defs>
<linearGradient id="paint0_linear" x1="-5.46626e-07" y1="36.6686" x2="73.8806" y2="36.6686" gradientUnits="userSpaceOnUse">
<stop stop-color="#F76C95"/>
<stop offset="1" stop-color="#F89F6D"/>
</linearGradient>
<linearGradient id="paint1_linear" x1="36.5615" y1="45.1492" x2="36.5615" y2="69.776" gradientUnits="userSpaceOnUse">
<stop stop-color="#F76C95"/>
<stop offset="1" stop-color="#F89F6D"/>
</linearGradient>
<linearGradient id="paint2_linear" x1="36.5615" y1="69.7761" x2="36.5615" y2="94.403" gradientUnits="userSpaceOnUse">
<stop stop-color="#F89F6D"/>
<stop offset="1" stop-color="#F76C95"/>
</linearGradient>
<linearGradient id="paint3_linear" x1="36.5297" y1="8.20898" x2="36.5297" y2="45.1493" gradientUnits="userSpaceOnUse">
<stop stop-color="#F89F6D"/>
<stop offset="1" stop-color="#F76C95"/>
</linearGradient>
</defs>
</svg>
