<svg width="345" height="447" viewBox="0 0 345 447" fill="none" xmlns="http://www.w3.org/2000/svg">
<path d="M37.6221 17.8274L66.5 1.1547L95.3779 17.8274V51.1726L66.5 67.8453L37.6221 51.1726V17.8274Z" fill="#FF8541" stroke="#C54417" stroke-width="2"/>
<path d="M98.6221 17.8274L127.5 1.1547L156.378 17.8274V51.1726L127.5 67.8453L98.6221 51.1726V17.8274Z" stroke="#C54417" stroke-width="2"/>
<path d="M159.622 17.8274L188.5 1.1547L217.378 17.8274V51.1726L188.5 67.8453L159.622 51.1726V17.8274Z" stroke="#C54417" stroke-width="2"/>
<path d="M220.622 17.8274L249.5 1.1547L278.378 17.8274V51.1726L249.5 67.8453L220.622 51.1726V17.8274Z" fill="#FF8541" stroke="#C54417" stroke-width="2"/>
<path d="M281.622 17.8274L310.5 1.1547L339.378 17.8274V51.1726L310.5 67.8453L281.622 51.1726V17.8274Z" stroke="#C54417" stroke-width="2"/>
<path d="M67.6221 70.8274L96.5 54.1547L125.378 70.8274V104.173L96.5 120.845L67.6221 104.173V70.8274Z" stroke="#C54417" stroke-width="2"/>
<path d="M128.622 70.8274L157.5 54.1547L186.378 70.8274V104.173L157.5 120.845L128.622 104.173V70.8274Z" fill="#FF8541" stroke="#C54417" stroke-width="2"/>
<path d="M154.6 97H159.328V92.92H154.6V97ZM155.584 91.528H158.488L158.776 89.992C161.44 89.344 163.456 88.048 163.456 85.024C163.456 81.856 160.984 79.936 157.456 79.936C154.696 79.936 152.704 80.992 151.24 82.456L153.64 85.624C154.768 84.616 156.016 84.04 157.144 84.04C158.296 84.04 158.944 84.544 158.944 85.36C158.944 86.416 157.96 87.064 155.176 87.304L154.984 87.52L155.584 91.528Z" fill="white"/>
<path d="M63.6 41H68.328V36.92H63.6V41ZM64.584 35.528H67.488L67.776 33.992C70.44 33.344 72.456 32.048 72.456 29.024C72.456 25.856 69.984 23.936 66.456 23.936C63.696 23.936 61.704 24.992 60.24 26.456L62.64 29.624C63.768 28.616 65.016 28.04 66.144 28.04C67.296 28.04 67.944 28.544 67.944 29.36C67.944 30.416 66.96 31.064 64.176 31.304L63.984 31.52L64.584 35.528Z" fill="white"/>
<path d="M246.6 41H251.328V36.92H246.6V41ZM247.584 35.528H250.488L250.776 33.992C253.44 33.344 255.456 32.048 255.456 29.024C255.456 25.856 252.984 23.936 249.456 23.936C246.696 23.936 244.704 24.992 243.24 26.456L245.64 29.624C246.768 28.616 248.016 28.04 249.144 28.04C250.296 28.04 250.944 28.544 250.944 29.36C250.944 30.416 249.96 31.064 247.176 31.304L246.984 31.52L247.584 35.528Z" fill="white"/>
<path d="M189.622 70.8274L218.5 54.1547L247.378 70.8274V104.173L218.5 120.845L189.622 104.173V70.8274Z" stroke="#C54417" stroke-width="2"/>
<path d="M250.622 70.8274L279.5 54.1547L308.378 70.8274V104.173L279.5 120.845L250.622 104.173V70.8274Z" stroke="#C54417" stroke-width="2"/>
<path d="M6.62212 70.8274L35.5 54.1547L64.3779 70.8274V104.173L35.5 120.845L6.62212 104.173V70.8274Z" stroke="#C54417" stroke-width="2"/>
<path d="M36.6221 123.827L65.5 107.155L94.3779 123.827V157.173L65.5 173.845L36.6221 157.173V123.827Z" fill="#FF8541" stroke="#C54417" stroke-width="2"/>
<path d="M97.6221 123.827L126.5 107.155L155.378 123.827V157.173L126.5 173.845L97.6221 157.173V123.827Z" stroke="#C54417" stroke-width="2"/>
<path d="M158.622 123.827L187.5 107.155L216.378 123.827V157.173L187.5 173.845L158.622 157.173V123.827Z" stroke="#C54417" stroke-width="2"/>
<path d="M219.622 123.827L248.5 107.155L277.378 123.827V157.173L248.5 173.845L219.622 157.173V123.827Z" stroke="#C54417" stroke-width="2"/>
<path d="M280.622 123.827L309.5 107.155L338.378 123.827V157.173L309.5 173.845L280.622 157.173V123.827Z" fill="#FF8541" stroke="#C54417" stroke-width="2"/>
<path d="M66.6221 176.827L95.5 160.155L124.378 176.827V210.173L95.5 226.845L66.6221 210.173V176.827Z" stroke="#C54417" stroke-width="2"/>
<path d="M306.6 147H311.328V142.92H306.6V147ZM307.584 141.528H310.488L310.776 139.992C313.44 139.344 315.456 138.048 315.456 135.024C315.456 131.856 312.984 129.936 309.456 129.936C306.696 129.936 304.704 130.992 303.24 132.456L305.64 135.624C306.768 134.616 308.016 134.04 309.144 134.04C310.296 134.04 310.944 134.544 310.944 135.36C310.944 136.416 309.96 137.064 307.176 137.304L306.984 137.52L307.584 141.528Z" fill="white"/>
<path d="M62.6 147H67.328V142.92H62.6V147ZM63.584 141.528H66.488L66.776 139.992C69.44 139.344 71.456 138.048 71.456 135.024C71.456 131.856 68.984 129.936 65.456 129.936C62.696 129.936 60.704 130.992 59.24 132.456L61.64 135.624C62.768 134.616 64.016 134.04 65.144 134.04C66.296 134.04 66.944 134.544 66.944 135.36C66.944 136.416 65.96 137.064 63.176 137.304L62.984 137.52L63.584 141.528Z" fill="white"/>
<path d="M127.622 176.827L156.5 160.155L185.378 176.827V210.173L156.5 226.845L127.622 210.173V176.827Z" stroke="#C54417" stroke-width="2"/>
<path d="M189.622 176.827L218.5 160.155L247.378 176.827V210.173L218.5 226.845L189.622 210.173V176.827Z" fill="#FF8541" stroke="#C54417" stroke-width="2"/>
<path d="M215.6 200H220.328V195.92H215.6V200ZM216.584 194.528H219.488L219.776 192.992C222.44 192.344 224.456 191.048 224.456 188.024C224.456 184.856 221.984 182.936 218.456 182.936C215.696 182.936 213.704 183.992 212.24 185.456L214.64 188.624C215.768 187.616 217.016 187.04 218.144 187.04C219.296 187.04 219.944 187.544 219.944 188.36C219.944 189.416 218.96 190.064 216.176 190.304L215.984 190.52L216.584 194.528Z" fill="white"/>
<path d="M251.622 176.827L280.5 160.155L309.378 176.827V210.173L280.5 226.845L251.622 210.173V176.827Z" stroke="#C54417" stroke-width="2"/>
<path d="M5.62212 176.827L34.5 160.155L63.3779 176.827V210.173L34.5 226.845L5.62212 210.173V176.827Z" stroke="#C54417" stroke-width="2"/>
<path d="M37.6221 236.827L66.5 220.155L95.3779 236.827V270.173L66.5 286.845L37.6221 270.173V236.827Z" fill="#FF8541" stroke="#C54417" stroke-width="2"/>
<path d="M98.6221 236.827L127.5 220.155L156.378 236.827V270.173L127.5 286.845L98.6221 270.173V236.827Z" stroke="#C54417" stroke-width="2"/>
<path d="M159.622 236.827L188.5 220.155L217.378 236.827V270.173L188.5 286.845L159.622 270.173V236.827Z" stroke="#C54417" stroke-width="2"/>
<path d="M220.622 236.827L249.5 220.155L278.378 236.827V270.173L249.5 286.845L220.622 270.173V236.827Z" stroke="#C54417" stroke-width="2"/>
<path d="M281.622 236.827L310.5 220.155L339.378 236.827V270.173L310.5 286.845L281.622 270.173V236.827Z" stroke="#C54417" stroke-width="2"/>
<path d="M67.6221 289.827L96.5 273.155L125.378 289.827V323.173L96.5 339.845L67.6221 323.173V289.827Z" stroke="#C54417" stroke-width="2"/>
<path d="M128.622 289.827L157.5 273.155L186.378 289.827V323.173L157.5 339.845L128.622 323.173V289.827Z" fill="#FF8541" stroke="#C54417" stroke-width="2"/>
<path d="M154.6 316H159.328V311.92H154.6V316ZM155.584 310.528H158.488L158.776 308.992C161.44 308.344 163.456 307.048 163.456 304.024C163.456 300.856 160.984 298.936 157.456 298.936C154.696 298.936 152.704 299.992 151.24 301.456L153.64 304.624C154.768 303.616 156.016 303.04 157.144 303.04C158.296 303.04 158.944 303.544 158.944 304.36C158.944 305.416 157.96 306.064 155.176 306.304L154.984 306.52L155.584 310.528Z" fill="white"/>
<path d="M189.622 289.827L218.5 273.155L247.378 289.827V323.173L218.5 339.845L189.622 323.173V289.827Z" stroke="#C54417" stroke-width="2"/>
<path d="M250.622 289.827L279.5 273.155L308.378 289.827V323.173L279.5 339.845L250.622 323.173V289.827Z" fill="#FF8541" stroke="#C54417" stroke-width="2"/>
<path d="M6.62212 289.827L35.5 273.155L64.3779 289.827V323.173L35.5 339.845L6.62212 323.173V289.827Z" stroke="#C54417" stroke-width="2"/>
<path d="M36.6221 342.827L65.5 326.155L94.3779 342.827V376.173L65.5 392.845L36.6221 376.173V342.827Z" fill="#FF8541" stroke="#C54417" stroke-width="2"/>
<path d="M97.6221 342.827L126.5 326.155L155.378 342.827V376.173L126.5 392.845L97.6221 376.173V342.827Z" stroke="#C54417" stroke-width="2"/>
<path d="M158.622 342.827L187.5 326.155L216.378 342.827V376.173L187.5 392.845L158.622 376.173V342.827Z" stroke="#C54417" stroke-width="2"/>
<path d="M219.622 342.827L248.5 326.155L277.378 342.827V376.173L248.5 392.845L219.622 376.173V342.827Z" stroke="#C54417" stroke-width="2"/>
<path d="M280.622 342.827L309.5 326.155L338.378 342.827V376.173L309.5 392.845L280.622 376.173V342.827Z" stroke="#C54417" stroke-width="2"/>
<path d="M66.6221 395.827L95.5 379.155L124.378 395.827V429.173L95.5 445.845L66.6221 429.173V395.827Z" stroke="#C54417" stroke-width="2"/>
<path d="M127.622 395.827L156.5 379.155L185.378 395.827V429.173L156.5 445.845L127.622 429.173V395.827Z" stroke="#C54417" stroke-width="2"/>
<path d="M189.622 395.827L218.5 379.155L247.378 395.827V429.173L218.5 445.845L189.622 429.173V395.827Z" fill="#FF8541" stroke="#C54417" stroke-width="2"/>
<path d="M215.6 419H220.328V414.92H215.6V419ZM216.584 413.528H219.488L219.776 411.992C222.44 411.344 224.456 410.048 224.456 407.024C224.456 403.856 221.984 401.936 218.456 401.936C215.696 401.936 213.704 402.992 212.24 404.456L214.64 407.624C215.768 406.616 217.016 406.04 218.144 406.04C219.296 406.04 219.944 406.544 219.944 407.36C219.944 408.416 218.96 409.064 216.176 409.304L215.984 409.52L216.584 413.528Z" fill="white"/>
<path d="M251.622 395.827L280.5 379.155L309.378 395.827V429.173L280.5 445.845L251.622 429.173V395.827Z" stroke="#C54417" stroke-width="2"/>
<path d="M5.62212 395.827L34.5 379.155L63.3779 395.827V429.173L34.5 445.845L5.62212 429.173V395.827Z" stroke="#C54417" stroke-width="2"/>
<path d="M277.6 318H282.328V313.92H277.6V318ZM278.584 312.528H281.488L281.776 310.992C284.44 310.344 286.456 309.048 286.456 306.024C286.456 302.856 283.984 300.936 280.456 300.936C277.696 300.936 275.704 301.992 274.24 303.456L276.64 306.624C277.768 305.616 279.016 305.04 280.144 305.04C281.296 305.04 281.944 305.544 281.944 306.36C281.944 307.416 280.96 308.064 278.176 308.304L277.984 308.52L278.584 312.528Z" fill="white"/>
<path d="M62.6 264H67.328V259.92H62.6V264ZM63.584 258.528H66.488L66.776 256.992C69.44 256.344 71.456 255.048 71.456 252.024C71.456 248.856 68.984 246.936 65.456 246.936C62.696 246.936 60.704 247.992 59.24 249.456L61.64 252.624C62.768 251.616 64.016 251.04 65.144 251.04C66.296 251.04 66.944 251.544 66.944 252.36C66.944 253.416 65.96 254.064 63.176 254.304L62.984 254.52L63.584 258.528Z" fill="white"/>
<path d="M62.6 369H67.328V364.92H62.6V369ZM63.584 363.528H66.488L66.776 361.992C69.44 361.344 71.456 360.048 71.456 357.024C71.456 353.856 68.984 351.936 65.456 351.936C62.696 351.936 60.704 352.992 59.24 354.456L61.64 357.624C62.768 356.616 64.016 356.04 65.144 356.04C66.296 356.04 66.944 356.544 66.944 357.36C66.944 358.416 65.96 359.064 63.176 359.304L62.984 359.52L63.584 363.528Z" fill="white"/>
</svg>
