<svg width="903" height="8" viewBox="0 0 903 8" fill="none" xmlns="http://www.w3.org/2000/svg">
<g clip-path="url(#clip0_38_13096)">
<g opacity="0.6">
<path d="M15.6234 0H20.6452L5.57977 8H0L15.6234 0Z" fill="#24293D"/>
<path d="M36.2685 0H41.2903L26.2249 8H20.6451L36.2685 0Z" fill="#24293D"/>
<path d="M56.9137 0H61.9355L46.8701 8H41.2903L56.9137 0Z" fill="#24293D"/>
<path d="M77.5589 0H82.5806L67.5153 8H61.9355L77.5589 0Z" fill="#24293D"/>
<path d="M98.204 0H103.226L88.1604 8H82.5806L98.204 0Z" fill="#24293D"/>
<path d="M118.849 0H123.871L108.806 8H103.226L118.849 0Z" fill="#24293D"/>
<path d="M139.494 0H144.516L129.451 8H123.871L139.494 0Z" fill="#24293D"/>
<path d="M160.139 0H165.161L150.096 8H144.516L160.139 0Z" fill="#24293D"/>
<path d="M180.785 0H185.806L170.741 8H165.161L180.785 0Z" fill="#24293D"/>
<path d="M201.43 0H206.452L191.386 8H185.806L201.43 0Z" fill="#24293D"/>
<path d="M222.075 0H227.097L212.031 8H206.452L222.075 0Z" fill="#24293D"/>
<path d="M242.72 0H247.742L232.677 8H227.097L242.72 0Z" fill="#24293D"/>
<path d="M263.365 0H268.387L253.322 8H247.742L263.365 0Z" fill="#24293D"/>
<path d="M284.01 0H289.032L273.967 8H268.387L284.01 0Z" fill="#24293D"/>
<path d="M304.656 0H309.677L294.612 8H289.032L304.656 0Z" fill="#24293D"/>
<path d="M325.301 0H330.323L315.257 8H309.677L325.301 0Z" fill="#24293D"/>
<path d="M345.946 0H350.968L335.902 8H330.323L345.946 0Z" fill="#24293D"/>
<path d="M366.591 0H371.613L356.548 8H350.968L366.591 0Z" fill="#24293D"/>
<path d="M387.236 0H392.258L377.193 8H371.613L387.236 0Z" fill="#24293D"/>
<path d="M407.881 0H412.903L397.838 8H392.258L407.881 0Z" fill="#24293D"/>
<path d="M428.527 0H433.548L418.483 8H412.903L428.527 0Z" fill="#24293D"/>
<path d="M449.172 0H454.194L439.128 8H433.548L449.172 0Z" fill="#24293D"/>
<path d="M469.817 0H474.839L459.773 8H454.194L469.817 0Z" fill="#24293D"/>
<path d="M490.462 0H495.484L480.418 8H474.839L490.462 0Z" fill="#24293D"/>
<path d="M511.107 0H516.129L501.064 8H495.484L511.107 0Z" fill="#24293D"/>
<path d="M531.752 0H536.774L521.709 8H516.129L531.752 0Z" fill="#24293D"/>
<path d="M552.398 0H557.419L542.354 8H536.774L552.398 0Z" fill="#24293D"/>
<path d="M573.043 0H578.065L562.999 8H557.419L573.043 0Z" fill="#24293D"/>
<path d="M593.688 0H598.71L583.644 8H578.065L593.688 0Z" fill="#24293D"/>
<path d="M614.333 0H619.355L604.289 8H598.71L614.333 0Z" fill="#24293D"/>
<path d="M634.978 0H640L624.935 8H619.355L634.978 0Z" fill="#24293D"/>
<path d="M655.623 0H660.645L645.58 8H640L655.623 0Z" fill="#24293D"/>
<path d="M676.269 0H681.29L666.225 8H660.645L676.269 0Z" fill="#24293D"/>
<path d="M696.914 0H701.936L686.87 8H681.29L696.914 0Z" fill="#24293D"/>
<path d="M717.559 0H722.581L707.515 8H701.935L717.559 0Z" fill="#24293D"/>
<path d="M738.204 0H743.226L728.16 8H722.581L738.204 0Z" fill="#24293D"/>
<path d="M758.849 0H763.871L748.806 8H743.226L758.849 0Z" fill="#24293D"/>
<path d="M779.494 0H784.516L769.451 8H763.871L779.494 0Z" fill="#24293D"/>
<path d="M800.139 0H805.161L790.096 8H784.516L800.139 0Z" fill="#24293D"/>
<path d="M820.785 0H825.806L810.741 8H805.161L820.785 0Z" fill="#24293D"/>
<path d="M841.43 0H846.452L831.386 8H825.806L841.43 0Z" fill="#24293D"/>
<path d="M862.075 0H867.097L852.031 8H846.452L862.075 0Z" fill="#24293D"/>
<path d="M882.72 0H887.742L872.677 8H867.097L882.72 0Z" fill="#24293D"/>
<path d="M903.365 0H908.387L893.322 8H887.742L903.365 0Z" fill="#24293D"/>
</g>
</g>
<defs>
<clipPath id="clip0_38_13096">
<rect width="1043" height="8" fill="white"/>
</clipPath>
</defs>
</svg>
