<svg width="41" height="42" viewBox="0 0 41 42" fill="none" xmlns="http://www.w3.org/2000/svg">
<path d="M19.549 2.92705C19.8484 2.00574 21.1518 2.00574 21.4511 2.92705L23.0371 7.80811C23.171 8.22013 23.5549 8.49909 23.9881 8.49909H29.1204C30.0891 8.49909 30.4919 9.73871 29.7082 10.3081L25.5561 13.3248C25.2056 13.5794 25.059 14.0308 25.1928 14.4428L26.7788 19.3239C27.0781 20.2452 26.0236 21.0113 25.2399 20.4419L21.0879 17.4252C20.7374 17.1706 20.2628 17.1706 19.9123 17.4252L15.7602 20.4419C14.9765 21.0113 13.922 20.2452 14.2214 19.3239L15.8073 14.4428C15.9412 14.0308 15.7945 13.5794 15.4441 13.3248L11.292 10.3081C10.5083 9.73871 10.911 8.49909 11.8798 8.49909H17.012C17.4452 8.49909 17.8292 8.22013 17.9631 7.80811L19.549 2.92705Z" fill="url(#paint0_radial)"/>
<path d="M6.79345 23.8826C7.0928 22.9613 8.39621 22.9613 8.69556 23.8826L9.25873 25.6159C9.3926 26.0279 9.77656 26.3068 10.2098 26.3068H12.0322C13.0009 26.3068 13.4037 27.5465 12.62 28.1159L11.1456 29.1871C10.7951 29.4417 10.6485 29.8931 10.7824 30.3051L11.3455 32.0383C11.6449 32.9597 10.5904 33.7258 9.80668 33.1564L8.33229 32.0852C7.9818 31.8305 7.50721 31.8305 7.15672 32.0852L5.68233 33.1564C4.89862 33.7258 3.84414 32.9597 4.14349 32.0383L4.70666 30.3051C4.84053 29.8931 4.69387 29.4417 4.34339 29.1871L2.869 28.1159C2.08529 27.5465 2.48806 26.3068 3.45678 26.3068H5.27923C5.71245 26.3068 6.09641 26.0279 6.23028 25.6159L6.79345 23.8826Z" fill="url(#paint1_radial)"/>
<path d="M19.549 29.3493C19.8484 28.428 21.1518 28.428 21.4511 29.3493L22.0143 31.0825C22.1482 31.4946 22.5321 31.7735 22.9653 31.7735H24.7878C25.7565 31.7735 26.1593 33.0131 25.3756 33.5825L23.9012 34.6537C23.5507 34.9084 23.404 35.3598 23.5379 35.7718L24.1011 37.505C24.4004 38.4263 23.3459 39.1925 22.5622 38.6231L21.0878 37.5519C20.7374 37.2972 20.2628 37.2972 19.9123 37.5519L18.4379 38.6231C17.6542 39.1925 16.5997 38.4263 16.899 37.505L17.4622 35.7718C17.5961 35.3598 17.4494 34.9084 17.0989 34.6537L15.6246 33.5825C14.8408 33.0131 15.2436 31.7735 16.2123 31.7735H18.0348C18.468 31.7735 18.852 31.4946 18.9858 31.0825L19.549 29.3493Z" fill="url(#paint2_radial)"/>
<path d="M32.3046 23.8826C32.6039 22.9613 33.9073 22.9613 34.2067 23.8826L34.7698 25.6159C34.9037 26.0279 35.2877 26.3068 35.7209 26.3068H37.5433C38.5121 26.3068 38.9148 27.5465 38.1311 28.1159L36.6567 29.1871C36.3062 29.4417 36.1596 29.8931 36.2935 30.3051L36.8566 32.0383C37.156 32.9597 36.1015 33.7258 35.3178 33.1564L33.8434 32.0852C33.4929 31.8305 33.0183 31.8305 32.6678 32.0852L31.1934 33.1564C30.4097 33.7258 29.3552 32.9597 29.6546 32.0383L30.2178 30.3051C30.3516 29.8931 30.205 29.4417 29.8545 29.1871L28.3801 28.1159C27.5964 27.5465 27.9992 26.3068 28.9679 26.3068H30.7903C31.2236 26.3068 31.6075 26.0279 31.7414 25.6159L32.3046 23.8826Z" fill="url(#paint3_radial)"/>
<defs>
<radialGradient id="paint0_radial" cx="0" cy="0" r="1" gradientUnits="userSpaceOnUse" gradientTransform="translate(20.5001 12.3) rotate(90) scale(12.3)">
<stop stop-color="#FCFF5B"/>
<stop offset="1" stop-color="#FCB922"/>
</radialGradient>
<radialGradient id="paint1_radial" cx="0" cy="0" r="1" gradientUnits="userSpaceOnUse" gradientTransform="translate(7.74451 28.7) rotate(90) scale(7.74444)">
<stop stop-color="#FCFF5B"/>
<stop offset="1" stop-color="#FCB922"/>
</radialGradient>
<radialGradient id="paint2_radial" cx="0" cy="0" r="1" gradientUnits="userSpaceOnUse" gradientTransform="translate(20.5001 34.1667) rotate(90) scale(7.74444)">
<stop stop-color="#FCFF5B"/>
<stop offset="1" stop-color="#FCB922"/>
</radialGradient>
<radialGradient id="paint3_radial" cx="0" cy="0" r="1" gradientUnits="userSpaceOnUse" gradientTransform="translate(33.2556 28.7) rotate(90) scale(7.74444)">
<stop stop-color="#FCFF5B"/>
<stop offset="1" stop-color="#FCB922"/>
</radialGradient>
</defs>
</svg>
