<svg width="39" height="62" viewBox="0 0 39 62" fill="none" xmlns="http://www.w3.org/2000/svg">
<path d="M0.699219 39.6776V10.8801H38.6937V39.6776L19.5102 61.9999L0.699219 39.6776Z" fill="#EA8601"/>
<path d="M3.11694 30.2206V2.59058H36.2757V30.2206L19.5338 51.638L3.11694 30.2206Z" fill="#EA191D"/>
<path d="M2.82275 11.4817V4.59277H36.1191V11.4817H19.4709H2.82275Z" fill="#CA080B"/>
<path fill-rule="evenodd" clip-rule="evenodd" d="M0.526367 0H38.8662V31.1129L19.5137 55.8699L0.526367 31.0992V0ZM5.70743 5.18106V29.3419L19.5538 47.4059L33.6852 29.3282V5.18106H5.70743Z" fill="#FECC4D"/>
<path d="M26.0345 14.3767C26.5708 14.3767 27.0849 14.5897 27.464 14.9689C27.8431 15.348 28.0562 15.8622 28.0562 16.3984V28.5289C28.0562 29.0651 27.8431 29.5793 27.464 29.9584C27.0849 30.3376 26.5708 30.5506 26.0345 30.5506H13.9041C13.3678 30.5506 12.8536 30.3376 12.4745 29.9584C12.0954 29.5793 11.8823 29.0651 11.8823 28.5289V16.3984C11.8823 15.8622 12.0954 15.348 12.4745 14.9689C12.8536 14.5897 13.3678 14.3767 13.9041 14.3767H26.0345ZM17.8505 25.2971L21.991 21.1566V23.9547C21.991 24.0887 22.0444 24.2173 22.1391 24.3121C22.2339 24.4069 22.3624 24.4601 22.4964 24.4601C22.6306 24.4601 22.7591 24.4069 22.8539 24.3121C22.9487 24.2173 23.002 24.0887 23.002 23.9547V19.9365C23.002 19.8024 22.9487 19.6739 22.8539 19.5791C22.7591 19.4843 22.6306 19.4311 22.4964 19.4311H18.4782C18.3442 19.4311 18.2157 19.4843 18.1209 19.5791C18.0261 19.6739 17.9728 19.8024 17.9728 19.9365C17.9728 20.0705 18.0261 20.1991 18.1209 20.2939C18.2157 20.3887 18.3442 20.4419 18.4782 20.4419H21.2762L17.1357 24.5824C17.0438 24.6778 16.9927 24.8054 16.9938 24.938C16.995 25.0705 17.0483 25.1972 17.142 25.291C17.2356 25.3847 17.3624 25.4378 17.495 25.439C17.6275 25.4401 17.7552 25.3892 17.8505 25.2971Z" fill="#FDC84B"/>
</svg>
