<svg xmlns="http://www.w3.org/2000/svg" viewBox="0 0 208.632 38.796">
  <defs>
    <style>
      .cls-1 {
        fill: #f6f6f6;
      }

      .cls-1, .cls-2 {
        fill-rule: evenodd;
      }

      .cls-2 {
        fill: #d71920;
      }
    </style>
  </defs>
  <g id="Tiger" transform="translate(-47 -38)">
    <g id="Logo" transform="translate(-27 108)">
      <path id="Logo_Type_White" data-name="Logo Type White" class="cls-1" d="M5143.061,5531.559l5.81,9.41-6.623.006-5.479-8.836h-.06v8.836h-5.969v-22.912h8.911a8.962,8.962,0,0,1,5.8,1.7,6.409,6.409,0,0,1,2.191,5.3,6.98,6.98,0,0,1-1.325,4.264A4.711,4.711,0,0,1,5143.061,5531.559Zm-1.98-7.586a2.35,2.35,0,0,0-.946-.884,4.208,4.208,0,0,0-1.309-.411,10.437,10.437,0,0,0-1.538-.106h-.578v5.728h.578a10.37,10.37,0,0,0,1.538-.106,4.208,4.208,0,0,0,1.309-.411,2.326,2.326,0,0,0,.946-.884,3.252,3.252,0,0,0,0-2.926Zm-27.086-5.909h13.06v5.073h-7.068v3.689h7.068v5.227h-7.068v3.689h7.068v5.227h-13.06Zm-86.346,5.073h-7.068v3.689h7.068v5.227h-7.068v3.689h7.068v5.227h-13.06v-22.905h13.06Zm-22.141,17.838-5.479-8.836h-.06v8.836H4994v-22.912h8.912a8.967,8.967,0,0,1,5.8,1.7,6.41,6.41,0,0,1,2.191,5.3,6.986,6.986,0,0,1-1.325,4.264,5.624,5.624,0,0,1-3.7,2.225l6.254,9.41Zm-1.169-17a2.346,2.346,0,0,0-.946-.884,4.19,4.19,0,0,0-1.308-.411,10.459,10.459,0,0,0-1.539-.106h-.577v5.728h.577a10.392,10.392,0,0,0,1.539-.106,4.191,4.191,0,0,0,1.308-.411,2.314,2.314,0,0,0,.946-.884,3.244,3.244,0,0,0,0-2.926Zm38.981-5.043a10.6,10.6,0,0,1,3.458,2.445,11.421,11.421,0,0,1,2.32,3.677,12.37,12.37,0,0,1-.013,8.933,11.426,11.426,0,0,1-2.337,3.66,10.805,10.805,0,0,1-3.458,2.445,10.017,10.017,0,0,1-4.136.882h-7.819v-22.909h7.819A10.238,10.238,0,0,1,5043.32,5518.929Zm-6.47,4.178v12.82h1.237a7.2,7.2,0,0,0,2.362-.378,5.252,5.252,0,0,0,3.261-3.19,7.781,7.781,0,0,0,.479-2.841,6.461,6.461,0,0,0-1.658-4.709,5.858,5.858,0,0,0-4.391-1.7Zm37.967,0h-4.932v17.864h-5.964v-17.864h-4.933v-5.044h15.829Zm9.608,17.869h-5.97V5518h5.97Zm6.805-19.75a10.285,10.285,0,0,1,3.665-2.35,13.065,13.065,0,0,1,4.67-.812,10.8,10.8,0,0,1,5.781,1.51,9.884,9.884,0,0,1,3.809,4.5l-5.246,2.221a5.49,5.49,0,0,0-1.779-2.506,4.476,4.476,0,0,0-2.819-.911,4.8,4.8,0,0,0-2.341.569,5.168,5.168,0,0,0-1.75,1.553,7.439,7.439,0,0,0-1.072,2.193,8.5,8.5,0,0,0,0,4.929,7.142,7.142,0,0,0,1.086,2.179,5.193,5.193,0,0,0,1.778,1.524,5.037,5.037,0,0,0,2.382.555,4.774,4.774,0,0,0,3.074-.968,3.823,3.823,0,0,0,1.382-2.764h-4.511v-4.386h10.969a25.761,25.761,0,0,1-.464,4.728,10.02,10.02,0,0,1-1.708,3.762,9.46,9.46,0,0,1-3.776,3.176,11.8,11.8,0,0,1-4.992,1.04,12.518,12.518,0,0,1-4.569-.812,10.445,10.445,0,0,1-3.61-2.322,10.223,10.223,0,0,1-2.342-3.6,12.534,12.534,0,0,1-.818-4.6,12.96,12.96,0,0,1,.831-4.729A10.577,10.577,0,0,1,5091.23,5521.226Z" transform="translate(-4866.24 -5580.345)"/>
      <path id="Logo_Symbol_Red_on_Black" data-name="Logo Symbol Red on Black" class="cls-2" d="M5176.572,320.375c-.021.624.029,1.322-.945,1.641-.577.189-1.286-.6-1.324-1.15a2.462,2.462,0,0,1,1.135-.839C5176.344,319.685,5176.559,319.62,5176.572,320.375Zm-16.732,1.641c-.974-.32-.924-1.017-.945-1.641.013-.755.227-.69,1.134-.347a2.458,2.458,0,0,1,1.134.839c-.039.553-.747,1.339-1.324,1.15Zm22.063,18.251a5.625,5.625,0,0,0,1.6-1.14c2.273-2.427,2.715-5.223,2.987-8.459.071-.843.056-1.693.1-2.558.006-.133.027-.733.088-.732a2.211,2.211,0,0,1,.418.669,9.067,9.067,0,0,1,.527,2.342,17.6,17.6,0,0,1,.134,4.762,4.341,4.341,0,0,1-.54,1.567c-1.421,2.38-2.992,4.587-4.493,6.929-.124.193-.215-.178-.3-.241l-.12-.121c-.341-.184-.473-.206-.637-.094-.053.1-.1.2-.15.3-.351.778-.985,2.021-1.427,2.824a.259.259,0,0,1-.484-.128c0-.893.006-1.786-.006-2.679-.007-.557.006-1.237-.766-1.236-.753,0-.776.658-.785,1.229-.008.521,0,1.043,0,1.643a.261.261,0,0,1-.4.224,8.2,8.2,0,0,0-2.077-1.136,3.882,3.882,0,0,0-3.635.4l.162-.147a3.8,3.8,0,0,1,3.364-.9,3.755,3.755,0,0,0,1,.08.258.258,0,0,0,.228-.348c-.466-1.239-1.922-5.78,1.071-7.322a.264.264,0,0,0,.146-.2c.105-.834,1.625-4.439-2.506-6.791-.648.576-1.447,1.921-2.466,2.782,1.8.387,2.75-.7,3.621-1.449-.357,2.1-1.992,2.25-3.295,3.013,1.122-.482,2.239.172,3.572-.532-.964,1.846-2.873.935-4.046,1.909,1.125.727,2.164.33,3.195.218a2.549,2.549,0,0,1,.875.033,5.732,5.732,0,0,1-.839.964,4,4,0,0,1-1.333.66,2.75,2.75,0,0,1-1.513.041c-1.474-.461-2.921-1.01-4.359-1.576a1.071,1.071,0,0,1-.57-.68c-.09-.468.018-.969-.027-1.451a1.131,1.131,0,0,1,.9-1.319,6.278,6.278,0,0,0,3.376-2.326,3.925,3.925,0,0,0,.591-1.336.25.25,0,0,1,0-.027,3.663,3.663,0,0,0-.227-1.293,1.81,1.81,0,0,1,.025-1l.025-.107c0-.005,0-.01,0-.015h.006l.293-1.259a1.677,1.677,0,0,1,.659-.964l.089-.054a.734.734,0,0,1,.112-.074,10.03,10.03,0,0,1,1.721-.705,7.421,7.421,0,0,0,4.367-4.71,4.374,4.374,0,0,0,.179-2.229c-.2.407-.509,1.223-.7,1.634a1.511,1.511,0,0,1-1.585.993c-1.915.014-3.76.337-4.808,2.333a4.9,4.9,0,0,1-2.284,2.475,4.76,4.76,0,0,1,.261-1.705c-.89-.366-.539-.884-.064-1.4.647-.7,1.3-1.392,1.986-2.123a3.383,3.383,0,0,1-1.537-.854h3.744c0-.038.006-.075.01-.113a10.628,10.628,0,0,1-3.265-1.169c1.739-1.073,5.354-.54,5.964-.735.007-.145-.5-.253-1.019-.422-1.2-.31-1.651-.407-2.848-.731a15.376,15.376,0,0,1-3.412-1.383h4.916a14.637,14.637,0,0,0-5.424-1.8c-1.079-.069-1.857-.067-2.522-.056l-.005-.315,0,.315c-.666-.011-1.443-.013-2.522.056a14.642,14.642,0,0,0-5.425,1.8h4.916a15.369,15.369,0,0,1-3.413,1.383c-1.2.323-1.648.42-2.847.731-.52.169-1.026.277-1.019.422.61.2,4.225-.337,5.964.735a10.622,10.622,0,0,1-3.264,1.169c0,.038.006.075.01.113h3.744a3.378,3.378,0,0,1-1.536.854c.685.731,1.34,1.423,1.986,2.123.475.514.826,1.032-.064,1.4a4.752,4.752,0,0,1,.262,1.705,4.9,4.9,0,0,1-2.285-2.475c-1.047-2-2.893-2.32-4.808-2.333a1.511,1.511,0,0,1-1.585-.993c-.19-.411-.5-1.226-.7-1.634a4.364,4.364,0,0,0,.18,2.229,7.417,7.417,0,0,0,4.367,4.71,10.037,10.037,0,0,1,1.72.705.734.734,0,0,1,.112.074c.029.017.059.034.089.054a1.677,1.677,0,0,1,.659.964l.293,1.259h.005a.077.077,0,0,1,0,.015l.025.107a1.815,1.815,0,0,1,.024,1,3.676,3.676,0,0,0-.227,1.293.084.084,0,0,1,0,.027,3.926,3.926,0,0,0,.592,1.336,6.271,6.271,0,0,0,3.375,2.326,1.131,1.131,0,0,1,.9,1.319c-.044.481.063.983-.027,1.451a1.071,1.071,0,0,1-.57.68c-1.438.566-2.886,1.115-4.359,1.576a2.75,2.75,0,0,1-1.513-.04,4.007,4.007,0,0,1-1.333-.66,5.707,5.707,0,0,1-.838-.964,2.542,2.542,0,0,1,.874-.033c1.032.112,2.069.509,3.2-.218-1.174-.974-3.083-.063-4.046-1.909,1.333.7,2.45.05,3.571.532-1.3-.763-2.938-.915-3.295-3.013.872.748,1.825,1.836,3.622,1.449-1.019-.861-1.818-2.206-2.467-2.782-4.131,2.352-2.612,5.958-2.506,6.791a.263.263,0,0,0,.146.2c2.993,1.542,1.536,6.083,1.07,7.322a.262.262,0,0,0,.026.232.259.259,0,0,0,.2.117,3.758,3.758,0,0,0,1-.08,3.8,3.8,0,0,1,3.364.9l.163.147a3.881,3.881,0,0,0-3.634-.4,8.179,8.179,0,0,0-2.078,1.136.261.261,0,0,1-.4-.224c0-.6,0-1.122,0-1.643-.009-.572-.032-1.227-.785-1.229-.772,0-.759.679-.767,1.236-.012.893-.008,1.786-.006,2.679a.259.259,0,0,1-.484.128c-.441-.8-1.075-2.046-1.427-2.824-.045-.1-.1-.2-.15-.3-.164-.113-.3-.091-.637.094l-.12.121c-.084.063-.176.434-.3.241-1.5-2.343-3.073-4.549-4.493-6.929a4.321,4.321,0,0,1-.54-1.567,17.557,17.557,0,0,1,.134-4.762,9.047,9.047,0,0,1,.527-2.342,2.2,2.2,0,0,1,.417-.669c.061,0,.082.6.088.732.044.865.029,1.715.1,2.558.272,3.236.714,6.032,2.987,8.459a5.629,5.629,0,0,0,1.6,1.141.26.26,0,0,0,.33-.355c-.693-1.411-1.441-2.8-2-4.263-.569-1.491-.95-3.056-1.387-4.6a.258.258,0,0,1,.328-.318c.324.112.758.289,1.1.421a.259.259,0,0,0,.341-.314c-.433-1.49-1.84-5.849-1.84-5.849.085.1.908,1.3.966,1.407a24.994,24.994,0,0,1,1.735,3.326c.235.608.427,1.047.531,1.277.047.1.065.219-.021.292-1.168.99-.223,2.878.272,3.466a7.215,7.215,0,0,1,1.442,2.822c.07.212.161.515.261.834a.258.258,0,0,0,.5-.095c-.088-1.333-.323-3.142-.763-3.556-.678-.638-.535-2.837.225-3.229.707-.364.866-.751.509-1.372a.264.264,0,0,1,.094-.363l3.252-1.861a.26.26,0,0,0-.087-.483,4.453,4.453,0,0,0-3.145.925,1.43,1.43,0,0,1-2.093-.8,3.951,3.951,0,0,1-.172-.507c-.038-.141.09-.26.23-.3,1.6-.4,1.84-.482,1.92-.967a.26.26,0,0,0-.254-.3,3.166,3.166,0,0,1-1.647-.2,2.093,2.093,0,0,1-.576-1.157.26.26,0,0,1,.35-.311c.564.24.718.232,1.028-.006a.266.266,0,0,0,.043-.379,1.518,1.518,0,0,0-.235-.239c-1.173-.915-2.975-5.969-2.915-7.461a3.4,3.4,0,0,0-1.018,1.515c-1.239-.506-2.184-.665-2.008-2.412l1.372.71s.072-.531-.664-1.146c-1.578-1.319-1.817-3.073-1.867-4.979a1.679,1.679,0,0,1,2.546-1.579c3.063,1.44,7.284,2.89,10.769,2.443l.114-.024.011-.006-.008.005a34,34,0,0,1,6.589-.7h.019a33.995,33.995,0,0,1,6.589.7l-.008-.005.01.006.115.024c3.484.447,7.7-1,10.768-2.443a1.679,1.679,0,0,1,2.547,1.579c-.05,1.906-.289,3.661-1.868,4.979-.736.615-.663,1.146-.663,1.146l1.372-.71c.176,1.747-.77,1.906-2.008,2.412a3.4,3.4,0,0,0-1.018-1.515c.06,1.492-1.741,6.546-2.914,7.461a1.552,1.552,0,0,0-.236.239.262.262,0,0,0-.059.2.265.265,0,0,0,.1.18c.31.238.463.246,1.029.006a.259.259,0,0,1,.349.311,2.1,2.1,0,0,1-.575,1.157,3.169,3.169,0,0,1-1.648.2.261.261,0,0,0-.254.3c.08.485.316.566,1.919.967.14.035.268.155.23.3a3.951,3.951,0,0,1-.172.507,1.431,1.431,0,0,1-2.093.8,4.452,4.452,0,0,0-3.145-.925.26.26,0,0,0-.086.483l3.252,1.861a.265.265,0,0,1,.094.363c-.357.622-.2,1.009.508,1.372.761.391.9,2.591.226,3.229-.44.414-.675,2.224-.764,3.556a.258.258,0,0,0,.5.095c.1-.319.191-.621.261-.834a7.234,7.234,0,0,1,1.442-2.822c.5-.588,1.441-2.476.273-3.466a.236.236,0,0,1-.022-.292c.1-.23.3-.669.531-1.277a25.167,25.167,0,0,1,1.735-3.326c.059-.111.882-1.311.966-1.407,0,0-1.406,4.359-1.839,5.849a.259.259,0,0,0,.34.314c.342-.132.776-.309,1.1-.421a.257.257,0,0,1,.328.318c-.437,1.542-.817,3.107-1.387,4.6-.56,1.462-1.308,2.852-2,4.263a.259.259,0,0,0,.33.355Zm-21.373-11.515-.143.073C5160.439,328.8,5160.488,328.777,5160.531,328.752Zm-5.87-19.043q.406.1.781.182A5.607,5.607,0,0,0,5154.661,309.709Zm-.341.372c-3.611-.283-2.942,2.38-2.242,3.962l.583.965a.483.483,0,0,1,.083.13c0,.009.008.018.011.027h0c.9,2.123,1.648,6.638,5.98,8.369q-.249-.144-.495-.319a12.147,12.147,0,0,1-3.006-3.821c-1.934-3.891-1.427-6.331-1.662-7.3.374.13,1.7.414,1.96.506.025-.06-2.327-1.08-3-1.434a2.476,2.476,0,0,1,.98-.353c1.526-.158,2.1.326,3.088.467a5.934,5.934,0,0,0,1.971-.154Zm20.616,18.672c.043.025.092.049.143.073Zm5.09-18.861c.25-.056.509-.117.781-.182A5.581,5.581,0,0,0,5180.025,309.891Zm2.686,5.275h0c0-.009.008-.018.012-.027a.472.472,0,0,1,.083-.13l.582-.965c.7-1.582,1.369-4.245-2.241-3.962l-4.254,1.043a5.935,5.935,0,0,0,1.971.154c.988-.142,1.562-.625,3.088-.467a2.478,2.478,0,0,1,.98.353c-.671.354-3.023,1.374-3,1.434.263-.091,1.587-.376,1.96-.506-.236.974.271,3.413-1.663,7.3a12.14,12.14,0,0,1-3.006,3.821c-.164.117-.329.223-.495.319C5181.063,321.8,5181.811,317.29,5182.711,315.166Zm-14.988,13.825c-.519,0-1.08,0-1.8-.013a4.753,4.753,0,0,1-1.907-.368,1.048,1.048,0,0,1-.43-1.052c.037-.545.746-.93.746-.93-.026,1.275,1.08,1.617,3.389,1.637h.021c2.309-.021,3.415-.362,3.389-1.637,0,0,.708.385.745.93a1.049,1.049,0,0,1-.431,1.052,4.751,4.751,0,0,1-1.907.368c-.717.013-1.278.017-1.8.013l-.01-.057Zm.01,13.659c.068,1.682-2.822,1.827-5.263.365-.138-.52.13-1.415-.153-1.611-.421-.291-1.091.093-1.515.363s-.7.789-1.116,1.113c.18-2.6,2.772-4.958,6.757-5.18.437-.024.88-.053,1.291-.051s.854.027,1.291.051c3.984.221,6.577,2.582,6.757,5.18-.42-.324-.69-.842-1.116-1.113s-1.095-.653-1.515-.363c-.283.2-.016,1.091-.153,1.611C5170.555,344.478,5167.665,344.333,5167.733,342.651Z" transform="translate(-5073.586 -377.65)"/>
    </g>
  </g>
</svg>
