<?xml version="1.0" encoding="utf-8"?>
<!-- Generator: Adobe Illustrator 19.2.1, SVG Export Plug-In . SVG Version: 6.00 Build 0)  -->
<svg version="1.1" id="layer" xmlns="http://www.w3.org/2000/svg" xmlns:xlink="http://www.w3.org/1999/xlink" x="0px" y="0px"
	 viewBox="0 0 652 652" style="enable-background:new 0 0 652 652;" xml:space="preserve">
<path d="M61.5,401.1c0,6.9-1.7,11.6-5.8,15.1c-2.3,2.3-5.8,2.9-10.4,2.9c-5.8,0-9.8-2.3-13.3-6.4c-2.9-4.1-4.1-8.1-4.1-12.7
	c0-5.8,1.2-10.4,4.6-14.5c1.7-1.7,3.5-3.5,5.2-4.6c2.3-1.2,4.6-1.7,7.5-1.7s5.2,0.6,8.1,1.2c2.3,0.6,4.1,1.7,5.2,3.5
	c0.6,0.6,0.6,1.2,0.6,1.7c0,0.6,0,1.2-0.6,1.7c-0.6,0.6-1.2,0.6-1.7,0.6c-0.6,0-1.2,0-1.7-0.6c-1.7-1.2-2.9-2.3-4.1-2.9
	c-1.7-0.6-2.9-1.2-5.2-1.2c-4.1,0-7.5,1.7-9.8,5.2c-1.7,2.9-2.9,6.4-2.9,10.4c0,5.8,1.7,9.8,4.6,13.3c1.7,1.7,4.1,2.9,6.9,2.9
	c1.7,0,4.1-0.6,5.8-1.2c4.1-1.7,6.4-5.8,6.4-11v-1.7H50c-1.2,0-2.3-0.6-2.3-2.3c0-1.7,0.6-2.3,2.3-2.3h8.7c1.7,0,2.9,1.7,2.9,4.1
	V401.1z M626.2,401.1c0,6.9-1.7,11.6-5.8,15.1c-2.3,2.3-5.8,2.9-10.4,2.9c-5.8,0-9.8-2.3-13.3-6.4c-2.9-4.1-4.1-8.1-4.1-12.7
	c0-5.8,1.2-10.4,4.6-14.5c1.7-1.7,3.5-3.5,5.2-4.6c2.3-1.2,4.6-1.7,7.5-1.7s5.2,0.6,8.1,1.2c2.3,0.6,4.1,1.7,5.2,3.5
	c0.6,0.6,0.6,1.2,0.6,1.7c0,0.6,0,1.2-0.6,1.7c-0.6,0.6-1.2,0.6-1.7,0.6s-1.2,0-1.7-0.6c-1.7-1.2-2.9-2.3-4.1-2.9
	c-1.7-0.6-2.9-1.2-5.2-1.2c-4.1,0-7.5,1.7-9.8,5.2c-1.7,2.9-2.9,6.4-2.9,10.4c0,5.8,1.7,9.8,4.6,13.3c1.7,1.7,4.1,2.9,6.9,2.9
	c1.7,0,4.1-0.6,5.8-1.2c4.1-1.7,6.4-5.8,6.4-11v-1.7h-6.9c-1.2,0-2.3-0.6-2.3-2.3c0-1.7,0.6-2.3,2.3-2.3h8.7c2.3,0,3.5,1.2,3.5,3.5
	v1.2H626.2z M300.7,416.2c0,2.3-0.6,3.5-2.3,3.5c-1.2,0-2.3-0.6-2.3-2.3l-4.6-31.9l-9.3,31.9c-0.6,1.2-1.2,1.7-2.3,1.7
	c-1.2,0-2.3-0.6-2.3-1.7l-9.3-31.9l-4.6,31.9c0,1.7-1.2,2.3-2.9,2.3c-1.2,0-2.3-1.2-2.3-2.9c0-0.6,0-0.6,0-1.2l5.8-33
	c0-1.2,0.6-1.7,1.2-2.3c0.6-0.6,1.7-1.2,2.3-1.2c1.2,0,1.7,0,2.3,0.6c0.6,0.6,1.2,1.2,1.2,1.7l8.1,28.4l0,0l8.1-29
	c0-0.6,0.6-1.2,1.2-1.7c0.6-0.6,1.2-0.6,2.3-0.6c1.2,0,1.7,0,2.3,0.6s1.2,1.2,1.2,2.3L300.7,416.2z M391.1,416.8
	c0,1.7-0.6,2.9-2.3,2.9s-2.3-0.6-2.3-2.3v-34.7c0-1.7,0.6-2.3,2.3-2.3c1.7,0,2.3,0.6,2.3,2.3V416.8z M507.5,416.8
	c0,1.7-0.6,2.3-2.3,2.3c-1.2,0-1.7-0.6-2.9-1.7l-20.8-29.5v28.4c0,1.7-0.6,2.3-2.3,2.3c-1.7,0-2.3-0.6-2.3-2.3v-34.7
	c0-1.7,0.6-2.3,1.7-2.3c1.2,0,1.7,0.6,2.9,1.7l20.3,29.5l0,0V382c0-0.6,0-1.2,0.6-1.7c0.6-0.6,1.2-0.6,1.7-0.6
	c1.7,0,2.3,0.6,2.3,2.3v34.7H507.5z M176.2,417.4c0,1.2-0.6,1.7-2.3,1.7c-0.6,0-1.2,0-1.7-0.6c-0.6,0-0.6,0-0.6-0.6l-2.3-6.9h-18
	l-3.5,6.9c-0.6,1.2-1.2,1.7-2.3,1.7c-1.2,0-2.3-0.6-2.3-1.7v-0.6v-0.6l12.7-33.6c0.6-1.2,0.6-1.7,1.2-2.3c0.6-0.6,1.2-0.6,1.7-0.6
	c0.6,0,1.2,0,2.3,0.6c0.6,0.6,1.2,1.2,1.2,2.3l12.7,33.6C176.2,416.8,176.2,417.4,176.2,417.4 M167.5,406.4l-7.5-21.4l0,0l-8.1,21.4
	H167.5z M529.5,232.6c8.6,0,15.6,7,15.6,15.6s-7,15.6-15.6,15.6s-15.6-7-15.6-15.6S520.9,232.6,529.5,232.6z M626.8,248.3
	c0,8.7-6.9,15.6-15.6,15.6s-15.6-6.9-15.6-15.6s6.9-15.6,15.6-15.6S626.8,239.6,626.8,248.3z M529.5,309.1c8.6,0,15.6,7,15.6,15.6
	s-7,15.6-15.6,15.6s-15.6-7-15.6-15.6S520.9,309.1,529.5,309.1z M626.8,324.7c0,8.7-6.9,15.6-15.6,15.6s-15.6-6.9-15.6-15.6
	s6.9-15.6,15.6-15.6S626.8,316,626.8,324.7z M586.3,286.5c0,8.7-6.9,15.6-15.6,15.6s-15.6-6.9-15.6-15.6s6.9-15.6,15.6-15.6
	S586.3,277.8,586.3,286.5z M487.8,336.9l-43.4-102.5l0,0c-0.6-1.2-1.2-1.7-2.3-1.7l0,0h-8.7h-1.2h-8.7l0,0c-1.2,0-1.7,0.6-2.3,1.7
	l0,0l-44,102.5v0.6c0,1.2,0.6,1.7,1.7,1.7h19.7c1.2,0,1.7-0.6,2.3-1.7l0,0l9.3-23.7h46.3l9.3,23.7l0,0c0.6,1.2,1.2,1.7,2.3,1.7h19.7
	c1.2,0,1.7-0.6,1.7-1.7C488.4,337.4,488.4,336.9,487.8,336.9z M416.6,295.2l16.2-41.1l16.2,41.1H416.6z M179.1,265.6
	c1.2-4.1,2.9-5.8,2.9-5.8s2.3-4.1,7.5-6.4c5.2-2.3,9.8-2.3,9.8-2.3h38.8c1.2,0,2.3-1.2,2.3-2.3v-13.9c0-1.2-1.2-2.3-2.3-2.3h-42.9
	l0,0c-23.7,0-42.9,20.8-42.9,46.3v6.4v0.6v1.2v0.6v6.4c0,25.5,19.1,46.3,42.9,46.3l0,0h42.9c1.2,0,2.3-1.2,2.3-2.3v-14.5
	c0-1.2-1.2-2.3-2.3-2.3h-38.8c0,0-5.2,0-9.8-2.3c-5.2-2.3-7.5-6.4-7.5-6.4s-1.7-2.3-2.9-5.8c-1.2-4.1-1.2-9.3-1.2-9.3v-2.3h60.2
	c1.2,0,2.3-1.2,2.3-2.3v-14.5c0-1.2-1.2-2.3-2.3-2.3H178v-1.2C178,274.9,178.5,269.7,179.1,265.6z M312.3,339.2h35.3
	c1.2,0,1.7-1.2,1.7-2.3v-14.5c0-1.2-0.6-2.3-1.7-2.3h-31.9c0,0-4.1,0-8.1-2.3c-4.1-2.3-6.4-6.4-6.4-6.4s-2.3-2.3-2.3-6.4
	c0-3.5,0-8.1,0-8.1v-10.4v-52.1l0,0c0-1.2-0.6-1.7-1.7-1.7h-18.5c-1.2,0-2.3,1.2-2.3,2.3c0,0,0,0,0,0.6v51.5l0,0v6.9l0,0v11v0.6
	C277,324.1,292.6,339.2,312.3,339.2 M122.4,336.9L122.4,336.9l-24.9-41.7l0,0l0,0c12.7-2.9,21.4-11.6,21.4-30.7
	c0.6-25.5-16.8-31.3-38.2-31.9h-5.2H29.1c-1.2,0-2.3,1.2-2.3,2.3l0,0v102.5l0,0c0,1.2,1.2,2.3,2.3,2.3h18.5c1.2,0,2.3-1.2,2.3-2.3
	v-40H76L99.2,338l0,0c0.6,1.2,1.7,1.7,2.9,1.7h19.7l0,0l0,0c1.2,0,1.7-0.6,1.7-1.7C122.4,337.4,122.4,336.9,122.4,336.9z
	 M81.2,278.4l-5.8,0.6H49.4v-27.2H76h5.2c12.2,0,15.6,5.8,15.6,13.3C96.3,272.6,92.8,278.4,81.2,278.4z"/>
</svg>
