<svg width="32" height="26" viewBox="0 0 32 26" fill="none" xmlns="http://www.w3.org/2000/svg">
<path d="M12.8125 12.1885L14.2144 12.4572C14.9857 12.1819 15.8141 11.989 16.5836 11.8542L20.6728 11.4748C20.9616 11.4669 21.2513 11.4624 21.5409 11.4609L22.4375 10.6885L23.4212 11.4912C26.6863 11.611 29.6469 12.0547 30.7794 12.4135C31.0643 12.5038 31.3752 12.4528 31.6164 12.2762C31.8575 12.0996 32.0001 11.8187 32.0001 11.5197V9.18573C32.0001 9.03998 31.9661 8.89629 31.9008 8.76598C30.8271 6.62179 25.6818 0.500977 16.4375 0.500977C11.1448 0.500977 6.78813 1.91704 3.83844 4.59604C1.39906 6.81154 0 9.85223 0 12.9385C0 14.863 0.514313 16.6485 1.5285 18.2452C2.43669 19.675 3.7255 20.9238 5.35925 21.957C8.27612 23.8017 12.0949 24.7862 15.6094 24.786C17.7871 24.786 19.8483 24.4079 21.5046 23.6221L22.3516 23.2202L21.2688 19.9517L20.3316 19.9726C17.1624 20.043 13.2905 19.308 11.7893 17.5062C11.2202 16.8232 11.0394 16.0267 11.2367 15.0715C11.3388 14.5775 11.5893 14.1529 11.9419 13.7874L12.8125 12.1885Z" fill="#B7457D"/>
<path d="M16.4375 0.500977C16.2909 0.500977 16.1452 0.502476 16 0.504664V11.966C16.1969 11.9249 16.3921 11.8878 16.5836 11.8542L20.6728 11.4748C20.9616 11.4669 21.2513 11.4624 21.5409 11.4609L22.4375 10.6885L23.4212 11.4912C26.6863 11.611 29.6469 12.0547 30.7794 12.4135C31.0643 12.5038 31.3752 12.4528 31.6164 12.2762C31.8575 12.0996 32.0001 11.8187 32.0001 11.5197V9.18573C32.0001 9.03998 31.9661 8.89629 31.9008 8.76598C30.8271 6.62179 25.6818 0.500977 16.4375 0.500977Z" fill="#9330A0"/>
<path d="M20.3316 19.9729C18.9364 20.0039 17.4053 19.8787 16 19.5752V24.7821C18.0329 24.7393 19.9477 24.361 21.5046 23.6224L22.3516 23.2205L21.2688 19.952L20.3316 19.9729Z" fill="#9330A0"/>
<path d="M22.9699 8.21277C22.7927 7.72621 22.2548 7.4754 21.7682 7.65252C21.2817 7.82965 21.0309 8.36758 21.208 8.85408C21.5166 9.70177 21.6266 10.5888 21.541 11.4608C22.1718 11.4574 22.802 11.4684 23.4212 11.4911C23.5071 10.3928 23.3579 9.27909 22.9699 8.21277Z" fill="#613393"/>
<path d="M13.8903 9.50674C12.8069 10.7109 12.1375 12.2139 11.9419 13.7867C12.5015 13.2066 13.3193 12.776 14.2143 12.4566C14.4707 11.8399 14.831 11.2632 15.2881 10.7564C15.5988 10.4117 15.5999 9.88767 15.3006 9.53299C14.9352 9.0998 14.2693 9.08536 13.8903 9.50674Z" fill="#9330A0"/>
<path d="M25.2864 25.4996C22.9756 25.4996 21.6135 24.6322 20.9064 23.9618C19.5732 22.6977 19.0605 20.75 19.5684 18.8785C20.1137 16.8691 21.6737 15.382 23.7415 14.9004C24.1372 14.8085 24.5472 14.9815 24.7569 15.3293C24.9667 15.6772 24.9286 16.1206 24.6625 16.4276C24.1207 17.0525 24.0619 18.2748 24.5162 19.4691C25.2381 21.3665 26.9729 22.669 29.1568 22.9534C29.5907 23.0099 29.9279 23.3591 29.9691 23.7947C30.0103 24.2303 29.7447 24.6366 29.3291 24.7735C27.7384 25.2975 26.4019 25.4996 25.2864 25.4996Z" fill="#613393"/>
<path d="M21.208 8.85457L20.8873 7.97363L16.5797 9.59632L15.8632 10.2009C13.9679 11.8001 13.2627 14.4358 14.1085 16.7595C14.2856 17.2461 14.8235 17.4969 15.3101 17.3198L17.6592 16.4648C19.1496 15.9223 20.3395 14.832 21.0097 13.3946C21.68 11.9573 21.7504 10.3449 21.208 8.85457Z" fill="#B7457D"/>
<path d="M21.208 8.85457L20.8873 7.97363L16.5797 9.59632L16 10.0855V17.0687L17.6593 16.4648C19.1497 15.9223 20.3396 14.832 21.0097 13.3946C21.6801 11.9573 21.7504 10.3449 21.208 8.85457Z" fill="#9330A0"/>
</svg>
