<svg width="32" height="32" viewBox="0 0 32 32" fill="none" xmlns="http://www.w3.org/2000/svg">
<path d="M31.4575 11.8582C30.7215 9.10448 29.2704 6.64293 27.3137 4.68629L20.1418 0.542455C18.8206 0.18936 17.4325 0 16 0V32C17.4325 32 18.8206 31.8106 20.1418 31.4575L27.3137 27.3137C29.2703 25.3571 30.7215 22.8955 31.4575 20.1418L30.0769 16L31.4575 11.8582Z" fill="#FC424B"/>
<path d="M26.5647 26.5646C28.0652 24.6253 29.1595 22.27 29.6961 19.6699V12.3302C29.1595 9.73006 28.0651 7.37474 26.5647 5.43543L20.1019 0.691702C18.8041 0.242479 17.427 0 16 0C14.5675 0 13.1794 0.18936 11.8582 0.542455L4.68632 4.68629C2.72968 6.64293 1.27854 9.10448 0.54248 11.8582V20.1418C1.27848 22.8956 2.72962 25.3571 4.68632 27.3137L11.8582 31.4575C13.1794 31.8107 14.5675 32 16 32C17.427 32 18.8041 31.7575 20.1019 31.3083L26.5647 26.5646Z" fill="#FF6363"/>
<path d="M23.9928 13.8585C23.6301 12.4999 22.9161 11.2156 21.8503 10.1498L18.1417 8.00737C16.7838 7.64217 15.3145 7.61835 13.8586 8.00846L10.1489 10.1491C9.15366 11.1424 8.39841 12.4029 8.0083 13.8588L8.0072 18.1418C8.36989 19.5004 9.08387 20.7847 10.1497 21.8505L13.8583 23.9929C15.2162 24.3581 16.6854 24.382 18.1414 23.9919L21.8511 21.8513C22.8463 20.8579 23.6016 19.5974 23.9917 18.1415L23.9928 13.8585Z" fill="#525370"/>
<path d="M23.9928 18.1413C24.358 16.7834 24.3818 15.3142 23.9917 13.8583L21.1934 14.6081L19.8016 12.1981L21.8511 10.1485C20.8578 9.1533 19.5973 8.39805 18.1414 8.00793L17.3916 10.8063H14.6085L13.8584 8.00684C12.4998 8.36952 11.2155 9.0835 10.1497 10.1493L12.1985 12.1981L10.8067 14.6081L8.00725 13.858C7.64205 15.2159 7.61823 16.6851 8.00834 18.1411L10.8067 17.3912L12.1985 19.8013L10.1489 21.8508C11.1423 22.846 12.4028 23.6013 13.8587 23.9914L14.6085 21.193H17.3916L18.1417 23.9925C19.5003 23.6298 20.7846 22.9158 21.8504 21.85L19.8016 19.8013L21.1934 17.3912L23.9928 18.1413Z" fill="#FC424B"/>
<path d="M16 22.3413C19.5026 22.3413 22.3421 19.5019 22.3421 15.9993C22.3421 12.4967 19.5026 9.65723 16 9.65723C12.4974 9.65723 9.65796 12.4967 9.65796 15.9993C9.65796 19.5019 12.4974 22.3413 16 22.3413Z" fill="#FFFFDB"/>
<path d="M20.1419 0.541992L20.1019 0.69124L26.5646 5.43497L27.3137 4.68583C25.3571 2.7292 22.8955 1.27799 20.1419 0.541992Z" fill="#FFE4D9"/>
<path d="M20.1018 0.691406L18.6413 6.14222C20.4371 6.62338 21.9919 7.55492 23.2172 8.78251L26.5646 5.43507C24.8604 3.23254 22.6325 1.56738 20.1018 0.691406Z" fill="#FFFFDB"/>
<path d="M26.5646 26.5645L20.1019 31.3082L20.1419 31.4574C22.8955 30.7214 25.3571 29.2703 27.3137 27.3136L26.5646 26.5645Z" fill="#FFE4D9"/>
<path d="M31.4575 11.8584L29.696 12.3304V19.6701L31.4575 20.1421C31.8107 18.8209 32 17.4328 32 16.0003C32 14.5678 31.8106 13.1796 31.4575 11.8584Z" fill="#FFE4D9"/>
<path d="M8.7828 23.2168L4.68628 27.3133C6.64292 29.2699 9.10447 30.7211 11.8581 31.4571L13.3587 25.8571C11.5629 25.3759 10.0081 24.4444 8.7828 23.2168Z" fill="#FFFFDB"/>
<path d="M6.14117 13.3576L0.542455 11.8574C0.18936 13.1786 0 14.5667 0 15.9993C0 17.4318 0.18936 18.8199 0.542455 20.1411L6.14252 18.6406C5.6613 16.8447 5.69066 15.0325 6.14117 13.3576Z" fill="#FFFFDB"/>
<path d="M13.3583 6.1407L11.8581 0.541992C9.10447 1.27799 6.64291 2.72913 4.68628 4.68583L8.78382 8.78337C10.0984 7.46874 11.6826 6.588 13.3583 6.1407Z" fill="#FFFFDB"/>
<path d="M18.6417 25.8585L20.1018 31.308C22.6325 30.432 24.8604 28.7668 26.5646 26.5642L23.2162 23.2158C21.9016 24.5305 20.3174 25.4112 18.6417 25.8585Z" fill="#FFFFDB"/>
<path d="M29.6961 12.3301L25.8575 13.3586C26.3387 15.1544 26.3093 16.9667 25.8589 18.6416L29.6961 19.6698C29.9392 18.4913 30.0684 17.2628 30.0684 15.9999C30.0684 14.737 29.9392 13.5085 29.6961 12.3301Z" fill="#FFFFDB"/>
<path d="M16 11.5898V20.4108C18.4358 20.4108 20.4105 18.4362 20.4105 16.0003C20.4105 13.5644 18.4358 11.5898 16 11.5898Z" fill="#FC424B"/>
<path d="M18.4789 16.0003C18.4789 13.5644 17.369 11.5898 16 11.5898C13.5642 11.5898 11.5895 13.5644 11.5895 16.0003C11.5895 18.4362 13.5642 20.4108 16 20.4108C17.369 20.4108 18.4789 18.4362 18.4789 16.0003Z" fill="#FF6363"/>
</svg>
