<svg width="32" height="32" viewBox="0 0 32 32" fill="none" xmlns="http://www.w3.org/2000/svg">
<path d="M22.7606 0V18.4789C27.8634 18.4789 32 14.3422 32 9.23944C32 4.13663 27.8634 0 22.7606 0Z" fill="#FFBA9C"/>
<path d="M30.0684 9.23944C30.0684 4.13663 26.7965 0 22.7606 0C17.6577 0 13.5211 4.13663 13.5211 9.23944C13.5211 14.3422 17.6577 18.4789 22.7606 18.4789C26.7965 18.4789 30.0684 14.3422 30.0684 9.23944Z" fill="#FFD1BD"/>
<path d="M13.1026 5.79492C5.86624 5.79492 0 11.6612 0 18.8975C0 26.1339 5.86624 32.0002 13.1026 32.0002C20.339 32.0002 26.2052 26.1339 26.2052 18.8975C26.2052 11.6612 20.339 5.79492 13.1026 5.79492ZM13.1026 21.8473C11.4669 21.8473 10.1408 20.5212 10.1408 18.8855C10.1408 17.2498 11.4669 15.9237 13.1026 15.9237C14.7383 15.9237 16.0644 17.2498 16.0644 18.8855C16.0644 20.5212 14.7383 21.8473 13.1026 21.8473Z" fill="#FFA66B"/>
<path d="M23.6009 17.2612C23.0207 16.681 22.7941 15.8353 23.0064 15.0427C23.3347 13.8174 22.6076 12.558 21.3824 12.2296C20.5897 12.0172 19.9706 11.3982 19.7583 10.6056C19.4458 9.43927 18.2898 8.7251 17.1225 8.94202L19.9275 18.8853L17.1225 28.8286C18.2898 29.0455 19.4458 28.3313 19.7583 27.1651C19.9707 26.3725 20.5898 25.7533 21.3824 25.541C22.6076 25.2127 23.3347 23.9532 23.0064 22.728C22.794 21.9354 23.0207 21.0897 23.6009 20.5095C24.4979 19.6124 24.4979 18.1582 23.6009 17.2612Z" fill="#8F503B"/>
<path d="M18.6075 27.1647C18.7831 26.3721 19.2952 25.7529 19.9507 25.5406C20.9642 25.2123 21.5656 23.9528 21.294 22.7276C21.1184 21.935 21.3058 21.0893 21.7857 20.5091C22.5275 19.6121 22.5275 18.1578 21.7857 17.2609C21.3058 16.6806 21.1184 15.835 21.294 15.0423C21.5656 13.8171 20.9642 12.5576 19.9508 12.2293C19.2952 12.0169 18.7832 11.3978 18.6075 10.6052C18.4121 9.72357 17.818 9.09986 17.1226 8.94167C17.0635 8.95268 17.0044 8.9653 16.9454 8.98107C16.1528 9.19348 15.3071 8.96684 14.7268 8.38659C13.8299 7.48963 12.3756 7.48963 11.4787 8.38659C10.8984 8.96684 10.0527 9.19342 9.2601 8.98107C8.03483 8.65276 6.77537 9.37988 6.44707 10.6052C6.23465 11.3977 5.61558 12.0169 4.82298 12.2292C3.59771 12.5575 2.8706 13.817 3.1989 15.0422C3.41132 15.8349 3.18468 16.6806 2.60443 17.2608C1.70746 18.1577 1.70746 19.612 2.60443 20.5089C3.18468 21.0892 3.41125 21.9349 3.1989 22.7275C2.8706 23.9528 3.59771 25.2122 4.82298 25.5405C5.61558 25.7529 6.23472 26.372 6.44707 27.1646C6.77537 28.3899 8.03483 29.117 9.2601 28.7887C10.0527 28.5763 10.8984 28.8029 11.4787 29.3832C12.3756 30.2801 13.8299 30.2801 14.7268 29.3832C15.3071 28.8029 16.1528 28.5763 16.9454 28.7887C17.0044 28.8045 17.0635 28.8171 17.1226 28.8281C17.8179 28.67 18.412 28.0463 18.6075 27.1647ZM13.1026 23.7783C10.4001 23.7783 8.20925 21.5875 8.20925 18.8849C8.20925 16.1824 10.4001 13.9915 13.1026 13.9915C15.8052 13.9915 17.996 16.1824 17.996 18.8849C17.996 21.5875 15.8052 23.7783 13.1026 23.7783Z" fill="#AB6046"/>
<path d="M22.7605 3.86323C23.2939 3.86323 23.7263 3.43083 23.7263 2.89743C23.7263 2.36404 23.2939 1.93164 22.7605 1.93164C22.2271 1.93164 21.7947 2.36404 21.7947 2.89743C21.7947 3.43083 22.2271 3.86323 22.7605 3.86323Z" fill="#AB6046"/>
<path d="M28.6197 10.6884C29.4198 10.6884 30.0684 10.0398 30.0684 9.2397C30.0684 8.43962 29.4198 7.79102 28.6197 7.79102C27.8196 7.79102 27.171 8.43962 27.171 9.2397C27.171 10.0398 27.8196 10.6884 28.6197 10.6884Z" fill="#AB6046"/>
<path d="M27.5624 15.2402C27.8291 15.2402 28.0453 15.024 28.0453 14.7573C28.0453 14.4906 27.8291 14.2744 27.5624 14.2744C27.2957 14.2744 27.0795 14.4906 27.0795 14.7573C27.0795 15.024 27.2957 15.2402 27.5624 15.2402Z" fill="#8F503B"/>
<path d="M25.175 5.3115C25.4417 5.3115 25.6579 5.0953 25.6579 4.8286C25.6579 4.5619 25.4417 4.3457 25.175 4.3457C24.9083 4.3457 24.6921 4.5619 24.6921 4.8286C24.6921 5.0953 24.9083 5.3115 25.175 5.3115Z" fill="#8F503B"/>
<path d="M17.2425 4.92088C17.5092 4.92088 17.7254 4.70467 17.7254 4.43798C17.7254 4.17128 17.5092 3.95508 17.2425 3.95508C16.9758 3.95508 16.7596 4.17128 16.7596 4.43798C16.7596 4.70467 16.9758 4.92088 17.2425 4.92088Z" fill="#AB6046"/>
<path d="M23.2435 6.27732C23.5101 6.27732 23.7263 6.06112 23.7263 5.79442C23.7263 5.52772 23.5101 5.31152 23.2435 5.31152C22.9768 5.31152 22.7606 5.52772 22.7606 5.79442C22.7606 6.06112 22.9768 6.27732 23.2435 6.27732Z" fill="#AB6046"/>
</svg>
