<svg width="32" height="30" viewBox="0 0 32 30" fill="none" xmlns="http://www.w3.org/2000/svg">
<path d="M30.1999 17.8623C30.1999 18.4407 29.9657 18.9637 29.5871 19.3423C29.2078 19.721 28.6847 19.9552 28.1071 19.9552H3.89274C2.73736 19.9552 1.79993 19.0184 1.79993 17.8623C1.79993 17.5527 1.86693 17.2593 1.9873 16.9952C2.09205 16.7655 2.23649 16.5587 2.41274 16.3823C2.79199 16.0037 3.31505 15.7695 3.89274 15.7695H28.1071C28.9535 15.7695 29.6827 16.2717 30.0126 16.9952C30.1329 17.2593 30.1999 17.5527 30.1999 17.8623Z" fill="#884D00"/>
<path d="M30.0127 16.9951C29.9079 17.2241 29.7629 17.4316 29.5872 17.6073C29.208 17.9859 28.6849 18.2201 28.1072 18.2201H3.89286C3.04718 18.2201 2.31793 17.7179 1.98743 16.9952C2.09218 16.7655 2.23655 16.5587 2.41286 16.3823C2.79211 16.0037 3.31518 15.7695 3.89286 15.7695H28.1072C28.9536 15.7695 29.6828 16.2717 30.0127 16.9951Z" fill="#AA6100"/>
<path d="M32 21.644C32 24.3405 30.7516 26.3441 28.7336 27.6732C26.715 29.0029 23.9268 29.658 20.8471 29.658H11.1528C4.99356 29.658 0 27.037 0 21.644C0 21.3434 0.0748125 21.0585 0.210125 20.8022C0.324625 20.5836 0.482687 20.3865 0.674625 20.2186C1.091 19.8537 1.66738 19.6279 2.30294 19.6279H29.6971C30.6254 19.6279 31.4256 20.1093 31.7899 20.8022C31.9252 21.0586 32 21.3435 32 21.644Z" fill="#FFA733"/>
<path d="M31.7898 20.8022C31.3553 22.5977 30.2663 23.9963 28.7336 25.0059C26.715 26.3356 23.9268 26.9907 20.8471 26.9907H11.1528C5.73377 26.9907 1.21777 24.9624 0.210083 20.8022C0.324583 20.5836 0.482645 20.3865 0.674583 20.2186C1.09096 19.8537 1.66733 19.6279 2.3029 19.6279H29.6971C30.6254 19.6279 31.4255 20.1094 31.7898 20.8022Z" fill="#FFB655"/>
<path d="M24.8992 14.8906L19.4853 20.3044C19.3494 20.4398 19.2043 20.5595 19.0508 20.6629C17.9045 21.439 16.3342 21.32 15.3187 20.3044L9.90485 14.8906H24.8992Z" fill="#EEBF00"/>
<path d="M24.8991 14.8906L19.4853 20.3044C19.3494 20.4397 19.2043 20.5594 19.0508 20.6629C18.6377 20.5224 18.2499 20.2875 17.9208 19.9577L12.8537 14.8906H24.8991Z" fill="#FFD422"/>
<path d="M31.3924 15.6465C31.3924 15.9301 31.3455 16.2202 31.244 16.5032C30.8465 17.6124 29.7823 18.043 28.9529 17.4302L27.9582 16.6958C27.264 16.1825 26.3787 16.3926 25.8764 17.1902L25.8341 17.2572C25.352 18.0235 24.5115 18.2512 23.8252 17.8023L21.5978 16.3458C21.0838 16.0101 20.4678 16.0465 19.9812 16.4427L18.1962 17.8947C17.6835 18.3117 17.0304 18.3293 16.5041 17.9396L14.4679 16.4303C13.9475 16.0446 13.3022 16.0569 12.7915 16.4628L10.9375 17.9351C10.4398 18.33 9.81397 18.3527 9.29941 17.9956L6.89891 16.3276C6.4266 15.9997 5.85741 15.9906 5.3786 16.3035L3.13947 17.7679C1.64841 17.9598 0.923097 16.865 0.923097 16.865C0.565972 16.2443 0.53016 15.5086 0.72341 14.8912C0.953035 14.1535 1.50928 13.585 2.23266 13.585H29.768C30.4771 13.585 31.0437 14.1451 31.2767 14.888C31.352 15.126 31.3924 15.383 31.3924 15.6465Z" fill="#6DC82A"/>
<path d="M31.2767 14.8881C31.2669 14.9206 31.2559 14.9525 31.2442 14.985C30.8467 16.0948 29.7824 16.5255 28.953 15.9127L27.9583 15.1776C27.2642 14.665 26.3788 14.8751 25.8766 15.672L25.8343 15.7396C25.3522 16.506 24.5117 16.7336 23.8254 16.2848L21.5979 14.8282C21.084 14.4919 20.4679 14.529 19.9814 14.9251L18.1963 16.3771C17.6837 16.7941 17.0306 16.8111 16.5043 16.4214L14.4681 14.9121C13.9476 14.5264 13.3023 14.5394 12.7916 14.9446L10.9376 16.4175C10.4399 16.8117 9.81407 16.8351 9.29951 16.478L6.89901 14.81C6.4267 14.4815 5.85751 14.4723 5.3787 14.7859L3.13957 16.2496C1.64851 16.4421 0.923198 15.3466 0.923198 15.3466C0.839261 15.2003 0.772948 15.0474 0.723511 14.8913C0.953136 14.1536 1.50939 13.585 2.23276 13.585H29.7681C30.4771 13.585 31.0438 14.1451 31.2767 14.8881Z" fill="#7ED63E"/>
<path d="M30.8368 12.2458C30.8414 12.4624 30.8128 12.6712 30.7568 12.8683C30.5051 13.7453 29.6971 14.3867 28.7395 14.3867C24.9794 14.3867 14.9643 14.3022 13.4538 14.3522C13.42 14.3535 13.3862 14.3548 13.353 14.3555C11.4457 14.4277 11.0111 14.7334 11.0111 15.7502V19.4707C11.0111 19.6619 10.9337 19.8356 10.8082 19.9612C10.6826 20.0867 10.5095 20.1641 10.3183 20.1641C9.9351 20.1641 9.62478 20.4744 9.62478 20.8576V22.4781C9.62478 22.6427 9.60528 22.8021 9.56753 22.9556C9.35353 23.8417 8.55397 24.4993 7.59378 24.4993H7.54241C6.45078 24.4993 5.56735 23.6127 5.5706 22.521L5.57972 19.5878C5.58035 19.3627 5.6721 19.1584 5.81978 19.0114C5.9681 18.8637 6.17172 18.7727 6.39747 18.7727C6.84897 18.7727 7.21522 18.4064 7.21522 17.9549V15.7502C7.21522 14.9969 6.60503 14.3867 5.85172 14.3867H3.30022C2.15203 14.3867 1.18597 13.4805 1.16253 12.3323C1.1391 11.1542 2.0876 10.1914 3.26053 10.1914H28.6979C29.8467 10.1914 30.8141 11.0976 30.8368 12.2458Z" fill="#FF3501"/>
<path d="M30.8368 12.2458C30.8413 12.4624 30.8127 12.6712 30.7568 12.8683C26.7761 12.8645 17.2646 12.7857 15.7957 12.8338C13.8024 12.8995 13.3529 13.1982 13.3529 14.2325V14.3555C11.4456 14.4277 11.011 14.7334 11.011 15.7502V19.4707C11.011 19.6619 10.9336 19.8356 10.8081 19.9612C10.6825 20.0867 10.5094 20.1641 10.3182 20.1641C9.935 20.1641 9.62469 20.4744 9.62469 20.8576V22.4781C9.62469 22.6427 9.60519 22.8021 9.56744 22.9556C8.62675 22.804 7.90919 21.9863 7.91244 21.0027L7.92157 18.07C7.92219 17.8443 8.01394 17.6407 8.16163 17.4937C8.30994 17.346 8.51357 17.2549 8.73932 17.2549C9.19082 17.2549 9.55707 16.8887 9.55707 16.4372V14.2325C9.55707 13.4792 8.94688 12.869 8.19357 12.869H5.64207C4.49388 12.869 3.52782 11.9628 3.50438 10.8146C3.49982 10.598 3.52844 10.3892 3.58507 10.1914H28.6978C29.8466 10.1914 30.814 11.0976 30.8368 12.2458Z" fill="#FF5023"/>
<path d="M18.8357 8.05859L14.1941 12.7022C13.7289 13.1673 13.1805 13.4984 12.5963 13.6942C11.156 14.1808 9.50106 13.8497 8.35481 12.7022L3.7113 8.05859H18.8357Z" fill="#EEBF00"/>
<path d="M18.8356 8.05859L14.194 12.7022C13.7289 13.1673 13.1804 13.4984 12.5963 13.6942C12.0127 13.4984 11.4643 13.1673 10.9998 12.7022L6.35626 8.05859H18.8356Z" fill="#FFD422"/>
<path d="M32 8.71171C32 8.74621 31.9987 8.78002 31.9967 8.81383C31.9714 9.25033 31.784 9.64389 31.4939 9.93408C31.1809 10.247 30.749 10.4402 30.2715 10.4402H1.7285C0.774125 10.4401 0 9.66602 0 8.71171C0 6.64039 0.960187 5.08102 2.41025 3.90808C3.58706 2.95571 5.08719 2.25764 6.65763 1.74571C11.0514 0.315207 16 0.341832 16 0.341832C16 0.341832 32 0.255332 32 8.71171Z" fill="#FFA733"/>
<path d="M31.9999 8.71171C31.9999 8.74621 31.9986 8.78002 31.9967 8.81383H5.24132C4.287 8.81383 3.51282 8.03971 3.51282 7.08533C3.51282 5.01402 4.473 3.45464 5.92307 2.28177C6.15594 2.09308 6.40119 1.91489 6.65751 1.74571C11.0513 0.315207 15.9999 0.341832 15.9999 0.341832C15.9999 0.341832 31.9999 0.255332 31.9999 8.71171Z" fill="#FFB655"/>
<path d="M24.6 3.36691C24.8775 3.66053 24.8644 4.12347 24.5708 4.40097C24.2772 4.6784 23.8142 4.66528 23.5368 4.37172C23.2594 4.07815 22.7487 3.06084 23.0423 2.78334C23.3359 2.50584 24.3226 3.07322 24.6 3.36691Z" fill="#FFF5CC"/>
<path d="M20.7229 6.98118C20.8677 7.3583 20.6794 7.78143 20.3022 7.92624C19.9251 8.07105 19.502 7.88274 19.3572 7.50562C19.2124 7.12849 19.1273 5.99343 19.5044 5.84861C19.8815 5.70386 20.5781 6.60405 20.7229 6.98118Z" fill="#FFF5CC"/>
<path d="M16.7314 3.97258C16.7314 4.37658 16.4039 4.70402 16 4.70402C15.596 4.70402 15.2686 4.37652 15.2686 3.97258C15.2686 3.56858 15.5961 2.47852 16 2.47852C16.404 2.47845 16.7314 3.56858 16.7314 3.97258Z" fill="#FFF5CC"/>
<path d="M12.7097 7.43856C12.6087 7.82968 12.2097 8.06487 11.8186 7.96387C11.4274 7.86287 11.1922 7.46387 11.2932 7.07275C11.3942 6.68162 11.9839 5.70806 12.3751 5.80906C12.7662 5.91006 12.8107 7.0475 12.7097 7.43856Z" fill="#FFF5CC"/>
<path d="M8.68562 4.25296C8.50949 4.61646 8.07205 4.76846 7.70843 4.59234C7.34493 4.41621 7.19293 3.97877 7.36905 3.61515C7.54518 3.25165 8.31512 2.41327 8.67874 2.58946C9.0423 2.76565 8.86174 3.88946 8.68562 4.25296Z" fill="#FFF5CC"/>
</svg>
