<svg width="32" height="28" viewBox="0 0 32 28" fill="none" xmlns="http://www.w3.org/2000/svg">
<path d="M6.73132 16.8232H4.93261C2.78058 16.8232 1.30092 18.9998 2.10236 21.0035L2.31262 21.5291L4.73722 22.4703L7.16094 21.5291L7.81173 19.1762L6.73132 16.8232Z" fill="#FDD82E"/>
<path d="M27.0674 16.8232H25.2686L24.3451 19.1762L24.839 21.5291L27.2305 22.4703L29.6873 21.5291L29.8975 21.0035C30.6967 19.0057 29.2258 16.8232 27.0674 16.8232Z" fill="#FBBD00"/>
<path d="M22.2359 14.9404H21.4608L19.8588 17.7953L19.9967 21.5287L22.2744 22.564L24.839 21.5287L25.4891 19.2533C26.1067 17.0911 24.486 14.9404 22.2359 14.9404Z" fill="#FD8F01"/>
<path d="M9.76409 14.9404C7.51537 14.9404 5.89278 17.0896 6.51088 19.2533L7.16099 21.5287L9.45915 22.4699L12.0032 21.5287L12.3922 18.4321L10.5392 14.9404H9.76409Z" fill="#FBBD00"/>
<path d="M10.0392 8.35265H11.9216C11.9216 8.13405 11.9793 8.05731 12.2734 7.76316C12.6329 7.40351 13.1765 6.85995 13.1765 5.84272C13.1765 4.82544 12.633 4.28194 12.2734 3.92229C11.9792 3.62814 11.9216 3.55146 11.9216 3.3328C11.9216 3.11432 11.9792 3.03764 12.2734 2.74356C12.633 2.38396 13.1765 1.84053 13.1765 0.823242H11.2942C11.2942 1.04172 11.2366 1.1184 10.9425 1.41248C10.5827 1.77207 10.0392 2.31551 10.0392 3.3328C10.0392 4.35008 10.5827 4.89358 10.9423 5.25323C11.2366 5.54738 11.2942 5.62406 11.2942 5.84272C11.2942 6.06133 11.2365 6.13807 10.9423 6.43222C10.5827 6.79187 10.0392 7.33537 10.0392 8.35265Z" fill="#F4F1F1"/>
<path d="M15.6863 0.823242C15.6863 1.04172 15.6287 1.1184 15.3346 1.41248C14.9749 1.77207 14.4314 2.31551 14.4314 3.3328C14.4314 4.35008 14.9749 4.89358 15.3345 5.25323C15.6287 5.54738 15.6863 5.62406 15.6863 5.84272C15.6863 6.06133 15.6286 6.13807 15.3345 6.43222C14.9749 6.79187 14.4314 7.33537 14.4314 8.35265H16L16.3765 4.58795L16 0.823242H15.6863Z" fill="#F4F1F1"/>
<path d="M16.6655 7.76316C17.0251 7.40351 17.5686 6.85995 17.5686 5.84272C17.5686 4.82544 17.0252 4.28194 16.6655 3.92229C16.3713 3.62814 16.3137 3.55146 16.3137 3.3328C16.3137 3.11432 16.3714 3.03764 16.6655 2.74356C17.0251 2.38396 17.5686 1.84053 17.5686 0.823242H16V8.35265H16.3137C16.3137 8.13405 16.3714 8.05731 16.6655 7.76316Z" fill="#ECEAE7"/>
<path d="M20.7058 3.3328C20.7058 3.11432 20.7635 3.03764 21.0576 2.74356C21.4172 2.38396 21.9607 1.84053 21.9607 0.823242H20.0784C20.0784 1.04172 20.0207 1.1184 19.7266 1.41248C19.367 1.77207 18.8235 2.31551 18.8235 3.3328C18.8235 4.35008 19.3669 4.89358 19.7266 5.25323C20.0208 5.54738 20.0784 5.62406 20.0784 5.84272C20.0784 6.06133 20.0207 6.13807 19.7266 6.43222C19.3669 6.79187 18.8235 7.33537 18.8235 8.35265H20.7058C20.7058 8.13405 20.7635 8.05731 21.0576 7.76316C21.4172 7.40351 21.9607 6.85995 21.9607 5.84272C21.9607 4.82544 21.4173 4.28194 21.0576 3.92229C20.7635 3.62814 20.7058 3.5514 20.7058 3.3328Z" fill="#ECEAE7"/>
<path d="M10.2282 13.5415L12.0032 21.5289L13.7412 22.4701L16 21.5289L17.098 17.0842L16 11.6982C12.6601 11.6982 10.6468 13.3502 10.2282 13.5415Z" fill="#FDD82E"/>
<path d="M16 11.6982V21.5289L17.8824 22.4701L19.9968 21.5289L21.7718 13.5414C21.3642 13.3552 19.3271 11.6982 16 11.6982Z" fill="#FBBD00"/>
<path d="M1.97705 23.4119C2.41213 25.5465 4.30483 27.1766 6.58825 27.1766H16L16.9412 25.2942L16 23.4119L8.98856 22.4707L1.97705 23.4119Z" fill="#734536"/>
<path d="M16 27.1766H25.4118C27.6966 27.1766 29.5882 25.5451 30.0229 23.4119L23.0114 22.4707L16 23.4119V27.1766Z" fill="#4A2E1A"/>
<path d="M16 21.5293C15.5677 21.5293 0.425976 21.5293 0 21.5293V23.4117H16L16.9412 22.4705L16 21.5293Z" fill="#9D4F14"/>
<path d="M16 21.5293V23.4117H32C32 22.7533 32 22.1876 32 21.5293C31.5149 21.5293 16.3616 21.5293 16 21.5293Z" fill="#734536"/>
</svg>
