<svg width="250" height="335" viewBox="0 0 250 335" fill="none" xmlns="http://www.w3.org/2000/svg">
<rect x="37" y="205.617" width="100.486" height="100.486" rx="30" fill="white"/>
<g clip-path="url(#clip0)">
<path d="M99.7206 286.005H117.389V250.669H99.7206L90.8865 268.337L99.7206 286.005Z" fill="#CFE6E6"/>
<path d="M82.0525 250.669H99.7207V286.005H82.0525V250.669Z" fill="#E6F2F2"/>
<path d="M90.8864 278.809C93.309 278.809 95.2729 276.849 95.2729 274.432C95.2729 272.014 93.309 270.054 90.8864 270.054C88.4639 270.054 86.5 272.014 86.5 274.432C86.5 276.849 88.4639 278.809 90.8864 278.809Z" fill="#3E3373"/>
<path d="M108.554 266.62C110.977 266.62 112.941 264.66 112.941 262.242C112.941 259.825 110.977 257.865 108.554 257.865C106.132 257.865 104.168 259.825 104.168 262.242C104.168 264.66 106.132 266.62 108.554 266.62Z" fill="#281F59"/>
<path d="M76.5924 262.877H94.2606V227.541H76.5924L67.7583 245.209L76.5924 262.877Z" fill="#CFE6E6"/>
<path d="M58.9243 227.541H76.5925V262.877H58.9243V227.541Z" fill="#E6F2F2"/>
<path d="M85.1707 245.21C85.1707 249.938 81.3306 253.77 76.5929 253.77L73.1919 245.036L76.5929 236.65C81.3306 236.65 85.1707 240.482 85.1707 245.21V245.21Z" fill="#CC2929"/>
<path d="M76.5929 236.65V253.77C71.8552 253.77 68.015 249.938 68.015 245.21C68.015 240.482 71.8552 236.65 76.5929 236.65V236.65Z" fill="#FF4D4D"/>
</g>
<rect x="155.43" y="106.925" width="73.5701" height="73.5701" rx="22" fill="white"/>
<path d="M199.38 119.486V146.427C206.819 146.427 212.85 140.396 212.85 132.957C212.85 125.517 206.819 119.486 199.38 119.486Z" fill="#FFBA9C"/>
<path d="M210.034 132.957C210.034 125.517 205.264 119.486 199.38 119.486C191.94 119.486 185.909 125.517 185.909 132.957C185.909 140.396 191.94 146.427 199.38 146.427C205.264 146.427 210.034 140.396 210.034 132.957Z" fill="#FFD1BD"/>
<path d="M185.299 127.935C174.749 127.935 166.196 136.488 166.196 147.038C166.196 157.588 174.749 166.141 185.299 166.141C195.849 166.141 204.402 157.588 204.402 147.038C204.402 136.488 195.849 127.935 185.299 127.935ZM185.299 151.339C182.914 151.339 180.981 149.405 180.981 147.02C180.981 144.636 182.914 142.702 185.299 142.702C187.684 142.702 189.617 144.636 189.617 147.02C189.617 149.405 187.684 151.339 185.299 151.339Z" fill="#FFA66B"/>
<path d="M200.605 144.652C199.759 143.806 199.429 142.574 199.738 141.418C200.217 139.632 199.157 137.795 197.371 137.317C196.215 137.007 195.312 136.104 195.003 134.949C194.547 133.248 192.862 132.207 191.16 132.523L195.25 147.02L191.16 161.517C192.862 161.833 194.547 160.792 195.003 159.092C195.313 157.936 196.215 157.033 197.371 156.724C199.157 156.245 200.217 154.409 199.738 152.623C199.429 151.467 199.759 150.234 200.605 149.388C201.913 148.08 201.913 145.96 200.605 144.652V144.652Z" fill="#8F503B"/>
<path d="M193.325 159.091C193.581 157.936 194.328 157.033 195.283 156.724C196.761 156.245 197.638 154.409 197.242 152.622C196.986 151.467 197.259 150.234 197.959 149.388C199.04 148.08 199.04 145.96 197.959 144.652C197.259 143.806 196.986 142.573 197.242 141.418C197.638 139.631 196.761 137.795 195.284 137.316C194.328 137.007 193.581 136.104 193.325 134.949C193.04 133.663 192.174 132.754 191.16 132.523C191.074 132.539 190.988 132.558 190.902 132.581C189.746 132.89 188.513 132.56 187.667 131.714C186.36 130.406 184.239 130.406 182.932 131.714C182.086 132.56 180.853 132.89 179.697 132.581C177.911 132.102 176.074 133.162 175.596 134.948C175.286 136.104 174.384 137.007 173.228 137.316C171.442 137.795 170.382 139.631 170.86 141.417C171.17 142.573 170.839 143.806 169.993 144.652C168.686 145.96 168.686 148.08 169.993 149.388C170.839 150.234 171.17 151.467 170.86 152.622C170.382 154.409 171.442 156.245 173.228 156.723C174.384 157.033 175.286 157.936 175.596 159.091C176.074 160.878 177.911 161.938 179.697 161.459C180.853 161.149 182.086 161.48 182.932 162.326C184.239 163.634 186.36 163.634 187.667 162.326C188.513 161.48 189.746 161.149 190.902 161.459C190.988 161.482 191.074 161.501 191.16 161.517C192.174 161.286 193.04 160.377 193.325 159.091ZM185.299 154.154C181.359 154.154 178.165 150.96 178.165 147.02C178.165 143.08 181.359 139.886 185.299 139.886C189.239 139.886 192.434 143.08 192.434 147.02C192.434 150.96 189.239 154.154 185.299 154.154Z" fill="#AB6046"/>
<path d="M199.38 125.119C200.158 125.119 200.788 124.488 200.788 123.711C200.788 122.933 200.158 122.302 199.38 122.302C198.602 122.302 197.972 122.933 197.972 123.711C197.972 124.488 198.602 125.119 199.38 125.119Z" fill="#AB6046"/>
<path d="M207.923 135.069C209.089 135.069 210.035 134.124 210.035 132.957C210.035 131.791 209.089 130.845 207.923 130.845C206.756 130.845 205.81 131.791 205.81 132.957C205.81 134.124 206.756 135.069 207.923 135.069Z" fill="#AB6046"/>
<path d="M206.381 141.705C206.77 141.705 207.085 141.39 207.085 141.001C207.085 140.612 206.77 140.297 206.381 140.297C205.992 140.297 205.677 140.612 205.677 141.001C205.677 141.39 205.992 141.705 206.381 141.705Z" fill="#8F503B"/>
<path d="M202.9 127.231C203.289 127.231 203.604 126.915 203.604 126.526C203.604 126.138 203.289 125.822 202.9 125.822C202.511 125.822 202.196 126.138 202.196 126.526C202.196 126.915 202.511 127.231 202.9 127.231Z" fill="#8F503B"/>
<path d="M191.335 126.66C191.724 126.66 192.039 126.345 192.039 125.956C192.039 125.567 191.724 125.252 191.335 125.252C190.946 125.252 190.631 125.567 190.631 125.956C190.631 126.345 190.946 126.66 191.335 126.66Z" fill="#AB6046"/>
<path d="M200.084 128.638C200.473 128.638 200.788 128.323 200.788 127.934C200.788 127.545 200.473 127.23 200.084 127.23C199.695 127.23 199.38 127.545 199.38 127.934C199.38 128.323 199.695 128.638 200.084 128.638Z" fill="#AB6046"/>
<rect x="62.1215" y="19" width="73.5701" height="73.5701" rx="22" fill="white"/>
<path d="M122.279 48.3848C121.124 44.0612 118.845 40.1964 115.773 37.1243L104.512 30.6181C102.438 30.0637 100.259 29.7664 98.0094 29.7664V80.0093C100.259 80.0093 102.438 79.712 104.512 79.1576L115.773 72.6514C118.845 69.5793 121.124 65.7145 122.279 61.3909L120.111 54.8879L122.279 48.3848Z" fill="#FC424B"/>
<path d="M114.597 71.4753C116.953 68.4304 118.671 64.7323 119.513 60.6499V49.1259C118.671 45.0435 116.953 41.3454 114.597 38.3005L104.45 30.8524C102.412 30.1471 100.25 29.7664 98.0093 29.7664C95.7601 29.7664 93.5806 30.0637 91.5062 30.6181L80.2457 37.1243C77.1736 40.1964 74.8952 44.0612 73.7395 48.3848V61.3909C74.8951 65.7146 77.1735 69.5793 80.2457 72.6514L91.5062 79.1576C93.5806 79.7121 95.7601 80.0093 98.0093 80.0093C100.25 80.0093 102.412 79.6286 104.45 78.9233L114.597 71.4753Z" fill="#FF6363"/>
<path d="M110.559 51.525C109.989 49.392 108.868 47.3755 107.195 45.7021L101.372 42.3382C99.24 41.7649 96.9332 41.7274 94.6473 42.34L88.8226 45.7009C87.26 47.2605 86.0742 49.2396 85.4617 51.5255L85.46 58.2503C86.0294 60.3834 87.1504 62.3999 88.8238 64.0732L94.6467 67.4371C96.7788 68.0105 99.0856 68.0479 101.372 67.4354L107.196 64.0745C108.759 62.5148 109.945 60.5357 110.557 58.2498L110.559 51.525Z" fill="#525370"/>
<path d="M110.559 58.2506C111.132 56.1185 111.169 53.8117 110.557 51.5258L106.163 52.7031L103.978 48.9191L107.196 45.7011C105.636 44.1386 103.657 42.9527 101.371 42.3402L100.194 46.7339H95.8242L94.6465 42.3385C92.5134 42.908 90.4969 44.029 88.8236 45.7024L92.0403 48.9191L89.8551 52.7031L85.4597 51.5254C84.8863 53.6574 84.8489 55.9643 85.4614 58.2502L89.8551 57.0728L92.0403 60.8568L88.8223 64.0748C90.382 65.6374 92.3611 66.8232 94.647 67.4357L95.8243 63.0421H100.194L101.372 67.4375C103.505 66.868 105.521 65.747 107.195 64.0736L103.978 60.8568L106.163 57.0728L110.559 58.2506Z" fill="#FC424B"/>
<path d="M98.0092 64.845C103.509 64.845 107.967 60.3868 107.967 54.8874C107.967 49.3879 103.509 44.9297 98.0092 44.9297C92.5098 44.9297 88.0516 49.3879 88.0516 54.8874C88.0516 60.3868 92.5098 64.845 98.0092 64.845Z" fill="#FFFFDB"/>
<path d="M104.512 30.6178L104.45 30.8521L114.597 38.3002L115.773 37.124C112.701 34.0519 108.836 31.7734 104.512 30.6178V30.6178Z" fill="#FFE4D9"/>
<path d="M104.449 30.8522L102.156 39.4105C104.976 40.1659 107.417 41.6285 109.341 43.556L114.597 38.3002C111.921 34.842 108.423 32.2275 104.449 30.8522V30.8522Z" fill="#FFFFDB"/>
<path d="M114.597 71.4755L104.45 78.9236L104.512 79.1579C108.836 78.0023 112.701 75.7239 115.773 72.6517L114.597 71.4755Z" fill="#FFE4D9"/>
<path d="M122.279 48.3849L119.514 49.1261V60.6501L122.279 61.3912C122.834 59.3168 123.131 57.1373 123.131 54.8881C123.131 52.6389 122.834 50.4594 122.279 48.3849V48.3849Z" fill="#FFE4D9"/>
<path d="M86.6779 66.2191L80.246 72.651C83.3181 75.7231 87.1829 78.0015 91.5065 79.1572L93.8624 70.3646C91.0429 69.6092 88.6017 68.1465 86.6779 66.2191V66.2191Z" fill="#FFFFDB"/>
<path d="M82.53 50.7396L73.7395 48.3843C73.1851 50.4587 72.8878 52.6382 72.8878 54.8874C72.8878 57.1366 73.1851 59.316 73.7395 61.3904L82.5321 59.0345C81.7766 56.2148 81.8227 53.3695 82.53 50.7396V50.7396Z" fill="#FFFFDB"/>
<path d="M93.8619 39.4083L91.5065 30.6178C87.1829 31.7734 83.3181 34.0518 80.246 37.124L86.6795 43.5575C88.7435 41.4934 91.2308 40.1106 93.8619 39.4083V39.4083Z" fill="#FFFFDB"/>
<path d="M102.157 70.367L104.45 78.9232C108.423 77.5478 111.921 74.9334 114.597 71.4751L109.34 66.2178C107.276 68.2819 104.788 69.6647 102.157 70.367Z" fill="#FFFFDB"/>
<path d="M119.514 49.1255L113.487 50.7403C114.242 53.56 114.196 56.4054 113.489 59.0352L119.514 60.6495C119.895 58.7991 120.098 56.8703 120.098 54.8875C120.098 52.9046 119.895 50.9758 119.514 49.1255Z" fill="#FFFFDB"/>
<path d="M98.0094 47.9631V61.8127C101.834 61.8127 104.934 58.7124 104.934 54.8879C104.934 51.0634 101.834 47.9631 98.0094 47.9631Z" fill="#FC424B"/>
<path d="M101.901 54.8879C101.901 51.0634 100.159 47.9631 98.0094 47.9631C94.185 47.9631 91.0846 51.0634 91.0846 54.8879C91.0846 58.7124 94.185 61.8127 98.0094 61.8127C100.159 61.8127 101.901 58.7124 101.901 54.8879Z" fill="#FF6363"/>
<defs>
<clipPath id="clip0">
<rect width="58.4646" height="58.4646" fill="white" transform="translate(58.9243 227.541)"/>
</clipPath>
</defs>
</svg>
