<svg width="673" height="669" viewBox="0 0 673 669" fill="none" xmlns="http://www.w3.org/2000/svg">
<g filter="url(#filter0_d)">
<path d="M256.295 585.905C258.923 578.99 266.2 575.023 273.436 576.561L291.604 580.423C298.531 581.895 303.484 588.011 303.485 595.092L303.494 634.341C303.496 643.838 294.784 650.946 285.48 649.038L253.42 642.463C244.366 640.606 239.129 631.08 242.412 622.44L256.295 585.905Z" fill="#C4C4C4"/>
<path d="M256.295 585.905C258.923 578.99 266.2 575.023 273.436 576.561L291.604 580.423C298.531 581.895 303.484 588.011 303.485 595.092L303.494 634.341C303.496 643.838 294.784 650.946 285.48 649.038L253.42 642.463C244.366 640.606 239.129 631.08 242.412 622.44L256.295 585.905Z" fill="url(#paint0_radial)"/>
<path d="M256.295 585.905C258.923 578.99 266.2 575.023 273.436 576.561L291.604 580.423C298.531 581.895 303.484 588.011 303.485 595.092L303.494 634.341C303.496 643.838 294.784 650.946 285.48 649.038L253.42 642.463C244.366 640.606 239.129 631.08 242.412 622.44L256.295 585.905Z" fill="url(#paint1_radial)"/>
</g>
<path d="M272.156 626.214C272.257 627.177 273.532 627.448 274.016 626.609L275.747 623.612C275.963 623.236 276.397 623.043 276.821 623.133L280.206 623.853C281.154 624.054 281.805 622.926 281.157 622.206L278.841 619.634C278.551 619.312 278.502 618.84 278.718 618.464L280.449 615.467C280.933 614.628 280.061 613.659 279.176 614.053L276.014 615.461C275.619 615.637 275.154 615.539 274.864 615.217L272.548 612.645C271.9 611.925 270.709 612.455 270.811 613.418L271.173 616.861C271.218 617.291 270.981 617.702 270.585 617.879L267.423 619.286C266.538 619.68 266.674 620.977 267.622 621.178L271.007 621.898C271.431 621.988 271.748 622.34 271.794 622.771L272.156 626.214Z" fill="url(#paint2_radial)"/>
<path d="M277.631 605.028L259.591 608.133L279.131 597.974L292.848 615.202L277.631 605.028Z" fill="url(#paint3_radial)"/>
<g filter="url(#filter1_d)">
<path d="M204.945 563.667C208.953 557.449 216.896 555.082 223.654 558.091L240.622 565.645C247.091 568.525 250.665 575.537 249.194 582.464L241.042 620.857C239.07 630.147 229.07 635.289 220.366 631.488L190.374 618.39C181.903 614.691 178.761 604.286 183.769 596.517L204.945 563.667Z" fill="#C4C4C4"/>
<path d="M204.945 563.667C208.953 557.449 216.896 555.082 223.654 558.091L240.622 565.645C247.091 568.525 250.665 575.537 249.194 582.464L241.042 620.857C239.07 630.147 229.07 635.289 220.366 631.488L190.374 618.39C181.903 614.691 178.761 604.286 183.769 596.517L204.945 563.667Z" fill="url(#paint4_radial)"/>
<path d="M204.945 563.667C208.953 557.449 216.896 555.082 223.654 558.091L240.622 565.645C247.091 568.525 250.665 575.537 249.194 582.464L241.042 620.857C239.07 630.147 229.07 635.289 220.366 631.488L190.374 618.39C181.903 614.691 178.761 604.286 183.769 596.517L204.945 563.667Z" fill="url(#paint5_radial)"/>
</g>
<path d="M219.585 594.329L198.06 593.502L223.042 586.564L234.602 609.772L219.585 594.329Z" fill="url(#paint6_radial)"/>
<g filter="url(#filter2_d)">
<path d="M159.341 531.238C164.554 525.989 172.815 525.325 178.8 529.673L193.826 540.591C199.555 544.753 201.593 552.354 198.714 558.824L182.758 594.683C178.897 603.36 168.047 606.31 160.324 600.783L133.71 581.736C126.193 576.356 125.284 565.525 131.797 558.967L159.341 531.238Z" fill="#C4C4C4"/>
<path d="M159.341 531.238C164.554 525.989 172.815 525.325 178.8 529.673L193.826 540.591C199.555 544.753 201.593 552.354 198.714 558.824L182.758 594.683C178.897 603.36 168.047 606.31 160.324 600.783L133.71 581.736C126.193 576.356 125.284 565.525 131.797 558.967L159.341 531.238Z" fill="url(#paint7_radial)"/>
<path d="M159.341 531.238C164.554 525.989 172.815 525.325 178.8 529.673L193.826 540.591C199.555 544.753 201.593 552.354 198.714 558.824L182.758 594.683C178.897 603.36 168.047 606.31 160.324 600.783L133.71 581.736C126.193 576.356 125.284 565.525 131.797 558.967L159.341 531.238Z" fill="url(#paint8_radial)"/>
</g>
<path d="M158.688 576.658C157.904 577.227 156.85 576.461 157.149 575.54L158.219 572.248C158.352 571.836 158.206 571.385 157.855 571.13L155.055 569.096C154.271 568.526 154.674 567.287 155.643 567.287L159.104 567.287C159.537 567.287 159.921 567.008 160.055 566.596L161.125 563.304C161.424 562.383 162.727 562.383 163.027 563.304L164.096 566.596C164.23 567.008 164.614 567.287 165.047 567.287L168.509 567.287C169.477 567.287 169.88 568.526 169.096 569.096L166.296 571.13C165.946 571.385 165.799 571.836 165.933 572.248L167.003 575.54C167.302 576.461 166.247 577.227 165.464 576.658L162.664 574.624C162.313 574.369 161.838 574.369 161.488 574.624L158.688 576.658Z" fill="url(#paint9_radial)"/>
<path d="M170.768 558.413L180.531 573.897L175.007 552.578L153.025 553.912L170.768 558.413Z" fill="url(#paint10_radial)"/>
<g filter="url(#filter3_d)">
<path d="M121.475 490.035C127.665 485.985 135.884 487.053 140.834 492.551L153.262 506.354C158 511.616 158.413 519.475 154.252 525.205L131.189 556.963C125.609 564.648 114.382 565.277 107.977 558.265L85.9047 534.101C79.671 527.276 81.0332 516.492 88.768 511.432L121.475 490.035Z" fill="#C4C4C4"/>
<path d="M121.475 490.035C127.665 485.985 135.884 487.053 140.834 492.551L153.262 506.354C158 511.616 158.413 519.475 154.252 525.205L131.189 556.963C125.609 564.648 114.382 565.277 107.977 558.265L85.9047 534.101C79.671 527.276 81.0332 516.492 88.768 511.432L121.475 490.035Z" fill="url(#paint11_radial)"/>
<path d="M121.475 490.035C127.665 485.985 135.884 487.053 140.834 492.551L153.262 506.354C158 511.616 158.413 519.475 154.252 525.205L131.189 556.963C125.609 564.648 114.382 565.277 107.977 558.265L85.9047 534.101C79.671 527.276 81.0332 516.492 88.768 511.432L121.475 490.035Z" fill="url(#paint12_radial)"/>
</g>
<path d="M121.634 524.67L102.306 515.16L127.95 518.982L129.071 544.886L121.634 524.67Z" fill="url(#paint13_radial)"/>
<g filter="url(#filter4_d)">
<path d="M93.0029 441.86C99.9001 439.186 107.717 441.94 111.416 448.346L120.703 464.432C124.244 470.564 123.013 478.337 117.752 483.077L88.5902 509.346C81.5339 515.702 70.4215 513.984 65.6143 505.793L49.0485 477.568C44.3699 469.597 47.9444 459.331 56.5622 455.99L93.0029 441.86Z" fill="#C4C4C4"/>
<path d="M93.0029 441.86C99.9001 439.186 107.717 441.94 111.416 448.346L120.703 464.432C124.244 470.564 123.013 478.337 117.752 483.077L88.5902 509.346C81.5339 515.702 70.4215 513.984 65.6143 505.793L49.0485 477.568C44.3699 469.597 47.9444 459.331 56.5622 455.99L93.0029 441.86Z" fill="url(#paint14_radial)"/>
<path d="M93.0029 441.86C99.9001 439.186 107.717 441.94 111.416 448.346L120.703 464.432C124.244 470.564 123.013 478.337 117.752 483.077L88.5902 509.346C81.5339 515.702 70.4215 513.984 65.6143 505.793L49.0485 477.568C44.3699 469.597 47.9444 459.331 56.5622 455.99L93.0029 441.86Z" fill="url(#paint15_radial)"/>
</g>
<path d="M90.2578 471.944L93.3296 493.265L97.619 467.694L73.3296 458.624L90.2578 471.944Z" fill="url(#paint16_radial)"/>
<path d="M82.2191 476.56L85.6003 493.083L87.1266 473.727L69.6003 465.37L82.2191 476.56Z" fill="url(#paint17_radial)"/>
<path d="M76.6556 479.772L78.1362 488.155L79.3324 478.227L70.1362 474.298L76.6556 479.772Z" fill="url(#paint18_radial)"/>
<g filter="url(#filter5_d)">
<path d="M75.1696 388.819C82.4722 387.637 89.546 391.956 91.8319 398.991L97.5717 416.656C99.7598 423.391 96.9403 430.738 90.8087 434.28L56.8224 453.912C48.5988 458.663 38.0864 454.672 35.0872 445.66L24.7517 414.608C21.8328 405.838 27.4634 396.54 36.5877 395.063L75.1696 388.819Z" fill="#C4C4C4"/>
<path d="M75.1696 388.819C82.4722 387.637 89.546 391.956 91.8319 398.991L97.5717 416.656C99.7598 423.391 96.9403 430.738 90.8087 434.28L56.8224 453.912C48.5988 458.663 38.0864 454.672 35.0872 445.66L24.7517 414.608C21.8328 405.838 27.4634 396.54 36.5877 395.063L75.1696 388.819Z" fill="url(#paint19_radial)"/>
<path d="M75.1696 388.819C82.4722 387.637 89.546 391.956 91.8319 398.991L97.5717 416.656C99.7598 423.391 96.9403 430.738 90.8087 434.28L56.8224 453.912C48.5988 458.663 38.0864 454.672 35.0872 445.66L24.7517 414.608C21.8328 405.838 27.4634 396.54 36.5877 395.063L75.1696 388.819Z" fill="url(#paint20_radial)"/>
</g>
<path d="M48.7285 424.361C47.7598 424.361 47.357 423.121 48.1407 422.552L50.9409 420.517C51.2914 420.263 51.438 419.811 51.3041 419.399L50.2346 416.108C49.9352 415.186 50.9897 414.42 51.7734 414.99L54.5736 417.024C54.9241 417.279 55.3987 417.279 55.7491 417.024L58.5493 414.99C59.333 414.42 60.3875 415.186 60.0882 416.108L59.0186 419.399C58.8847 419.811 59.0314 420.263 59.3819 420.517L62.182 422.552C62.9657 423.121 62.563 424.361 61.5942 424.361L58.133 424.361C57.6998 424.361 57.3159 424.64 57.182 425.052L56.1124 428.344C55.8131 429.265 54.5097 429.265 54.2103 428.344L53.1407 425.052C53.0069 424.64 52.6229 424.361 52.1897 424.361L48.7285 424.361Z" fill="url(#paint21_radial)"/>
<path d="M69.2253 416.701L68.0229 434.967L76.0845 414.472L57.5164 402.631L69.2253 416.701Z" fill="url(#paint22_radial)"/>
<g filter="url(#filter6_d)">
<path d="M68.7535 333.229C76.1422 333.591 82.1636 339.286 82.9368 346.643L84.8783 365.115C85.6185 372.157 81.333 378.758 74.5989 380.948L37.2736 393.085C28.242 396.021 18.7891 389.932 17.729 380.494L14.0756 347.971C13.0438 338.786 20.4845 330.862 29.7164 331.315L68.7535 333.229Z" fill="#C4C4C4"/>
<path d="M68.7535 333.229C76.1422 333.591 82.1636 339.286 82.9368 346.643L84.8783 365.115C85.6185 372.157 81.333 378.758 74.5989 380.948L37.2736 393.085C28.242 396.021 18.7891 389.932 17.729 380.494L14.0756 347.971C13.0438 338.786 20.4845 330.862 29.7164 331.315L68.7535 333.229Z" fill="url(#paint23_radial)"/>
<path d="M68.7535 333.229C76.1422 333.591 82.1636 339.286 82.9368 346.643L84.8783 365.115C85.6185 372.157 81.333 378.758 74.5989 380.948L37.2736 393.085C28.242 396.021 18.7891 389.932 17.729 380.494L14.0756 347.971C13.0438 338.786 20.4845 330.862 29.7164 331.315L68.7535 333.229Z" fill="url(#paint24_radial)"/>
</g>
<path d="M48.4198 360.348L38.373 341.293L56.8732 359.459L42.5542 381.074L48.4198 360.348Z" fill="url(#paint25_radial)"/>
<g filter="url(#filter7_d)">
<path d="M74.0357 277.519C81.1876 279.41 85.8933 286.232 85.1201 293.589L83.1786 312.062C82.4384 319.104 76.8741 324.669 69.832 325.411L30.7989 329.522C21.3541 330.517 13.3738 322.596 14.2991 313.144L17.4875 280.572C18.3879 271.373 27.3135 265.169 36.2495 267.531L74.0357 277.519Z" fill="#C4C4C4"/>
<path d="M74.0357 277.519C81.1876 279.41 85.8933 286.232 85.1201 293.589L83.1786 312.062C82.4384 319.104 76.8741 324.669 69.832 325.411L30.7989 329.522C21.3541 330.517 13.3738 322.596 14.2991 313.144L17.4875 280.572C18.3879 271.373 27.3135 265.169 36.2495 267.531L74.0357 277.519Z" fill="url(#paint26_radial)"/>
<path d="M74.0357 277.519C81.1876 279.41 85.8933 286.232 85.1201 293.589L83.1786 312.062C82.4384 319.104 76.8741 324.669 69.832 325.411L30.7989 329.522C21.3541 330.517 13.3738 322.596 14.2991 313.144L17.4875 280.572C18.3879 271.373 27.3135 265.169 36.2495 267.531L74.0357 277.519Z" fill="url(#paint27_radial)"/>
</g>
<path d="M53.9755 301.398L48.1099 280.671L62.4289 302.287L43.9287 320.452L53.9755 301.398Z" fill="url(#paint28_radial)"/>
<path d="M44.7545 300.451L41.1228 283.981L50.3901 301.043L37.7779 315.806L44.7545 300.451Z" fill="url(#paint29_radial)"/>
<path d="M38.3655 299.779L36.3086 291.519L41.4395 300.102L34.6361 307.431L38.3655 299.779Z" fill="url(#paint30_radial)"/>
<g filter="url(#filter8_d)">
<path d="M90.7849 224.125C97.3874 227.462 100.572 235.113 98.286 242.149L92.5463 259.814C90.3581 266.548 83.7583 270.835 76.7158 270.097L37.681 266.003C28.2357 265.012 22.0768 255.604 24.947 246.551L34.8378 215.354C37.6312 206.543 47.6515 202.331 55.9012 206.499L90.7849 224.125Z" fill="#C4C4C4"/>
<path d="M90.7849 224.125C97.3874 227.462 100.572 235.113 98.286 242.149L92.5463 259.814C90.3581 266.548 83.7583 270.835 76.7158 270.097L37.681 266.003C28.2357 265.012 22.0768 255.604 24.947 246.551L34.8378 215.354C37.6312 206.543 47.6515 202.331 55.9012 206.499L90.7849 224.125Z" fill="url(#paint31_radial)"/>
<path d="M90.7849 224.125C97.3874 227.462 100.572 235.113 98.286 242.149L92.5463 259.814C90.3581 266.548 83.7583 270.835 76.7158 270.097L37.681 266.003C28.2357 265.012 22.0768 255.604 24.947 246.551L34.8378 215.354C37.6312 206.543 47.6515 202.331 55.9012 206.499L90.7849 224.125Z" fill="url(#paint32_radial)"/>
</g>
<path d="M60.2279 240.32L58.7998 218.827L68.3119 242.947L46.4391 256.869L60.2279 240.32Z" fill="url(#paint33_radial)"/>
<g filter="url(#filter9_d)">
<path d="M118.27 175.381C124.034 180.017 125.558 188.163 121.86 194.57L112.573 210.655C109.032 216.788 101.685 219.609 94.9501 217.422L57.6195 205.302C48.5866 202.369 44.5183 191.886 49.208 183.628L65.3689 155.169C69.9331 147.131 80.6103 145.094 87.813 150.887L118.27 175.381Z" fill="#C4C4C4"/>
<path d="M118.27 175.381C124.034 180.017 125.558 188.163 121.86 194.57L112.573 210.655C109.032 216.788 101.685 219.609 94.9501 217.422L57.6195 205.302C48.5866 202.369 44.5183 191.886 49.208 183.628L65.3689 155.169C69.9331 147.131 80.6103 145.094 87.813 150.887L118.27 175.381Z" fill="url(#paint34_radial)"/>
<path d="M118.27 175.381C124.034 180.017 125.558 188.163 121.86 194.57L112.573 210.655C109.032 216.788 101.685 219.609 94.9501 217.422L57.6195 205.302C48.5866 202.369 44.5183 191.886 49.208 183.628L65.3689 155.169C69.9331 147.131 80.6103 145.094 87.813 150.887L118.27 175.381Z" fill="url(#paint35_radial)"/>
</g>
<path d="M74.1672 177.509C73.2196 177.307 72.5679 178.436 73.2161 179.156L75.5321 181.728C75.822 182.05 75.8716 182.522 75.655 182.897L73.9244 185.895C73.44 186.734 74.3122 187.702 75.1971 187.308L78.3591 185.9C78.7549 185.724 79.2191 185.823 79.509 186.145L81.825 188.717C82.4732 189.437 83.6639 188.907 83.5627 187.943L83.2009 184.501C83.1556 184.07 83.3929 183.659 83.7886 183.483L86.9506 182.075C87.8356 181.681 87.6993 180.385 86.7518 180.184L83.3662 179.464C82.9425 179.374 82.6249 179.021 82.5796 178.59L82.2178 175.148C82.1166 174.185 80.8416 173.914 80.3573 174.753L78.6267 177.75C78.4101 178.125 77.9765 178.318 77.5527 178.228L74.1672 177.509Z" fill="url(#paint36_radial)"/>
<path d="M92.6236 189.263L95.2451 171.146L98.8695 192.869L78.2451 200.591L92.6236 189.263Z" fill="url(#paint37_radial)"/>
<g filter="url(#filter10_d)">
<path d="M155.288 133.415C159.963 139.149 159.76 147.434 154.81 152.931L142.382 166.735C137.643 171.997 129.87 173.229 123.737 169.69L89.7424 150.073C81.5166 145.326 79.7167 134.227 86.0209 127.124L107.746 102.647C113.881 95.7336 124.749 95.9611 130.59 103.125L155.288 133.415Z" fill="#C4C4C4"/>
<path d="M155.288 133.415C159.963 139.149 159.76 147.434 154.81 152.931L142.382 166.735C137.643 171.997 129.87 173.229 123.737 169.69L89.7424 150.073C81.5166 145.326 79.7167 134.227 86.0209 127.124L107.746 102.647C113.881 95.7336 124.749 95.9611 130.59 103.125L155.288 133.415Z" fill="url(#paint38_radial)"/>
<path d="M155.288 133.415C159.963 139.149 159.76 147.434 154.81 152.931L142.382 166.735C137.643 171.997 129.87 173.229 123.737 169.69L89.7424 150.073C81.5166 145.326 79.7167 134.227 86.0209 127.124L107.746 102.647C113.881 95.7336 124.749 95.9611 130.59 103.125L155.288 133.415Z" fill="url(#paint39_radial)"/>
</g>
<path d="M125.797 140.084L106.469 149.594L132.113 145.772L133.234 119.868L125.797 140.084Z" fill="url(#paint40_radial)"/>
<path d="M118.923 133.865L104.253 142.187L123.134 137.657L125.666 118.406L118.923 133.865Z" fill="url(#paint41_radial)"/>
<path d="M114.149 129.567L106.634 133.565L116.446 131.635L117.34 121.675L114.149 129.567Z" fill="url(#paint42_radial)"/>
<g filter="url(#filter11_d)">
<path d="M200.223 100.064C203.604 106.644 201.682 114.706 195.698 119.054L180.671 129.972C174.942 134.134 167.083 133.723 161.82 128.986L132.646 102.73C125.587 96.3764 126.134 85.1452 133.777 79.5083L160.117 60.0828C167.555 54.5967 178.138 57.0785 182.362 65.2999L200.223 100.064Z" fill="#C4C4C4"/>
<path d="M200.223 100.064C203.604 106.644 201.682 114.706 195.698 119.054L180.671 129.972C174.942 134.134 167.083 133.723 161.82 128.986L132.646 102.73C125.587 96.3764 126.134 85.1452 133.777 79.5083L160.117 60.0828C167.555 54.5967 178.138 57.0785 182.362 65.2999L200.223 100.064Z" fill="url(#paint43_radial)"/>
<path d="M200.223 100.064C203.604 106.644 201.682 114.706 195.698 119.054L180.671 129.972C174.942 134.134 167.083 133.723 161.82 128.986L132.646 102.73C125.587 96.3764 126.134 85.1452 133.777 79.5083L160.117 60.0828C167.555 54.5967 178.138 57.0785 182.362 65.2999L200.223 100.064Z" fill="url(#paint44_radial)"/>
</g>
<path d="M167.158 96.8232L178.636 78.5953L172.154 103.7L146.275 102.107L167.158 96.8232Z" fill="url(#paint45_radial)"/>
<g filter="url(#filter12_d)">
<path d="M251.11 76.7839C253.049 83.9229 249.493 91.4094 242.735 94.4182L225.767 101.973C219.298 104.853 211.696 102.817 207.533 97.0893L184.456 65.3413C178.872 57.6593 181.742 46.7873 190.39 42.8626L220.192 29.3379C228.609 25.5182 238.445 30.1461 240.867 39.066L251.11 76.7839Z" fill="url(#paint46_radial)"/>
</g>
<path d="M220.916 71.1211L199.391 71.9474L224.373 78.8862L235.933 55.678L220.916 71.1211Z" fill="url(#paint47_radial)"/>
<path d="M217.165 62.6442L200.379 64.2797L219.47 67.8209L229.613 51.2642L217.165 62.6442Z" fill="url(#paint48_radial)"/>
<path d="M214.552 56.7753L206.061 57.3716L215.81 59.599L220.678 50.8639L214.552 56.7753Z" fill="url(#paint49_radial)"/>
<g filter="url(#filter13_d)">
<path d="M305.725 64.5924C306.137 71.9785 301.103 78.5621 293.867 80.1002L275.699 83.9619C268.772 85.4342 261.76 81.8621 258.878 75.3938L242.906 39.5417C239.041 30.8665 244.109 20.8289 253.385 18.788L285.348 11.7551C294.375 9.76883 303.033 16.3405 303.548 25.5691L305.725 64.5924Z" fill="#C4C4C4"/>
<path d="M305.725 64.5924C306.137 71.9785 301.103 78.5621 293.867 80.1002L275.699 83.9619C268.772 85.4342 261.76 81.8621 258.878 75.3938L242.906 39.5417C239.041 30.8665 244.109 20.8289 253.385 18.788L285.348 11.7551C294.375 9.76883 303.033 16.3405 303.548 25.5691L305.725 64.5924Z" fill="url(#paint50_radial)"/>
<path d="M305.725 64.5924C306.137 71.9785 301.103 78.5621 293.867 80.1002L275.699 83.9619C268.772 85.4342 261.76 81.8621 258.878 75.3938L242.906 39.5417C239.041 30.8665 244.109 20.8289 253.385 18.788L285.348 11.7551C294.375 9.76883 303.033 16.3405 303.548 25.5691L305.725 64.5924Z" fill="url(#paint51_radial)"/>
</g>
<path d="M275.443 46.4346L293.342 34.4512L277.21 54.7489L254.216 42.7677L275.443 46.4346Z" fill="url(#paint52_radial)"/>
<g filter="url(#filter14_d)">
<path d="M361.681 64.0224C360.549 71.3328 354.256 76.7259 346.858 76.7259L328.284 76.7259C321.203 76.7259 315.086 71.7739 313.613 64.8478L305.444 26.4584C303.467 17.1693 310.511 8.40467 320.008 8.33683L352.735 8.10307C361.978 8.03705 369.08 16.2652 367.665 25.3992L361.681 64.0224Z" fill="#C4C4C4"/>
<path d="M361.681 64.0224C360.549 71.3328 354.256 76.7259 346.858 76.7259L328.284 76.7259C321.203 76.7259 315.086 71.7739 313.613 64.8478L305.444 26.4584C303.467 17.1693 310.511 8.40467 320.008 8.33683L352.735 8.10307C361.978 8.03705 369.08 16.2652 367.665 25.3992L361.681 64.0224Z" fill="url(#paint53_radial)"/>
</g>
<path d="M347.456 47.4662C346.706 42.2162 342.306 38.2162 337.006 38.2162C331.706 38.2162 327.306 42.2162 326.556 47.4162L347.456 47.4162L347.456 47.4662Z" fill="#C14A42"/>
<path d="M351.906 37.4662C351.706 36.5662 351.156 35.8662 350.356 35.4162C350.006 35.2162 349.606 35.1162 349.206 35.0662C348.856 35.0162 348.506 35.0662 348.156 35.1662C347.556 35.3162 346.956 35.6162 346.406 35.8662C345.656 36.2162 344.956 36.5662 344.306 36.5662L344.306 38.8662C345.456 38.8662 346.506 38.3662 347.406 37.9162C348.356 37.4662 348.956 37.1662 349.306 37.3662C349.556 37.5162 349.706 37.7162 349.756 37.9662C349.806 38.2662 349.806 38.6662 349.706 39.1162C349.606 39.6162 349.356 40.1662 349.056 40.8162C348.456 42.0662 347.656 43.2662 347.056 44.1662C346.856 44.5162 346.656 44.8162 346.506 45.0162L346.356 45.3162C346.356 45.3662 346.306 45.3662 346.306 45.4162L327.806 45.4162C327.806 45.3662 327.756 45.3662 327.756 45.3162L327.606 45.0162C327.456 44.7662 327.256 44.4662 327.056 44.1662C326.456 43.2662 325.656 42.0662 325.056 40.8162C324.756 40.1662 324.556 39.6162 324.406 39.1162C324.306 38.6162 324.256 38.2162 324.356 37.9662C324.406 37.7162 324.556 37.5162 324.806 37.3662C325.156 37.1662 325.756 37.4162 326.706 37.9162C327.606 38.3662 328.606 38.8662 329.806 38.8662L329.806 36.5662C329.156 36.5662 328.456 36.2162 327.706 35.8662C327.156 35.5662 326.556 35.3162 325.956 35.1662C325.506 35.0662 325.156 35.0162 324.806 35.0662C324.406 35.1162 324.006 35.2162 323.656 35.4162C322.856 35.8662 322.306 36.6162 322.106 37.4662C321.856 38.6162 322.106 40.0662 323.006 41.8662C323.656 43.2162 324.506 44.5162 325.156 45.4662C325.356 45.7662 325.556 46.0662 325.656 46.2662C325.706 46.3662 325.756 46.4662 325.856 46.5662C326.156 47.0162 326.356 47.3662 326.456 47.7662L326.456 53.4162C326.306 53.4162 326.206 53.5161 326.206 53.7161C326.206 53.8663 326.306 54.0162 326.456 54.0162L347.606 54.0162C347.756 54.0162 347.856 53.9161 347.856 53.7161C347.856 53.5662 347.756 53.4162 347.606 53.4162L347.606 47.8162C347.756 47.4162 347.956 47.0662 348.206 46.6162C348.256 46.5162 348.306 46.4162 348.406 46.3162C348.506 46.1162 348.706 45.8162 348.906 45.5162C349.506 44.5662 350.356 43.2662 351.056 41.9162C351.906 40.1162 352.156 38.6662 351.906 37.4662Z" fill="#F2B200"/>
<path d="M337.456 39.6162C337.706 40.4162 336.456 41.6162 334.656 42.2162C332.856 42.8662 331.156 42.7162 330.856 41.9162C330.606 41.1162 331.856 39.9162 333.656 39.3162C335.456 38.7162 337.156 38.8162 337.456 39.6162Z" fill="#E8766F"/>
<path d="M335.806 48.3163L338.206 48.3163L338.206 53.7164L335.806 53.7164L335.806 48.3163Z" fill="#FFDD7D"/>
<path d="M339.906 48.3163L342.306 48.3163L342.306 53.7164L339.906 53.7164L339.906 48.3163Z" fill="#FFCE31"/>
<path d="M338.206 48.3163L339.906 48.3163L339.906 53.7164L338.206 53.7164L338.206 48.3163Z" fill="white"/>
<path d="M344.006 48.3163L345.706 48.3163L345.706 53.7164L344.006 53.7164L344.006 48.3163Z" fill="#FFCE31"/>
<path d="M326.406 48.3163L328.106 48.3163L328.106 53.7164L326.406 53.7164L326.406 48.3163Z" fill="#F2B200"/>
<path d="M328.306 48.3163L331.606 48.3163L331.606 53.7164L328.306 53.7164L328.306 48.3163Z" fill="#FFCE31"/>
<path d="M335.206 43.4663C335.206 44.2163 333.856 46.1163 333.856 46.1163C333.856 46.1163 332.506 44.2163 332.506 43.4663C332.506 42.7163 333.106 42.1163 333.856 42.1163C334.606 42.1163 335.206 42.7163 335.206 43.4663Z" fill="#F2B200"/>
<path d="M341.456 43.4663C341.456 44.2163 340.106 46.1163 340.106 46.1163C340.106 46.1163 338.756 44.2163 338.756 43.4663C338.756 42.7163 339.356 42.1163 340.106 42.1163C340.856 42.1163 341.456 42.7163 341.456 43.4663Z" fill="#F2B200"/>
<path d="M340.156 32.3162L333.856 32.3162L335.356 29.9662L338.556 29.9662L340.156 32.3162Z" fill="#66CAF2"/>
<path d="M327.056 42.4163C328.256 41.2663 330.656 40.6663 332.256 41.1163C331.006 42.2663 328.656 42.8663 327.056 42.4163Z" fill="#FFCE31"/>
<path d="M347.056 42.4163C345.456 42.8663 343.056 42.2663 341.856 41.1163C343.456 40.6663 345.856 41.2663 347.056 42.4163Z" fill="#FFCE31"/>
<path d="M334.306 41.0663C335.756 40.2163 338.206 40.2163 339.656 41.0663C338.206 41.9163 335.806 41.9163 334.306 41.0663Z" fill="#FFCE31"/>
<path d="M337.506 29.9662L338.056 32.3162L340.156 32.3162L338.556 29.9662L337.506 29.9662Z" fill="#C14A42"/>
<path d="M337.506 29.9662L336.406 29.9662L335.956 32.3162L338.056 32.3162L337.506 29.9662Z" fill="#E8766F"/>
<path d="M336.406 29.9662L335.956 32.3162L333.856 32.3162L335.356 29.9662L336.406 29.9662Z" fill="#DEF266"/>
<path d="M326.756 46.8662C330.156 46.6162 333.606 46.5662 337.006 46.5662C340.406 46.5662 343.856 46.6162 347.256 46.8662C343.856 47.1162 340.406 47.1662 337.006 47.1662C333.606 47.1162 330.156 47.1162 326.756 46.8662Z" fill="#FFDD7D"/>
<path d="M326.406 48.3163L347.556 48.3163L347.556 48.8663L326.406 48.8663L326.406 48.3163Z" fill="#C14A42"/>
<path d="M326.407 48.8662C326.545 48.8662 326.656 48.7319 326.656 48.5662C326.656 48.4005 326.545 48.2662 326.407 48.2662C326.268 48.2662 326.156 48.4005 326.156 48.5662C326.156 48.7319 326.268 48.8662 326.407 48.8662Z" fill="#C14A42"/>
<path d="M347.606 48.8662C347.744 48.8662 347.856 48.7319 347.856 48.5662C347.856 48.4005 347.744 48.2662 347.606 48.2662C347.468 48.2662 347.356 48.4005 347.356 48.5662C347.356 48.7319 347.468 48.8662 347.606 48.8662Z" fill="#C14A42"/>
<path d="M346.356 36.2162C346.206 35.6662 346.006 35.1662 345.656 34.7162C345.306 34.2662 344.906 33.8662 344.356 33.5662C343.956 33.3662 343.556 33.2162 343.106 33.1662C342.756 33.1162 342.356 33.1662 341.956 33.2662C341.306 33.4162 340.656 33.7662 340.006 34.0662C339.856 34.1662 339.656 34.2162 339.456 34.3162C339.856 33.5162 340.106 32.7662 340.106 32.2662L333.856 32.2662C333.856 32.7662 334.106 33.5162 334.506 34.3162C334.306 34.2162 334.156 34.1662 333.956 34.0662C333.306 33.7662 332.656 33.4162 332.006 33.2662C331.606 33.1662 331.206 33.1162 330.856 33.1662C330.406 33.2162 330.006 33.3162 329.606 33.5662C329.106 33.8662 328.656 34.2662 328.306 34.7162C328.006 35.1662 327.756 35.6662 327.606 36.2162C327.256 37.6662 327.456 39.5162 328.256 41.6662C328.856 43.3662 329.656 44.7662 330.006 45.4662L332.656 45.4662C332.556 45.2662 332.406 45.0662 332.306 44.8662C332.256 44.7662 332.156 44.6662 332.106 44.5662C331.056 42.8662 329.256 39.0162 329.806 36.8162C329.956 36.2662 330.206 35.8662 330.706 35.6162C330.856 35.5162 331.056 35.4662 331.506 35.5662C331.956 35.6662 332.456 35.9162 333.006 36.2162C333.856 36.6662 334.806 37.1162 335.856 37.2662L335.856 45.5162L338.106 45.5162L338.106 37.2662C339.156 37.1162 340.106 36.6662 341.006 36.2162C341.556 35.9662 342.056 35.6662 342.506 35.5662C342.956 35.4662 343.156 35.5162 343.306 35.6162C343.756 35.8662 344.056 36.2662 344.206 36.8162C344.756 39.0162 342.956 42.8162 341.906 44.5662C341.856 44.6662 341.756 44.7662 341.706 44.8662C341.556 45.0662 341.456 45.2662 341.356 45.4662L344.006 45.4662C344.406 44.8162 345.156 43.3662 345.756 41.6662C346.506 39.5162 346.706 37.6662 346.356 36.2162Z" fill="#FFCE31"/>
<path d="M337.006 34.5662C336.156 34.5662 335.406 34.2162 334.806 33.7162C334.956 34.8162 335.856 35.6662 337.006 35.6662C338.106 35.6662 339.056 34.8162 339.206 33.7162C338.606 34.2662 337.856 34.5662 337.006 34.5662Z" fill="#F2B200"/>
<g filter="url(#filter15_d)">
<path d="M416.533 75.0991C413.906 82.0142 406.629 85.9811 399.393 84.443L381.225 80.5813C374.298 79.109 369.345 72.9935 369.343 65.9124L369.335 26.6634C369.333 17.1664 378.045 10.0579 387.349 11.966L419.409 18.5416C428.463 20.3987 433.7 29.9238 430.417 38.564L416.533 75.0991Z" fill="#C4C4C4"/>
<path d="M416.533 75.0991C413.906 82.0142 406.629 85.9811 399.393 84.443L381.225 80.5813C374.298 79.109 369.345 72.9935 369.343 65.9124L369.335 26.6634C369.333 17.1664 378.045 10.0579 387.349 11.966L419.409 18.5416C428.463 20.3987 433.7 29.9238 430.417 38.564L416.533 75.0991Z" fill="url(#paint54_radial)"/>
<path d="M416.533 75.0991C413.906 82.0142 406.629 85.9811 399.393 84.443L381.225 80.5813C374.298 79.109 369.345 72.9935 369.343 65.9124L369.335 26.6634C369.333 17.1664 378.045 10.0579 387.349 11.966L419.409 18.5416C428.463 20.3987 433.7 29.9238 430.417 38.564L416.533 75.0991Z" fill="url(#paint55_radial)"/>
</g>
<g filter="url(#filter16_d)">
<path d="M396.861 48.1507L414.901 45.0457L395.361 55.2052L381.644 37.9767L396.861 48.1507Z" fill="url(#paint56_radial)"/>
</g>
<g filter="url(#filter17_d)">
<path d="M467.884 97.3379C463.876 103.556 455.933 105.923 449.175 102.914L432.207 95.3592C425.738 92.4791 422.165 85.4673 423.635 78.5406L431.787 40.1476C433.76 30.8576 443.76 25.7159 452.463 29.5166L482.455 42.6142C490.926 46.3133 494.068 56.719 489.06 64.4878L467.884 97.3379Z" fill="#C4C4C4"/>
<path d="M467.884 97.3379C463.876 103.556 455.933 105.923 449.175 102.914L432.207 95.3592C425.738 92.4791 422.165 85.4673 423.635 78.5406L431.787 40.1476C433.76 30.8576 443.76 25.7159 452.463 29.5166L482.455 42.6142C490.926 46.3133 494.068 56.719 489.06 64.4878L467.884 97.3379Z" fill="url(#paint57_radial)"/>
<path d="M467.884 97.3379C463.876 103.556 455.933 105.923 449.175 102.914L432.207 95.3592C425.738 92.4791 422.165 85.4673 423.635 78.5406L431.787 40.1476C433.76 30.8576 443.76 25.7159 452.463 29.5166L482.455 42.6142C490.926 46.3133 494.068 56.719 489.06 64.4878L467.884 97.3379Z" fill="url(#paint58_radial)"/>
</g>
<path d="M459.977 52.0791C460.626 51.3592 461.816 51.8894 461.715 52.8528L461.353 56.295C461.308 56.7259 461.545 57.1369 461.941 57.3131L465.103 58.7209C465.988 59.1149 465.852 60.4112 464.904 60.6126L461.519 61.3322C461.095 61.4223 460.777 61.775 460.732 62.2058L460.37 65.6481C460.269 66.6115 458.994 66.8825 458.51 66.0436L456.779 63.0461C456.563 62.6709 456.129 62.4778 455.705 62.5679L452.32 63.2875C451.372 63.489 450.72 62.3602 451.369 61.6403L453.685 59.0681C453.974 58.7461 454.024 58.2741 453.807 57.899L452.077 54.9015C451.592 54.0625 452.465 53.0939 453.35 53.4879L456.512 54.8957C456.907 55.0719 457.372 54.9733 457.661 54.6513L459.977 52.0791Z" fill="url(#paint59_radial)"/>
<path d="M451.955 72.4368L439.185 59.3212L449.021 79.0254L470.246 73.1503L451.955 72.4368Z" fill="url(#paint60_radial)"/>
<g filter="url(#filter18_d)">
<path d="M513.489 129.767C508.276 135.016 500.014 135.68 494.03 131.332L479.003 120.414C473.274 116.252 471.236 108.65 474.115 102.181L490.071 66.3215C493.932 57.6446 504.783 54.6943 512.506 60.2216L539.12 79.2688C546.636 84.6481 547.546 95.4797 541.032 102.037L513.489 129.767Z" fill="#C4C4C4"/>
<path d="M513.489 129.767C508.276 135.016 500.014 135.68 494.03 131.332L479.003 120.414C473.274 116.252 471.236 108.65 474.115 102.181L490.071 66.3215C493.932 57.6446 504.783 54.6943 512.506 60.2216L539.12 79.2688C546.636 84.6481 547.546 95.4797 541.032 102.037L513.489 129.767Z" fill="url(#paint61_radial)"/>
<path d="M513.489 129.767C508.276 135.016 500.014 135.68 494.03 131.332L479.003 120.414C473.274 116.252 471.236 108.65 474.115 102.181L490.071 66.3215C493.932 57.6446 504.783 54.6943 512.506 60.2216L539.12 79.2688C546.636 84.6481 547.546 95.4797 541.032 102.037L513.489 129.767Z" fill="url(#paint62_radial)"/>
</g>
<path d="M505.544 96.731L526.427 102.015L500.548 103.608L494.066 78.5031L505.544 96.731Z" fill="url(#paint63_radial)"/>
<g filter="url(#filter19_d)">
<path d="M551.355 170.969C545.164 175.019 536.945 173.951 531.995 168.454L519.567 154.651C514.829 149.388 514.416 141.529 518.577 135.8L541.64 104.041C547.22 96.3569 558.447 95.7271 564.852 102.739L586.924 126.904C593.158 133.728 591.796 144.512 584.061 149.572L551.355 170.969Z" fill="#C4C4C4"/>
<path d="M551.355 170.969C545.164 175.019 536.945 173.951 531.995 168.454L519.567 154.651C514.829 149.388 514.416 141.529 518.577 135.8L541.64 104.041C547.22 96.3569 558.447 95.7271 564.852 102.739L586.924 126.904C593.158 133.728 591.796 144.512 584.061 149.572L551.355 170.969Z" fill="url(#paint64_radial)"/>
<path d="M551.355 170.969C545.164 175.019 536.945 173.951 531.995 168.454L519.567 154.651C514.829 149.388 514.416 141.529 518.577 135.8L541.64 104.041C547.22 96.3569 558.447 95.7271 564.852 102.739L586.924 126.904C593.158 133.728 591.796 144.512 584.061 149.572L551.355 170.969Z" fill="url(#paint65_radial)"/>
</g>
<path d="M560.31 128.415C561.195 128.021 562.067 128.99 561.583 129.828L559.852 132.826C559.636 133.201 559.685 133.673 559.975 133.995L562.291 136.567C562.939 137.287 562.288 138.416 561.34 138.215L557.955 137.495C557.531 137.405 557.097 137.598 556.881 137.973L555.15 140.971C554.666 141.81 553.391 141.539 553.289 140.575L552.928 137.133C552.882 136.702 552.565 136.349 552.141 136.259L548.755 135.54C547.808 135.338 547.672 134.042 548.557 133.648L551.719 132.24C552.114 132.064 552.352 131.653 552.306 131.222L551.945 127.78C551.843 126.816 553.034 126.286 553.682 127.006L555.998 129.578C556.288 129.9 556.752 129.999 557.148 129.823L560.31 128.415Z" fill="url(#paint66_radial)"/>
<path d="M544.701 143.749L538.37 126.574L539.341 148.575L561.12 151.841L544.701 143.749Z" fill="url(#paint67_radial)"/>
<g filter="url(#filter20_d)">
<path d="M579.826 219.144C572.929 221.819 565.112 219.065 561.413 212.659L552.126 196.573C548.585 190.441 549.816 182.668 555.077 177.928L584.239 151.659C591.295 145.303 602.407 147.021 607.215 155.211L623.78 183.437C628.459 191.408 624.884 201.673 616.267 205.015L579.826 219.144Z" fill="#C4C4C4"/>
<path d="M579.826 219.144C572.929 221.819 565.112 219.065 561.413 212.659L552.126 196.573C548.585 190.441 549.816 182.668 555.077 177.928L584.239 151.659C591.295 145.303 602.407 147.021 607.215 155.211L623.78 183.437C628.459 191.408 624.884 201.673 616.267 205.015L579.826 219.144Z" fill="url(#paint68_radial)"/>
<path d="M579.826 219.144C572.929 221.819 565.112 219.065 561.413 212.659L552.126 196.573C548.585 190.441 549.816 182.668 555.077 177.928L584.239 151.659C591.295 145.303 602.407 147.021 607.215 155.211L623.78 183.437C628.459 191.408 624.884 201.673 616.267 205.015L579.826 219.144Z" fill="url(#paint69_radial)"/>
</g>
<g filter="url(#filter21_d)">
<path d="M586.689 186.493L601.067 197.821L580.443 190.099L584.067 168.376L586.689 186.493Z" fill="url(#paint70_radial)"/>
</g>
<g filter="url(#filter22_d)">
<path d="M597.66 272.186C590.357 273.368 583.284 269.049 580.998 262.014L575.258 244.349C573.07 237.614 575.889 230.267 582.021 226.725L616.007 207.093C624.231 202.342 634.743 206.333 637.742 215.344L648.078 246.397C650.997 255.167 645.366 264.465 636.242 265.942L597.66 272.186Z" fill="#C4C4C4"/>
<path d="M597.66 272.186C590.357 273.368 583.284 269.049 580.998 262.014L575.258 244.349C573.07 237.614 575.889 230.267 582.021 226.725L616.007 207.093C624.231 202.342 634.743 206.333 637.742 215.344L648.078 246.397C650.997 255.167 645.366 264.465 636.242 265.942L597.66 272.186Z" fill="url(#paint71_radial)"/>
<path d="M597.66 272.186C590.357 273.368 583.284 269.049 580.998 262.014L575.258 244.349C573.07 237.614 575.889 230.267 582.021 226.725L616.007 207.093C624.231 202.342 634.743 206.333 637.742 215.344L648.078 246.397C650.997 255.167 645.366 264.465 636.242 265.942L597.66 272.186Z" fill="url(#paint72_radial)"/>
<path d="M597.66 272.186C590.357 273.368 583.284 269.049 580.998 262.014L575.258 244.349C573.07 237.614 575.889 230.267 582.021 226.725L616.007 207.093C624.231 202.342 634.743 206.333 637.742 215.344L648.078 246.397C650.997 255.167 645.366 264.465 636.242 265.942L597.66 272.186Z" fill="url(#paint73_radial)"/>
</g>
<path d="M606.633 243.319L608.061 221.826L598.549 245.946L620.422 259.868L606.633 243.319Z" fill="url(#paint74_radial)"/>
<path d="M615.455 240.476L615.583 223.611L610.066 242.227L625.472 254.044L615.455 240.476Z" fill="url(#paint75_radial)"/>
<path d="M621.565 238.49L621.86 229.983L618.626 239.446L626.804 245.2L621.565 238.49Z" fill="url(#paint76_radial)"/>
<g filter="url(#filter23_d)">
<path d="M604.076 327.776C596.687 327.414 590.666 321.719 589.892 314.362L587.951 295.89C587.211 288.847 591.496 282.247 598.23 280.057L635.555 267.92C644.587 264.983 654.04 271.073 655.1 280.51L658.753 313.034C659.785 322.219 652.345 330.143 643.113 329.69L604.076 327.776Z" fill="#C4C4C4"/>
<path d="M604.076 327.776C596.687 327.414 590.666 321.719 589.892 314.362L587.951 295.89C587.211 288.847 591.496 282.247 598.23 280.057L635.555 267.92C644.587 264.983 654.04 271.073 655.1 280.51L658.753 313.034C659.785 322.219 652.345 330.143 643.113 329.69L604.076 327.776Z" fill="url(#paint77_radial)"/>
<path d="M604.076 327.776C596.687 327.414 590.666 321.719 589.892 314.362L587.951 295.89C587.211 288.847 591.496 282.247 598.23 280.057L635.555 267.92C644.587 264.983 654.04 271.073 655.1 280.51L658.753 313.034C659.785 322.219 652.345 330.143 643.113 329.69L604.076 327.776Z" fill="url(#paint78_radial)"/>
</g>
<path d="M625.299 299.557L635.346 318.612L616.846 300.446L631.165 278.831L625.299 299.557Z" fill="url(#paint79_radial)"/>
<g filter="url(#filter24_d)">
<path d="M598.793 383.485C591.641 381.595 586.936 374.773 587.709 367.416L589.65 348.943C590.39 341.901 595.955 336.335 602.997 335.594L642.03 331.482C651.475 330.488 659.455 338.409 658.53 347.861L655.341 380.433C654.441 389.632 645.515 395.836 636.579 393.474L598.793 383.485Z" fill="#C4C4C4"/>
<path d="M598.793 383.485C591.641 381.595 586.936 374.773 587.709 367.416L589.65 348.943C590.39 341.901 595.955 336.335 602.997 335.594L642.03 331.482C651.475 330.488 659.455 338.409 658.53 347.861L655.341 380.433C654.441 389.632 645.515 395.836 636.579 393.474L598.793 383.485Z" fill="url(#paint80_radial)"/>
<path d="M598.793 383.485C591.641 381.595 586.936 374.773 587.709 367.416L589.65 348.943C590.39 341.901 595.955 336.335 602.997 335.594L642.03 331.482C651.475 330.488 659.455 338.409 658.53 347.861L655.341 380.433C654.441 389.632 645.515 395.836 636.579 393.474L598.793 383.485Z" fill="url(#paint81_radial)"/>
</g>
<path d="M639.393 361.98C640.278 362.374 640.142 363.67 639.195 363.871L635.809 364.591C635.385 364.681 635.068 365.034 635.022 365.465L634.661 368.907C634.559 369.87 633.284 370.141 632.8 369.302L631.069 366.305C630.853 365.93 630.419 365.737 629.995 365.827L626.61 366.546C625.662 366.748 625.011 365.619 625.659 364.899L627.975 362.327C628.265 362.005 628.314 361.533 628.098 361.158L626.367 358.16C625.883 357.321 626.755 356.353 627.64 356.747L630.802 358.155C631.198 358.331 631.662 358.232 631.952 357.91L634.268 355.338C634.916 354.618 636.107 355.148 636.005 356.112L635.644 359.554C635.598 359.985 635.836 360.396 636.231 360.572L639.393 361.98Z" fill="url(#paint82_radial)"/>
<path d="M617.553 360.641L626.081 344.443L610.38 359.887L622.527 378.257L617.553 360.641Z" fill="url(#paint83_radial)"/>
<g filter="url(#filter25_d)">
<path d="M582.044 436.879C575.441 433.543 572.257 425.892 574.543 418.856L580.282 401.191C582.471 394.456 589.07 390.169 596.113 390.908L635.148 395.002C644.593 395.993 650.752 405.4 647.882 414.453L637.991 445.651C635.197 454.462 625.177 458.674 616.927 454.505L582.044 436.879Z" fill="url(#paint84_radial)"/>
<path d="M582.044 436.879C575.441 433.543 572.257 425.892 574.543 418.856L580.282 401.191C582.471 394.456 589.07 390.169 596.113 390.908L635.148 395.002C644.593 395.993 650.752 405.4 647.882 414.453L637.991 445.651C635.197 454.462 625.177 458.674 616.927 454.505L582.044 436.879Z" fill="url(#paint85_radial)"/>
</g>
<path d="M606.271 418.8L620.059 402.251L598.187 416.174L607.699 440.293L606.271 418.8Z" fill="url(#paint86_radial)"/>
<path d="M615.079 421.685L625.096 408.117L609.69 419.934L615.207 438.55L615.079 421.685Z" fill="url(#paint87_radial)"/>
<path d="M621.189 423.671L626.428 416.961L618.25 422.715L621.484 432.178L621.189 423.671Z" fill="url(#paint88_radial)"/>
<g filter="url(#filter26_d)">
<path d="M554.559 485.624C548.794 480.988 547.27 472.841 550.969 466.435L560.256 450.349C563.797 444.217 571.144 441.396 577.879 443.582L615.209 455.703C624.242 458.635 628.311 469.118 623.621 477.376L607.46 505.836C602.896 513.873 592.219 515.91 585.016 510.118L554.559 485.624Z" fill="#C4C4C4"/>
<path d="M554.559 485.624C548.794 480.988 547.27 472.841 550.969 466.435L560.256 450.349C563.797 444.217 571.144 441.396 577.879 443.582L615.209 455.703C624.242 458.635 628.311 469.118 623.621 477.376L607.46 505.836C602.896 513.873 592.219 515.91 585.016 510.118L554.559 485.624Z" fill="url(#paint89_radial)"/>
<path d="M554.559 485.624C548.794 480.988 547.27 472.841 550.969 466.435L560.256 450.349C563.797 444.217 571.144 441.396 577.879 443.582L615.209 455.703C624.242 458.635 628.311 469.118 623.621 477.376L607.46 505.836C602.896 513.873 592.219 515.91 585.016 510.118L554.559 485.624Z" fill="url(#paint90_radial)"/>
</g>
<path d="M588.316 475.27L585.244 496.59L580.954 471.02L605.244 461.949L588.316 475.27Z" fill="url(#paint91_radial)"/>
<g filter="url(#filter27_d)">
<path d="M517.541 527.589C512.866 521.856 513.069 513.57 518.019 508.073L530.447 494.27C535.185 489.007 542.958 487.775 549.092 491.315L583.086 510.931C591.312 515.678 593.112 526.778 586.808 533.881L565.083 558.358C558.948 565.271 548.08 565.043 542.239 557.88L517.541 527.589Z" fill="#C4C4C4"/>
<path d="M517.541 527.589C512.866 521.856 513.069 513.57 518.019 508.073L530.447 494.27C535.185 489.007 542.958 487.775 549.092 491.315L583.086 510.931C591.312 515.678 593.112 526.778 586.808 533.881L565.083 558.358C558.948 565.271 548.08 565.043 542.239 557.88L517.541 527.589Z" fill="url(#paint92_radial)"/>
<path d="M517.541 527.589C512.866 521.856 513.069 513.57 518.019 508.073L530.447 494.27C535.185 489.007 542.958 487.775 549.092 491.315L583.086 510.931C591.312 515.678 593.112 526.778 586.808 533.881L565.083 558.358C558.948 565.271 548.08 565.043 542.239 557.88L517.541 527.589Z" fill="url(#paint93_radial)"/>
</g>
<path d="M561.541 532.716C562.026 533.555 561.154 534.524 560.269 534.13L557.107 532.722C556.711 532.546 556.247 532.644 555.957 532.966L553.641 535.539C552.993 536.258 551.802 535.728 551.903 534.765L552.265 531.323C552.31 530.892 552.073 530.481 551.677 530.305L548.515 528.897C547.63 528.503 547.766 527.207 548.714 527.005L552.1 526.285C552.523 526.195 552.841 525.843 552.886 525.412L553.248 521.97C553.349 521.006 554.624 520.735 555.108 521.574L556.839 524.572C557.056 524.947 557.489 525.14 557.913 525.05L561.299 524.33C562.246 524.129 562.898 525.258 562.25 525.977L559.934 528.55C559.644 528.872 559.594 529.344 559.811 529.719L561.541 532.716Z" fill="url(#paint94_radial)"/>
<path d="M544.659 518.795L561.079 510.704L539.3 513.969L538.328 535.971L544.659 518.795Z" fill="url(#paint95_radial)"/>
<g filter="url(#filter28_d)">
<path d="M472.606 560.94C469.226 554.36 471.147 546.298 477.131 541.95L492.158 531.033C497.887 526.87 505.746 527.281 511.009 532.018L540.183 558.275C547.242 564.628 546.695 575.859 539.052 581.496L512.713 600.921C505.274 606.408 494.691 603.926 490.467 595.704L472.606 560.94Z" fill="url(#paint96_radial)"/>
<path d="M472.606 560.94C469.226 554.36 471.147 546.298 477.131 541.95L492.158 531.033C497.887 526.87 505.746 527.281 511.009 532.018L540.183 558.275C547.242 564.628 546.695 575.859 539.052 581.496L512.713 600.921C505.274 606.408 494.691 603.926 490.467 595.704L472.606 560.94Z" fill="url(#paint97_radial)"/>
</g>
<path d="M506.48 563.593L495.002 581.821L501.484 556.717L527.363 558.31L506.48 563.593Z" fill="url(#paint98_radial)"/>
<g filter="url(#filter29_d)">
<path d="M421.719 584.22C419.78 577.081 423.336 569.595 430.094 566.586L447.062 559.031C453.531 556.151 461.133 558.187 465.296 563.915L488.373 595.663C493.957 603.345 491.087 614.217 482.439 618.142L452.636 631.666C444.22 635.486 434.384 630.858 431.962 621.938L421.719 584.22Z" fill="#C4C4C4"/>
<path d="M421.719 584.22C419.78 577.081 423.336 569.595 430.094 566.586L447.062 559.031C453.531 556.151 461.133 558.187 465.296 563.915L488.373 595.663C493.957 603.345 491.087 614.217 482.439 618.142L452.636 631.666C444.22 635.486 434.384 630.858 431.962 621.938L421.719 584.22Z" fill="url(#paint99_radial)"/>
<path d="M421.719 584.22C419.78 577.081 423.336 569.595 430.094 566.586L447.062 559.031C453.531 556.151 461.133 558.187 465.296 563.915L488.373 595.663C493.957 603.345 491.087 614.217 482.439 618.142L452.636 631.666C444.22 635.486 434.384 630.858 431.962 621.938L421.719 584.22Z" fill="url(#paint100_radial)"/>
</g>
<path d="M459.83 606.801C459.931 607.765 458.741 608.295 458.093 607.575L455.777 605.003C455.487 604.681 455.022 604.582 454.627 604.758L451.465 606.166C450.58 606.56 449.708 605.591 450.192 604.753L451.923 601.755C452.139 601.38 452.09 600.908 451.8 600.586L449.484 598.014C448.835 597.294 449.487 596.165 450.435 596.366L453.82 597.086C454.244 597.176 454.678 596.983 454.894 596.608L456.625 593.61C457.109 592.772 458.384 593.043 458.485 594.006L458.847 597.448C458.892 597.879 459.21 598.232 459.634 598.322L463.019 599.041C463.967 599.243 464.103 600.539 463.218 600.933L460.056 602.341C459.66 602.517 459.423 602.928 459.468 603.359L459.83 606.801Z" fill="url(#paint101_radial)"/>
<path d="M450.07 587.217L468.361 586.504L447.136 580.629L437.3 600.333L450.07 587.217Z" fill="url(#paint102_radial)"/>
<g filter="url(#filter30_d)">
<path d="M367.104 596.412C366.692 589.026 371.726 582.442 378.962 580.904L397.13 577.043C404.057 575.57 411.069 579.142 413.951 585.611L429.923 621.463C433.787 630.138 428.719 640.176 419.444 642.217L387.481 649.249C378.454 651.236 369.796 644.664 369.281 635.435L367.104 596.412Z" fill="url(#paint103_radial)"/>
<path d="M367.104 596.412C366.692 589.026 371.726 582.442 378.962 580.904L397.13 577.043C404.057 575.57 411.069 579.142 413.951 585.611L429.923 621.463C433.787 630.138 428.719 640.176 419.444 642.217L387.481 649.249C378.454 651.236 369.796 644.664 369.281 635.435L367.104 596.412Z" fill="url(#paint104_radial)"/>
<path d="M367.104 596.412C366.692 589.026 371.726 582.442 378.962 580.904L397.13 577.043C404.057 575.57 411.069 579.142 413.951 585.611L429.923 621.463C433.787 630.138 428.719 640.176 419.444 642.217L387.481 649.249C378.454 651.236 369.796 644.664 369.281 635.435L367.104 596.412Z" fill="url(#paint105_radial)"/>
</g>
<path d="M395.831 612.855L417.057 616.522L394.064 604.541L377.931 624.839L395.831 612.855Z" fill="url(#paint106_radial)"/>
<g filter="url(#filter31_d)">
<path d="M311.148 596.982C312.281 589.671 318.574 584.278 325.971 584.278H344.545C351.626 584.278 357.743 589.23 359.217 596.156L367.386 634.546C369.362 643.835 362.318 652.599 352.821 652.667L320.094 652.901C310.852 652.967 303.749 644.739 305.164 635.605L311.148 596.982Z" fill="url(#paint107_radial)"/>
</g>
<path d="M337.279 637.077C336.98 637.998 335.677 637.998 335.377 637.077L333.791 632.196C333.658 631.784 333.274 631.505 332.84 631.505L327.708 631.505C326.739 631.505 326.337 630.265 327.12 629.696L331.272 626.679C331.623 626.425 331.77 625.973 331.636 625.561L330.05 620.68C329.75 619.759 330.805 618.993 331.589 619.562L335.741 622.579C336.091 622.833 336.566 622.833 336.916 622.579L341.068 619.562C341.852 618.993 342.906 619.759 342.607 620.68L341.021 625.561C340.887 625.973 341.034 626.425 341.384 626.679L345.537 629.696C346.32 630.265 345.917 631.505 344.949 631.505L339.816 631.505C339.383 631.505 338.999 631.784 338.865 632.196L337.279 637.077Z" fill="url(#paint108_radial)"/>
<path d="M350.035 616.121C349.736 617.043 348.432 617.043 348.133 616.121L347.57 614.388C347.436 613.976 347.052 613.697 346.619 613.697L344.796 613.697C343.827 613.697 343.425 612.457 344.208 611.888L345.683 610.817C346.033 610.562 346.18 610.111 346.046 609.699L345.483 607.966C345.184 607.044 346.238 606.278 347.022 606.848L348.496 607.919C348.847 608.173 349.321 608.173 349.672 607.919L351.146 606.848C351.93 606.278 352.984 607.044 352.685 607.966L352.122 609.699C351.988 610.111 352.135 610.562 352.485 610.817L353.959 611.888C354.743 612.457 354.34 613.697 353.372 613.697L351.549 613.697C351.116 613.697 350.732 613.976 350.598 614.388L350.035 616.121Z" fill="url(#paint109_radial)"/>
<path d="M337.279 610.655C336.98 611.576 335.677 611.576 335.377 610.655L334.814 608.921C334.68 608.509 334.296 608.23 333.863 608.23L332.041 608.23C331.072 608.23 330.669 606.991 331.453 606.421L332.927 605.35C333.278 605.096 333.424 604.644 333.29 604.232L332.727 602.499C332.428 601.578 333.482 600.811 334.266 601.381L335.741 602.452C336.091 602.707 336.566 602.707 336.916 602.452L338.39 601.381C339.174 600.811 340.229 601.578 339.929 602.499L339.366 604.232C339.232 604.644 339.379 605.096 339.729 605.35L341.204 606.421C341.988 606.991 341.585 608.23 340.616 608.23L338.794 608.23C338.36 608.23 337.976 608.509 337.843 608.921L337.279 610.655Z" fill="url(#paint110_radial)"/>
<path d="M324.524 616.121C324.224 617.043 322.921 617.043 322.622 616.121L322.058 614.388C321.925 613.976 321.541 613.697 321.107 613.697L319.285 613.697C318.316 613.697 317.913 612.457 318.697 611.888L320.172 610.817C320.522 610.562 320.669 610.111 320.535 609.699L319.972 607.966C319.672 607.044 320.727 606.278 321.511 606.848L322.985 607.919C323.335 608.173 323.81 608.173 324.16 607.919L325.635 606.848C326.419 606.278 327.473 607.044 327.174 607.966L326.611 609.699C326.477 610.111 326.623 610.562 326.974 610.817L328.448 611.888C329.232 612.457 328.829 613.697 327.86 613.697L326.038 613.697C325.605 613.697 325.221 613.976 325.087 614.388L324.524 616.121Z" fill="url(#paint111_radial)"/>
<defs>
<filter id="filter0_d" x="226.64" y="564.198" width="99.6323" height="104.167" filterUnits="userSpaceOnUse" color-interpolation-filters="sRGB">
<feFlood flood-opacity="0" result="BackgroundImageFix"/>
<feColorMatrix in="SourceAlpha" type="matrix" values="0 0 0 0 0 0 0 0 0 0 0 0 0 0 0 0 0 0 127 0" result="hardAlpha"/>
<feOffset dy="4"/>
<feGaussianBlur stdDeviation="6"/>
<feColorMatrix type="matrix" values="0 0 0 0 0 0 0 0 0 0 0 0 0 0 0 0 0 0 0.1 0"/>
<feBlend mode="normal" in2="BackgroundImageFix" result="effect1_dropShadow"/>
<feBlend mode="normal" in="SourceGraphic" in2="effect1_dropShadow" result="shape"/>
</filter>
<filter id="filter1_d" x="164.57" y="541.554" width="109.223" height="112.207" filterUnits="userSpaceOnUse" color-interpolation-filters="sRGB">
<feFlood flood-opacity="0" result="BackgroundImageFix"/>
<feColorMatrix in="SourceAlpha" type="matrix" values="0 0 0 0 0 0 0 0 0 0 0 0 0 0 0 0 0 0 127 0" result="hardAlpha"/>
<feOffset dy="4"/>
<feGaussianBlur stdDeviation="6"/>
<feColorMatrix type="matrix" values="0 0 0 0 0 0 0 0 0 0 0 0 0 0 0 0 0 0 0.1 0"/>
<feBlend mode="normal" in2="BackgroundImageFix" result="effect1_dropShadow"/>
<feBlend mode="normal" in="SourceGraphic" in2="effect1_dropShadow" result="shape"/>
</filter>
<filter id="filter2_d" x="109.485" y="509.337" width="115.09" height="116.392" filterUnits="userSpaceOnUse" color-interpolation-filters="sRGB">
<feFlood flood-opacity="0" result="BackgroundImageFix"/>
<feColorMatrix in="SourceAlpha" type="matrix" values="0 0 0 0 0 0 0 0 0 0 0 0 0 0 0 0 0 0 127 0" result="hardAlpha"/>
<feOffset dy="4"/>
<feGaussianBlur stdDeviation="6"/>
<feColorMatrix type="matrix" values="0 0 0 0 0 0 0 0 0 0 0 0 0 0 0 0 0 0 0.1 0"/>
<feBlend mode="normal" in2="BackgroundImageFix" result="effect1_dropShadow"/>
<feBlend mode="normal" in="SourceGraphic" in2="effect1_dropShadow" result="shape"/>
</filter>
<filter id="filter3_d" x="63.7935" y="468.954" width="116.975" height="116.54" filterUnits="userSpaceOnUse" color-interpolation-filters="sRGB">
<feFlood flood-opacity="0" result="BackgroundImageFix"/>
<feColorMatrix in="SourceAlpha" type="matrix" values="0 0 0 0 0 0 0 0 0 0 0 0 0 0 0 0 0 0 127 0" result="hardAlpha"/>
<feOffset dy="4"/>
<feGaussianBlur stdDeviation="6"/>
<feColorMatrix type="matrix" values="0 0 0 0 0 0 0 0 0 0 0 0 0 0 0 0 0 0 0.1 0"/>
<feBlend mode="normal" in2="BackgroundImageFix" result="effect1_dropShadow"/>
<feBlend mode="normal" in="SourceGraphic" in2="effect1_dropShadow" result="shape"/>
</filter>
<filter id="filter4_d" x="29.4929" y="422.171" width="114.797" height="112.642" filterUnits="userSpaceOnUse" color-interpolation-filters="sRGB">
<feFlood flood-opacity="0" result="BackgroundImageFix"/>
<feColorMatrix in="SourceAlpha" type="matrix" values="0 0 0 0 0 0 0 0 0 0 0 0 0 0 0 0 0 0 127 0" result="hardAlpha"/>
<feOffset dy="4"/>
<feGaussianBlur stdDeviation="6"/>
<feColorMatrix type="matrix" values="0 0 0 0 0 0 0 0 0 0 0 0 0 0 0 0 0 0 0.1 0"/>
<feBlend mode="normal" in2="BackgroundImageFix" result="effect1_dropShadow"/>
<feBlend mode="normal" in="SourceGraphic" in2="effect1_dropShadow" result="shape"/>
</filter>
<filter id="filter5_d" x="8.08203" y="371.031" width="108.651" height="104.871" filterUnits="userSpaceOnUse" color-interpolation-filters="sRGB">
<feFlood flood-opacity="0" result="BackgroundImageFix"/>
<feColorMatrix in="SourceAlpha" type="matrix" values="0 0 0 0 0 0 0 0 0 0 0 0 0 0 0 0 0 0 127 0" result="hardAlpha"/>
<feOffset dy="4"/>
<feGaussianBlur stdDeviation="6"/>
<feColorMatrix type="matrix" values="0 0 0 0 0 0 0 0 0 0 0 0 0 0 0 0 0 0 0.1 0"/>
<feBlend mode="normal" in2="BackgroundImageFix" result="effect1_dropShadow"/>
<feBlend mode="normal" in="SourceGraphic" in2="effect1_dropShadow" result="shape"/>
</filter>
<filter id="filter6_d" x="0.49585" y="317.77" width="98.805" height="93.5651" filterUnits="userSpaceOnUse" color-interpolation-filters="sRGB">
<feFlood flood-opacity="0" result="BackgroundImageFix"/>
<feColorMatrix in="SourceAlpha" type="matrix" values="0 0 0 0 0 0 0 0 0 0 0 0 0 0 0 0 0 0 127 0" result="hardAlpha"/>
<feOffset dy="4"/>
<feGaussianBlur stdDeviation="6"/>
<feColorMatrix type="matrix" values="0 0 0 0 0 0 0 0 0 0 0 0 0 0 0 0 0 0 0.1 0"/>
<feBlend mode="normal" in2="BackgroundImageFix" result="effect1_dropShadow"/>
<feBlend mode="normal" in="SourceGraphic" in2="effect1_dropShadow" result="shape"/>
</filter>
<filter id="filter7_d" x="0.508789" y="257.544" width="98.805" height="93.5651" filterUnits="userSpaceOnUse" color-interpolation-filters="sRGB">
<feFlood flood-opacity="0" result="BackgroundImageFix"/>
<feColorMatrix in="SourceAlpha" type="matrix" values="0 0 0 0 0 0 0 0 0 0 0 0 0 0 0 0 0 0 127 0" result="hardAlpha"/>
<feOffset dy="4"/>
<feGaussianBlur stdDeviation="6"/>
<feColorMatrix type="matrix" values="0 0 0 0 0 0 0 0 0 0 0 0 0 0 0 0 0 0 0.1 0"/>
<feBlend mode="normal" in2="BackgroundImageFix" result="effect1_dropShadow"/>
<feBlend mode="normal" in="SourceGraphic" in2="effect1_dropShadow" result="shape"/>
</filter>
<filter id="filter8_d" x="8.12036" y="192.983" width="108.651" height="104.871" filterUnits="userSpaceOnUse" color-interpolation-filters="sRGB">
<feFlood flood-opacity="0" result="BackgroundImageFix"/>
<feColorMatrix in="SourceAlpha" type="matrix" values="0 0 0 0 0 0 0 0 0 0 0 0 0 0 0 0 0 0 127 0" result="hardAlpha"/>
<feOffset dy="4"/>
<feGaussianBlur stdDeviation="6"/>
<feColorMatrix type="matrix" values="0 0 0 0 0 0 0 0 0 0 0 0 0 0 0 0 0 0 0.1 0"/>
<feBlend mode="normal" in2="BackgroundImageFix" result="effect1_dropShadow"/>
<feBlend mode="normal" in="SourceGraphic" in2="effect1_dropShadow" result="shape"/>
</filter>
<filter id="filter9_d" x="29.5559" y="134.083" width="114.797" height="112.642" filterUnits="userSpaceOnUse" color-interpolation-filters="sRGB">
<feFlood flood-opacity="0" result="BackgroundImageFix"/>
<feColorMatrix in="SourceAlpha" type="matrix" values="0 0 0 0 0 0 0 0 0 0 0 0 0 0 0 0 0 0 127 0" result="hardAlpha"/>
<feOffset dy="4"/>
<feGaussianBlur stdDeviation="6"/>
<feColorMatrix type="matrix" values="0 0 0 0 0 0 0 0 0 0 0 0 0 0 0 0 0 0 0.1 0"/>
<feBlend mode="normal" in2="BackgroundImageFix" result="effect1_dropShadow"/>
<feBlend mode="normal" in="SourceGraphic" in2="effect1_dropShadow" result="shape"/>
</filter>
<filter id="filter10_d" x="63.8779" y="83.417" width="116.975" height="116.54" filterUnits="userSpaceOnUse" color-interpolation-filters="sRGB">
<feFlood flood-opacity="0" result="BackgroundImageFix"/>
<feColorMatrix in="SourceAlpha" type="matrix" values="0 0 0 0 0 0 0 0 0 0 0 0 0 0 0 0 0 0 127 0" result="hardAlpha"/>
<feOffset dy="4"/>
<feGaussianBlur stdDeviation="6"/>
<feColorMatrix type="matrix" values="0 0 0 0 0 0 0 0 0 0 0 0 0 0 0 0 0 0 0.1 0"/>
<feBlend mode="normal" in2="BackgroundImageFix" result="effect1_dropShadow"/>
<feBlend mode="normal" in="SourceGraphic" in2="effect1_dropShadow" result="shape"/>
</filter>
<filter id="filter11_d" x="109.587" y="43.2008" width="115.09" height="116.392" filterUnits="userSpaceOnUse" color-interpolation-filters="sRGB">
<feFlood flood-opacity="0" result="BackgroundImageFix"/>
<feColorMatrix in="SourceAlpha" type="matrix" values="0 0 0 0 0 0 0 0 0 0 0 0 0 0 0 0 0 0 127 0" result="hardAlpha"/>
<feOffset dy="4"/>
<feGaussianBlur stdDeviation="6"/>
<feColorMatrix type="matrix" values="0 0 0 0 0 0 0 0 0 0 0 0 0 0 0 0 0 0 0.1 0"/>
<feBlend mode="normal" in2="BackgroundImageFix" result="effect1_dropShadow"/>
<feBlend mode="normal" in="SourceGraphic" in2="effect1_dropShadow" result="shape"/>
</filter>
<filter id="filter12_d" x="164.685" y="15.1915" width="109.223" height="112.207" filterUnits="userSpaceOnUse" color-interpolation-filters="sRGB">
<feFlood flood-opacity="0" result="BackgroundImageFix"/>
<feColorMatrix in="SourceAlpha" type="matrix" values="0 0 0 0 0 0 0 0 0 0 0 0 0 0 0 0 0 0 127 0" result="hardAlpha"/>
<feOffset dy="4"/>
<feGaussianBlur stdDeviation="6"/>
<feColorMatrix type="matrix" values="0 0 0 0 0 0 0 0 0 0 0 0 0 0 0 0 0 0 0.1 0"/>
<feBlend mode="normal" in2="BackgroundImageFix" result="effect1_dropShadow"/>
<feBlend mode="normal" in="SourceGraphic" in2="effect1_dropShadow" result="shape"/>
</filter>
<filter id="filter13_d" x="226.763" y="0.613037" width="99.6323" height="104.167" filterUnits="userSpaceOnUse" color-interpolation-filters="sRGB">
<feFlood flood-opacity="0" result="BackgroundImageFix"/>
<feColorMatrix in="SourceAlpha" type="matrix" values="0 0 0 0 0 0 0 0 0 0 0 0 0 0 0 0 0 0 127 0" result="hardAlpha"/>
<feOffset dy="4"/>
<feGaussianBlur stdDeviation="6"/>
<feColorMatrix type="matrix" values="0 0 0 0 0 0 0 0 0 0 0 0 0 0 0 0 0 0 0.1 0"/>
<feBlend mode="normal" in2="BackgroundImageFix" result="effect1_dropShadow"/>
<feBlend mode="normal" in="SourceGraphic" in2="effect1_dropShadow" result="shape"/>
</filter>
<filter id="filter14_d" x="293.11" y="0.102661" width="86.7357" height="92.6232" filterUnits="userSpaceOnUse" color-interpolation-filters="sRGB">
<feFlood flood-opacity="0" result="BackgroundImageFix"/>
<feColorMatrix in="SourceAlpha" type="matrix" values="0 0 0 0 0 0 0 0 0 0 0 0 0 0 0 0 0 0 127 0" result="hardAlpha"/>
<feOffset dy="4"/>
<feGaussianBlur stdDeviation="6"/>
<feColorMatrix type="matrix" values="0 0 0 0 0 0 0 0 0 0 0 0 0 0 0 0 0 0 0.1 0"/>
<feBlend mode="normal" in2="BackgroundImageFix" result="effect1_dropShadow"/>
<feBlend mode="normal" in="SourceGraphic" in2="effect1_dropShadow" result="shape"/>
</filter>
<filter id="filter15_d" x="346.557" y="0.639404" width="99.6323" height="104.167" filterUnits="userSpaceOnUse" color-interpolation-filters="sRGB">
<feFlood flood-opacity="0" result="BackgroundImageFix"/>
<feColorMatrix in="SourceAlpha" type="matrix" values="0 0 0 0 0 0 0 0 0 0 0 0 0 0 0 0 0 0 127 0" result="hardAlpha"/>
<feOffset dy="4"/>
<feGaussianBlur stdDeviation="6"/>
<feColorMatrix type="matrix" values="0 0 0 0 0 0 0 0 0 0 0 0 0 0 0 0 0 0 0.1 0"/>
<feBlend mode="normal" in2="BackgroundImageFix" result="effect1_dropShadow"/>
<feBlend mode="normal" in="SourceGraphic" in2="effect1_dropShadow" result="shape"/>
</filter>
<filter id="filter16_d" x="371.733" y="34.9767" width="50.1678" height="34.7631" filterUnits="userSpaceOnUse" color-interpolation-filters="sRGB">
<feFlood flood-opacity="0" result="BackgroundImageFix"/>
<feColorMatrix in="SourceAlpha" type="matrix" values="0 0 0 0 0 0 0 0 0 0 0 0 0 0 0 0 0 0 127 0" result="hardAlpha"/>
<feOffset dy="4"/>
<feGaussianBlur stdDeviation="3.5"/>
<feColorMatrix type="matrix" values="0 0 0 0 0 0 0 0 0 0 0 0 0 0 0 0 0 0 0.14 0"/>
<feBlend mode="normal" in2="BackgroundImageFix" result="effect1_dropShadow"/>
<feBlend mode="normal" in="SourceGraphic" in2="effect1_dropShadow" result="shape"/>
</filter>
<filter id="filter17_d" x="399.036" y="15.243" width="109.223" height="112.207" filterUnits="userSpaceOnUse" color-interpolation-filters="sRGB">
<feFlood flood-opacity="0" result="BackgroundImageFix"/>
<feColorMatrix in="SourceAlpha" type="matrix" values="0 0 0 0 0 0 0 0 0 0 0 0 0 0 0 0 0 0 127 0" result="hardAlpha"/>
<feOffset dy="4"/>
<feGaussianBlur stdDeviation="6"/>
<feColorMatrix type="matrix" values="0 0 0 0 0 0 0 0 0 0 0 0 0 0 0 0 0 0 0.1 0"/>
<feBlend mode="normal" in2="BackgroundImageFix" result="effect1_dropShadow"/>
<feBlend mode="normal" in="SourceGraphic" in2="effect1_dropShadow" result="shape"/>
</filter>
<filter id="filter18_d" x="448.254" y="43.275" width="115.09" height="116.392" filterUnits="userSpaceOnUse" color-interpolation-filters="sRGB">
<feFlood flood-opacity="0" result="BackgroundImageFix"/>
<feColorMatrix in="SourceAlpha" type="matrix" values="0 0 0 0 0 0 0 0 0 0 0 0 0 0 0 0 0 0 127 0" result="hardAlpha"/>
<feOffset dy="4"/>
<feGaussianBlur stdDeviation="6"/>
<feColorMatrix type="matrix" values="0 0 0 0 0 0 0 0 0 0 0 0 0 0 0 0 0 0 0.1 0"/>
<feBlend mode="normal" in2="BackgroundImageFix" result="effect1_dropShadow"/>
<feBlend mode="normal" in="SourceGraphic" in2="effect1_dropShadow" result="shape"/>
</filter>
<filter id="filter19_d" x="492.06" y="83.5109" width="116.975" height="116.54" filterUnits="userSpaceOnUse" color-interpolation-filters="sRGB">
<feFlood flood-opacity="0" result="BackgroundImageFix"/>
<feColorMatrix in="SourceAlpha" type="matrix" values="0 0 0 0 0 0 0 0 0 0 0 0 0 0 0 0 0 0 127 0" result="hardAlpha"/>
<feOffset dy="4"/>
<feGaussianBlur stdDeviation="6"/>
<feColorMatrix type="matrix" values="0 0 0 0 0 0 0 0 0 0 0 0 0 0 0 0 0 0 0.1 0"/>
<feBlend mode="normal" in2="BackgroundImageFix" result="effect1_dropShadow"/>
<feBlend mode="normal" in="SourceGraphic" in2="effect1_dropShadow" result="shape"/>
</filter>
<filter id="filter20_d" x="528.539" y="134.192" width="114.797" height="112.642" filterUnits="userSpaceOnUse" color-interpolation-filters="sRGB">
<feFlood flood-opacity="0" result="BackgroundImageFix"/>
<feColorMatrix in="SourceAlpha" type="matrix" values="0 0 0 0 0 0 0 0 0 0 0 0 0 0 0 0 0 0 127 0" result="hardAlpha"/>
<feOffset dy="4"/>
<feGaussianBlur stdDeviation="6"/>
<feColorMatrix type="matrix" values="0 0 0 0 0 0 0 0 0 0 0 0 0 0 0 0 0 0 0.1 0"/>
<feBlend mode="normal" in2="BackgroundImageFix" result="effect1_dropShadow"/>
<feBlend mode="normal" in="SourceGraphic" in2="effect1_dropShadow" result="shape"/>
</filter>
<filter id="filter21_d" x="564.943" y="165.376" width="43.1244" height="50.4449" filterUnits="userSpaceOnUse" color-interpolation-filters="sRGB">
<feFlood flood-opacity="0" result="BackgroundImageFix"/>
<feColorMatrix in="SourceAlpha" type="matrix" values="0 0 0 0 0 0 0 0 0 0 0 0 0 0 0 0 0 0 127 0" result="hardAlpha"/>
<feOffset dy="4"/>
<feGaussianBlur stdDeviation="3.5"/>
<feColorMatrix type="matrix" values="0 0 0 0 0 0 0 0 0 0 0 0 0 0 0 0 0 0 0.14 0"/>
<feBlend mode="normal" in2="BackgroundImageFix" result="effect1_dropShadow"/>
<feBlend mode="normal" in="SourceGraphic" in2="effect1_dropShadow" result="shape"/>
</filter>
<filter id="filter22_d" x="556.097" y="193.103" width="108.651" height="104.871" filterUnits="userSpaceOnUse" color-interpolation-filters="sRGB">
<feFlood flood-opacity="0" result="BackgroundImageFix"/>
<feColorMatrix in="SourceAlpha" type="matrix" values="0 0 0 0 0 0 0 0 0 0 0 0 0 0 0 0 0 0 127 0" result="hardAlpha"/>
<feOffset dy="4"/>
<feGaussianBlur stdDeviation="6"/>
<feColorMatrix type="matrix" values="0 0 0 0 0 0 0 0 0 0 0 0 0 0 0 0 0 0 0.1 0"/>
<feBlend mode="normal" in2="BackgroundImageFix" result="effect1_dropShadow"/>
<feBlend mode="normal" in="SourceGraphic" in2="effect1_dropShadow" result="shape"/>
</filter>
<filter id="filter23_d" x="573.528" y="257.669" width="98.805" height="93.5651" filterUnits="userSpaceOnUse" color-interpolation-filters="sRGB">
<feFlood flood-opacity="0" result="BackgroundImageFix"/>
<feColorMatrix in="SourceAlpha" type="matrix" values="0 0 0 0 0 0 0 0 0 0 0 0 0 0 0 0 0 0 127 0" result="hardAlpha"/>
<feOffset dy="4"/>
<feGaussianBlur stdDeviation="6"/>
<feColorMatrix type="matrix" values="0 0 0 0 0 0 0 0 0 0 0 0 0 0 0 0 0 0 0.1 0"/>
<feBlend mode="normal" in2="BackgroundImageFix" result="effect1_dropShadow"/>
<feBlend mode="normal" in="SourceGraphic" in2="effect1_dropShadow" result="shape"/>
</filter>
<filter id="filter24_d" x="573.515" y="317.896" width="98.805" height="93.5651" filterUnits="userSpaceOnUse" color-interpolation-filters="sRGB">
<feFlood flood-opacity="0" result="BackgroundImageFix"/>
<feColorMatrix in="SourceAlpha" type="matrix" values="0 0 0 0 0 0 0 0 0 0 0 0 0 0 0 0 0 0 127 0" result="hardAlpha"/>
<feOffset dy="4"/>
<feGaussianBlur stdDeviation="6"/>
<feColorMatrix type="matrix" values="0 0 0 0 0 0 0 0 0 0 0 0 0 0 0 0 0 0 0.1 0"/>
<feBlend mode="normal" in2="BackgroundImageFix" result="effect1_dropShadow"/>
<feBlend mode="normal" in="SourceGraphic" in2="effect1_dropShadow" result="shape"/>
</filter>
<filter id="filter25_d" x="556.057" y="371.151" width="108.651" height="104.871" filterUnits="userSpaceOnUse" color-interpolation-filters="sRGB">
<feFlood flood-opacity="0" result="BackgroundImageFix"/>
<feColorMatrix in="SourceAlpha" type="matrix" values="0 0 0 0 0 0 0 0 0 0 0 0 0 0 0 0 0 0 127 0" result="hardAlpha"/>
<feOffset dy="4"/>
<feGaussianBlur stdDeviation="6"/>
<feColorMatrix type="matrix" values="0 0 0 0 0 0 0 0 0 0 0 0 0 0 0 0 0 0 0.1 0"/>
<feBlend mode="normal" in2="BackgroundImageFix" result="effect1_dropShadow"/>
<feBlend mode="normal" in="SourceGraphic" in2="effect1_dropShadow" result="shape"/>
</filter>
<filter id="filter26_d" x="528.476" y="422.28" width="114.797" height="112.642" filterUnits="userSpaceOnUse" color-interpolation-filters="sRGB">
<feFlood flood-opacity="0" result="BackgroundImageFix"/>
<feColorMatrix in="SourceAlpha" type="matrix" values="0 0 0 0 0 0 0 0 0 0 0 0 0 0 0 0 0 0 127 0" result="hardAlpha"/>
<feOffset dy="4"/>
<feGaussianBlur stdDeviation="6"/>
<feColorMatrix type="matrix" values="0 0 0 0 0 0 0 0 0 0 0 0 0 0 0 0 0 0 0.1 0"/>
<feBlend mode="normal" in2="BackgroundImageFix" result="effect1_dropShadow"/>
<feBlend mode="normal" in="SourceGraphic" in2="effect1_dropShadow" result="shape"/>
</filter>
<filter id="filter27_d" x="491.976" y="469.048" width="116.975" height="116.54" filterUnits="userSpaceOnUse" color-interpolation-filters="sRGB">
<feFlood flood-opacity="0" result="BackgroundImageFix"/>
<feColorMatrix in="SourceAlpha" type="matrix" values="0 0 0 0 0 0 0 0 0 0 0 0 0 0 0 0 0 0 127 0" result="hardAlpha"/>
<feOffset dy="4"/>
<feGaussianBlur stdDeviation="6"/>
<feColorMatrix type="matrix" values="0 0 0 0 0 0 0 0 0 0 0 0 0 0 0 0 0 0 0.1 0"/>
<feBlend mode="normal" in2="BackgroundImageFix" result="effect1_dropShadow"/>
<feBlend mode="normal" in="SourceGraphic" in2="effect1_dropShadow" result="shape"/>
</filter>
<filter id="filter28_d" x="448.152" y="509.411" width="115.09" height="116.392" filterUnits="userSpaceOnUse" color-interpolation-filters="sRGB">
<feFlood flood-opacity="0" result="BackgroundImageFix"/>
<feColorMatrix in="SourceAlpha" type="matrix" values="0 0 0 0 0 0 0 0 0 0 0 0 0 0 0 0 0 0 127 0" result="hardAlpha"/>
<feOffset dy="4"/>
<feGaussianBlur stdDeviation="6"/>
<feColorMatrix type="matrix" values="0 0 0 0 0 0 0 0 0 0 0 0 0 0 0 0 0 0 0.1 0"/>
<feBlend mode="normal" in2="BackgroundImageFix" result="effect1_dropShadow"/>
<feBlend mode="normal" in="SourceGraphic" in2="effect1_dropShadow" result="shape"/>
</filter>
<filter id="filter29_d" x="398.921" y="541.606" width="109.223" height="112.207" filterUnits="userSpaceOnUse" color-interpolation-filters="sRGB">
<feFlood flood-opacity="0" result="BackgroundImageFix"/>
<feColorMatrix in="SourceAlpha" type="matrix" values="0 0 0 0 0 0 0 0 0 0 0 0 0 0 0 0 0 0 127 0" result="hardAlpha"/>
<feOffset dy="4"/>
<feGaussianBlur stdDeviation="6"/>
<feColorMatrix type="matrix" values="0 0 0 0 0 0 0 0 0 0 0 0 0 0 0 0 0 0 0.1 0"/>
<feBlend mode="normal" in2="BackgroundImageFix" result="effect1_dropShadow"/>
<feBlend mode="normal" in="SourceGraphic" in2="effect1_dropShadow" result="shape"/>
</filter>
<filter id="filter30_d" x="346.433" y="564.224" width="99.6323" height="104.167" filterUnits="userSpaceOnUse" color-interpolation-filters="sRGB">
<feFlood flood-opacity="0" result="BackgroundImageFix"/>
<feColorMatrix in="SourceAlpha" type="matrix" values="0 0 0 0 0 0 0 0 0 0 0 0 0 0 0 0 0 0 127 0" result="hardAlpha"/>
<feOffset dy="4"/>
<feGaussianBlur stdDeviation="6"/>
<feColorMatrix type="matrix" values="0 0 0 0 0 0 0 0 0 0 0 0 0 0 0 0 0 0 0.1 0"/>
<feBlend mode="normal" in2="BackgroundImageFix" result="effect1_dropShadow"/>
<feBlend mode="normal" in="SourceGraphic" in2="effect1_dropShadow" result="shape"/>
</filter>
<filter id="filter31_d" x="292.984" y="576.278" width="86.7357" height="92.6232" filterUnits="userSpaceOnUse" color-interpolation-filters="sRGB">
<feFlood flood-opacity="0" result="BackgroundImageFix"/>
<feColorMatrix in="SourceAlpha" type="matrix" values="0 0 0 0 0 0 0 0 0 0 0 0 0 0 0 0 0 0 127 0" result="hardAlpha"/>
<feOffset dy="4"/>
<feGaussianBlur stdDeviation="6"/>
<feColorMatrix type="matrix" values="0 0 0 0 0 0 0 0 0 0 0 0 0 0 0 0 0 0 0.1 0"/>
<feBlend mode="normal" in2="BackgroundImageFix" result="effect1_dropShadow"/>
<feBlend mode="normal" in="SourceGraphic" in2="effect1_dropShadow" result="shape"/>
</filter>
<radialGradient id="paint0_radial" cx="0" cy="0" r="1" gradientUnits="userSpaceOnUse" gradientTransform="translate(276.92 612.444) rotate(102) scale(34.3744)">
<stop stop-color="#6068BC"/>
<stop offset="1" stop-color="#333F74"/>
</radialGradient>
<radialGradient id="paint1_radial" cx="0" cy="0" r="1" gradientUnits="userSpaceOnUse" gradientTransform="translate(276.92 612.444) rotate(102) scale(34.3744)">
<stop stop-color="#0159D6"/>
<stop offset="1" stop-color="#003272"/>
</radialGradient>
<radialGradient id="paint2_radial" cx="0" cy="0" r="1" gradientUnits="userSpaceOnUse" gradientTransform="translate(274.556 619.493) rotate(-78) scale(10)">
<stop stop-color="#FCFF5B"/>
<stop offset="1" stop-color="#FCB922"/>
</radialGradient>
<radialGradient id="paint3_radial" cx="0" cy="0" r="1" gradientUnits="userSpaceOnUse" gradientTransform="translate(277.675 604.821) rotate(-78) scale(7 17)">
<stop stop-color="#FCFF5B"/>
<stop offset="1" stop-color="#FCB922"/>
</radialGradient>
<radialGradient id="paint4_radial" cx="0" cy="0" r="1" gradientUnits="userSpaceOnUse" gradientTransform="translate(219.601 593.914) rotate(114) scale(34.3744)">
<stop stop-color="#63B2BB"/>
<stop offset="1" stop-color="#476D78"/>
</radialGradient>
<radialGradient id="paint5_radial" cx="0" cy="0" r="1" gradientUnits="userSpaceOnUse" gradientTransform="translate(219.601 593.914) rotate(114) scale(34.3744)">
<stop stop-color="#01B2CC"/>
<stop offset="1" stop-color="#016684"/>
</radialGradient>
<radialGradient id="paint6_radial" cx="0" cy="0" r="1" gradientUnits="userSpaceOnUse" gradientTransform="translate(219.686 594.1) rotate(-66) scale(8.25 20)">
<stop stop-color="#FCFF5B"/>
<stop offset="1" stop-color="#FCB922"/>
</radialGradient>
<radialGradient id="paint7_radial" cx="0" cy="0" r="1" gradientUnits="userSpaceOnUse" gradientTransform="translate(167.387 563.871) rotate(126) scale(34.3744)">
<stop stop-color="#6068BC"/>
<stop offset="1" stop-color="#333F74"/>
</radialGradient>
<radialGradient id="paint8_radial" cx="0" cy="0" r="1" gradientUnits="userSpaceOnUse" gradientTransform="translate(167.387 563.871) rotate(126) scale(34.3744)">
<stop stop-color="#0159D6"/>
<stop offset="1" stop-color="#003272"/>
</radialGradient>
<radialGradient id="paint9_radial" cx="0" cy="0" r="1" gradientUnits="userSpaceOnUse" gradientTransform="translate(162.076 570.377) rotate(-54) scale(10)">
<stop stop-color="#FCFF5B"/>
<stop offset="1" stop-color="#FCB922"/>
</radialGradient>
<radialGradient id="paint10_radial" cx="0" cy="0" r="1" gradientUnits="userSpaceOnUse" gradientTransform="translate(170.892 558.242) rotate(-54) scale(7 17)">
<stop stop-color="#FCFF5B"/>
<stop offset="1" stop-color="#FCB922"/>
</radialGradient>
<radialGradient id="paint11_radial" cx="0" cy="0" r="1" gradientUnits="userSpaceOnUse" gradientTransform="translate(122.561 523.628) rotate(138) scale(34.3744)">
<stop stop-color="#63B2BB"/>
<stop offset="1" stop-color="#476D78"/>
</radialGradient>
<radialGradient id="paint12_radial" cx="0" cy="0" r="1" gradientUnits="userSpaceOnUse" gradientTransform="translate(122.561 523.628) rotate(138) scale(34.3744)">
<stop stop-color="#01B2CC"/>
<stop offset="1" stop-color="#016684"/>
</radialGradient>
<radialGradient id="paint13_radial" cx="0" cy="0" r="1" gradientUnits="userSpaceOnUse" gradientTransform="translate(121.819 524.503) rotate(-42) scale(8.25 20)">
<stop stop-color="#FCFF5B"/>
<stop offset="1" stop-color="#FCB922"/>
</radialGradient>
<radialGradient id="paint14_radial" cx="0" cy="0" r="1" gradientUnits="userSpaceOnUse" gradientTransform="translate(87.0809 474.945) rotate(150) scale(34.3744)">
<stop stop-color="#B54ECA"/>
<stop offset="1" stop-color="#6D308A"/>
</radialGradient>
<radialGradient id="paint15_radial" cx="0" cy="0" r="1" gradientUnits="userSpaceOnUse" gradientTransform="translate(87.0809 474.945) rotate(150) scale(34.3744)">
<stop stop-color="#A301E2"/>
<stop offset="1" stop-color="#540197"/>
</radialGradient>
<radialGradient id="paint16_radial" cx="0" cy="0" r="1" gradientUnits="userSpaceOnUse" gradientTransform="translate(90.4743 471.819) rotate(-30) scale(8.25 20)">
<stop stop-color="#FCFF5B"/>
<stop offset="1" stop-color="#FCB922"/>
</radialGradient>
<radialGradient id="paint17_radial" cx="0" cy="0" r="1" gradientUnits="userSpaceOnUse" gradientTransform="translate(82.3635 476.477) rotate(-30) scale(5.5 16)">
<stop stop-color="#FCFF5B"/>
<stop offset="1" stop-color="#FCB922"/>
</radialGradient>
<radialGradient id="paint18_radial" cx="0" cy="0" r="1" gradientUnits="userSpaceOnUse" gradientTransform="translate(76.7343 479.727) rotate(-30) scale(3 8)">
<stop stop-color="#FCFF5B"/>
<stop offset="1" stop-color="#FCB922"/>
</radialGradient>
<radialGradient id="paint19_radial" cx="0" cy="0" r="1" gradientUnits="userSpaceOnUse" gradientTransform="translate(62.4984 419.95) rotate(162) scale(34.3744)">
<stop stop-color="#6068BC"/>
<stop offset="1" stop-color="#333F74"/>
</radialGradient>
<radialGradient id="paint20_radial" cx="0" cy="0" r="1" gradientUnits="userSpaceOnUse" gradientTransform="translate(62.4984 419.95) rotate(162) scale(34.3744)">
<stop stop-color="#0159D6"/>
<stop offset="1" stop-color="#003272"/>
</radialGradient>
<radialGradient id="paint21_radial" cx="0" cy="0" r="1" gradientUnits="userSpaceOnUse" gradientTransform="translate(55.1614 421.271) rotate(-18) scale(10)">
<stop stop-color="#FCFF5B"/>
<stop offset="1" stop-color="#FCB922"/>
</radialGradient>
<radialGradient id="paint22_radial" cx="0" cy="0" r="1" gradientUnits="userSpaceOnUse" gradientTransform="translate(69.4271 416.636) rotate(-18) scale(7 17)">
<stop stop-color="#FCFF5B"/>
<stop offset="1" stop-color="#FCB922"/>
</radialGradient>
<radialGradient id="paint23_radial" cx="0" cy="0" r="1" gradientUnits="userSpaceOnUse" gradientTransform="translate(49.8868 361.044) rotate(174) scale(34.3744)">
<stop stop-color="#63B2BB"/>
<stop offset="1" stop-color="#476D78"/>
</radialGradient>
<radialGradient id="paint24_radial" cx="0" cy="0" r="1" gradientUnits="userSpaceOnUse" gradientTransform="translate(49.8868 361.044) rotate(174) scale(34.3744)">
<stop stop-color="#01B2CC"/>
<stop offset="1" stop-color="#016684"/>
</radialGradient>
<radialGradient id="paint25_radial" cx="0" cy="0" r="1" gradientUnits="userSpaceOnUse" gradientTransform="translate(48.6684 360.322) rotate(-6) scale(8.25 20)">
<stop stop-color="#FCFF5B"/>
<stop offset="1" stop-color="#FCB922"/>
</radialGradient>
<radialGradient id="paint26_radial" cx="0" cy="0" r="1" gradientUnits="userSpaceOnUse" gradientTransform="translate(49.798 300.805) rotate(-174) scale(34.3744)">
<stop stop-color="#B54ECA"/>
<stop offset="1" stop-color="#6D308A"/>
</radialGradient>
<radialGradient id="paint27_radial" cx="0" cy="0" r="1" gradientUnits="userSpaceOnUse" gradientTransform="translate(49.798 300.805) rotate(-174) scale(34.3744)">
<stop stop-color="#A301E2"/>
<stop offset="1" stop-color="#540197"/>
</radialGradient>
<radialGradient id="paint28_radial" cx="0" cy="0" r="1" gradientUnits="userSpaceOnUse" gradientTransform="translate(54.2241 301.424) rotate(6) scale(8.25 20)">
<stop stop-color="#FCFF5B"/>
<stop offset="1" stop-color="#FCB922"/>
</radialGradient>
<radialGradient id="paint29_radial" cx="0" cy="0" r="1" gradientUnits="userSpaceOnUse" gradientTransform="translate(44.9202 300.468) rotate(6) scale(5.5 16)">
<stop stop-color="#FCFF5B"/>
<stop offset="1" stop-color="#FCB922"/>
</radialGradient>
<radialGradient id="paint30_radial" cx="0" cy="0" r="1" gradientUnits="userSpaceOnUse" gradientTransform="translate(38.4559 299.789) rotate(6) scale(3 8)">
<stop stop-color="#FCFF5B"/>
<stop offset="1" stop-color="#FCB922"/>
</radialGradient>
<radialGradient id="paint31_radial" cx="0" cy="0" r="1" gradientUnits="userSpaceOnUse" gradientTransform="translate(62.2356 241.863) rotate(-162) scale(34.3744)">
<stop stop-color="#63B2BB"/>
<stop offset="1" stop-color="#476D78"/>
</radialGradient>
<radialGradient id="paint32_radial" cx="0" cy="0" r="1" gradientUnits="userSpaceOnUse" gradientTransform="translate(62.2356 241.863) rotate(-162) scale(34.3744)">
<stop stop-color="#01B2CC"/>
<stop offset="1" stop-color="#016684"/>
</radialGradient>
<radialGradient id="paint33_radial" cx="0" cy="0" r="1" gradientUnits="userSpaceOnUse" gradientTransform="translate(60.4657 240.398) rotate(18) scale(8.25 20)">
<stop stop-color="#FCFF5B"/>
<stop offset="1" stop-color="#FCB922"/>
</radialGradient>
<radialGradient id="paint34_radial" cx="0" cy="0" r="1" gradientUnits="userSpaceOnUse" gradientTransform="translate(86.6565 186.795) rotate(-150) scale(34.3744)">
<stop stop-color="#6068BC"/>
<stop offset="1" stop-color="#333F74"/>
</radialGradient>
<radialGradient id="paint35_radial" cx="0" cy="0" r="1" gradientUnits="userSpaceOnUse" gradientTransform="translate(86.6565 186.795) rotate(-150) scale(34.3744)">
<stop stop-color="#0159D6"/>
<stop offset="1" stop-color="#003272"/>
</radialGradient>
<radialGradient id="paint36_radial" cx="0" cy="0" r="1" gradientUnits="userSpaceOnUse" gradientTransform="translate(79.817 181.869) rotate(30) scale(10)">
<stop stop-color="#FCFF5B"/>
<stop offset="1" stop-color="#FCB922"/>
</radialGradient>
<radialGradient id="paint37_radial" cx="0" cy="0" r="1" gradientUnits="userSpaceOnUse" gradientTransform="translate(92.8073 189.369) rotate(30) scale(7 17)">
<stop stop-color="#FCFF5B"/>
<stop offset="1" stop-color="#FCB922"/>
</radialGradient>
<radialGradient id="paint38_radial" cx="0" cy="0" r="1" gradientUnits="userSpaceOnUse" gradientTransform="translate(121.993 138.007) rotate(-138) scale(34.3744)">
<stop stop-color="#B54ECA"/>
<stop offset="1" stop-color="#6D308A"/>
</radialGradient>
<radialGradient id="paint39_radial" cx="0" cy="0" r="1" gradientUnits="userSpaceOnUse" gradientTransform="translate(121.993 138.007) rotate(-138) scale(34.3744)">
<stop stop-color="#A301E2"/>
<stop offset="1" stop-color="#540197"/>
</radialGradient>
<radialGradient id="paint40_radial" cx="0" cy="0" r="1" gradientUnits="userSpaceOnUse" gradientTransform="translate(125.983 140.251) rotate(42) scale(8.25 20)">
<stop stop-color="#FCFF5B"/>
<stop offset="1" stop-color="#FCB922"/>
</radialGradient>
<radialGradient id="paint41_radial" cx="0" cy="0" r="1" gradientUnits="userSpaceOnUse" gradientTransform="translate(119.047 133.977) rotate(42) scale(5.5 16)">
<stop stop-color="#FCFF5B"/>
<stop offset="1" stop-color="#FCB922"/>
</radialGradient>
<radialGradient id="paint42_radial" cx="0" cy="0" r="1" gradientUnits="userSpaceOnUse" gradientTransform="translate(114.216 129.628) rotate(42) scale(3 8)">
<stop stop-color="#FCFF5B"/>
<stop offset="1" stop-color="#FCB922"/>
</radialGradient>
<radialGradient id="paint43_radial" cx="0" cy="0" r="1" gradientUnits="userSpaceOnUse" gradientTransform="translate(166.7 97.6328) rotate(-126) scale(34.3744)">
<stop stop-color="#63B2BB"/>
<stop offset="1" stop-color="#476D78"/>
</radialGradient>
<radialGradient id="paint44_radial" cx="0" cy="0" r="1" gradientUnits="userSpaceOnUse" gradientTransform="translate(166.7 97.6328) rotate(-126) scale(34.3744)">
<stop stop-color="#01B2CC"/>
<stop offset="1" stop-color="#016684"/>
</radialGradient>
<radialGradient id="paint45_radial" cx="0" cy="0" r="1" gradientUnits="userSpaceOnUse" gradientTransform="translate(167.305 97.0254) rotate(54) scale(8.25 20)">
<stop stop-color="#FCFF5B"/>
<stop offset="1" stop-color="#FCB922"/>
</radialGradient>
<radialGradient id="paint46_radial" cx="0" cy="0" r="1" gradientUnits="userSpaceOnUse" gradientTransform="translate(218.825 67.4361) rotate(-114) scale(34.3744)">
<stop stop-color="#A301E2"/>
<stop offset="1" stop-color="#540197"/>
</radialGradient>
<radialGradient id="paint47_radial" cx="0" cy="0" r="1" gradientUnits="userSpaceOnUse" gradientTransform="translate(221.017 71.3495) rotate(66) scale(8.25 20)">
<stop stop-color="#FCFF5B"/>
<stop offset="1" stop-color="#FCB922"/>
</radialGradient>
<radialGradient id="paint48_radial" cx="0" cy="0" r="1" gradientUnits="userSpaceOnUse" gradientTransform="translate(217.233 62.7964) rotate(66) scale(5.5 16)">
<stop stop-color="#FCFF5B"/>
<stop offset="1" stop-color="#FCB922"/>
</radialGradient>
<radialGradient id="paint49_radial" cx="0" cy="0" r="1" gradientUnits="userSpaceOnUse" gradientTransform="translate(214.589 56.8584) rotate(66) scale(3 8)">
<stop stop-color="#FCFF5B"/>
<stop offset="1" stop-color="#FCB922"/>
</radialGradient>
<radialGradient id="paint50_radial" cx="0" cy="0" r="1" gradientUnits="userSpaceOnUse" gradientTransform="translate(276.089 48.7366) rotate(-102) scale(34.3744)">
<stop stop-color="#63B2BB"/>
<stop offset="1" stop-color="#476D78"/>
</radialGradient>
<radialGradient id="paint51_radial" cx="0" cy="0" r="1" gradientUnits="userSpaceOnUse" gradientTransform="translate(276.089 48.7366) rotate(-102) scale(34.3744)">
<stop stop-color="#01B2CC"/>
<stop offset="1" stop-color="#016684"/>
</radialGradient>
<radialGradient id="paint52_radial" cx="0" cy="0" r="1" gradientUnits="userSpaceOnUse" gradientTransform="translate(275.495 46.6792) rotate(78) scale(8.25 20)">
<stop stop-color="#FCFF5B"/>
<stop offset="1" stop-color="#FCB922"/>
</radialGradient>
<radialGradient id="paint53_radial" cx="0" cy="0" r="1" gradientUnits="userSpaceOnUse" gradientTransform="translate(335.99 42.3515) rotate(-90) scale(34.3744)">
<stop stop-color="#FF33C6"/>
<stop offset="1" stop-color="#EA0093"/>
</radialGradient>
<radialGradient id="paint54_radial" cx="0" cy="0" r="1" gradientUnits="userSpaceOnUse" gradientTransform="translate(395.909 48.5602) rotate(-78) scale(34.3744)">
<stop stop-color="#6068BC"/>
<stop offset="1" stop-color="#333F74"/>
</radialGradient>
<radialGradient id="paint55_radial" cx="0" cy="0" r="1" gradientUnits="userSpaceOnUse" gradientTransform="translate(395.909 48.5602) rotate(-78) scale(34.3744)">
<stop stop-color="#01B2CC"/>
<stop offset="1" stop-color="#016684"/>
</radialGradient>
<radialGradient id="paint56_radial" cx="0" cy="0" r="1" gradientUnits="userSpaceOnUse" gradientTransform="translate(396.817 48.3582) rotate(102) scale(7 17)">
<stop stop-color="#FCFF5B"/>
<stop offset="1" stop-color="#FCB922"/>
</radialGradient>
<radialGradient id="paint57_radial" cx="0" cy="0" r="1" gradientUnits="userSpaceOnUse" gradientTransform="translate(453.228 67.091) rotate(-66) scale(34.3744)">
<stop stop-color="#6068BC"/>
<stop offset="1" stop-color="#333F74"/>
</radialGradient>
<radialGradient id="paint58_radial" cx="0" cy="0" r="1" gradientUnits="userSpaceOnUse" gradientTransform="translate(453.228 67.091) rotate(-66) scale(34.3744)">
<stop stop-color="#0159D6"/>
<stop offset="1" stop-color="#003272"/>
</radialGradient>
<radialGradient id="paint59_radial" cx="0" cy="0" r="1" gradientUnits="userSpaceOnUse" gradientTransform="translate(457.969 58.9274) rotate(114) scale(10)">
<stop stop-color="#FCFF5B"/>
<stop offset="1" stop-color="#FCB922"/>
</radialGradient>
<radialGradient id="paint60_radial" cx="0" cy="0" r="1" gradientUnits="userSpaceOnUse" gradientTransform="translate(451.868 72.6306) rotate(114) scale(7 17)">
<stop stop-color="#FCFF5B"/>
<stop offset="1" stop-color="#FCB922"/>
</radialGradient>
<radialGradient id="paint61_radial" cx="0" cy="0" r="1" gradientUnits="userSpaceOnUse" gradientTransform="translate(505.442 97.1339) rotate(-54) scale(34.3744)">
<stop stop-color="#63B2BB"/>
<stop offset="1" stop-color="#476D78"/>
</radialGradient>
<radialGradient id="paint62_radial" cx="0" cy="0" r="1" gradientUnits="userSpaceOnUse" gradientTransform="translate(505.442 97.1339) rotate(-54) scale(34.3744)">
<stop stop-color="#01B2CC"/>
<stop offset="1" stop-color="#016684"/>
</radialGradient>
<radialGradient id="paint63_radial" cx="0" cy="0" r="1" gradientUnits="userSpaceOnUse" gradientTransform="translate(505.397 96.9332) rotate(126) scale(8.25 20)">
<stop stop-color="#FCFF5B"/>
<stop offset="1" stop-color="#FCB922"/>
</radialGradient>
<radialGradient id="paint64_radial" cx="0" cy="0" r="1" gradientUnits="userSpaceOnUse" gradientTransform="translate(550.268 137.376) rotate(-42) scale(34.3744)">
<stop stop-color="#6068BC"/>
<stop offset="1" stop-color="#333F74"/>
</radialGradient>
<radialGradient id="paint65_radial" cx="0" cy="0" r="1" gradientUnits="userSpaceOnUse" gradientTransform="translate(550.268 137.376) rotate(-42) scale(34.3744)">
<stop stop-color="#0159D6"/>
<stop offset="1" stop-color="#003272"/>
</radialGradient>
<radialGradient id="paint66_radial" cx="0" cy="0" r="1" gradientUnits="userSpaceOnUse" gradientTransform="translate(555.69 133.854) rotate(138) scale(10)">
<stop stop-color="#FCFF5B"/>
<stop offset="1" stop-color="#FCB922"/>
</radialGradient>
<radialGradient id="paint67_radial" cx="0" cy="0" r="1" gradientUnits="userSpaceOnUse" gradientTransform="translate(544.543 143.891) rotate(138) scale(7 17)">
<stop stop-color="#FCFF5B"/>
<stop offset="1" stop-color="#FCB922"/>
</radialGradient>
<radialGradient id="paint68_radial" cx="0" cy="0" r="1" gradientUnits="userSpaceOnUse" gradientTransform="translate(585.748 186.06) rotate(-30) scale(34.3744)">
<stop stop-color="#63B2BB"/>
<stop offset="1" stop-color="#476D78"/>
</radialGradient>
<radialGradient id="paint69_radial" cx="0" cy="0" r="1" gradientUnits="userSpaceOnUse" gradientTransform="translate(585.748 186.06) rotate(-30) scale(34.3744)">
<stop stop-color="#01B2CC"/>
<stop offset="1" stop-color="#016684"/>
</radialGradient>
<radialGradient id="paint70_radial" cx="0" cy="0" r="1" gradientUnits="userSpaceOnUse" gradientTransform="translate(586.505 186.599) rotate(150) scale(7 17)">
<stop stop-color="#FCFF5B"/>
<stop offset="1" stop-color="#FCB922"/>
</radialGradient>
<radialGradient id="paint71_radial" cx="0" cy="0" r="1" gradientUnits="userSpaceOnUse" gradientTransform="translate(610.331 241.055) rotate(-18) scale(34.3744)">
<stop stop-color="#63B2BB"/>
<stop offset="1" stop-color="#476D78"/>
</radialGradient>
<radialGradient id="paint72_radial" cx="0" cy="0" r="1" gradientUnits="userSpaceOnUse" gradientTransform="translate(610.331 241.055) rotate(-18) scale(34.3744)">
<stop stop-color="#B54ECA"/>
<stop offset="1" stop-color="#6D308A"/>
</radialGradient>
<radialGradient id="paint73_radial" cx="0" cy="0" r="1" gradientUnits="userSpaceOnUse" gradientTransform="translate(610.331 241.055) rotate(-18) scale(34.3744)">
<stop stop-color="#A301E2"/>
<stop offset="1" stop-color="#540197"/>
</radialGradient>
<radialGradient id="paint74_radial" cx="0" cy="0" r="1" gradientUnits="userSpaceOnUse" gradientTransform="translate(606.395 243.397) rotate(162) scale(8.25 20)">
<stop stop-color="#FCFF5B"/>
<stop offset="1" stop-color="#FCB922"/>
</radialGradient>
<radialGradient id="paint75_radial" cx="0" cy="0" r="1" gradientUnits="userSpaceOnUse" gradientTransform="translate(615.297 240.527) rotate(162) scale(5.5 16)">
<stop stop-color="#FCFF5B"/>
<stop offset="1" stop-color="#FCB922"/>
</radialGradient>
<radialGradient id="paint76_radial" cx="0" cy="0" r="1" gradientUnits="userSpaceOnUse" gradientTransform="translate(621.479 238.519) rotate(162) scale(3 8)">
<stop stop-color="#FCFF5B"/>
<stop offset="1" stop-color="#FCB922"/>
</radialGradient>
<radialGradient id="paint77_radial" cx="0" cy="0" r="1" gradientUnits="userSpaceOnUse" gradientTransform="translate(622.942 299.96) rotate(-6) scale(34.3744)">
<stop stop-color="#63B2BB"/>
<stop offset="1" stop-color="#476D78"/>
</radialGradient>
<radialGradient id="paint78_radial" cx="0" cy="0" r="1" gradientUnits="userSpaceOnUse" gradientTransform="translate(622.942 299.96) rotate(-6) scale(34.3744)">
<stop stop-color="#01B2CC"/>
<stop offset="1" stop-color="#016684"/>
</radialGradient>
<radialGradient id="paint79_radial" cx="0" cy="0" r="1" gradientUnits="userSpaceOnUse" gradientTransform="translate(625.051 299.584) rotate(174) scale(8.25 20)">
<stop stop-color="#FCFF5B"/>
<stop offset="1" stop-color="#FCB922"/>
</radialGradient>
<radialGradient id="paint80_radial" cx="0" cy="0" r="1" gradientUnits="userSpaceOnUse" gradientTransform="translate(623.031 360.2) rotate(6) scale(34.3744)">
<stop stop-color="#6068BC"/>
<stop offset="1" stop-color="#333F74"/>
</radialGradient>
<radialGradient id="paint81_radial" cx="0" cy="0" r="1" gradientUnits="userSpaceOnUse" gradientTransform="translate(623.031 360.2) rotate(6) scale(34.3744)">
<stop stop-color="#0159D6"/>
<stop offset="1" stop-color="#003272"/>
</radialGradient>
<radialGradient id="paint82_radial" cx="0" cy="0" r="1" gradientUnits="userSpaceOnUse" gradientTransform="translate(632.26 362.186) rotate(-174) scale(10)">
<stop stop-color="#FCFF5B"/>
<stop offset="1" stop-color="#FCB922"/>
</radialGradient>
<radialGradient id="paint83_radial" cx="0" cy="0" r="1" gradientUnits="userSpaceOnUse" gradientTransform="translate(617.342 360.618) rotate(-174) scale(7 17)">
<stop stop-color="#FCFF5B"/>
<stop offset="1" stop-color="#FCB922"/>
</radialGradient>
<radialGradient id="paint84_radial" cx="0" cy="0" r="1" gradientUnits="userSpaceOnUse" gradientTransform="translate(610.593 419.142) rotate(18) scale(34.3744)">
<stop stop-color="#B54ECA"/>
<stop offset="1" stop-color="#6D308A"/>
</radialGradient>
<radialGradient id="paint85_radial" cx="0" cy="0" r="1" gradientUnits="userSpaceOnUse" gradientTransform="translate(610.593 419.142) rotate(18) scale(34.3744)">
<stop stop-color="#A301E2"/>
<stop offset="1" stop-color="#540197"/>
</radialGradient>
<radialGradient id="paint86_radial" cx="0" cy="0" r="1" gradientUnits="userSpaceOnUse" gradientTransform="translate(606.033 418.723) rotate(-162) scale(8.25 20)">
<stop stop-color="#FCFF5B"/>
<stop offset="1" stop-color="#FCB922"/>
</radialGradient>
<radialGradient id="paint87_radial" cx="0" cy="0" r="1" gradientUnits="userSpaceOnUse" gradientTransform="translate(614.921 421.634) rotate(-162) scale(5.5 16)">
<stop stop-color="#FCFF5B"/>
<stop offset="1" stop-color="#FCB922"/>
</radialGradient>
<radialGradient id="paint88_radial" cx="0" cy="0" r="1" gradientUnits="userSpaceOnUse" gradientTransform="translate(621.103 423.642) rotate(-162) scale(3 8)">
<stop stop-color="#FCFF5B"/>
<stop offset="1" stop-color="#FCB922"/>
</radialGradient>
<radialGradient id="paint89_radial" cx="0" cy="0" r="1" gradientUnits="userSpaceOnUse" gradientTransform="translate(586.172 474.21) rotate(30) scale(34.3744)">
<stop stop-color="#63B2BB"/>
<stop offset="1" stop-color="#476D78"/>
</radialGradient>
<radialGradient id="paint90_radial" cx="0" cy="0" r="1" gradientUnits="userSpaceOnUse" gradientTransform="translate(586.172 474.21) rotate(30) scale(34.3744)">
<stop stop-color="#01B2CC"/>
<stop offset="1" stop-color="#016684"/>
</radialGradient>
<radialGradient id="paint91_radial" cx="0" cy="0" r="1" gradientUnits="userSpaceOnUse" gradientTransform="translate(588.099 475.145) rotate(-150) scale(8.25 20)">
<stop stop-color="#FCFF5B"/>
<stop offset="1" stop-color="#FCB922"/>
</radialGradient>
<radialGradient id="paint92_radial" cx="0" cy="0" r="1" gradientUnits="userSpaceOnUse" gradientTransform="translate(550.836 522.997) rotate(42) scale(34.3744)">
<stop stop-color="#6068BC"/>
<stop offset="1" stop-color="#333F74"/>
</radialGradient>
<radialGradient id="paint93_radial" cx="0" cy="0" r="1" gradientUnits="userSpaceOnUse" gradientTransform="translate(550.836 522.997) rotate(42) scale(34.3744)">
<stop stop-color="#0159D6"/>
<stop offset="1" stop-color="#003272"/>
</radialGradient>
<radialGradient id="paint94_radial" cx="0" cy="0" r="1" gradientUnits="userSpaceOnUse" gradientTransform="translate(555.649 528.69) rotate(-138) scale(10)">
<stop stop-color="#FCFF5B"/>
<stop offset="1" stop-color="#FCB922"/>
</radialGradient>
<radialGradient id="paint95_radial" cx="0" cy="0" r="1" gradientUnits="userSpaceOnUse" gradientTransform="translate(544.502 518.653) rotate(-138) scale(7 17)">
<stop stop-color="#FCFF5B"/>
<stop offset="1" stop-color="#FCB922"/>
</radialGradient>
<radialGradient id="paint96_radial" cx="0" cy="0" r="1" gradientUnits="userSpaceOnUse" gradientTransform="translate(506.129 563.371) rotate(54) scale(34.3744)">
<stop stop-color="#63B2BB"/>
<stop offset="1" stop-color="#476D78"/>
</radialGradient>
<radialGradient id="paint97_radial" cx="0" cy="0" r="1" gradientUnits="userSpaceOnUse" gradientTransform="translate(506.129 563.371) rotate(54) scale(34.3744)">
<stop stop-color="#01B2CC"/>
<stop offset="1" stop-color="#016684"/>
</radialGradient>
<radialGradient id="paint98_radial" cx="0" cy="0" r="1" gradientUnits="userSpaceOnUse" gradientTransform="translate(506.333 563.391) rotate(-126) scale(8.25 20)">
<stop stop-color="#FCFF5B"/>
<stop offset="1" stop-color="#FCB922"/>
</radialGradient>
<radialGradient id="paint99_radial" cx="0" cy="0" r="1" gradientUnits="userSpaceOnUse" gradientTransform="translate(454.003 593.568) rotate(66) scale(34.3744)">
<stop stop-color="#6068BC"/>
<stop offset="1" stop-color="#333F74"/>
</radialGradient>
<radialGradient id="paint100_radial" cx="0" cy="0" r="1" gradientUnits="userSpaceOnUse" gradientTransform="translate(454.003 593.568) rotate(66) scale(34.3744)">
<stop stop-color="#0159D6"/>
<stop offset="1" stop-color="#003272"/>
</radialGradient>
<radialGradient id="paint101_radial" cx="0" cy="0" r="1" gradientUnits="userSpaceOnUse" gradientTransform="translate(456.085 600.727) rotate(-114) scale(10)">
<stop stop-color="#FCFF5B"/>
<stop offset="1" stop-color="#FCB922"/>
</radialGradient>
<radialGradient id="paint102_radial" cx="0" cy="0" r="1" gradientUnits="userSpaceOnUse" gradientTransform="translate(449.983 587.023) rotate(-114) scale(7 17)">
<stop stop-color="#FCFF5B"/>
<stop offset="1" stop-color="#FCB922"/>
</radialGradient>
<radialGradient id="paint103_radial" cx="0" cy="0" r="1" gradientUnits="userSpaceOnUse" gradientTransform="translate(396.74 612.268) rotate(78) scale(34.3744)">
<stop stop-color="#F4AD35"/>
<stop offset="1" stop-color="#CB550D"/>
</radialGradient>
<radialGradient id="paint104_radial" cx="0" cy="0" r="1" gradientUnits="userSpaceOnUse" gradientTransform="translate(396.74 612.268) rotate(78) scale(34.3744)">
<stop stop-color="#63B2BB"/>
<stop offset="1" stop-color="#476D78"/>
</radialGradient>
<radialGradient id="paint105_radial" cx="0" cy="0" r="1" gradientUnits="userSpaceOnUse" gradientTransform="translate(396.74 612.268) rotate(78) scale(34.3744)">
<stop stop-color="#01B2CC"/>
<stop offset="1" stop-color="#016684"/>
</radialGradient>
<radialGradient id="paint106_radial" cx="0" cy="0" r="1" gradientUnits="userSpaceOnUse" gradientTransform="translate(395.779 612.611) rotate(-102) scale(8.25 20)">
<stop stop-color="#FCFF5B"/>
<stop offset="1" stop-color="#FCB922"/>
</radialGradient>
<radialGradient id="paint107_radial" cx="0" cy="0" r="1" gradientUnits="userSpaceOnUse" gradientTransform="translate(336.839 618.652) rotate(90) scale(34.3744)">
<stop stop-color="#FFA830"/>
<stop offset="1" stop-color="#D25201"/>
</radialGradient>
<radialGradient id="paint108_radial" cx="0" cy="0" r="1" gradientUnits="userSpaceOnUse" gradientTransform="translate(336.328 627.704) rotate(-90) scale(12.3)">
<stop stop-color="#FCFF5B"/>
<stop offset="1" stop-color="#FCB922"/>
</radialGradient>
<radialGradient id="paint109_radial" cx="0" cy="0" r="1" gradientUnits="userSpaceOnUse" gradientTransform="translate(349.084 611.304) rotate(-90) scale(7.74444)">
<stop stop-color="#FCFF5B"/>
<stop offset="1" stop-color="#FCB922"/>
</radialGradient>
<radialGradient id="paint110_radial" cx="0" cy="0" r="1" gradientUnits="userSpaceOnUse" gradientTransform="translate(336.328 605.837) rotate(-90) scale(7.74444)">
<stop stop-color="#FCFF5B"/>
<stop offset="1" stop-color="#FCB922"/>
</radialGradient>
<radialGradient id="paint111_radial" cx="0" cy="0" r="1" gradientUnits="userSpaceOnUse" gradientTransform="translate(323.573 611.304) rotate(-90) scale(7.74444)">
<stop stop-color="#FCFF5B"/>
<stop offset="1" stop-color="#FCB922"/>
</radialGradient>
</defs>
</svg>
