<svg width="679" height="679" viewBox="0 0 679 679" fill="none" xmlns="http://www.w3.org/2000/svg">
<path d="M259.277 595.115C261.904 588.2 269.181 584.233 276.417 585.771L294.585 589.633C301.512 591.105 306.465 597.221 306.467 604.302L306.475 643.551C306.477 653.048 297.765 660.156 288.462 658.248L256.401 651.673C247.347 649.816 242.11 640.29 245.393 631.65L259.277 595.115Z" fill="#C4C4C4"/>
<path d="M259.277 595.115C261.904 588.2 269.181 584.233 276.417 585.771L294.585 589.633C301.512 591.105 306.465 597.221 306.467 604.302L306.475 643.551C306.477 653.048 297.765 660.156 288.462 658.248L256.401 651.673C247.347 649.816 242.11 640.29 245.393 631.65L259.277 595.115Z" fill="url(#paint0_radial)"/>
<path d="M275.137 635.424C275.238 636.387 276.513 636.658 276.997 635.819L278.728 632.821C278.945 632.446 279.378 632.253 279.802 632.343L283.187 633.063C284.135 633.264 284.787 632.136 284.138 631.416L281.822 628.844C281.533 628.522 281.483 628.05 281.7 627.674L283.43 624.677C283.915 623.838 283.042 622.869 282.157 623.263L278.995 624.671C278.6 624.847 278.135 624.749 277.846 624.427L275.53 621.855C274.881 621.135 273.691 621.665 273.792 622.628L274.154 626.07C274.199 626.501 273.962 626.912 273.566 627.089L270.404 628.496C269.519 628.89 269.655 630.187 270.603 630.388L273.988 631.108C274.412 631.198 274.73 631.55 274.775 631.981L275.137 635.424Z" fill="url(#paint1_radial)"/>
<path d="M280.612 614.238L262.573 617.343L282.112 607.184L295.83 624.412L280.612 614.238Z" fill="url(#paint2_radial)"/>
<path d="M207.926 572.877C211.934 566.659 219.877 564.292 226.635 567.3L243.603 574.855C250.072 577.735 253.646 584.747 252.175 591.674L244.023 630.067C242.051 639.357 232.051 644.499 223.347 640.698L193.355 627.6C184.884 623.901 181.742 613.495 186.75 605.727L207.926 572.877Z" fill="#C4C4C4"/>
<path d="M207.926 572.877C211.934 566.659 219.877 564.292 226.635 567.3L243.603 574.855C250.072 577.735 253.646 584.747 252.175 591.674L244.023 630.067C242.051 639.357 232.051 644.499 223.347 640.698L193.355 627.6C184.884 623.901 181.742 613.495 186.75 605.727L207.926 572.877Z" fill="url(#paint3_radial)"/>
<path d="M222.566 603.539L201.041 602.712L226.023 595.774L237.583 618.982L222.566 603.539Z" fill="url(#paint4_radial)"/>
<path d="M162.322 540.448C167.535 535.199 175.796 534.535 181.781 538.883L196.807 549.801C202.536 553.963 204.574 561.564 201.695 568.034L185.739 603.893C181.878 612.57 171.028 615.52 163.305 609.993L136.691 590.946C129.174 585.566 128.265 574.735 134.778 568.177L162.322 540.448Z" fill="#C4C4C4"/>
<path d="M162.322 540.448C167.535 535.199 175.796 534.535 181.781 538.883L196.807 549.801C202.536 553.963 204.574 561.564 201.695 568.034L185.739 603.893C181.878 612.57 171.028 615.52 163.305 609.993L136.691 590.946C129.174 585.566 128.265 574.735 134.778 568.177L162.322 540.448Z" fill="url(#paint5_radial)"/>
<path d="M161.669 585.868C160.885 586.437 159.831 585.671 160.13 584.75L161.199 581.458C161.333 581.046 161.187 580.595 160.836 580.34L158.036 578.306C157.252 577.736 157.655 576.497 158.624 576.497L162.085 576.497C162.518 576.497 162.902 576.218 163.036 575.806L164.106 572.514C164.405 571.593 165.708 571.593 166.008 572.514L167.077 575.806C167.211 576.218 167.595 576.497 168.028 576.497L171.49 576.497C172.458 576.497 172.861 577.736 172.077 578.306L169.277 580.34C168.927 580.595 168.78 581.046 168.914 581.458L169.984 584.75C170.283 585.671 169.228 586.437 168.445 585.868L165.645 583.834C165.294 583.579 164.819 583.579 164.469 583.834L161.669 585.868Z" fill="url(#paint6_radial)"/>
<path d="M173.749 567.623L183.512 583.107L177.988 561.788L156.006 563.122L173.749 567.623Z" fill="url(#paint7_radial)"/>
<path d="M124.456 499.245C130.646 495.195 138.865 496.263 143.815 501.761L156.243 515.564C160.982 520.826 161.394 528.685 157.233 534.415L134.171 566.173C128.59 573.858 117.363 574.487 110.958 567.475L88.8859 543.311C82.6522 536.486 84.0143 525.702 91.7492 520.642L124.456 499.245Z" fill="#C4C4C4"/>
<path d="M124.456 499.245C130.646 495.195 138.865 496.263 143.815 501.761L156.243 515.564C160.982 520.826 161.394 528.685 157.233 534.415L134.171 566.173C128.59 573.858 117.363 574.487 110.958 567.475L88.8859 543.311C82.6522 536.486 84.0143 525.702 91.7492 520.642L124.456 499.245Z" fill="url(#paint8_radial)"/>
<path d="M124.456 499.245C130.646 495.195 138.865 496.263 143.815 501.761L156.243 515.564C160.982 520.826 161.394 528.685 157.233 534.415L134.171 566.173C128.59 573.858 117.363 574.487 110.958 567.475L88.8859 543.311C82.6522 536.486 84.0143 525.702 91.7492 520.642L124.456 499.245Z" fill="url(#paint9_radial)"/>
<path d="M123.282 533.511L130.719 553.727L129.599 527.823L103.954 524.001L123.282 533.511Z" fill="url(#paint10_radial)"/>
<path d="M132.019 525.644L134.953 540.495L138.145 520.128L117.556 521.174L132.019 525.644Z" fill="url(#paint11_radial)"/>
<path d="M111.974 544.973C111.089 545.367 110.217 544.398 110.701 543.559L111.705 541.82C111.922 541.445 111.872 540.973 111.582 540.651L110.238 539.159C109.59 538.439 110.242 537.31 111.189 537.511L113.154 537.929C113.577 538.019 114.011 537.826 114.228 537.451L115.232 535.712C115.716 534.873 116.991 535.144 117.092 536.107L117.302 538.104C117.347 538.535 117.665 538.888 118.089 538.978L120.053 539.395C121.001 539.597 121.137 540.893 120.252 541.287L118.417 542.104C118.022 542.28 117.784 542.691 117.83 543.122L118.039 545.119C118.141 546.082 116.95 546.612 116.302 545.893L114.958 544.4C114.668 544.078 114.204 543.98 113.808 544.156L111.974 544.973Z" fill="url(#paint12_radial)"/>
<path d="M95.9838 451.07C102.881 448.396 110.698 451.149 114.397 457.556L123.684 473.642C127.225 479.774 125.994 487.547 120.733 492.287L91.5712 518.556C84.5149 524.912 73.4024 523.194 68.5953 515.003L52.0294 486.778C47.3509 478.806 50.9253 468.541 59.5432 465.2L95.9838 451.07Z" fill="#C4C4C4"/>
<path d="M95.9838 451.07C102.881 448.396 110.698 451.149 114.397 457.556L123.684 473.642C127.225 479.774 125.994 487.547 120.733 492.287L91.5712 518.556C84.5149 524.912 73.4024 523.194 68.5953 515.003L52.0294 486.778C47.3509 478.806 50.9253 468.541 59.5432 465.2L95.9838 451.07Z" fill="url(#paint13_radial)"/>
<path d="M93.2387 481.154L96.3105 502.475L100.6 476.904L76.3105 467.834L93.2387 481.154Z" fill="url(#paint14_radial)"/>
<path d="M85.2001 485.77L88.5813 502.293L90.1076 482.937L72.5813 474.58L85.2001 485.77Z" fill="url(#paint15_radial)"/>
<path d="M79.6365 488.982L81.1172 497.365L82.3133 487.437L73.1172 483.508L79.6365 488.982Z" fill="url(#paint16_radial)"/>
<path d="M78.1506 398.029C85.4531 396.847 92.5269 401.166 94.8129 408.201L100.553 425.866C102.741 432.601 99.9213 439.948 93.7896 443.49L59.8034 463.122C51.5798 467.872 41.0674 463.882 38.0682 454.87L27.7327 423.818C24.8137 415.048 30.4443 405.75 39.5686 404.273L78.1506 398.029Z" fill="#C4C4C4"/>
<path d="M78.1506 398.029C85.4531 396.847 92.5269 401.166 94.8129 408.201L100.553 425.866C102.741 432.601 99.9213 439.948 93.7896 443.49L59.8034 463.122C51.5798 467.872 41.0674 463.882 38.0682 454.87L27.7327 423.818C24.8137 415.048 30.4443 405.75 39.5686 404.273L78.1506 398.029Z" fill="url(#paint17_radial)"/>
<path d="M51.7094 433.571C50.7407 433.571 50.3379 432.331 51.1217 431.762L53.9218 429.727C54.2723 429.473 54.419 429.021 54.2851 428.609L53.2155 425.318C52.9162 424.396 53.9707 423.63 54.7544 424.2L57.5545 426.234C57.905 426.489 58.3796 426.489 58.7301 426.234L61.5303 424.2C62.314 423.63 63.3685 424.396 63.0691 425.318L61.9995 428.609C61.8657 429.021 62.0123 429.473 62.3628 429.727L65.163 431.762C65.9467 432.331 65.5439 433.571 64.5752 433.571L61.114 433.571C60.6808 433.571 60.2968 433.85 60.1629 434.262L59.0934 437.554C58.794 438.475 57.4906 438.475 57.1913 437.554L56.1217 434.262C55.9878 433.85 55.6039 433.571 55.1706 433.571L51.7094 433.571Z" fill="url(#paint18_radial)"/>
<path d="M72.2065 425.911L71.0042 444.177L79.0657 423.682L60.4976 411.841L72.2065 425.911Z" fill="url(#paint19_radial)"/>
<path d="M71.7347 342.439C79.1234 342.801 85.1448 348.496 85.918 355.853L87.8595 374.325C88.5997 381.367 84.3142 387.968 77.5801 390.158L40.2548 402.295C31.2232 405.231 21.7703 399.142 20.7102 389.704L17.0568 357.181C16.025 347.996 23.4657 340.072 32.6976 340.525L71.7347 342.439Z" fill="#C4C4C4"/>
<path d="M71.7347 342.439C79.1234 342.801 85.1448 348.496 85.918 355.853L87.8595 374.325C88.5997 381.367 84.3142 387.968 77.5801 390.158L40.2548 402.295C31.2232 405.231 21.7703 399.142 20.7102 389.704L17.0568 357.181C16.025 347.996 23.4657 340.072 32.6976 340.525L71.7347 342.439Z" fill="url(#paint20_radial)"/>
<path d="M51.401 369.558L41.3542 350.503L59.8544 368.669L45.5354 390.284L51.401 369.558Z" fill="url(#paint21_radial)"/>
<path d="M77.0169 286.729C84.1688 288.62 88.8745 295.442 88.1013 302.799L86.1598 321.272C85.4196 328.314 79.8553 333.879 72.8132 334.621L33.7801 338.732C24.3353 339.727 16.355 331.805 17.2803 322.354L20.4687 289.782C21.3691 280.583 30.2947 274.379 39.2307 276.741L77.0169 286.729Z" fill="#C4C4C4"/>
<path d="M77.0169 286.729C84.1688 288.62 88.8745 295.442 88.1013 302.799L86.1598 321.272C85.4196 328.314 79.8553 333.879 72.8132 334.621L33.7801 338.732C24.3353 339.727 16.355 331.805 17.2803 322.354L20.4687 289.782C21.3691 280.583 30.2947 274.379 39.2307 276.741L77.0169 286.729Z" fill="url(#paint22_radial)"/>
<path d="M49.5445 309.527L39.4978 328.582L57.998 310.416L43.6789 288.801L49.5445 309.527Z" fill="url(#paint23_radial)"/>
<path d="M61.2378 310.756L52.1638 322.874L69.435 311.618L54.8816 297.017L61.2378 310.756Z" fill="url(#paint24_radial)"/>
<path d="M31.4712 308.584C30.5863 308.19 30.7225 306.894 31.6701 306.692L32.213 306.577C32.6367 306.487 32.9543 306.134 32.9996 305.703L33.0576 305.151C33.1589 304.188 34.4338 303.917 34.9181 304.756L35.1957 305.237C35.4123 305.612 35.8458 305.805 36.2696 305.715L36.8125 305.599C37.76 305.398 38.4118 306.527 37.7636 307.247L37.3922 307.659C37.1023 307.981 37.0527 308.453 37.2693 308.828L37.5468 309.309C38.0312 310.148 37.159 311.116 36.274 310.722L35.767 310.497C35.3712 310.32 34.907 310.419 34.6171 310.741L34.2457 311.153C33.5975 311.873 32.4068 311.343 32.5081 310.38L32.5661 309.828C32.6114 309.397 32.3741 308.986 31.9783 308.81L31.4712 308.584Z" fill="url(#paint25_radial)"/>
<path d="M39.4447 312.213C38.7686 311.912 38.8727 310.922 39.5965 310.768C39.9203 310.699 40.1629 310.429 40.1975 310.1C40.2748 309.364 41.2488 309.157 41.6188 309.798C41.7843 310.085 42.1155 310.232 42.4392 310.163C43.1631 310.01 43.6609 310.872 43.1657 311.422C42.9443 311.668 42.9064 312.028 43.0719 312.315C43.4419 312.956 42.7756 313.696 42.0996 313.395C41.7972 313.26 41.4426 313.336 41.2211 313.582C40.726 314.132 39.8163 313.727 39.8937 312.991C39.9283 312.661 39.747 312.347 39.4447 312.213Z" fill="url(#paint26_radial)"/>
<path d="M40.0718 306.246C39.3958 305.945 39.4999 304.954 40.2237 304.801C40.5475 304.732 40.7901 304.462 40.8247 304.133C40.902 303.397 41.876 303.19 42.246 303.831C42.4115 304.118 42.7427 304.265 43.0664 304.196C43.7903 304.043 44.2881 304.905 43.7929 305.455C43.5715 305.701 43.5336 306.061 43.6991 306.348C44.0691 306.989 43.4028 307.729 42.7268 307.428C42.4244 307.293 42.0698 307.369 41.8483 307.614C41.3532 308.164 40.4435 307.759 40.5209 307.023C40.5555 306.694 40.3742 306.38 40.0718 306.246Z" fill="url(#paint27_radial)"/>
<path d="M93.7661 233.335C100.369 236.672 103.553 244.323 101.267 251.359L95.5275 269.024C93.3393 275.758 86.7395 280.045 79.697 279.307L40.6622 275.213C31.2169 274.222 25.058 264.814 27.9282 255.761L37.819 224.564C40.6124 215.753 50.6327 211.541 58.8823 215.709L93.7661 233.335Z" fill="#C4C4C4"/>
<path d="M93.7661 233.335C100.369 236.672 103.553 244.323 101.267 251.359L95.5275 269.024C93.3393 275.758 86.7395 280.045 79.697 279.307L40.6622 275.213C31.2169 274.222 25.058 264.814 27.9282 255.761L37.819 224.564C40.6124 215.753 50.6327 211.541 58.8823 215.709L93.7661 233.335Z" fill="url(#paint28_radial)"/>
<path d="M63.2091 249.53L61.781 228.037L71.2931 252.157L49.4203 266.079L63.2091 249.53Z" fill="url(#paint29_radial)"/>
<path d="M121.251 184.591C127.016 189.227 128.54 197.373 124.841 203.78L115.554 219.865C112.013 225.998 104.666 228.819 97.9313 226.632L60.6007 214.512C51.5678 211.579 47.4995 201.096 52.1892 192.838L68.3501 164.379C72.9143 156.341 83.5915 154.304 90.7942 160.097L121.251 184.591Z" fill="#C4C4C4"/>
<path d="M121.251 184.591C127.016 189.227 128.54 197.373 124.841 203.78L115.554 219.865C112.013 225.998 104.666 228.819 97.9313 226.632L60.6007 214.512C51.5678 211.579 47.4995 201.096 52.1892 192.838L68.3501 164.379C72.9143 156.341 83.5915 154.304 90.7942 160.097L121.251 184.591Z" fill="url(#paint30_radial)"/>
<path d="M87.6697 194.683L70.7415 208.003L95.0309 198.933L90.7415 173.362L87.6697 194.683Z" fill="url(#paint31_radial)"/>
<path d="M97.852 200.562L84.6338 207.941L104.99 204.683L97.6338 185.425L97.852 200.562Z" fill="url(#paint32_radial)"/>
<path d="M73.2747 187.47C72.6265 186.75 73.2782 185.621 74.2258 185.823L76.19 186.24C76.6138 186.33 77.0473 186.137 77.2639 185.762L78.268 184.023C78.7523 183.184 80.0273 183.455 80.1285 184.418L80.3384 186.416C80.3837 186.846 80.7013 187.199 81.125 187.289L83.0893 187.707C84.0368 187.908 84.1731 189.204 83.2881 189.598L81.4536 190.415C81.0578 190.591 80.8205 191.002 80.8658 191.433L81.0757 193.43C81.177 194.394 79.9863 194.924 79.3381 194.204L77.9944 192.712C77.7045 192.39 77.2403 192.291 76.8445 192.467L75.01 193.284C74.125 193.678 73.2529 192.709 73.7372 191.871L74.7413 190.131C74.9579 189.756 74.9083 189.284 74.6184 188.962L73.2747 187.47Z" fill="url(#paint33_radial)"/>
<path d="M158.269 142.625C162.944 148.359 162.741 156.644 157.791 162.141L145.363 175.945C140.625 181.207 132.852 182.439 126.718 178.9L92.7236 159.283C84.4978 154.536 82.6979 143.436 89.0021 136.334L110.727 111.856C116.862 104.944 127.73 105.171 133.571 112.334L158.269 142.625Z" fill="#C4C4C4"/>
<path d="M158.269 142.625C162.944 148.359 162.741 156.644 157.791 162.141L145.363 175.945C140.625 181.207 132.852 182.439 126.718 178.9L92.7236 159.283C84.4978 154.536 82.6979 143.436 89.0021 136.334L110.727 111.856C116.862 104.944 127.73 105.171 133.571 112.334L158.269 142.625Z" fill="url(#paint34_radial)"/>
<path d="M128.778 149.294L109.45 158.804L135.095 154.982L136.215 129.078L128.778 149.294Z" fill="url(#paint35_radial)"/>
<path d="M121.904 143.075L107.235 151.397L126.115 146.867L128.647 127.616L121.904 143.075Z" fill="url(#paint36_radial)"/>
<path d="M117.13 138.777L109.615 142.775L119.427 140.845L120.321 130.885L117.13 138.777Z" fill="url(#paint37_radial)"/>
<path d="M203.204 109.274C206.585 115.854 204.663 123.916 198.679 128.264L183.652 139.182C177.923 143.344 170.064 142.933 164.801 138.196L135.627 111.94C128.568 105.586 129.115 94.3552 136.758 88.7182L163.098 69.2927C170.536 63.8066 181.119 66.2885 185.343 74.5098L203.204 109.274Z" fill="#C4C4C4"/>
<path d="M203.204 109.274C206.585 115.854 204.663 123.916 198.679 128.264L183.652 139.182C177.923 143.344 170.064 142.933 164.801 138.196L135.627 111.94C128.568 105.586 129.115 94.3552 136.758 88.7182L163.098 69.2927C170.536 63.8066 181.119 66.2885 185.343 74.5098L203.204 109.274Z" fill="url(#paint38_radial)"/>
<path d="M170.139 106.033L181.617 87.8052L175.135 112.91L149.256 111.317L170.139 106.033Z" fill="url(#paint39_radial)"/>
<path d="M254.091 85.9938C256.03 93.1328 252.474 100.619 245.716 103.628L228.748 111.183C222.279 114.063 214.677 112.027 210.514 106.299L187.437 74.5512C181.853 66.8691 184.723 55.9972 193.371 52.0725L223.174 38.5477C231.59 34.7281 241.426 39.3559 243.848 48.2759L254.091 85.9938Z" fill="url(#paint40_radial)"/>
<path d="M223.897 80.331L202.372 81.1574L227.354 88.0961L238.914 64.8879L223.897 80.331Z" fill="url(#paint41_radial)"/>
<path d="M220.147 71.8541L203.361 73.4896L222.451 77.0308L232.594 60.474L220.147 71.8541Z" fill="url(#paint42_radial)"/>
<path d="M217.534 65.9852L209.042 66.5815L218.791 68.8089L223.659 60.0738L217.534 65.9852Z" fill="url(#paint43_radial)"/>
<path d="M308.706 73.8023C309.118 81.1884 304.084 87.7721 296.848 89.3101L278.68 93.1719C271.753 94.6441 264.741 91.072 261.859 84.6037L245.887 48.7516C242.023 40.0764 247.091 30.0388 256.366 27.9979L288.329 20.965C297.356 18.9788 306.014 25.5504 306.529 34.779L308.706 73.8023Z" fill="#C4C4C4"/>
<path d="M308.706 73.8023C309.118 81.1884 304.084 87.7721 296.848 89.3101L278.68 93.1719C271.753 94.6441 264.741 91.072 261.859 84.6037L245.887 48.7516C242.023 40.0764 247.091 30.0388 256.366 27.9979L288.329 20.965C297.356 18.9788 306.014 25.5504 306.529 34.779L308.706 73.8023Z" fill="url(#paint44_radial)"/>
<path d="M308.706 73.8023C309.118 81.1884 304.084 87.7721 296.848 89.3101L278.68 93.1719C271.753 94.6441 264.741 91.072 261.859 84.6037L245.887 48.7516C242.023 40.0764 247.091 30.0388 256.366 27.9979L288.329 20.965C297.356 18.9788 306.014 25.5504 306.529 34.779L308.706 73.8023Z" fill="url(#paint45_radial)"/>
<path d="M279.591 55.2441L258.365 51.5772L281.358 63.5584L297.49 43.2607L279.591 55.2441Z" fill="url(#paint46_radial)"/>
<path d="M282.035 66.7448L267.706 61.8596L283.749 74.8071L293.138 56.4539L282.035 66.7448Z" fill="url(#paint47_radial)"/>
<path d="M275.319 39.7202C275.42 38.7567 276.695 38.4858 277.179 39.3247L278.183 41.0638C278.4 41.439 278.833 41.632 279.257 41.5419L281.221 41.1244C282.169 40.923 282.821 42.0518 282.172 42.7717L280.829 44.264C280.539 44.586 280.489 45.0579 280.706 45.4331L281.71 47.1722C282.194 48.0111 281.322 48.9798 280.437 48.5858L278.603 47.769C278.207 47.5928 277.743 47.6914 277.453 48.0134L276.109 49.5057C275.461 50.2256 274.27 49.6955 274.371 48.7321L274.581 46.7349C274.627 46.3041 274.389 45.8931 273.994 45.7169L272.159 44.9001C271.274 44.5061 271.41 43.2098 272.358 43.0084L274.322 42.5909C274.746 42.5008 275.063 42.1481 275.109 41.7173L275.319 39.7202Z" fill="url(#paint48_radial)"/>
<path d="M364.663 73.2324C363.53 80.5427 357.237 85.9359 349.839 85.9359L331.265 85.9359C324.184 85.9359 318.068 80.9838 316.594 74.0578L308.425 35.6683C306.448 26.3792 313.493 17.6146 322.989 17.5468L355.716 17.313C364.959 17.247 372.062 25.4752 370.647 34.6092L364.663 73.2324Z" fill="#C4C4C4"/>
<path d="M364.663 73.2324C363.53 80.5427 357.237 85.9359 349.839 85.9359L331.265 85.9359C324.184 85.9359 318.068 80.9838 316.594 74.0578L308.425 35.6683C306.448 26.3792 313.493 17.6146 322.989 17.5468L355.716 17.313C364.959 17.247 372.062 25.4752 370.647 34.6092L364.663 73.2324Z" fill="url(#paint49_radial)"/>
<path d="M350.438 56.6761C349.687 51.4261 345.288 47.4261 339.988 47.4261C334.688 47.4261 330.288 51.4261 329.538 56.6261L350.438 56.6261L350.438 56.6761Z" fill="#C14A42"/>
<path d="M354.887 46.6761C354.687 45.7761 354.137 45.0761 353.337 44.6261C352.987 44.4261 352.587 44.3261 352.187 44.2761C351.837 44.2261 351.487 44.2761 351.137 44.3761C350.537 44.5261 349.937 44.8261 349.387 45.0761C348.637 45.4261 347.937 45.7761 347.287 45.7761L347.287 48.0761C348.437 48.0761 349.487 47.5761 350.387 47.1261C351.337 46.6761 351.937 46.3761 352.287 46.5761C352.537 46.7261 352.687 46.9261 352.737 47.1761C352.787 47.4761 352.787 47.8761 352.687 48.3261C352.587 48.8261 352.337 49.3761 352.037 50.0261C351.437 51.2761 350.637 52.4761 350.037 53.3761C349.837 53.7261 349.637 54.0261 349.487 54.2261L349.337 54.5261C349.337 54.5761 349.287 54.5761 349.287 54.6261L330.787 54.6261C330.787 54.5761 330.737 54.5761 330.737 54.5261L330.587 54.2261C330.437 53.9761 330.237 53.6761 330.037 53.3761C329.437 52.4761 328.637 51.2761 328.037 50.0261C327.737 49.3761 327.537 48.8261 327.387 48.3261C327.287 47.8261 327.237 47.4261 327.337 47.1761C327.387 46.9261 327.537 46.7261 327.787 46.5761C328.137 46.3761 328.737 46.6261 329.687 47.1261C330.587 47.5761 331.587 48.0761 332.787 48.0761L332.787 45.7761C332.137 45.7761 331.437 45.4261 330.687 45.0761C330.137 44.7761 329.537 44.5261 328.937 44.3761C328.487 44.2761 328.137 44.2261 327.787 44.2761C327.387 44.3261 326.987 44.4261 326.637 44.6261C325.837 45.0761 325.287 45.8261 325.087 46.6761C324.837 47.8261 325.087 49.2761 325.987 51.0761C326.637 52.4261 327.487 53.7261 328.137 54.6761C328.337 54.9761 328.537 55.2761 328.637 55.4761C328.687 55.5761 328.737 55.6761 328.837 55.7761C329.137 56.2261 329.337 56.5761 329.437 56.9761L329.437 62.6261C329.287 62.6261 329.187 62.726 329.187 62.926C329.187 63.0762 329.287 63.2261 329.437 63.2261L350.587 63.2261C350.737 63.2261 350.837 63.126 350.837 62.926C350.837 62.7761 350.737 62.6261 350.587 62.6261L350.587 57.0261C350.737 56.6261 350.937 56.2761 351.187 55.8261C351.237 55.7261 351.287 55.6261 351.387 55.5261C351.487 55.3261 351.687 55.0261 351.887 54.7261C352.487 53.7761 353.337 52.4761 354.037 51.1261C354.887 49.3261 355.137 47.8761 354.887 46.6761Z" fill="#F2B200"/>
<path d="M340.437 48.8261C340.687 49.6261 339.437 50.8261 337.637 51.4261C335.837 52.0761 334.137 51.9261 333.837 51.1261C333.587 50.3261 334.837 49.1261 336.637 48.5261C338.437 47.9261 340.137 48.0261 340.437 48.8261Z" fill="#E8766F"/>
<path d="M338.788 57.5262L341.188 57.5262L341.188 62.9263L338.788 62.9263L338.788 57.5262Z" fill="#FFDD7D"/>
<path d="M342.888 57.5262L345.288 57.5262L345.288 62.9263L342.888 62.9263L342.888 57.5262Z" fill="#FFCE31"/>
<path d="M341.188 57.5262L342.888 57.5262L342.888 62.9263L341.187 62.9263L341.188 57.5262Z" fill="white"/>
<path d="M346.988 57.5262L348.688 57.5262L348.688 62.9263L346.988 62.9263L346.988 57.5262Z" fill="#FFCE31"/>
<path d="M329.388 57.5262L331.088 57.5262L331.088 62.9263L329.388 62.9263L329.388 57.5262Z" fill="#F2B200"/>
<path d="M331.288 57.5262L334.588 57.5262L334.588 62.9263L331.288 62.9263L331.288 57.5262Z" fill="#FFCE31"/>
<path d="M338.188 52.6762C338.188 53.4262 336.838 55.3262 336.838 55.3262C336.838 55.3262 335.488 53.4262 335.488 52.6762C335.488 51.9262 336.088 51.3262 336.838 51.3262C337.588 51.3262 338.188 51.9262 338.188 52.6762Z" fill="#F2B200"/>
<path d="M344.438 52.6762C344.438 53.4262 343.088 55.3262 343.088 55.3262C343.088 55.3262 341.738 53.4262 341.738 52.6762C341.738 51.9262 342.338 51.3262 343.088 51.3262C343.838 51.3262 344.438 51.9262 344.438 52.6762Z" fill="#F2B200"/>
<path d="M343.137 41.5261L336.837 41.5261L338.337 39.1761L341.537 39.1761L343.137 41.5261Z" fill="#66CAF2"/>
<path d="M330.038 51.6262C331.238 50.4762 333.638 49.8762 335.238 50.3262C333.988 51.4762 331.638 52.0762 330.038 51.6262Z" fill="#FFCE31"/>
<path d="M350.037 51.6262C348.437 52.0762 346.037 51.4762 344.837 50.3262C346.437 49.8762 348.837 50.4762 350.037 51.6262Z" fill="#FFCE31"/>
<path d="M337.288 50.2762C338.738 49.4262 341.188 49.4262 342.638 50.2762C341.188 51.1262 338.788 51.1262 337.288 50.2762Z" fill="#FFCE31"/>
<path d="M340.488 39.1761L341.038 41.5261L343.138 41.5261L341.538 39.1761L340.488 39.1761Z" fill="#C14A42"/>
<path d="M340.487 39.1761L339.387 39.1761L338.937 41.5261L341.037 41.5261L340.487 39.1761Z" fill="#E8766F"/>
<path d="M339.387 39.1761L338.937 41.5261L336.837 41.5261L338.337 39.1761L339.387 39.1761Z" fill="#DEF266"/>
<path d="M329.738 56.0762C333.138 55.8262 336.588 55.7762 339.988 55.7762C343.388 55.7762 346.838 55.8262 350.238 56.0762C346.838 56.3262 343.388 56.3762 339.988 56.3762C336.588 56.3262 333.138 56.3262 329.738 56.0762Z" fill="#FFDD7D"/>
<path d="M329.388 57.5262L350.538 57.5262L350.538 58.0761L329.388 58.0761L329.388 57.5262Z" fill="#C14A42"/>
<path d="M329.388 58.0761C329.526 58.0761 329.638 57.9418 329.638 57.7761C329.638 57.6105 329.526 57.4761 329.388 57.4761C329.25 57.4761 329.138 57.6105 329.138 57.7761C329.138 57.9418 329.25 58.0761 329.388 58.0761Z" fill="#C14A42"/>
<path d="M350.587 58.0761C350.726 58.0761 350.838 57.9418 350.838 57.7761C350.838 57.6105 350.726 57.4761 350.587 57.4761C350.449 57.4761 350.337 57.6105 350.337 57.7761C350.337 57.9418 350.449 58.0761 350.587 58.0761Z" fill="#C14A42"/>
<path d="M349.338 45.4261C349.188 44.8761 348.988 44.3761 348.638 43.9261C348.288 43.4761 347.888 43.0761 347.338 42.7761C346.938 42.5761 346.538 42.4261 346.088 42.3761C345.738 42.3261 345.338 42.3761 344.938 42.4761C344.288 42.6261 343.638 42.9761 342.988 43.2761C342.838 43.3761 342.638 43.4261 342.438 43.5261C342.838 42.7261 343.088 41.9761 343.088 41.4761L336.838 41.4761C336.838 41.9761 337.088 42.7261 337.488 43.5261C337.288 43.4261 337.138 43.3761 336.938 43.2761C336.288 42.9761 335.638 42.6261 334.988 42.4761C334.588 42.3761 334.188 42.3261 333.838 42.3761C333.388 42.4261 332.988 42.5261 332.588 42.7761C332.088 43.0761 331.638 43.4761 331.288 43.9261C330.988 44.3761 330.738 44.8761 330.588 45.4261C330.238 46.8761 330.438 48.7261 331.238 50.8761C331.838 52.5761 332.638 53.9761 332.988 54.6761L335.638 54.6761C335.538 54.4761 335.388 54.2761 335.288 54.0761C335.238 53.9761 335.138 53.8761 335.088 53.7761C334.038 52.0761 332.238 48.2261 332.788 46.0261C332.938 45.4761 333.188 45.0761 333.688 44.8261C333.838 44.7261 334.038 44.6761 334.488 44.7761C334.938 44.8761 335.438 45.1261 335.988 45.4261C336.838 45.8761 337.788 46.3261 338.838 46.4761L338.838 54.7261L341.088 54.7261L341.088 46.4761C342.138 46.3261 343.088 45.8761 343.988 45.4261C344.538 45.1761 345.038 44.8761 345.488 44.7761C345.938 44.6761 346.138 44.7261 346.288 44.8261C346.738 45.0761 347.038 45.4761 347.188 46.0261C347.738 48.2261 345.938 52.0261 344.888 53.7761C344.838 53.8761 344.738 53.9761 344.688 54.0761C344.538 54.2761 344.438 54.4761 344.338 54.6761L346.988 54.6761C347.388 54.0261 348.138 52.5761 348.738 50.8761C349.488 48.7261 349.688 46.8761 349.338 45.4261Z" fill="#FFCE31"/>
<path d="M339.988 43.7761C339.138 43.7761 338.388 43.4261 337.788 42.9261C337.938 44.0261 338.838 44.8761 339.988 44.8761C341.088 44.8761 342.038 44.0261 342.188 42.9261C341.588 43.4761 340.838 43.7761 339.988 43.7761Z" fill="#F2B200"/>
<path d="M419.515 84.309C416.887 91.2241 409.61 95.191 402.374 93.6529L384.206 89.7912C377.28 88.3189 372.326 82.2034 372.325 75.1223L372.316 35.8733C372.314 26.3762 381.026 19.2677 390.33 21.1759L422.39 27.7515C431.444 29.6086 436.681 39.1337 433.398 47.7739L419.515 84.309Z" fill="#C4C4C4"/>
<path d="M419.515 84.309C416.887 91.2241 409.61 95.191 402.374 93.6529L384.206 89.7912C377.28 88.3189 372.326 82.2034 372.325 75.1223L372.316 35.8733C372.314 26.3762 381.026 19.2677 390.33 21.1759L422.39 27.7515C431.444 29.6086 436.681 39.1337 433.398 47.7739L419.515 84.309Z" fill="url(#paint50_radial)"/>
<path d="M419.515 84.309C416.887 91.2241 409.61 95.191 402.374 93.6529L384.206 89.7912C377.28 88.3189 372.326 82.2034 372.325 75.1223L372.316 35.8733C372.314 26.3762 381.026 19.2677 390.33 21.1759L422.39 27.7515C431.444 29.6086 436.681 39.1337 433.398 47.7739L419.515 84.309Z" fill="url(#paint51_radial)"/>
<g filter="url(#filter0_d)">
<path d="M400.09 56.1943L418.13 53.0893L398.591 63.2489L384.873 46.0203L400.09 56.1943Z" fill="url(#paint52_radial)"/>
</g>
<path d="M470.865 106.548C466.857 112.765 458.915 115.133 452.157 112.124L435.188 104.569C428.719 101.689 425.146 94.6772 426.616 87.7505L434.768 49.3575C436.741 40.0675 446.741 34.9257 455.444 38.7265L485.437 51.8241C493.907 55.5232 497.049 65.9289 492.041 73.6976L470.865 106.548Z" fill="#C4C4C4"/>
<path d="M470.865 106.548C466.857 112.765 458.915 115.133 452.157 112.124L435.188 104.569C428.719 101.689 425.146 94.6772 426.616 87.7505L434.768 49.3575C436.741 40.0675 446.741 34.9257 455.444 38.7265L485.437 51.8241C493.907 55.5232 497.049 65.9289 492.041 73.6976L470.865 106.548Z" fill="url(#paint53_radial)"/>
<path d="M462.959 61.289C463.607 60.5691 464.798 61.0993 464.696 62.0627L464.335 65.5049C464.289 65.9358 464.527 66.3468 464.922 66.523L468.084 67.9308C468.969 68.3248 468.833 69.6211 467.885 69.8225L464.5 70.5421C464.076 70.6322 463.759 70.9849 463.713 71.4157L463.351 74.858C463.25 75.8214 461.975 76.0924 461.491 75.2535L459.76 72.256C459.544 71.8808 459.11 71.6877 458.686 71.7778L455.301 72.4974C454.353 72.6989 453.702 71.5701 454.35 70.8502L456.666 68.278C456.956 67.956 457.005 67.484 456.789 67.1089L455.058 64.1114C454.574 63.2724 455.446 62.3038 456.331 62.6978L459.493 64.1056C459.889 64.2818 460.353 64.1832 460.643 63.8612L462.959 61.289Z" fill="url(#paint54_radial)"/>
<path d="M454.936 81.6467L442.167 68.5312L452.002 88.2353L473.227 82.3602L454.936 81.6467Z" fill="url(#paint55_radial)"/>
<path d="M516.47 138.977C511.257 144.225 502.995 144.89 497.011 140.541L481.984 129.624C476.255 125.462 474.217 117.86 477.096 111.391L493.052 75.5314C496.913 66.8546 507.764 63.9043 515.487 69.4315L542.101 88.4787C549.617 93.8581 550.527 104.69 544.013 111.247L516.47 138.977Z" fill="#C4C4C4"/>
<path d="M516.47 138.977C511.257 144.225 502.995 144.89 497.011 140.541L481.984 129.624C476.255 125.462 474.217 117.86 477.096 111.391L493.052 75.5314C496.913 66.8546 507.764 63.9043 515.487 69.4315L542.101 88.4787C549.617 93.8581 550.527 104.69 544.013 111.247L516.47 138.977Z" fill="url(#paint56_radial)"/>
<path d="M508.525 105.941L529.408 111.224L503.529 112.818L497.047 87.713L508.525 105.941Z" fill="url(#paint57_radial)"/>
<path d="M554.336 180.179C548.145 184.229 539.927 183.161 534.977 177.664L522.548 163.861C517.81 158.598 517.397 150.739 521.558 145.01L544.621 113.251C550.202 105.567 561.428 104.937 567.833 111.949L589.906 136.113C596.139 142.938 594.777 153.722 587.042 158.782L554.336 180.179Z" fill="url(#paint58_radial)"/>
<path d="M554.975 146.158L547.538 125.942L548.658 151.846L574.303 155.668L554.975 146.158Z" fill="url(#paint59_radial)"/>
<path d="M546.237 154.026L543.304 139.174L540.112 159.541L560.701 158.496L546.237 154.026Z" fill="url(#paint60_radial)"/>
<path d="M567.77 133.358C568.655 132.964 569.527 133.933 569.042 134.772L568.765 135.253C568.548 135.628 568.598 136.1 568.888 136.422L569.259 136.834C569.907 137.554 569.256 138.683 568.308 138.481L567.765 138.366C567.341 138.276 566.908 138.469 566.691 138.844L566.414 139.325C565.929 140.164 564.654 139.893 564.553 138.929L564.495 138.377C564.45 137.947 564.132 137.594 563.709 137.504L563.166 137.388C562.218 137.187 562.082 135.891 562.967 135.497L563.474 135.271C563.87 135.095 564.107 134.684 564.062 134.253L564.004 133.701C563.902 132.737 565.093 132.207 565.741 132.927L566.113 133.34C566.403 133.662 566.867 133.76 567.263 133.584L567.77 133.358Z" fill="url(#paint61_radial)"/>
<path d="M559.738 136.856C560.414 136.555 561.08 137.295 560.71 137.935C560.544 138.222 560.582 138.583 560.804 138.829C561.299 139.378 560.801 140.241 560.077 140.087C559.754 140.018 559.422 140.166 559.257 140.452C558.887 141.093 557.913 140.886 557.836 140.15C557.801 139.821 557.558 139.552 557.235 139.483C556.511 139.329 556.407 138.339 557.083 138.038C557.385 137.903 557.566 137.589 557.532 137.26C557.454 136.524 558.364 136.119 558.859 136.669C559.081 136.915 559.435 136.99 559.738 136.856Z" fill="url(#paint62_radial)"/>
<path d="M563.752 141.314C564.428 141.013 565.095 141.753 564.725 142.394C564.559 142.681 564.597 143.041 564.818 143.287C565.314 143.837 564.816 144.7 564.092 144.546C563.768 144.477 563.437 144.624 563.271 144.911C562.901 145.552 561.928 145.345 561.85 144.609C561.816 144.28 561.573 144.01 561.249 143.942C560.525 143.788 560.421 142.797 561.097 142.496C561.4 142.362 561.581 142.048 561.546 141.719C561.469 140.983 562.379 140.578 562.874 141.128C563.095 141.374 563.45 141.449 563.752 141.314Z" fill="url(#paint63_radial)"/>
<path d="M582.807 228.354C575.91 231.029 568.093 228.275 564.394 221.869L555.107 205.783C551.566 199.651 552.797 191.877 558.058 187.138L587.22 160.869C594.276 154.513 605.389 156.231 610.196 164.421L626.762 192.647C631.44 200.618 627.866 210.883 619.248 214.225L582.807 228.354Z" fill="#C4C4C4"/>
<path d="M582.807 228.354C575.91 231.029 568.093 228.275 564.394 221.869L555.107 205.783C551.566 199.651 552.797 191.877 558.058 187.138L587.22 160.869C594.276 154.513 605.389 156.231 610.196 164.421L626.762 192.647C631.44 200.618 627.866 210.883 619.248 214.225L582.807 228.354Z" fill="url(#paint64_radial)"/>
<g filter="url(#filter1_d)">
<path d="M589.67 195.703L604.049 207.031L583.424 199.309L587.049 177.586L589.67 195.703Z" fill="url(#paint65_radial)"/>
</g>
<path d="M600.641 281.396C593.339 282.578 586.265 278.259 583.979 271.224L578.239 253.559C576.051 246.824 578.87 239.477 585.002 235.935L618.988 216.303C627.212 211.552 637.724 215.543 640.724 224.554L651.059 255.607C653.978 264.377 648.347 273.675 639.223 275.152L600.641 281.396Z" fill="#C4C4C4"/>
<path d="M600.641 281.396C593.339 282.578 586.265 278.259 583.979 271.224L578.239 253.559C576.051 246.824 578.87 239.477 585.002 235.935L618.988 216.303C627.212 211.552 637.724 215.543 640.724 224.554L651.059 255.607C653.978 264.377 648.347 273.675 639.223 275.152L600.641 281.396Z" fill="url(#paint66_radial)"/>
<path d="M600.641 281.396C593.339 282.578 586.265 278.259 583.979 271.224L578.239 253.559C576.051 246.824 578.87 239.477 585.002 235.935L618.988 216.303C627.212 211.552 637.724 215.543 640.724 224.554L651.059 255.607C653.978 264.377 648.347 273.675 639.223 275.152L600.641 281.396Z" fill="url(#paint67_radial)"/>
<path d="M609.614 252.529L611.042 231.036L601.53 255.156L623.403 269.078L609.614 252.529Z" fill="url(#paint68_radial)"/>
<path d="M618.437 249.686L618.565 232.821L613.047 251.437L628.453 263.254L618.437 249.686Z" fill="url(#paint69_radial)"/>
<path d="M624.546 247.7L624.841 239.193L621.607 248.656L629.785 254.41L624.546 247.7Z" fill="url(#paint70_radial)"/>
<path d="M607.057 336.986C599.668 336.624 593.647 330.929 592.873 323.572L590.932 305.1C590.192 298.057 594.477 291.457 601.211 289.267L638.537 277.13C647.568 274.193 657.021 280.283 658.081 289.72L661.735 322.243C662.766 331.429 655.326 339.353 646.094 338.9L607.057 336.986Z" fill="#C4C4C4"/>
<path d="M607.057 336.986C599.668 336.624 593.647 330.929 592.873 323.572L590.932 305.1C590.192 298.057 594.477 291.457 601.211 289.267L638.537 277.13C647.568 274.193 657.021 280.283 658.081 289.72L661.735 322.243C662.766 331.429 655.326 339.353 646.094 338.9L607.057 336.986Z" fill="url(#paint71_radial)"/>
<path d="M628.28 308.767L638.327 327.822L619.827 309.656L634.146 288.041L628.28 308.767Z" fill="url(#paint72_radial)"/>
<path d="M601.774 392.695C594.623 390.805 589.917 383.983 590.69 376.626L592.632 358.153C593.372 351.111 598.936 345.545 605.978 344.804L645.011 340.692C654.456 339.698 662.436 347.619 661.511 357.071L658.323 389.643C657.422 398.842 648.497 405.046 639.561 402.684L601.774 392.695Z" fill="#C4C4C4"/>
<path d="M601.774 392.695C594.623 390.805 589.917 383.983 590.69 376.626L592.632 358.153C593.372 351.111 598.936 345.545 605.978 344.804L645.011 340.692C654.456 339.698 662.436 347.619 661.511 357.071L658.323 389.643C657.422 398.842 648.497 405.046 639.561 402.684L601.774 392.695Z" fill="url(#paint73_radial)"/>
<path d="M642.375 371.19C643.26 371.584 643.123 372.88 642.176 373.081L638.79 373.801C638.366 373.891 638.049 374.244 638.004 374.675L637.642 378.117C637.541 379.08 636.266 379.351 635.781 378.512L634.051 375.515C633.834 375.14 633.4 374.947 632.977 375.037L629.591 375.756C628.644 375.958 627.992 374.829 628.64 374.109L630.956 371.537C631.246 371.215 631.296 370.743 631.079 370.368L629.348 367.37C628.864 366.531 629.736 365.563 630.621 365.957L633.783 367.365C634.179 367.541 634.643 367.442 634.933 367.12L637.249 364.548C637.897 363.828 639.088 364.358 638.987 365.322L638.625 368.764C638.58 369.195 638.817 369.606 639.213 369.782L642.375 371.19Z" fill="url(#paint74_radial)"/>
<path d="M620.534 369.85L629.062 353.653L613.361 369.097L625.508 387.467L620.534 369.85Z" fill="url(#paint75_radial)"/>
<path d="M585.025 446.089C578.422 442.753 575.238 435.101 577.524 428.066L583.264 410.401C585.452 403.666 592.052 399.379 599.094 400.118L638.129 404.212C647.574 405.203 653.733 414.61 650.863 423.663L640.972 454.861C638.179 463.671 628.158 467.884 619.909 463.715L585.025 446.089Z" fill="url(#paint76_radial)"/>
<path d="M609.252 428.01L623.041 411.461L601.168 425.384L610.68 449.503L609.252 428.01Z" fill="url(#paint77_radial)"/>
<path d="M618.061 430.895L628.077 417.326L612.671 429.144L618.189 447.76L618.061 430.895Z" fill="url(#paint78_radial)"/>
<path d="M624.171 432.881L629.409 426.171L621.231 431.925L624.465 441.388L624.171 432.881Z" fill="url(#paint79_radial)"/>
<path d="M557.54 494.834C551.776 490.198 550.252 482.051 553.95 475.645L563.237 459.559C566.778 453.427 574.125 450.606 580.86 452.792L618.191 464.913C627.223 467.845 631.292 478.328 626.602 486.586L610.441 515.046C605.877 523.083 595.2 525.12 587.997 519.328L557.54 494.834Z" fill="#C4C4C4"/>
<path d="M557.54 494.834C551.776 490.198 550.252 482.051 553.95 475.645L563.237 459.559C566.778 453.427 574.125 450.606 580.86 452.792L618.191 464.913C627.223 467.845 631.292 478.328 626.602 486.586L610.441 515.046C605.877 523.083 595.2 525.12 587.997 519.328L557.54 494.834Z" fill="url(#paint80_radial)"/>
<path d="M591.297 484.479L588.225 505.8L583.936 480.229L608.225 471.159L591.297 484.479Z" fill="url(#paint81_radial)"/>
<path d="M520.522 536.799C515.847 531.066 516.05 522.78 521 517.283L533.428 503.48C538.167 498.217 545.94 496.985 552.073 500.525L586.068 520.141C594.293 524.888 596.093 535.988 589.789 543.091L568.064 567.568C561.929 574.481 551.061 574.253 545.22 567.09L520.522 536.799Z" fill="#C4C4C4"/>
<path d="M520.522 536.799C515.847 531.066 516.05 522.78 521 517.283L533.428 503.48C538.167 498.217 545.94 496.985 552.073 500.525L586.068 520.141C594.293 524.888 596.093 535.988 589.789 543.091L568.064 567.568C561.929 574.481 551.061 574.253 545.22 567.09L520.522 536.799Z" fill="url(#paint82_radial)"/>
<path d="M564.523 541.926C565.007 542.765 564.135 543.734 563.25 543.34L560.088 541.932C559.692 541.756 559.228 541.854 558.938 542.176L556.622 544.749C555.974 545.468 554.783 544.938 554.884 543.975L555.246 540.533C555.291 540.102 555.054 539.691 554.658 539.515L551.496 538.107C550.611 537.713 550.748 536.416 551.695 536.215L555.081 535.495C555.504 535.405 555.822 535.053 555.867 534.622L556.229 531.18C556.33 530.216 557.605 529.945 558.09 530.784L559.82 533.782C560.037 534.157 560.47 534.35 560.894 534.26L564.28 533.54C565.227 533.339 565.879 534.467 565.231 535.187L562.915 537.76C562.625 538.082 562.575 538.554 562.792 538.929L564.523 541.926Z" fill="url(#paint83_radial)"/>
<path d="M547.64 528.005L564.06 519.914L542.281 523.179L541.31 545.181L547.64 528.005Z" fill="url(#paint84_radial)"/>
<path d="M475.587 570.15C472.206 563.57 474.128 555.508 480.112 551.16L495.139 540.243C500.868 536.08 508.727 536.491 513.99 541.228L543.164 567.485C550.223 573.838 549.676 585.069 542.033 590.706L515.693 610.131C508.255 615.618 497.672 613.136 493.448 604.914L475.587 570.15Z" fill="url(#paint85_radial)"/>
<path d="M509.461 572.803L497.983 591.031L504.465 565.927L530.344 567.52L509.461 572.803Z" fill="url(#paint86_radial)"/>
<path d="M424.7 593.43C422.761 586.291 426.317 578.805 433.075 575.796L450.043 568.241C456.512 565.361 464.114 567.397 468.277 573.125L491.354 604.873C496.938 612.555 494.068 623.427 485.42 627.352L455.618 640.876C447.201 644.696 437.365 640.068 434.943 631.148L424.7 593.43Z" fill="#C4C4C4"/>
<path d="M424.7 593.43C422.761 586.291 426.317 578.805 433.075 575.796L450.043 568.241C456.512 565.361 464.114 567.397 468.277 573.125L491.354 604.873C496.938 612.555 494.068 623.427 485.42 627.352L455.618 640.876C447.201 644.696 437.365 640.068 434.943 631.148L424.7 593.43Z" fill="url(#paint87_radial)"/>
<path d="M462.811 616.011C462.913 616.975 461.722 617.505 461.074 616.785L458.758 614.213C458.468 613.891 458.004 613.792 457.608 613.968L454.446 615.376C453.561 615.77 452.689 614.801 453.173 613.963L454.904 610.965C455.12 610.59 455.071 610.118 454.781 609.796L452.465 607.224C451.817 606.504 452.468 605.375 453.416 605.576L456.801 606.296C457.225 606.386 457.659 606.193 457.875 605.818L459.606 602.82C460.09 601.981 461.365 602.252 461.467 603.216L461.828 606.658C461.874 607.089 462.191 607.442 462.615 607.532L466.001 608.251C466.948 608.453 467.084 609.749 466.199 610.143L463.037 611.551C462.642 611.727 462.404 612.138 462.45 612.569L462.811 616.011Z" fill="url(#paint88_radial)"/>
<path d="M453.051 596.427L471.342 595.714L450.117 589.839L440.281 609.543L453.051 596.427Z" fill="url(#paint89_radial)"/>
<path d="M370.085 605.622C369.673 598.236 374.707 591.652 381.943 590.114L400.111 586.253C407.038 584.78 414.05 588.352 416.932 594.821L432.904 630.673C436.769 639.348 431.701 649.386 422.425 651.426L390.462 658.459C381.435 660.446 372.777 653.874 372.262 644.645L370.085 605.622Z" fill="url(#paint90_radial)"/>
<path d="M370.085 605.622C369.673 598.236 374.707 591.652 381.943 590.114L400.111 586.253C407.038 584.78 414.05 588.352 416.932 594.821L432.904 630.673C436.769 639.348 431.701 649.386 422.425 651.426L390.462 658.459C381.435 660.446 372.777 653.874 372.262 644.645L370.085 605.622Z" fill="url(#paint91_radial)"/>
<path d="M399.825 625.712L421.051 629.379L398.058 617.398L381.925 637.696L399.825 625.712Z" fill="url(#paint92_radial)"/>
<path d="M397.38 614.211L411.709 619.097L395.667 606.149L386.277 624.502L397.38 614.211Z" fill="url(#paint93_radial)"/>
<path d="M404.097 641.236C403.996 642.2 402.721 642.471 402.237 641.632L401.233 639.893C401.016 639.517 400.582 639.324 400.159 639.414L398.194 639.832C397.247 640.033 396.595 638.905 397.243 638.185L398.587 636.692C398.877 636.37 398.926 635.898 398.71 635.523L397.706 633.784C397.221 632.945 398.094 631.977 398.979 632.371L400.813 633.187C401.209 633.364 401.673 633.265 401.963 632.943L403.307 631.451C403.955 630.731 405.146 631.261 405.044 632.224L404.834 634.221C404.789 634.652 405.026 635.063 405.422 635.239L407.257 636.056C408.142 636.45 408.005 637.746 407.058 637.948L405.094 638.365C404.67 638.455 404.352 638.808 404.307 639.239L404.097 641.236Z" fill="url(#paint94_radial)"/>
<path d="M314.129 606.191C315.262 598.881 321.555 593.488 328.952 593.488H347.526C354.608 593.488 360.724 598.44 362.198 605.366L370.367 643.756C372.343 653.045 365.299 661.809 355.802 661.877L323.076 662.111C313.833 662.177 306.73 653.949 308.145 644.815L314.129 606.191Z" fill="url(#paint95_radial)"/>
<path d="M340.261 646.287C339.961 647.208 338.658 647.208 338.359 646.287L336.773 641.406C336.639 640.994 336.255 640.715 335.822 640.715L330.689 640.715C329.721 640.715 329.318 639.475 330.102 638.906L334.254 635.889C334.604 635.634 334.751 635.183 334.617 634.771L333.031 629.89C332.732 628.969 333.786 628.203 334.57 628.772L338.722 631.789C339.072 632.043 339.547 632.043 339.897 631.789L344.049 628.772C344.833 628.203 345.888 628.969 345.588 629.89L344.002 634.771C343.868 635.183 344.015 635.634 344.366 635.889L348.518 638.906C349.301 639.475 348.899 640.715 347.93 640.715L342.798 640.715C342.364 640.715 341.981 640.994 341.847 641.406L340.261 646.287Z" fill="url(#paint96_radial)"/>
<path d="M353.016 625.331C352.717 626.253 351.413 626.253 351.114 625.331L350.551 623.598C350.417 623.186 350.033 622.907 349.6 622.907L347.777 622.907C346.809 622.907 346.406 621.667 347.19 621.098L348.664 620.027C349.014 619.772 349.161 619.321 349.027 618.909L348.464 617.176C348.165 616.254 349.219 615.488 350.003 616.057L351.477 617.129C351.828 617.383 352.302 617.383 352.653 617.129L354.127 616.057C354.911 615.488 355.965 616.254 355.666 617.176L355.103 618.909C354.969 619.321 355.116 619.772 355.466 620.027L356.941 621.098C357.724 621.667 357.322 622.907 356.353 622.907L354.53 622.907C354.097 622.907 353.713 623.186 353.579 623.598L353.016 625.331Z" fill="url(#paint97_radial)"/>
<path d="M340.261 619.865C339.961 620.786 338.658 620.786 338.358 619.865L337.795 618.131C337.661 617.719 337.277 617.44 336.844 617.44L335.022 617.44C334.053 617.44 333.65 616.201 334.434 615.631L335.908 614.56C336.259 614.305 336.406 613.854 336.272 613.442L335.708 611.709C335.409 610.788 336.464 610.021 337.247 610.591L338.722 611.662C339.072 611.917 339.547 611.917 339.897 611.662L341.372 610.591C342.155 610.021 343.21 610.788 342.911 611.709L342.347 613.442C342.213 613.854 342.36 614.305 342.711 614.56L344.185 615.631C344.969 616.201 344.566 617.44 343.597 617.44L341.775 617.44C341.342 617.44 340.958 617.719 340.824 618.131L340.261 619.865Z" fill="url(#paint98_radial)"/>
<path d="M327.505 625.331C327.206 626.253 325.902 626.253 325.603 625.331L325.04 623.598C324.906 623.186 324.522 622.907 324.089 622.907L322.266 622.907C321.297 622.907 320.895 621.667 321.678 621.098L323.153 620.027C323.503 619.772 323.65 619.321 323.516 618.909L322.953 617.176C322.654 616.254 323.708 615.488 324.492 616.057L325.966 617.129C326.317 617.383 326.791 617.383 327.142 617.129L328.616 616.057C329.4 615.488 330.454 616.254 330.155 617.176L329.592 618.909C329.458 619.321 329.605 619.772 329.955 620.027L331.429 621.098C332.213 621.667 331.81 622.907 330.842 622.907L329.019 622.907C328.586 622.907 328.202 623.186 328.068 623.598L327.505 625.331Z" fill="url(#paint99_radial)"/>
<defs>
<filter id="filter0_d" x="377.873" y="43.0203" width="47.2571" height="31.2286" filterUnits="userSpaceOnUse" color-interpolation-filters="sRGB">
<feFlood flood-opacity="0" result="BackgroundImageFix"/>
<feColorMatrix in="SourceAlpha" type="matrix" values="0 0 0 0 0 0 0 0 0 0 0 0 0 0 0 0 0 0 127 0" result="hardAlpha"/>
<feOffset dy="4"/>
<feGaussianBlur stdDeviation="3.5"/>
<feColorMatrix type="matrix" values="0 0 0 0 0 0 0 0 0 0 0 0 0 0 0 0 0 0 0.14 0"/>
<feBlend mode="normal" in2="BackgroundImageFix" result="effect1_dropShadow"/>
<feBlend mode="normal" in="SourceGraphic" in2="effect1_dropShadow" result="shape"/>
</filter>
<filter id="filter1_d" x="576.424" y="174.586" width="34.6243" height="43.4449" filterUnits="userSpaceOnUse" color-interpolation-filters="sRGB">
<feFlood flood-opacity="0" result="BackgroundImageFix"/>
<feColorMatrix in="SourceAlpha" type="matrix" values="0 0 0 0 0 0 0 0 0 0 0 0 0 0 0 0 0 0 127 0" result="hardAlpha"/>
<feOffset dy="4"/>
<feGaussianBlur stdDeviation="3.5"/>
<feColorMatrix type="matrix" values="0 0 0 0 0 0 0 0 0 0 0 0 0 0 0 0 0 0 0.14 0"/>
<feBlend mode="normal" in2="BackgroundImageFix" result="effect1_dropShadow"/>
<feBlend mode="normal" in="SourceGraphic" in2="effect1_dropShadow" result="shape"/>
</filter>
<radialGradient id="paint0_radial" cx="0" cy="0" r="1" gradientUnits="userSpaceOnUse" gradientTransform="translate(279.901 621.654) rotate(102) scale(34.3744)">
<stop stop-color="#6068BC"/>
<stop offset="1" stop-color="#333F74"/>
</radialGradient>
<radialGradient id="paint1_radial" cx="0" cy="0" r="1" gradientUnits="userSpaceOnUse" gradientTransform="translate(277.538 628.703) rotate(-78) scale(10)">
<stop stop-color="#FCFF5B"/>
<stop offset="1" stop-color="#FCB922"/>
</radialGradient>
<radialGradient id="paint2_radial" cx="0" cy="0" r="1" gradientUnits="userSpaceOnUse" gradientTransform="translate(280.656 614.031) rotate(-78) scale(7 17)">
<stop stop-color="#FCFF5B"/>
<stop offset="1" stop-color="#FCB922"/>
</radialGradient>
<radialGradient id="paint3_radial" cx="0" cy="0" r="1" gradientUnits="userSpaceOnUse" gradientTransform="translate(222.582 603.123) rotate(114) scale(34.3744)">
<stop stop-color="#63B2BB"/>
<stop offset="1" stop-color="#476D78"/>
</radialGradient>
<radialGradient id="paint4_radial" cx="0" cy="0" r="1" gradientUnits="userSpaceOnUse" gradientTransform="translate(222.667 603.31) rotate(-66) scale(8.25 20)">
<stop stop-color="#FCFF5B"/>
<stop offset="1" stop-color="#FCB922"/>
</radialGradient>
<radialGradient id="paint5_radial" cx="0" cy="0" r="1" gradientUnits="userSpaceOnUse" gradientTransform="translate(170.368 573.081) rotate(126) scale(34.3744)">
<stop stop-color="#6068BC"/>
<stop offset="1" stop-color="#333F74"/>
</radialGradient>
<radialGradient id="paint6_radial" cx="0" cy="0" r="1" gradientUnits="userSpaceOnUse" gradientTransform="translate(165.057 579.587) rotate(-54) scale(10)">
<stop stop-color="#FCFF5B"/>
<stop offset="1" stop-color="#FCB922"/>
</radialGradient>
<radialGradient id="paint7_radial" cx="0" cy="0" r="1" gradientUnits="userSpaceOnUse" gradientTransform="translate(173.873 567.452) rotate(-54) scale(7 17)">
<stop stop-color="#FCFF5B"/>
<stop offset="1" stop-color="#FCB922"/>
</radialGradient>
<radialGradient id="paint8_radial" cx="0" cy="0" r="1" gradientUnits="userSpaceOnUse" gradientTransform="translate(125.542 532.838) rotate(138) scale(34.3744)">
<stop stop-color="#FF3C8E"/>
<stop offset="1" stop-color="#79364E"/>
</radialGradient>
<radialGradient id="paint9_radial" cx="0" cy="0" r="1" gradientUnits="userSpaceOnUse" gradientTransform="translate(125.542 532.838) rotate(138) scale(34.3744)">
<stop offset="0.0001" stop-color="#31BB3F"/>
<stop offset="1" stop-color="#449A4D"/>
</radialGradient>
<radialGradient id="paint10_radial" cx="0" cy="0" r="1" gradientUnits="userSpaceOnUse" gradientTransform="translate(123.468 533.344) rotate(-42) scale(8.25 20)">
<stop stop-color="#FCFF5B"/>
<stop offset="1" stop-color="#FCB922"/>
</radialGradient>
<radialGradient id="paint11_radial" cx="0" cy="0" r="1" gradientUnits="userSpaceOnUse" gradientTransform="translate(132.2 525.481) rotate(-42) scale(8 13)">
<stop stop-color="#FCFF5B"/>
<stop offset="1" stop-color="#FCB922"/>
</radialGradient>
<radialGradient id="paint12_radial" cx="0" cy="0" r="1" gradientUnits="userSpaceOnUse" gradientTransform="translate(115.107 540.871) rotate(-42) scale(8)">
<stop stop-color="#FCFF5B"/>
<stop offset="1" stop-color="#FCB922"/>
</radialGradient>
<radialGradient id="paint13_radial" cx="0" cy="0" r="1" gradientUnits="userSpaceOnUse" gradientTransform="translate(90.0619 484.155) rotate(150) scale(34.3744)">
<stop stop-color="#B54ECA"/>
<stop offset="1" stop-color="#6D308A"/>
</radialGradient>
<radialGradient id="paint14_radial" cx="0" cy="0" r="1" gradientUnits="userSpaceOnUse" gradientTransform="translate(93.4553 481.029) rotate(-30) scale(8.25 20)">
<stop stop-color="#FCFF5B"/>
<stop offset="1" stop-color="#FCB922"/>
</radialGradient>
<radialGradient id="paint15_radial" cx="0" cy="0" r="1" gradientUnits="userSpaceOnUse" gradientTransform="translate(85.3444 485.687) rotate(-30) scale(5.5 16)">
<stop stop-color="#FCFF5B"/>
<stop offset="1" stop-color="#FCB922"/>
</radialGradient>
<radialGradient id="paint16_radial" cx="0" cy="0" r="1" gradientUnits="userSpaceOnUse" gradientTransform="translate(79.7153 488.937) rotate(-30) scale(3 8)">
<stop stop-color="#FCFF5B"/>
<stop offset="1" stop-color="#FCB922"/>
</radialGradient>
<radialGradient id="paint17_radial" cx="0" cy="0" r="1" gradientUnits="userSpaceOnUse" gradientTransform="translate(65.4794 429.16) rotate(162) scale(34.3744)">
<stop stop-color="#6068BC"/>
<stop offset="1" stop-color="#333F74"/>
</radialGradient>
<radialGradient id="paint18_radial" cx="0" cy="0" r="1" gradientUnits="userSpaceOnUse" gradientTransform="translate(58.1423 430.481) rotate(-18) scale(10)">
<stop stop-color="#FCFF5B"/>
<stop offset="1" stop-color="#FCB922"/>
</radialGradient>
<radialGradient id="paint19_radial" cx="0" cy="0" r="1" gradientUnits="userSpaceOnUse" gradientTransform="translate(72.4083 425.845) rotate(-18) scale(7 17)">
<stop stop-color="#FCFF5B"/>
<stop offset="1" stop-color="#FCB922"/>
</radialGradient>
<radialGradient id="paint20_radial" cx="0" cy="0" r="1" gradientUnits="userSpaceOnUse" gradientTransform="translate(52.868 370.254) rotate(174) scale(34.3744)">
<stop stop-color="#63B2BB"/>
<stop offset="1" stop-color="#476D78"/>
</radialGradient>
<radialGradient id="paint21_radial" cx="0" cy="0" r="1" gradientUnits="userSpaceOnUse" gradientTransform="translate(51.6496 369.531) rotate(-6) scale(8.25 20)">
<stop stop-color="#FCFF5B"/>
<stop offset="1" stop-color="#FCB922"/>
</radialGradient>
<radialGradient id="paint22_radial" cx="0" cy="0" r="1" gradientUnits="userSpaceOnUse" gradientTransform="translate(52.7792 310.015) rotate(-174) scale(34.3744)">
<stop stop-color="#D73636"/>
<stop offset="1" stop-color="#881A1A"/>
</radialGradient>
<radialGradient id="paint23_radial" cx="0" cy="0" r="1" gradientUnits="userSpaceOnUse" gradientTransform="translate(49.7932 309.553) rotate(6) scale(8.25 20)">
<stop stop-color="#FCFF5B"/>
<stop offset="1" stop-color="#FCB922"/>
</radialGradient>
<radialGradient id="paint24_radial" cx="0" cy="0" r="1" gradientUnits="userSpaceOnUse" gradientTransform="translate(61.4789 310.782) rotate(6) scale(8 13)">
<stop stop-color="#FCFF5B"/>
<stop offset="1" stop-color="#FCB922"/>
</radialGradient>
<radialGradient id="paint25_radial" cx="0" cy="0" r="1" gradientUnits="userSpaceOnUse" gradientTransform="translate(34.6268 307.959) rotate(6) scale(6)">
<stop stop-color="#FCFF5B"/>
<stop offset="1" stop-color="#FCB922"/>
</radialGradient>
<radialGradient id="paint26_radial" cx="0" cy="0" r="1" gradientUnits="userSpaceOnUse" gradientTransform="translate(41.2749 311.675) rotate(6) scale(4)">
<stop stop-color="#FCFF5B"/>
<stop offset="1" stop-color="#FCB922"/>
</radialGradient>
<radialGradient id="paint27_radial" cx="0" cy="0" r="1" gradientUnits="userSpaceOnUse" gradientTransform="translate(41.9021 305.708) rotate(6) scale(4)">
<stop stop-color="#FCFF5B"/>
<stop offset="1" stop-color="#FCB922"/>
</radialGradient>
<radialGradient id="paint28_radial" cx="0" cy="0" r="1" gradientUnits="userSpaceOnUse" gradientTransform="translate(65.2168 251.073) rotate(-162) scale(34.3744)">
<stop stop-color="#63B2BB"/>
<stop offset="1" stop-color="#476D78"/>
</radialGradient>
<radialGradient id="paint29_radial" cx="0" cy="0" r="1" gradientUnits="userSpaceOnUse" gradientTransform="translate(63.4469 249.608) rotate(18) scale(8.25 20)">
<stop stop-color="#FCFF5B"/>
<stop offset="1" stop-color="#FCB922"/>
</radialGradient>
<radialGradient id="paint30_radial" cx="0" cy="0" r="1" gradientUnits="userSpaceOnUse" gradientTransform="translate(89.6377 196.004) rotate(-150) scale(34.3744)">
<stop offset="0.0001" stop-color="#31BB3F"/>
<stop offset="1" stop-color="#449A4D"/>
</radialGradient>
<radialGradient id="paint31_radial" cx="0" cy="0" r="1" gradientUnits="userSpaceOnUse" gradientTransform="translate(87.8862 194.808) rotate(30) scale(8.25 20)">
<stop stop-color="#FCFF5B"/>
<stop offset="1" stop-color="#FCB922"/>
</radialGradient>
<radialGradient id="paint32_radial" cx="0" cy="0" r="1" gradientUnits="userSpaceOnUse" gradientTransform="translate(98.062 200.683) rotate(30) scale(8 13)">
<stop stop-color="#FCFF5B"/>
<stop offset="1" stop-color="#FCB922"/>
</radialGradient>
<radialGradient id="paint33_radial" cx="0" cy="0" r="1" gradientUnits="userSpaceOnUse" gradientTransform="translate(78.1435 189.183) rotate(30) scale(8)">
<stop stop-color="#FCFF5B"/>
<stop offset="1" stop-color="#FCB922"/>
</radialGradient>
<radialGradient id="paint34_radial" cx="0" cy="0" r="1" gradientUnits="userSpaceOnUse" gradientTransform="translate(124.974 147.217) rotate(-138) scale(34.3744)">
<stop stop-color="#B54ECA"/>
<stop offset="1" stop-color="#6D308A"/>
</radialGradient>
<radialGradient id="paint35_radial" cx="0" cy="0" r="1" gradientUnits="userSpaceOnUse" gradientTransform="translate(128.964 149.461) rotate(42) scale(8.25 20)">
<stop stop-color="#FCFF5B"/>
<stop offset="1" stop-color="#FCB922"/>
</radialGradient>
<radialGradient id="paint36_radial" cx="0" cy="0" r="1" gradientUnits="userSpaceOnUse" gradientTransform="translate(122.028 143.187) rotate(42) scale(5.5 16)">
<stop stop-color="#FCFF5B"/>
<stop offset="1" stop-color="#FCB922"/>
</radialGradient>
<radialGradient id="paint37_radial" cx="0" cy="0" r="1" gradientUnits="userSpaceOnUse" gradientTransform="translate(117.197 138.837) rotate(42) scale(3 8)">
<stop stop-color="#FCFF5B"/>
<stop offset="1" stop-color="#FCB922"/>
</radialGradient>
<radialGradient id="paint38_radial" cx="0" cy="0" r="1" gradientUnits="userSpaceOnUse" gradientTransform="translate(169.681 106.843) rotate(-126) scale(34.3744)">
<stop stop-color="#63B2BB"/>
<stop offset="1" stop-color="#476D78"/>
</radialGradient>
<radialGradient id="paint39_radial" cx="0" cy="0" r="1" gradientUnits="userSpaceOnUse" gradientTransform="translate(170.286 106.235) rotate(54) scale(8.25 20)">
<stop stop-color="#FCFF5B"/>
<stop offset="1" stop-color="#FCB922"/>
</radialGradient>
<radialGradient id="paint40_radial" cx="0" cy="0" r="1" gradientUnits="userSpaceOnUse" gradientTransform="translate(221.807 76.646) rotate(-114) scale(34.3744)">
<stop stop-color="#B54ECA"/>
<stop offset="1" stop-color="#6D308A"/>
</radialGradient>
<radialGradient id="paint41_radial" cx="0" cy="0" r="1" gradientUnits="userSpaceOnUse" gradientTransform="translate(223.999 80.5594) rotate(66) scale(8.25 20)">
<stop stop-color="#FCFF5B"/>
<stop offset="1" stop-color="#FCB922"/>
</radialGradient>
<radialGradient id="paint42_radial" cx="0" cy="0" r="1" gradientUnits="userSpaceOnUse" gradientTransform="translate(220.214 72.0063) rotate(66) scale(5.5 16)">
<stop stop-color="#FCFF5B"/>
<stop offset="1" stop-color="#FCB922"/>
</radialGradient>
<radialGradient id="paint43_radial" cx="0" cy="0" r="1" gradientUnits="userSpaceOnUse" gradientTransform="translate(217.571 66.0683) rotate(66) scale(3 8)">
<stop stop-color="#FCFF5B"/>
<stop offset="1" stop-color="#FCB922"/>
</radialGradient>
<radialGradient id="paint44_radial" cx="0" cy="0" r="1" gradientUnits="userSpaceOnUse" gradientTransform="translate(279.071 57.9465) rotate(-102) scale(34.3744)">
<stop stop-color="#FF3C8E"/>
<stop offset="1" stop-color="#79364E"/>
</radialGradient>
<radialGradient id="paint45_radial" cx="0" cy="0" r="1" gradientUnits="userSpaceOnUse" gradientTransform="translate(279.071 57.9465) rotate(-102) scale(34.3744)">
<stop offset="0.0001" stop-color="#31BB3F"/>
<stop offset="1" stop-color="#449A4D"/>
</radialGradient>
<radialGradient id="paint46_radial" cx="0" cy="0" r="1" gradientUnits="userSpaceOnUse" gradientTransform="translate(279.643 55.4887) rotate(78) scale(8.25 20)">
<stop stop-color="#FCFF5B"/>
<stop offset="1" stop-color="#FCB922"/>
</radialGradient>
<radialGradient id="paint47_radial" cx="0" cy="0" r="1" gradientUnits="userSpaceOnUse" gradientTransform="translate(282.086 66.9819) rotate(78) scale(8 13)">
<stop stop-color="#FCFF5B"/>
<stop offset="1" stop-color="#FCB922"/>
</radialGradient>
<radialGradient id="paint48_radial" cx="0" cy="0" r="1" gradientUnits="userSpaceOnUse" gradientTransform="translate(277.304 44.4845) rotate(78) scale(8)">
<stop stop-color="#FCFF5B"/>
<stop offset="1" stop-color="#FCB922"/>
</radialGradient>
<radialGradient id="paint49_radial" cx="0" cy="0" r="1" gradientUnits="userSpaceOnUse" gradientTransform="translate(338.971 51.5615) rotate(-90) scale(34.3744)">
<stop stop-color="#FF46CB"/>
<stop offset="1" stop-color="#EA0781"/>
</radialGradient>
<radialGradient id="paint50_radial" cx="0" cy="0" r="1" gradientUnits="userSpaceOnUse" gradientTransform="translate(398.89 57.7701) rotate(-78) scale(34.3744)">
<stop stop-color="#6068BC"/>
<stop offset="1" stop-color="#333F74"/>
</radialGradient>
<radialGradient id="paint51_radial" cx="0" cy="0" r="1" gradientUnits="userSpaceOnUse" gradientTransform="translate(398.89 57.7701) rotate(-78) scale(34.3744)">
<stop stop-color="#63B2BB"/>
<stop offset="1" stop-color="#476D78"/>
</radialGradient>
<radialGradient id="paint52_radial" cx="0" cy="0" r="1" gradientUnits="userSpaceOnUse" gradientTransform="translate(400.046 56.4018) rotate(102) scale(7 17)">
<stop stop-color="#FCFF5B"/>
<stop offset="1" stop-color="#FCB922"/>
</radialGradient>
<radialGradient id="paint53_radial" cx="0" cy="0" r="1" gradientUnits="userSpaceOnUse" gradientTransform="translate(456.209 76.3009) rotate(-66) scale(34.3744)">
<stop stop-color="#6068BC"/>
<stop offset="1" stop-color="#333F74"/>
</radialGradient>
<radialGradient id="paint54_radial" cx="0" cy="0" r="1" gradientUnits="userSpaceOnUse" gradientTransform="translate(460.951 68.1373) rotate(114) scale(10)">
<stop stop-color="#FCFF5B"/>
<stop offset="1" stop-color="#FCB922"/>
</radialGradient>
<radialGradient id="paint55_radial" cx="0" cy="0" r="1" gradientUnits="userSpaceOnUse" gradientTransform="translate(454.85 81.8405) rotate(114) scale(7 17)">
<stop stop-color="#FCFF5B"/>
<stop offset="1" stop-color="#FCB922"/>
</radialGradient>
<radialGradient id="paint56_radial" cx="0" cy="0" r="1" gradientUnits="userSpaceOnUse" gradientTransform="translate(508.423 106.344) rotate(-54) scale(34.3744)">
<stop stop-color="#63B2BB"/>
<stop offset="1" stop-color="#476D78"/>
</radialGradient>
<radialGradient id="paint57_radial" cx="0" cy="0" r="1" gradientUnits="userSpaceOnUse" gradientTransform="translate(508.378 106.143) rotate(126) scale(8.25 20)">
<stop stop-color="#FCFF5B"/>
<stop offset="1" stop-color="#FCB922"/>
</radialGradient>
<radialGradient id="paint58_radial" cx="0" cy="0" r="1" gradientUnits="userSpaceOnUse" gradientTransform="translate(553.25 146.586) rotate(-42) scale(34.3744)">
<stop stop-color="#D73636"/>
<stop offset="1" stop-color="#881A1A"/>
</radialGradient>
<radialGradient id="paint59_radial" cx="0" cy="0" r="1" gradientUnits="userSpaceOnUse" gradientTransform="translate(554.789 146.326) rotate(138) scale(8.25 20)">
<stop stop-color="#FCFF5B"/>
<stop offset="1" stop-color="#FCB922"/>
</radialGradient>
<radialGradient id="paint60_radial" cx="0" cy="0" r="1" gradientUnits="userSpaceOnUse" gradientTransform="translate(546.057 154.188) rotate(138) scale(8 13)">
<stop stop-color="#FCFF5B"/>
<stop offset="1" stop-color="#FCB922"/>
</radialGradient>
<radialGradient id="paint61_radial" cx="0" cy="0" r="1" gradientUnits="userSpaceOnUse" gradientTransform="translate(566.122 136.121) rotate(138) scale(6)">
<stop stop-color="#FCFF5B"/>
<stop offset="1" stop-color="#FCB922"/>
</radialGradient>
<radialGradient id="paint62_radial" cx="0" cy="0" r="1" gradientUnits="userSpaceOnUse" gradientTransform="translate(558.913 138.576) rotate(138) scale(4)">
<stop stop-color="#FCFF5B"/>
<stop offset="1" stop-color="#FCB922"/>
</radialGradient>
<radialGradient id="paint63_radial" cx="0" cy="0" r="1" gradientUnits="userSpaceOnUse" gradientTransform="translate(562.928 143.035) rotate(138) scale(4)">
<stop stop-color="#FCFF5B"/>
<stop offset="1" stop-color="#FCB922"/>
</radialGradient>
<radialGradient id="paint64_radial" cx="0" cy="0" r="1" gradientUnits="userSpaceOnUse" gradientTransform="translate(588.729 195.269) rotate(-30) scale(34.3744)">
<stop stop-color="#63B2BB"/>
<stop offset="1" stop-color="#476D78"/>
</radialGradient>
<radialGradient id="paint65_radial" cx="0" cy="0" r="1" gradientUnits="userSpaceOnUse" gradientTransform="translate(589.486 195.809) rotate(150) scale(7 17)">
<stop stop-color="#FCFF5B"/>
<stop offset="1" stop-color="#FCB922"/>
</radialGradient>
<radialGradient id="paint66_radial" cx="0" cy="0" r="1" gradientUnits="userSpaceOnUse" gradientTransform="translate(613.312 250.265) rotate(-18) scale(34.3744)">
<stop stop-color="#63B2BB"/>
<stop offset="1" stop-color="#476D78"/>
</radialGradient>
<radialGradient id="paint67_radial" cx="0" cy="0" r="1" gradientUnits="userSpaceOnUse" gradientTransform="translate(613.312 250.265) rotate(-18) scale(34.3744)">
<stop stop-color="#B54ECA"/>
<stop offset="1" stop-color="#6D308A"/>
</radialGradient>
<radialGradient id="paint68_radial" cx="0" cy="0" r="1" gradientUnits="userSpaceOnUse" gradientTransform="translate(609.377 252.607) rotate(162) scale(8.25 20)">
<stop stop-color="#FCFF5B"/>
<stop offset="1" stop-color="#FCB922"/>
</radialGradient>
<radialGradient id="paint69_radial" cx="0" cy="0" r="1" gradientUnits="userSpaceOnUse" gradientTransform="translate(618.278 249.737) rotate(162) scale(5.5 16)">
<stop stop-color="#FCFF5B"/>
<stop offset="1" stop-color="#FCB922"/>
</radialGradient>
<radialGradient id="paint70_radial" cx="0" cy="0" r="1" gradientUnits="userSpaceOnUse" gradientTransform="translate(624.46 247.729) rotate(162) scale(3 8)">
<stop stop-color="#FCFF5B"/>
<stop offset="1" stop-color="#FCB922"/>
</radialGradient>
<radialGradient id="paint71_radial" cx="0" cy="0" r="1" gradientUnits="userSpaceOnUse" gradientTransform="translate(625.924 309.17) rotate(-6) scale(34.3744)">
<stop stop-color="#63B2BB"/>
<stop offset="1" stop-color="#476D78"/>
</radialGradient>
<radialGradient id="paint72_radial" cx="0" cy="0" r="1" gradientUnits="userSpaceOnUse" gradientTransform="translate(628.032 308.794) rotate(174) scale(8.25 20)">
<stop stop-color="#FCFF5B"/>
<stop offset="1" stop-color="#FCB922"/>
</radialGradient>
<radialGradient id="paint73_radial" cx="0" cy="0" r="1" gradientUnits="userSpaceOnUse" gradientTransform="translate(626.012 369.41) rotate(6) scale(34.3744)">
<stop stop-color="#6068BC"/>
<stop offset="1" stop-color="#333F74"/>
</radialGradient>
<radialGradient id="paint74_radial" cx="0" cy="0" r="1" gradientUnits="userSpaceOnUse" gradientTransform="translate(635.241 371.396) rotate(-174) scale(10)">
<stop stop-color="#FCFF5B"/>
<stop offset="1" stop-color="#FCB922"/>
</radialGradient>
<radialGradient id="paint75_radial" cx="0" cy="0" r="1" gradientUnits="userSpaceOnUse" gradientTransform="translate(620.323 369.828) rotate(-174) scale(7 17)">
<stop stop-color="#FCFF5B"/>
<stop offset="1" stop-color="#FCB922"/>
</radialGradient>
<radialGradient id="paint76_radial" cx="0" cy="0" r="1" gradientUnits="userSpaceOnUse" gradientTransform="translate(613.574 428.352) rotate(18) scale(34.3744)">
<stop stop-color="#B54ECA"/>
<stop offset="1" stop-color="#6D308A"/>
</radialGradient>
<radialGradient id="paint77_radial" cx="0" cy="0" r="1" gradientUnits="userSpaceOnUse" gradientTransform="translate(609.014 427.933) rotate(-162) scale(8.25 20)">
<stop stop-color="#FCFF5B"/>
<stop offset="1" stop-color="#FCB922"/>
</radialGradient>
<radialGradient id="paint78_radial" cx="0" cy="0" r="1" gradientUnits="userSpaceOnUse" gradientTransform="translate(617.902 430.844) rotate(-162) scale(5.5 16)">
<stop stop-color="#FCFF5B"/>
<stop offset="1" stop-color="#FCB922"/>
</radialGradient>
<radialGradient id="paint79_radial" cx="0" cy="0" r="1" gradientUnits="userSpaceOnUse" gradientTransform="translate(624.084 432.852) rotate(-162) scale(3 8)">
<stop stop-color="#FCFF5B"/>
<stop offset="1" stop-color="#FCB922"/>
</radialGradient>
<radialGradient id="paint80_radial" cx="0" cy="0" r="1" gradientUnits="userSpaceOnUse" gradientTransform="translate(589.154 483.42) rotate(30) scale(34.3744)">
<stop stop-color="#63B2BB"/>
<stop offset="1" stop-color="#476D78"/>
</radialGradient>
<radialGradient id="paint81_radial" cx="0" cy="0" r="1" gradientUnits="userSpaceOnUse" gradientTransform="translate(591.08 484.354) rotate(-150) scale(8.25 20)">
<stop stop-color="#FCFF5B"/>
<stop offset="1" stop-color="#FCB922"/>
</radialGradient>
<radialGradient id="paint82_radial" cx="0" cy="0" r="1" gradientUnits="userSpaceOnUse" gradientTransform="translate(553.817 532.207) rotate(42) scale(34.3744)">
<stop stop-color="#6068BC"/>
<stop offset="1" stop-color="#333F74"/>
</radialGradient>
<radialGradient id="paint83_radial" cx="0" cy="0" r="1" gradientUnits="userSpaceOnUse" gradientTransform="translate(558.63 537.9) rotate(-138) scale(10)">
<stop stop-color="#FCFF5B"/>
<stop offset="1" stop-color="#FCB922"/>
</radialGradient>
<radialGradient id="paint84_radial" cx="0" cy="0" r="1" gradientUnits="userSpaceOnUse" gradientTransform="translate(547.483 527.863) rotate(-138) scale(7 17)">
<stop stop-color="#FCFF5B"/>
<stop offset="1" stop-color="#FCB922"/>
</radialGradient>
<radialGradient id="paint85_radial" cx="0" cy="0" r="1" gradientUnits="userSpaceOnUse" gradientTransform="translate(509.11 572.581) rotate(54) scale(34.3744)">
<stop stop-color="#63B2BB"/>
<stop offset="1" stop-color="#476D78"/>
</radialGradient>
<radialGradient id="paint86_radial" cx="0" cy="0" r="1" gradientUnits="userSpaceOnUse" gradientTransform="translate(509.314 572.601) rotate(-126) scale(8.25 20)">
<stop stop-color="#FCFF5B"/>
<stop offset="1" stop-color="#FCB922"/>
</radialGradient>
<radialGradient id="paint87_radial" cx="0" cy="0" r="1" gradientUnits="userSpaceOnUse" gradientTransform="translate(456.985 602.778) rotate(66) scale(34.3744)">
<stop stop-color="#6068BC"/>
<stop offset="1" stop-color="#333F74"/>
</radialGradient>
<radialGradient id="paint88_radial" cx="0" cy="0" r="1" gradientUnits="userSpaceOnUse" gradientTransform="translate(459.066 609.937) rotate(-114) scale(10)">
<stop stop-color="#FCFF5B"/>
<stop offset="1" stop-color="#FCB922"/>
</radialGradient>
<radialGradient id="paint89_radial" cx="0" cy="0" r="1" gradientUnits="userSpaceOnUse" gradientTransform="translate(452.965 596.233) rotate(-114) scale(7 17)">
<stop stop-color="#FCFF5B"/>
<stop offset="1" stop-color="#FCB922"/>
</radialGradient>
<radialGradient id="paint90_radial" cx="0" cy="0" r="1" gradientUnits="userSpaceOnUse" gradientTransform="translate(399.721 621.478) rotate(78) scale(34.3744)">
<stop stop-color="#FF3C8E"/>
<stop offset="1" stop-color="#79364E"/>
</radialGradient>
<radialGradient id="paint91_radial" cx="0" cy="0" r="1" gradientUnits="userSpaceOnUse" gradientTransform="translate(399.721 621.478) rotate(78) scale(34.3744)">
<stop offset="0.0001" stop-color="#31BB3F"/>
<stop offset="1" stop-color="#449A4D"/>
</radialGradient>
<radialGradient id="paint92_radial" cx="0" cy="0" r="1" gradientUnits="userSpaceOnUse" gradientTransform="translate(399.773 625.468) rotate(-102) scale(8.25 20)">
<stop stop-color="#FCFF5B"/>
<stop offset="1" stop-color="#FCB922"/>
</radialGradient>
<radialGradient id="paint93_radial" cx="0" cy="0" r="1" gradientUnits="userSpaceOnUse" gradientTransform="translate(397.33 613.974) rotate(-102) scale(8 13)">
<stop stop-color="#FCFF5B"/>
<stop offset="1" stop-color="#FCB922"/>
</radialGradient>
<radialGradient id="paint94_radial" cx="0" cy="0" r="1" gradientUnits="userSpaceOnUse" gradientTransform="translate(402.112 636.472) rotate(-102) scale(8)">
<stop stop-color="#FCFF5B"/>
<stop offset="1" stop-color="#FCB922"/>
</radialGradient>
<radialGradient id="paint95_radial" cx="0" cy="0" r="1" gradientUnits="userSpaceOnUse" gradientTransform="translate(339.82 627.862) rotate(90) scale(34.3744)">
<stop stop-color="#F4AD35"/>
<stop offset="1" stop-color="#CB550D"/>
</radialGradient>
<radialGradient id="paint96_radial" cx="0" cy="0" r="1" gradientUnits="userSpaceOnUse" gradientTransform="translate(339.31 636.914) rotate(-90) scale(12.3)">
<stop stop-color="#FCFF5B"/>
<stop offset="1" stop-color="#FCB922"/>
</radialGradient>
<radialGradient id="paint97_radial" cx="0" cy="0" r="1" gradientUnits="userSpaceOnUse" gradientTransform="translate(352.065 620.514) rotate(-90) scale(7.74444)">
<stop stop-color="#FCFF5B"/>
<stop offset="1" stop-color="#FCB922"/>
</radialGradient>
<radialGradient id="paint98_radial" cx="0" cy="0" r="1" gradientUnits="userSpaceOnUse" gradientTransform="translate(339.31 615.047) rotate(-90) scale(7.74444)">
<stop stop-color="#FCFF5B"/>
<stop offset="1" stop-color="#FCB922"/>
</radialGradient>
<radialGradient id="paint99_radial" cx="0" cy="0" r="1" gradientUnits="userSpaceOnUse" gradientTransform="translate(326.554 620.514) rotate(-90) scale(7.74444)">
<stop stop-color="#FCFF5B"/>
<stop offset="1" stop-color="#FCB922"/>
</radialGradient>
</defs>
</svg>
