<svg width="120" height="120" viewBox="0 0 120 120" fill="none" xmlns="http://www.w3.org/2000/svg">
<path d="M113.354 73.3131C106.007 102.781 76.1612 120.714 46.6901 113.366C17.231 106.019 -0.702628 76.1717 6.64753 46.7058C13.9908 17.2347 43.8366 -0.700677 73.2992 6.64604C102.769 13.9928 120.7 43.8438 113.354 73.3131Z" fill="#F7931A"/>
<path d="M84.2554 52.1701C85.3504 44.8509 79.7776 40.9163 72.1576 38.2915L74.6294 28.3767L68.5942 26.8726L66.1877 36.5261C64.6011 36.1308 62.9716 35.7578 61.3524 35.3882L63.7761 25.6711L57.7443 24.167L55.2708 34.0784C53.9575 33.7793 52.6683 33.4836 51.4169 33.1725L51.4238 33.1415L43.1007 31.0634L41.4953 37.5094C41.4953 37.5094 45.9731 38.5356 45.8785 38.5992C48.3229 39.2094 48.7646 40.8269 48.6907 42.1092L45.8751 53.4043C46.0435 53.4473 46.2619 53.5092 46.5025 53.6054C46.3014 53.5556 46.0865 53.5006 45.8648 53.4473L41.9181 69.2701C41.619 70.0127 40.861 71.1265 39.1523 70.7037C39.2125 70.7913 34.7656 69.6087 34.7656 69.6087L31.7695 76.5171L39.6233 78.475C41.0844 78.8411 42.5163 79.2244 43.9258 79.5854L41.4282 89.6136L47.4565 91.1177L49.9301 81.196C51.5768 81.643 53.1754 82.0555 54.7396 82.444L52.2747 92.3192L58.3099 93.8233L60.8075 83.814C71.0987 85.7615 78.8374 84.976 82.0947 75.6679C84.7195 68.1734 81.9641 63.8503 76.5495 61.0312C80.4927 60.1219 83.463 57.528 84.2554 52.1701ZM70.4662 71.5064C68.6011 79.001 55.9824 74.9494 51.8914 73.9335L55.2055 60.6479C59.2965 61.669 72.4154 63.6904 70.4662 71.5064ZM72.3329 52.0618C70.6312 58.8791 60.1285 55.4155 56.7216 54.5663L59.7263 42.5166C63.1332 43.3658 74.1051 44.9506 72.3329 52.0618Z" fill="white"/>
</svg>
