<svg width="120" height="120" viewBox="0 0 120 120" fill="none" xmlns="http://www.w3.org/2000/svg">
<path d="M3 40.4326H116V36.3605C116 25.1158 106.884 16.0002 95.6396 16.0002H23.3604C12.1156 16.0002 3 25.1158 3 36.3605V40.4326Z" fill="#4781F2"/>
<path fill-rule="evenodd" clip-rule="evenodd" d="M3 54.6123H116V84.1348C116 95.3796 106.884 104.495 95.6396 104.495H23.3604C12.1156 104.495 3 95.3795 3 84.1348V54.6123ZM15.2162 71.4097C15.2162 69.4419 16.8115 67.8467 18.7793 67.8467H84.9504C86.9183 67.8467 88.5135 69.4419 88.5135 71.4097C88.5135 73.3775 86.9183 74.9728 84.9504 74.9728H18.7793C16.8115 74.9728 15.2162 73.3775 15.2162 71.4097ZM18.7793 83.1169C16.8115 83.1169 15.2162 84.7122 15.2162 86.68C15.2162 88.6478 16.8115 90.2431 18.7793 90.2431H50.3378C52.3057 90.2431 53.9009 88.6478 53.9009 86.68C53.9009 84.7122 52.3057 83.1169 50.3378 83.1169H18.7793Z" fill="#4781F2"/>
</svg>
