<svg width="120" height="120" viewBox="0 0 120 120" fill="none" xmlns="http://www.w3.org/2000/svg">
<path d="M91.1856 63.668V81.7055C91.1856 96.9155 76.9993 109.249 59.498 109.249C41.9968 109.249 27.8105 96.9155 27.8105 81.7055V63.668C27.8105 78.878 41.9968 89.7492 59.498 89.7492C76.9993 89.7492 91.1856 78.878 91.1856 63.668Z" stroke="#4781F2" stroke-width="7.3125" stroke-linecap="round" stroke-linejoin="round"/>
<path d="M91.1856 39.2942C91.1856 43.7305 89.9668 47.8255 87.8218 51.3355C82.6055 59.9155 71.8806 65.3755 59.498 65.3755C47.1155 65.3755 36.3905 59.9155 31.1743 51.3355C29.0293 47.8255 27.8105 43.7305 27.8105 39.2942C27.8105 31.6892 31.3693 24.8155 37.073 19.843C42.8255 14.8217 50.723 11.7505 59.498 11.7505C68.2731 11.7505 76.1706 14.8217 81.9231 19.7942C87.6268 24.8155 91.1856 31.6892 91.1856 39.2942Z" stroke="#4781F2" stroke-width="7.3125" stroke-linecap="round" stroke-linejoin="round"/>
<path d="M91.1856 39.2942V63.6692C91.1856 78.8792 76.9993 89.7505 59.498 89.7505C41.9968 89.7505 27.8105 78.8792 27.8105 63.6692V39.2942C27.8105 24.0842 41.9968 11.7505 59.498 11.7505C68.2731 11.7505 76.1706 14.8217 81.9231 19.7942C87.6268 24.8155 91.1856 31.6892 91.1856 39.2942Z" stroke="#4781F2" stroke-width="7.3125" stroke-linecap="round" stroke-linejoin="round"/>
</svg>
