<svg width="52" height="52" viewBox="0 0 52 52" fill="none" xmlns="http://www.w3.org/2000/svg">
<path d="M26.0008 31.782C29.1183 31.782 31.6456 29.2548 31.6456 26.1372C31.6456 23.0197 29.1183 20.4924 26.0008 20.4924C22.8832 20.4924 20.356 23.0197 20.356 26.1372C20.356 29.2548 22.8832 31.782 26.0008 31.782Z" fill="#FFD833"/>
<path d="M21.4729 21.188C19.7862 18.5873 18.7353 15.6262 18.4053 12.5441C15.8509 10.4154 11.7874 9.37004 6.21477 9.40806C6.1602 10.7587 6.24426 12.1114 6.46565 13.4449C7.60602 19.6485 12.7605 23.6056 18.8386 24.5179L19.3746 24.5863C19.7133 23.267 20.445 22.0818 21.4729 21.188Z" fill="#F54182"/>
<path d="M21.4729 21.188C19.7862 18.5873 18.7353 15.6262 18.4053 12.5441C15.8509 10.4154 11.7874 9.37004 6.21477 9.40806C6.1602 10.7587 6.24426 12.1114 6.46565 13.4449C7.60602 19.6485 12.7605 23.6056 18.8386 24.5179L19.3746 24.5863C19.7133 23.267 20.445 22.0818 21.4729 21.188Z" fill="url(#paint0_radial)"/>
<path d="M10.7539 34.382C9.16499 36.8148 8.15007 40.2891 7.70913 44.8049C9.96073 45.1938 12.2706 45.0769 14.4715 44.4628C16.2529 43.9257 17.898 43.0117 19.2952 41.783L19.6145 41.4637C21.8811 38.9944 23.4135 35.9415 24.0391 32.6487C23.0249 32.3508 22.1002 31.8062 21.3479 31.0636C18.2156 33.1788 14.5332 34.3322 10.7539 34.382Z" fill="#F54182"/>
<path d="M10.7539 34.382C9.16499 36.8148 8.15007 40.2891 7.70913 44.8049C9.96073 45.1938 12.2706 45.0769 14.4715 44.4628C16.2529 43.9257 17.898 43.0117 19.2952 41.783L19.6145 41.4637C21.8811 38.9944 23.4135 35.9415 24.0391 32.6487C23.0249 32.3508 22.1002 31.8062 21.3479 31.0636C18.2156 33.1788 14.5332 34.3322 10.7539 34.382Z" fill="url(#paint1_radial)"/>
<path d="M9.64749 22.4538C9.28183 22.1564 8.93165 21.8405 8.59835 21.5073C5.43211 22.5315 2.50686 24.1881 0 26.3766C1.2765 28.2779 2.96401 29.868 4.93778 31.0293C6.56457 31.9636 8.38961 32.499 10.2633 32.5916H10.765C14.1553 32.5454 17.4562 31.498 20.2529 29.5811C19.6728 28.6102 19.3509 27.5071 19.3178 26.3766C15.8001 25.9629 12.4592 24.6077 9.64749 22.4538Z" fill="#F54182"/>
<path d="M9.64749 22.4538C9.28183 22.1564 8.93165 21.8405 8.59835 21.5073C5.43211 22.5315 2.50686 24.1881 0 26.3766C1.2765 28.2779 2.96401 29.868 4.93778 31.0293C6.56457 31.9636 8.38961 32.499 10.2633 32.5916H10.765C14.1553 32.5454 17.4562 31.498 20.2529 29.5811C19.6728 28.6102 19.3509 27.5071 19.3178 26.3766C15.8001 25.9629 12.4592 24.6077 9.64749 22.4538Z" fill="url(#paint2_radial)"/>
<path d="M30.4593 31.4398C32.1133 34.1413 33.1166 37.1903 33.3901 40.3461C35.9065 42.5052 39.9586 43.6075 45.5464 43.6531C46.0139 43.6531 45.0788 38.0311 44.9306 37.5636C43.1858 32.1012 38.0884 28.7942 32.5462 28.0301C32.2055 29.3491 31.4789 30.5364 30.4593 31.4398Z" fill="#F54182"/>
<path d="M30.4593 31.4398C32.1133 34.1413 33.1166 37.1903 33.3901 40.3461C35.9065 42.5052 39.9586 43.6075 45.5464 43.6531C46.0139 43.6531 45.0788 38.0311 44.9306 37.5636C43.1858 32.1012 38.0884 28.7942 32.5462 28.0301C32.2055 29.3491 31.4789 30.5364 30.4593 31.4398Z" fill="url(#paint3_radial)"/>
<path d="M41.3612 18.1546C42.9805 15.7142 44.0449 12.1943 44.5542 7.59481C43.3973 7.40279 42.226 7.31122 41.0533 7.32112C39.8505 7.38117 38.6613 7.60366 37.5182 7.98253C32.2953 9.70448 29.1023 14.4826 28.0532 19.7169C29.0644 20.0418 29.9806 20.6095 30.7216 21.3704C33.8712 19.2681 37.5744 18.1488 41.3612 18.1546Z" fill="#F54182"/>
<path d="M41.3612 18.1546C42.9805 15.7142 44.0449 12.1943 44.5542 7.59481C43.3973 7.40279 42.226 7.31122 41.0533 7.32112C39.8505 7.38117 38.6613 7.60366 37.5182 7.98253C32.2953 9.70448 29.1023 14.4826 28.0532 19.7169C29.0644 20.0418 29.9806 20.6095 30.7216 21.3704C33.8712 19.2681 37.5744 18.1488 41.3612 18.1546Z" fill="url(#paint4_radial)"/>
<path d="M42.2964 30.311C42.6616 30.6209 43.0081 30.9522 43.3341 31.3031C46.524 30.2971 49.4737 28.6476 52.0009 26.4565C50.7542 24.5178 49.0907 22.8815 47.1316 21.667C45.5215 20.6982 43.7037 20.1275 41.8289 20.0021H41.3271C37.9305 20.0219 34.6148 21.0411 31.7936 22.9328C32.3678 23.9375 32.6778 25.0714 32.6945 26.2285C36.2038 26.7018 39.5207 28.1121 42.2964 30.311Z" fill="#F54182"/>
<path d="M42.2964 30.311C42.6616 30.6209 43.0081 30.9522 43.3341 31.3031C46.524 30.2971 49.4737 28.6476 52.0009 26.4565C50.7542 24.5178 49.0907 22.8815 47.1316 21.667C45.5215 20.6982 43.7037 20.1275 41.8289 20.0021H41.3271C37.9305 20.0219 34.6148 21.0411 31.7936 22.9328C32.3678 23.9375 32.6778 25.0714 32.6945 26.2285C36.2038 26.7018 39.5207 28.1121 42.2964 30.311Z" fill="url(#paint5_radial)"/>
<path d="M20.0476 11.9966V12.0537C20.4432 14.9203 21.4212 17.6757 22.9214 20.1502C23.8539 19.6489 24.896 19.3864 25.9547 19.3862H26.0802C26.7769 15.7571 28.4755 12.3955 30.9837 9.68169V9.60187C30.5048 6.72055 28.8246 3.51992 25.9433 0C24.0838 1.33898 22.5292 3.05686 21.3819 5.04041C20.5694 6.48855 20.0611 8.08728 19.888 9.73871C19.8766 9.84865 19.8766 9.95948 19.888 10.0694C19.8941 10.7149 19.9474 11.359 20.0476 11.9966Z" fill="#F54182"/>
<path d="M20.0476 11.9966V12.0537C20.4432 14.9203 21.4212 17.6757 22.9214 20.1502C23.8539 19.6489 24.896 19.3864 25.9547 19.3862H26.0802C26.7769 15.7571 28.4755 12.3955 30.9837 9.68169V9.60187C30.5048 6.72055 28.8246 3.51992 25.9433 0C24.0838 1.33898 22.5292 3.05686 21.3819 5.04041C20.5694 6.48855 20.0611 8.08728 19.888 9.73871C19.8766 9.84865 19.8766 9.95948 19.888 10.0694C19.8941 10.7149 19.9474 11.359 20.0476 11.9966Z" fill="url(#paint6_radial)"/>
<path d="M32.0046 40.1576C32.0046 39.9544 31.9473 39.7625 31.9129 39.5705C31.4459 36.93 30.4982 34.3942 29.1155 32.0854C28.1781 32.5687 27.1355 32.8205 26.0774 32.8193H25.9513C25.2534 36.4163 23.5455 39.7487 21.0215 42.4381V42.5059C21.5871 45.3659 23.3144 48.5308 26.2035 52.0005C27.2027 51.2528 28.1313 50.4177 28.978 49.5055C29.7397 48.6774 30.3767 47.7459 30.8696 46.7395C31.8768 44.6968 32.2706 42.4132 32.0046 40.1576Z" fill="#F54182"/>
<path d="M32.0046 40.1576C32.0046 39.9544 31.9473 39.7625 31.9129 39.5705C31.4459 36.93 30.4982 34.3942 29.1155 32.0854C28.1781 32.5687 27.1355 32.8205 26.0774 32.8193H25.9513C25.2534 36.4163 23.5455 39.7487 21.0215 42.4381V42.5059C21.5871 45.3659 23.3144 48.5308 26.2035 52.0005C27.2027 51.2528 28.1313 50.4177 28.978 49.5055C29.7397 48.6774 30.3767 47.7459 30.8696 46.7395C31.8768 44.6968 32.2706 42.4132 32.0046 40.1576Z" fill="url(#paint7_radial)"/>
<defs>
<radialGradient id="paint0_radial" cx="0" cy="0" r="1" gradientUnits="userSpaceOnUse" gradientTransform="translate(26.0005 26.0005) scale(26.0005 34.5162)">
<stop stop-color="#FF8F50"/>
<stop offset="0.694393" stop-color="#FF4D7A"/>
<stop offset="1" stop-color="#FF4182"/>
</radialGradient>
<radialGradient id="paint1_radial" cx="0" cy="0" r="1" gradientUnits="userSpaceOnUse" gradientTransform="translate(26.0005 26.0005) scale(26.0005 34.5162)">
<stop stop-color="#FF8F50"/>
<stop offset="0.694393" stop-color="#FF4D7A"/>
<stop offset="1" stop-color="#FF4182"/>
</radialGradient>
<radialGradient id="paint2_radial" cx="0" cy="0" r="1" gradientUnits="userSpaceOnUse" gradientTransform="translate(26.0005 26.0005) scale(26.0005 34.5162)">
<stop stop-color="#FF8F50"/>
<stop offset="0.694393" stop-color="#FF4D7A"/>
<stop offset="1" stop-color="#FF4182"/>
</radialGradient>
<radialGradient id="paint3_radial" cx="0" cy="0" r="1" gradientUnits="userSpaceOnUse" gradientTransform="translate(26.0005 26.0005) scale(26.0005 34.5162)">
<stop stop-color="#FF8F50"/>
<stop offset="0.694393" stop-color="#FF4D7A"/>
<stop offset="1" stop-color="#FF4182"/>
</radialGradient>
<radialGradient id="paint4_radial" cx="0" cy="0" r="1" gradientUnits="userSpaceOnUse" gradientTransform="translate(26.0005 26.0005) scale(26.0005 34.5162)">
<stop stop-color="#FF8F50"/>
<stop offset="0.694393" stop-color="#FF4D7A"/>
<stop offset="1" stop-color="#FF4182"/>
</radialGradient>
<radialGradient id="paint5_radial" cx="0" cy="0" r="1" gradientUnits="userSpaceOnUse" gradientTransform="translate(26.0005 26.0005) scale(26.0005 34.5162)">
<stop stop-color="#FF8F50"/>
<stop offset="0.694393" stop-color="#FF4D7A"/>
<stop offset="1" stop-color="#FF4182"/>
</radialGradient>
<radialGradient id="paint6_radial" cx="0" cy="0" r="1" gradientUnits="userSpaceOnUse" gradientTransform="translate(26.0005 26.0005) scale(26.0005 34.5162)">
<stop stop-color="#FF8F50"/>
<stop offset="0.694393" stop-color="#FF4D7A"/>
<stop offset="1" stop-color="#FF4182"/>
</radialGradient>
<radialGradient id="paint7_radial" cx="0" cy="0" r="1" gradientUnits="userSpaceOnUse" gradientTransform="translate(26.0005 26.0005) scale(26.0005 34.5162)">
<stop stop-color="#FF8F50"/>
<stop offset="0.694393" stop-color="#FF4D7A"/>
<stop offset="1" stop-color="#FF4182"/>
</radialGradient>
</defs>
</svg>
