<svg width="120" height="120" viewBox="0 0 120 120" fill="none" xmlns="http://www.w3.org/2000/svg">
<g clip-path="url(#clip0_992_48)">
<path fill-rule="evenodd" clip-rule="evenodd" d="M21.789 8.50842L0.091158 54.0848C0.0085913 54.2543 -0.0175736 54.4458 0.0164898 54.6313C0.0505531 54.8168 0.143058 54.9864 0.280475 55.1156L58.8812 111.269C59.0477 111.429 59.2694 111.518 59.5 111.518C59.7306 111.518 59.9523 111.429 60.1188 111.269L118.72 55.1191C118.857 54.9899 118.949 54.8203 118.984 54.6348C119.018 54.4493 118.991 54.2579 118.909 54.0883L97.211 8.51193C97.141 8.35886 97.0283 8.2292 96.8866 8.13843C96.7448 8.04766 96.58 7.99962 96.4116 8.00007H22.5954C22.4263 7.99796 22.2601 8.04484 22.1171 8.13504C21.974 8.22524 21.8601 8.35492 21.789 8.50842Z" fill="#50AF95"/>
<path fill-rule="evenodd" clip-rule="evenodd" d="M67.0293 58.765C66.6085 58.7965 64.4349 58.9262 59.5863 58.9262C55.7298 58.9262 52.9917 58.8105 52.0311 58.765C37.1276 58.1094 26.0035 55.515 26.0035 52.4088C26.0035 49.3026 37.1276 46.7118 52.0311 46.0456V56.1811C53.0057 56.2513 55.7964 56.416 59.6529 56.416C64.2806 56.416 66.598 56.2232 67.0152 56.1846V46.0527C81.8872 46.7153 92.9868 49.3096 92.9868 52.4088C92.9868 55.508 81.8907 58.1024 67.0152 58.7615L67.0293 58.765ZM67.0293 45.0044V35.9347H87.784V22.104H31.2763V35.9347H52.0276V45.0009C35.1608 45.7757 22.4766 49.1168 22.4766 53.1205C22.4766 57.1242 35.1608 60.4618 52.0276 61.2401V90.3038H67.0257V61.2296C83.854 60.4548 96.5172 57.1172 96.5172 53.117C96.5172 49.1168 83.8645 45.7792 67.0257 45.0009L67.0293 45.0044Z" fill="white"/>
<circle cx="91" cy="84" r="28" fill="#FF4141"/>
<path d="M108.278 79.8576C106.699 78.4004 104.516 76.1751 102.738 74.5968L102.633 74.5232C102.458 74.3826 102.26 74.2723 102.049 74.197C97.7613 73.3974 77.8071 69.6675 77.4178 69.7148C77.3088 69.7301 77.2045 69.7696 77.1127 69.8305L77.0128 69.9095C76.8897 70.0344 76.7962 70.1855 76.7392 70.3514L76.7129 70.4197V70.7933V70.8511C78.9592 77.1062 87.8289 97.597 89.5755 102.405C89.6807 102.732 89.8807 103.352 90.2542 103.384H90.3383C90.5383 103.384 91.3905 102.258 91.3905 102.258C91.3905 102.258 106.626 83.7822 108.167 81.8146C108.367 81.5723 108.543 81.3116 108.693 81.036C108.732 80.8204 108.714 80.5986 108.641 80.3921C108.568 80.1855 108.443 80.0014 108.278 79.8576ZM95.2993 82.0093L101.802 76.617L105.616 80.1312L95.2993 82.0093ZM92.7741 81.6568L81.5791 72.482L99.692 75.8226L92.7741 81.6568ZM93.7842 84.061L105.242 82.2144L92.1428 97.9968L93.7842 84.061ZM80.0588 73.3974L91.8377 83.3929L90.1332 98.0073L80.0588 73.3974Z" fill="white"/>
</g>
<defs>
<clipPath id="clip0_992_48">
<rect width="119" height="103.518" fill="white" transform="translate(0 8)"/>
</clipPath>
</defs>
</svg>
