<svg width="120" height="120" viewBox="0 0 120 120" fill="none" xmlns="http://www.w3.org/2000/svg">
<path d="M109.613 39.3316C104.582 34.6867 97.623 27.5935 91.9551 22.5628L91.6198 22.3281C91.0618 21.88 90.4326 21.5286 89.7584 21.2884C76.0919 18.7396 12.4879 6.85051 11.247 7.00142C10.8993 7.05012 10.567 7.17619 10.2744 7.37034L9.95582 7.62187C9.56351 8.0203 9.26554 8.50163 9.08384 9.03045L9 9.24844V10.439V10.6235C16.1603 30.5616 44.4324 95.8759 49.9997 111.203C50.335 112.242 50.9723 114.221 52.1628 114.322H52.4311C53.0684 114.322 55.7849 110.733 55.7849 110.733C55.7849 110.733 104.347 51.8411 109.261 45.5696C109.897 44.7971 110.458 43.9661 110.937 43.0878C111.06 42.4006 111.002 41.6935 110.77 41.0352C110.538 40.3769 110.139 39.79 109.613 39.3316ZM68.2441 46.1901L88.9703 29.0021L101.128 40.2036L68.2441 46.1901ZM60.1951 45.0665L24.5111 15.8218L82.246 26.47L60.1951 45.0665ZM63.4147 52.7299L99.9371 46.844L58.1828 97.1504L63.4147 52.7299ZM19.6649 18.7396L57.2102 50.6002L51.7772 97.1839L19.6649 18.7396Z" fill="#FF0000"/>
</svg>
