<svg width="38.02" height="27" viewBox="0 0 38 27" fill="none" xmlns="http://www.w3.org/2000/svg"><path class="YooMoneyLogoBrandColor" d="M24.5225 0C17.0035 0 11.0225 6.06646 11.0225 13.5C11.0225 21.019 17.0889 27 24.5225 27C31.956 27 38.0225 20.9335 38.0225 13.5C38.1079 6.06646 31.956 0 24.5225 0ZM24.5225 18.5411C21.7883 18.5411 19.4813 16.2342 19.4813 13.5C19.4813 10.7658 21.7883 8.45886 24.5225 8.45886C27.2566 8.45886 29.5636 10.7658 29.5636 13.5C29.5636 16.2342 27.3421 18.5411 24.5225 18.5411Z" fill="#8b3ffd"></path><path fill="#8b3ffd" class="YooMoneyLogoBrandColor" d="M11.0222 3.93005V23.5819H6.1519L0 3.93005H11.0222Z"></path></svg>